<?xml version="1.0" encoding="utf-8"?>
<!-- Generator: Adobe Illustrator 24.0.2, SVG Export Plug-In . SVG Version: 6.00 Build 0)  -->
<svg version="1.1" xmlns="http://www.w3.org/2000/svg" xmlns:xlink="http://www.w3.org/1999/xlink" x="0px" y="0px"
	 viewBox="0 0 24 24" style="enable-background:new 0 0 24 24;" xml:space="preserve">
<style type="text/css">
	.st0{fill:none;}
	.st1{fill:#121331;}
</style>
<g id="bounding_box">
	<rect y="0" class="st0" width="24" height="24"/>
</g>
<g id="design">
	<g>
		<path class="st1" d="M21.78,12.53l-3.94,4c-0.15,0.15-0.34,0.22-0.53,0.22s-0.38-0.07-0.53-0.22c-0.3-0.29-0.3-0.76-0.01-1.06
			l2.69-2.72H2.75C2.34,12.75,2,12.41,2,12c0-0.41,0.34-0.75,0.75-0.75h16.71l-2.69-2.72c-0.29-0.3-0.29-0.77,0.01-1.06
			c0.29-0.3,0.77-0.29,1.06,0l3.94,4C22.07,11.77,22.07,12.23,21.78,12.53z"/>
	</g>
</g>
</svg>
