<?xml version="1.0" encoding="utf-8"?>
<!-- Generator: Adobe Illustrator 16.0.0, SVG Export Plug-In . SVG Version: 6.00 Build 0)  -->
<!DOCTYPE svg PUBLIC "-//W3C//DTD SVG 1.1//EN" "http://www.w3.org/Graphics/SVG/1.1/DTD/svg11.dtd">
<svg version="1.1" id="Layer_1" xmlns="http://www.w3.org/2000/svg" xmlns:xlink="http://www.w3.org/1999/xlink" x="0px" y="0px"
	 width="432px" height="288px" viewBox="0 0 432 288" enable-background="new 0 0 432 288" xml:space="preserve">
<g opacity="0.1">
	<g>
		<path fill="#001A35" d="M51.146,231.324c0,0-1.04-0.488-3.119-1.466c-2.165-0.888-3.87-2.417-5.113-4.587
			c-1.05-1.736-1.613-3.491-1.688-5.269c-0.089-2.128,0.298-4.501,1.162-7.119c1.56-5.05,3.851-9.551,6.875-13.503l0.242-0.547
			c3.181-4.405,5.706-7.625,7.573-9.662c5.161-5.646,10.463-10.365,15.886-14.157c0.172-0.095,0.388-0.215,0.652-0.36
			c0.258-0.146,0.429-0.307,0.509-0.487l-0.568-0.912c-1.313-1.633-2.702-2.995-4.164-4.091c-1.839-1.434-4.313-2.352-7.43-2.754
			c-1.518-0.203-2.939-0.275-4.267-0.216c-1.769,0.073-3.707,0.336-5.817,0.779l-0.646,0.428l-1.682,1.14
			c-0.438,0.199-0.911,0.439-1.433,0.728c-0.517,0.292-1.039,0.581-1.557,0.869l-0.527,0.154c-0.347,0.194-0.876,0.305-1.581,0.334
			c-0.53,0.022-0.978-0.003-1.335-0.074l-0.137-0.128l-0.279-0.254c-0.271-0.166-0.547-0.424-0.83-0.767
			c-0.373-0.428-0.572-0.999-0.601-1.711c-0.026-0.62,0.04-1.111,0.201-1.476c0.558-1.444,1.396-2.638,2.509-3.576l2.298-2.232
			c4.376-3.478,8.957-8.389,13.738-14.732c2.689-3.493,4.564-7.31,5.634-11.447c0.305-1.082,0.431-2.333,0.371-3.755
			c-0.055-1.241-0.18-2.169-0.384-2.783c-0.325-1.409-1.263-2.66-2.817-3.75c-1.744-1.349-3.82-2.285-6.236-2.804
			c-1.346-0.385-3.169-0.533-5.467-0.434c-1.95,0.083-3.933,0.347-5.953,0.788c-3.69,0.779-8.009,2.431-12.954,4.956
			c-2.427,1.35-4.72,2.736-6.872,4.162c-4.406,2.771-8.23,6.624-11.479,11.566l-2.614,4.248c-0.662,1.096-1.203,1.92-1.62,2.473
			l-0.639,0.694l-0.124,0.137l-0.133,0.139l-0.13,0.006c-0.444-0.068-0.902-0.404-1.372-1.007l-0.014-0.27
			c0.226-0.985,0.586-1.892,1.086-2.71c3.285-6.193,7.453-11.352,12.51-15.481c2.313-1.879,5.674-4.066,10.093-6.568
			c4.59-2.51,9.035-4.299,13.334-5.374c2.715-0.737,5.182-1.156,7.394-1.25c0.885-0.039,2.039,0.005,3.462,0.121
			c3.387,0.388,6.44,1.326,9.163,2.81c4.801,2.464,7.328,6.626,7.577,12.489c0.129,3.021-0.336,6.266-1.384,9.732
			c-1.051,3.473-2.331,6.26-3.834,8.373c-3.605,4.87-6.938,8.836-10.001,11.901l-0.513,0.421l0.006,0.135
			c0.088,0.085,0.18,0.105,0.266,0.056c0.087-0.046,0.175-0.076,0.265-0.077l0.263-0.012c6.091-0.616,11.375,0.626,15.849,3.726
			c0.552,0.423,1.053,0.825,1.519,1.205c0.455,0.381,0.87,0.743,1.24,1.082l0.83,0.763l1.107,1.021
			c0.007,0.18,0.29,0.522,0.842,1.033c6.4-3.743,12.802-6.419,19.209-8.026l0.654-0.161c0.621-0.027,1.027,0.156,1.223,0.549
			c0.192,0.391-0.016,0.688-0.628,0.893c-2.966,1.106-6.685,2.777-11.157,5.016c-4.472,2.235-6.832,3.491-7.086,3.77l-0.261,0.144
			c-0.081,0.184-0.025,0.448,0.166,0.794l0.148,0.264c2.791,5.217,4.3,10.537,4.531,15.951c0.219,5.15-0.843,10.443-3.183,15.882
			c-3.226,7.611-8.016,13.821-14.375,18.629c-3.43,2.726-7.038,4.436-10.817,5.132c-0.879,0.215-1.626,0.333-2.244,0.36
			C52.254,231.277,51.146,231.324,51.146,231.324z M29.877,203.143c-0.53,0.022-1.094-0.134-1.68-0.463
			c-0.59-0.328-1.072-0.711-1.448-1.141c-0.929-1.025-1.453-1.892-1.57-2.601c-0.486-1.047-0.988-2.404-1.504-4.072
			c-0.264-2.036-0.555-4.733-0.876-8.104c-0.183-4.349,0.161-9.834,1.035-16.457c0.395-3.22,1.13-6.807,2.2-10.771
			c0.604-2.604,1.71-5.676,3.336-9.215c0.218-1.076,0.824-2.525,1.811-4.347c0.304-1.167,1.009-2.288,2.114-3.36
			c1.109-1.071,2.148-1.626,3.126-1.666c0.794-0.034,1.341,0.34,1.642,1.128l0.298,0.789c-0.029,1.427-0.156,2.566-0.388,3.42
			c-0.229,0.857-0.586,1.849-1.07,2.982c-0.482,1.133-0.804,1.925-0.965,2.376c-0.071,0.36-0.152,0.587-0.237,0.675
			c-1.968,5.87-3.256,9.973-3.865,12.311c-0.445,2.064-1.057,5.428-1.833,10.086c-0.531,4.292-0.678,8.082-0.452,11.361
			c0.159,3.644,0.577,7.272,1.261,10.891c0.191,0.347,0.348,0.852,0.462,1.513c0.117,0.663,0.229,1.215,0.338,1.655l-0.199,1.609
			C31.185,202.639,30.672,203.105,29.877,203.143z M51.925,224.487c1.062-0.047,2.11-0.358,3.149-0.935
			c5.03-2.617,8.943-5.453,11.743-8.509c3.971-4.526,6.864-9.5,8.676-14.914c0.547-1.713,0.998-3.556,1.36-5.53l0.329-1.615
			c0.443-2.154,0.616-4.339,0.523-6.561c-0.096-2.309-0.463-4.65-1.098-7.027c-0.224-1.145-0.571-1.974-1.035-2.492
			c-0.687,0.565-1.203,0.944-1.546,1.135c-2.15,1.606-3.354,2.503-3.609,2.689c-7.109,5.997-12.617,11.927-16.534,17.789
			c-3.857,5.32-6.387,10.411-7.6,15.268c-0.541,1.891-0.773,3.723-0.699,5.5c0.27,2.125,1.398,3.679,3.388,4.66
			C50.056,224.344,51.037,224.524,51.925,224.487z"/>
		<path fill="#001A35" d="M104.674,195.282c-2.039,0.087-3.885-0.68-5.549-2.299c-1.666-1.616-3.006-3.961-4.022-7.036
			c-0.117-0.702-0.216-1.9-0.288-3.59c-0.126-3.017-0.014-6.205,0.328-9.555c0.348-3.351,0.846-5.663,1.505-6.936
			c0.571-1.18,1.286-2.102,2.14-2.76c0.515-0.467,1.169-0.718,1.964-0.751c1.062-0.046,2.018,0.491,2.86,1.612
			c0.281,0.345,0.434,0.826,0.462,1.448c0.015,0.354-0.032,0.802-0.142,1.339c-0.109,0.54-0.159,0.988-0.144,1.341
			c-0.145,0.806-0.287,1.594-0.432,2.354c-0.144,0.765-0.213,1.276-0.2,1.543c-0.081,0.268-0.112,0.604-0.093,1.006
			c0.018,0.398-0.053,0.868-0.205,1.408c-0.482,3.314-0.735,6.749-0.759,10.309c0.075,1.777,0.553,3.203,1.44,4.275
			c0.889,1.075,1.951,1.583,3.195,1.531c1.325-0.058,2.621-0.82,3.889-2.302c3.11-3.956,5.377-7.476,6.8-10.564
			c1.421-3.084,2.879-7.862,4.379-14.331c0.071-0.449,0.281-0.682,0.636-0.693c0.267-0.013,0.515,0.134,0.753,0.433
			c0.232,0.305,0.312,0.635,0.237,0.99c-1.131,6.812-3.075,13.213-5.833,19.2c-2.762,5.987-5.843,9.634-9.243,10.934
			C107.138,194.866,105.911,195.231,104.674,195.282z M101.324,155.393c-0.501-0.246-0.808-0.721-0.928-1.43
			c-0.103-0.349-0.162-0.748-0.183-1.193c-0.045-1.063,0.451-1.93,1.485-2.598c0.788-0.3,1.356-0.459,1.71-0.475
			c0.444-0.018,0.89,0.142,1.352,0.477c0.822,0.59,1.249,1.282,1.285,2.082c0.01,0.265,0.066,0.576,0.171,0.926
			c0.102,0.353,0.03,0.712-0.219,1.075c-0.165,0.365-0.354,0.641-0.564,0.826c-0.213,0.19-0.498,0.355-0.842,0.502
			c-0.349,0.149-0.657,0.274-0.918,0.374C102.604,155.826,101.818,155.639,101.324,155.393z"/>
		<path fill="#001A35" d="M131.381,194.81c-0.13-0.881-0.305-1.922-0.533-3.112c-0.229-1.191-0.356-2.188-0.393-2.984
			c-0.04-0.977,0.055-1.915,0.282-2.815c-0.015-2.4,0.152-4.724,0.502-6.959c0.349-2.237,0.926-5.29,1.741-9.15l0.55-2.692
			c-4.897-0.501-8.627-1.188-11.192-2.06c-2.559-0.868-4.725-2.285-6.495-4.259c-0.65-0.683-1.2-1.637-1.648-2.865
			c-0.453-1.226-0.708-2.506-0.761-3.839c-0.089-2.04,0.283-3.834,1.098-5.384c0.413-0.816,1.086-1.601,2.029-2.355
			c0.775-0.564,1.56-0.866,2.355-0.899c0.887-0.039,1.696,0.239,2.427,0.83c1.468,1.095,2.414,2.432,2.832,4.016
			c0.529,2.023,0.832,3.97,0.912,5.832c0.048,1.156,0.04,2.047-0.021,2.67c-0.133,1.075-0.189,1.834-0.167,2.277
			c0.096,0.262,0.328,0.475,0.691,0.639l3.622,0.776c0.624,0.065,1.515,0.184,2.675,0.354c1.157,0.174,2.183,0.238,3.068,0.203
			c1.771,0.013,3.145,0.513,4.119,1.492c0.973,0.982,1.495,2.359,1.572,4.136c-0.052,0.893-0.22,2.234-0.495,4.025
			c-0.144,0.807-0.396,2.218-0.751,4.235c-0.363,2.018-0.594,3.829-0.7,5.435c-0.245,2.681-0.331,4.774-0.271,6.283
			c0.1,2.312,0.5,4.514,1.214,6.62c0.212,0.879,0.592,1.441,1.134,1.688c1.041-0.581,1.93-1.553,2.669-2.919
			c1.486-2.552,2.557-4.513,3.208-5.873c2.36-4.904,5.722-13.499,10.078-25.785c0.246-0.542,0.584-0.824,1.028-0.845
			c0.439-0.018,0.761,0.167,0.957,0.56c0.194,0.392,0.123,0.862-0.208,1.411c-0.861,2.704-2.184,6.543-3.969,11.51
			c-1.785,4.973-3.394,9.309-4.833,13.02c-1.439,3.71-1.799,4.567-1.088,2.582c-0.479,1.267-1.535,3.534-3.167,6.805
			c-0.581,1.005-1.295,1.924-2.144,2.761c-1.014,1.198-2.273,1.832-3.777,1.897c-1.24,0.05-2.36-0.213-3.359-0.791
			C133.456,199.881,131.859,197.726,131.381,194.81z M122.075,160.379l0.247-0.545c0.108-1.604,0.142-2.895,0.102-3.874l-0.25-2.657
			c-0.366-2.387-1.367-4.033-3-4.944l-0.266,0.011c-0.708,0.032-1.264,0.454-1.675,1.275c-0.58,0.913-0.838,2.124-0.776,3.633
			c0.054,1.246,0.395,2.5,1.022,3.761c0.631,1.263,1.446,2.186,2.445,2.766l1.625,0.729L122.075,160.379z"/>
		<path fill="#001A35" d="M216.23,122.871c0.175-0.009,0.313,0.076,0.406,0.249c0.096,0.175,0.064,0.443-0.097,0.804l-1.751,2.611
			c-2.991,4.754-7.142,8.268-12.454,10.54c-3.656,1.579-6.454,2.542-8.384,2.892c-3.078,0.665-6.031,1.059-8.858,1.18
			c-1.154,0.05-2.795,0.029-4.926-0.058c-2.926-0.052-6.586-0.564-10.968-1.534c-1.246,6.191-2.124,11.658-2.633,16.394
			c-0.189,1.789-0.301,3.327-0.334,4.618c-0.038,1.289-0.077,2.384-0.127,3.273c-0.312,3.128-0.375,6.868-0.191,11.218
			c0.12,2.843,0.253,4.973,0.402,6.387c0.497,5.406,1.835,10.865,4.022,16.377c1.559,3.402,3.092,5.07,4.598,5.01
			c1.946-0.084,3.701-2.585,5.268-7.498c1.562-4.915,3.351-11.908,5.361-20.98c1.727-7.367,2.782-11.73,3.169-13.078
			c0.229-0.812,0.654-1.229,1.278-1.256c0.348-0.015,0.625,0.153,0.818,0.499c0.192,0.349,0.212,0.836,0.063,1.466
			c-0.753,3.146-1.638,7.455-2.647,12.923c-1.465,7.267-2.744,13.151-3.838,17.644c-1.096,4.494-2.532,8.313-4.301,11.46
			c-1.775,3.146-3.9,4.771-6.377,4.875c-3.186,0.138-6.836-2.289-10.945-7.271c-3.229-5.113-5.071-12.949-5.518-23.519
			c-0.146-3.465-0.158-6.844-0.031-10.141c0.098-4.009,0.397-8.469,0.897-13.383c0.781-6.706,1.685-12.527,2.716-17.463
			l-4.059-1.695c-4.049-1.429-7.949-2.418-11.694-2.972c-2.231-0.349-4.272-0.486-6.133-0.405c-7.081,0.3-13.229,2.699-18.445,7.19
			c-1.962,1.776-3.357,3.394-4.185,4.851c-0.536-0.157-0.85-0.231-0.941-0.227c-0.001-0.087-0.026-0.199-0.079-0.332
			c-0.05-0.13-0.032-0.242,0.052-0.335c0.811-1.814,1.817-3.234,3.014-4.266c3.676-3.18,7.218-5.421,10.616-6.725
			c4.104-1.508,7.972-2.34,11.598-2.495c5.666-0.242,11.33,0.672,17.004,2.743c1.799,0.639,3.147,1.068,4.043,1.296l0.802-3.103
			c0.833-3.238,1.947-6.224,3.342-8.951c0.893-1.906,1.931-3.551,3.112-4.938l0.764-0.831c0.174-0.096,0.456-0.289,0.843-0.571
			c0.383-0.282,0.797-0.435,1.241-0.453c0.982,0.137,1.709,0.594,2.186,1.375c0.1,0.262,0.161,0.658,0.182,1.193
			c0.03,0.619-0.074,1.336-0.306,2.147l-3.717,15.771l-0.229,0.942c3.145,0.934,5.87,1.53,8.186,1.787
			c3.744,0.464,6.988,0.636,9.733,0.519c1.856-0.081,3.62-0.289,5.289-0.626c3.173-0.488,7.189-1.86,12.061-4.119
			c1.562-0.777,2.894-1.744,3.999-2.904c1.102-1.158,2.667-2.982,4.688-5.471l2.021-2.488
			C215.917,122.929,216.051,122.878,216.23,122.871z"/>
		<path fill="#001A35" d="M226.454,204.236c-2.159-2.845-3.749-5.893-4.774-9.14c-1.756-5.798-2.729-11.046-2.926-15.756
			c-0.185-4.349-0.28-7.636-0.287-9.861l0.445-11.494l0.04-2.139c-0.058-1.42-0.374-2.606-0.945-3.563
			c-0.093-0.083-0.269-0.122-0.541-0.11c-0.35,0.017-0.701,0.211-1.038,0.579c-1.454,1.22-2.679,2.604-3.679,4.16
			c-1.497,2.288-2.76,4.969-3.782,8.034l-2.412,9.042c-0.232,0.726-0.425,1.42-0.576,2.097c-0.148,0.671-0.337,1.369-0.575,2.091
			l-1.934,4.485c-0.903,1.82-2.318,2.947-4.247,3.386c-2.67-0.242-4.737-1.935-6.198-5.073c-0.975-2.095-1.676-3.979-2.101-5.651
			c-1.637-5.177-2.508-10.034-2.61-14.566l-0.21-4.929c-0.197-4.616,0.21-10.771,1.214-18.466c1-5.735,2.08-10.541,3.245-14.417
			c1.713-5.589,3.91-10.22,6.591-13.893c1.676-2.295,3.502-4.152,5.483-5.571c2.584-1.8,4.983-2.749,7.194-2.842
			c1.769-0.076,3.521,0.562,5.27,1.91c1.658,1.529,2.756,3.396,3.291,5.598c0.449,2.294,0.704,4.104,0.765,5.437
			c0.228,5.419-0.804,11.423-3.095,18.015c-2.663,8.299-7.547,15.357-14.661,21.175c-0.943,0.753-2.54,1.8-4.785,3.141
			c-0.26,0.189-1.171,0.715-2.729,1.585c0.047,7.382,1.598,14.701,4.653,21.952c0.598-0.47,0.941-0.796,1.027-0.978
			c0.81-1.725,1.25-2.768,1.329-3.126l3.648-11.101c1.151-4.228,2.984-8.043,5.501-11.442c1.426-1.928,2.954-3.505,4.588-4.731
			c0.944-0.663,1.993-1.021,3.145-1.068c0.797-0.035,1.417,0.029,1.869,0.186c1.26,0.481,2.27,1.328,3.034,2.54
			c0.661,1.039,1.108,2.178,1.337,3.412c0.231,1.235,0.35,1.944,0.359,2.12c0.115,0.708,0.165,1.352,0.148,1.929
			c-0.025,0.583-0.018,1.091,0,1.536l-0.209,4.543c0.056,1.333,0.051,3.335-0.014,6.006c-0.15,2.676-0.174,5.258-0.072,7.745
			c0.209,4.882,1.045,9.919,2.502,15.104c0.934,3.163,2.705,6.245,5.313,9.249c0.269-0.013,0.565-0.204,0.908-0.574
			c1.55-3.093,2.476-6.421,2.767-9.99c0.248-2.499,0.534-6.249,0.854-11.246l0.266-3.215c0.055-0.714,0.109-1.606,0.151-2.675
			c0.04-1.071,0.168-2.32,0.374-3.753c0.063-0.536,0.211-1.745,0.441-3.623c0.23-1.876,0.523-3.892,0.879-6.042
			c0.371-1.616,0.912-2.441,1.621-2.471c0.353-0.015,0.68,0.237,0.967,0.76c0.285,0.522,0.352,1.054,0.196,1.593
			c-0.278,1.793-0.778,6.706-1.507,14.743l-0.325,7.887l-0.253,3.479c0.012,2.403-0.15,4.813-0.492,7.229
			c-0.385,3.397-1.264,6.859-2.619,10.386c-0.236,0.723-0.607,1.36-1.113,1.917c-1.012,1.286-2.226,1.961-3.641,2.021
			c-0.529,0.023-0.932-0.006-1.201-0.081C229.637,207.213,227.684,206.052,226.454,204.236z M197.085,154.378
			c6.736-4.201,11.905-9.849,15.505-16.943c2.617-5.092,4.368-10.902,5.245-17.437c0.203-1.61,0.262-3.256,0.19-4.945
			c-0.039-0.886-0.184-2.303-0.445-4.249c-0.671-3.263-2.22-5.288-4.645-6.075c-2.893,0.748-5.392,2.545-7.485,5.39
			c-1.917,2.93-3.298,5.877-4.146,8.852c-1.23,4.5-1.992,7.423-2.291,8.771c-1.488,6.734-2.374,11.976-2.658,15.725l-0.624,7.231
			c-0.068,0.451-0.083,1.206-0.038,2.271c0.034,0.799,0.146,1.418,0.344,1.854L197.085,154.378z"/>
		<path fill="#001A35" d="M265.793,206.828c-1.752-3.663-2.984-6.504-3.689-8.519c-0.904-2.628-1.83-6.595-2.764-11.893
			l-0.686-3.706c-0.219-0.877-0.334-1.587-0.355-2.121l0.051-1.869c-0.506,0.555-0.798,0.925-0.881,1.107
			c-0.796,2.167-1.523,3.847-2.18,5.028c-1.126,2.72-2.684,4.698-4.672,5.939c-0.871,0.392-1.568,0.6-2.104,0.621
			c-0.352,0.017-1.061-0.132-2.143-0.442c-2.342-0.967-4.08-2.181-5.207-3.647c-1.613-2.512-2.479-5.142-2.598-7.896
			c-0.336-3.81-0.365-7.591-0.075-11.339c0.747-5.369,2.614-10.342,5.614-14.916c1.261-1.657,2.84-3.06,4.744-4.206
			c1.039-0.58,2.091-0.892,3.152-0.938c1.322-0.057,2.669,0.286,4.029,1.032c1.094,0.665,1.916,1.208,2.466,1.628l1.351-8.864
			c0.118-1.427,0.386-3.484,0.803-6.172c1.195-7.345,2.994-14.142,5.385-20.38c1.901-5.33,4.5-10.021,7.789-14.076
			c0.416-0.554,1.644-1.939,3.676-4.161c1.371-1.126,2.629-1.758,3.775-1.896c2.471-0.282,4.271,0.441,5.412,2.172
			c1.236,1.993,1.935,3.876,2.101,5.647c0.124,0.887,0.183,1.663,0.166,2.329c-0.02,0.667-0.02,1.225,0.003,1.666
			c0.047,1.066,0.121,1.866,0.232,2.394c0.166,1.861,0.102,3.912-0.203,6.146c-0.302,2.24-0.484,3.755-0.538,4.562
			c-1.005,5.558-3.024,11.292-6.054,17.205l-1.611,2.736c-0.658,1.276-1.733,3.102-3.227,5.478
			c-2.735,4.476-5.479,7.795-8.223,9.958c-0.512,0.468-1.07,0.911-1.671,1.339c-0.605,0.426-1.245,0.92-1.931,1.483
			c-0.229,3.033-0.352,5.354-0.376,6.955c-0.026,1.425,0.021,3.513,0.135,6.266c0.147,3.376,0.343,5.946,0.593,7.714
			c0.456,4.52,1.063,8.408,1.821,11.666c1.065,4.226,2.757,8.511,5.071,12.862l0.703,0.903c0.848-0.837,1.545-2.114,2.094-3.826
			c1.719-5.412,4.192-13.057,7.408-22.934c3.219-9.88,5.571-17.072,7.067-21.585c0.323-0.638,0.711-0.967,1.153-0.985
			c0.354-0.016,0.67,0.174,0.954,0.561c0.284,0.389,0.338,0.676,0.171,0.86c-1.834,4.881-4.41,13.178-7.727,24.882
			c-3.314,11.705-5.228,18.906-5.732,21.596c-0.075,0.359-0.212,0.831-0.406,1.42c-0.195,0.584-0.33,1.058-0.404,1.417
			c-0.646,1.451-1.246,2.5-1.797,3.146c-0.549,0.646-1.518,1.312-2.903,1.994c-0.092,0.003-0.203,0.029-0.333,0.08
			c-0.129,0.05-0.287,0.031-0.467-0.046C269.838,211.324,267.518,209.868,265.793,206.828z M249.655,186.898
			c0.353-0.058,0.568-0.179,0.653-0.36c0.857-0.659,1.576-1.403,2.16-2.228c0.839-1.104,1.631-2.406,2.366-3.906
			c0.733-1.498,1.382-2.971,1.938-4.418c0.732-1.542,1.055-3.426,0.961-5.647c-0.205-4.794-0.074-10.048,0.393-15.763
			c-1.393-1.452-2.623-2.288-3.7-2.51c-0.535-0.154-0.892-0.229-1.065-0.223c-0.445,0.02-0.967,0.266-1.566,0.736
			c-0.688,0.561-1.275,1.343-1.766,2.342c-2.086,5.161-3.339,10.066-3.762,14.704c-0.221,1.169-0.273,2.904-0.181,5.214
			c0.181,4.265,0.536,7.407,1.063,9.43c0.213,0.791,0.412,1.384,0.605,1.775c0.198,0.393,0.607,0.709,1.236,0.947
			C249.082,186.988,249.305,186.959,249.655,186.898z M272.417,149.697c3.839-5.5,6.864-10.567,9.063-15.198
			c3.188-6.362,4.949-12.932,5.28-19.708c0.125-1.249,0.135-3.161,0.022-5.739c0.038-1.245-0.271-3.278-0.922-6.097
			c-0.131-1.064-0.533-2.114-1.195-3.153c-0.391-0.784-1.117-1.198-2.181-1.243c-1.04,0.493-2.106,1.605-3.187,3.339
			c-2.064,3.557-3.525,6.778-4.377,9.662c-0.93,3.244-1.665,5.677-2.217,7.301c-1.725,5.41-3.084,10.941-4.082,16.586
			c-1.008,5.649-1.924,12.181-2.761,19.602c-0.083,0.183-0.074,0.382,0.021,0.598c0.102,0.221,0.108,0.42,0.029,0.601
			C268.32,154.633,270.494,152.45,272.417,149.697z"/>
		<path fill="#001A35" d="M303.563,181.864c-1.439-2.608-2.212-5.063-2.311-7.374c0.07-0.537,0.07-1.004,0.01-1.402
			c-0.064-0.397-0.1-0.773-0.111-1.127l-0.019-0.401l0.137-3.076c-1.394,2.729-2.386,4.419-2.976,5.064
			c-1.18,1.476-2.07,2.49-2.664,3.051c-0.514,0.555-1.162,0.849-1.959,0.885c-0.352,0.014-0.8-0.056-1.336-0.211
			c-2.164-0.71-3.459-2.121-3.906-4.236c-0.332-1.588-0.533-3.136-0.596-4.646c-0.049-1.152-0.041-1.998,0.027-2.536
			c0.314-3.129,0.863-5.774,1.654-7.945c0.896-1.994,1.809-3.456,2.743-4.387c2.037-2.222,4.421-3.393,7.167-3.509
			c0.972-0.041,1.995,0.049,3.066,0.271c0.537,0.067,1.119,0.267,1.752,0.591l0.477-1.354c1.271-1.388,2.394-2.104,3.365-2.146
			c1.24-0.052,2.094,0.224,2.563,0.826c0.471,0.604,0.913,1.608,1.326,3.013l-0.854,4.973c-1.045,4.582-1.75,8.974-2.102,13.167
			c-0.081,2.32-0.094,4.098-0.041,5.342c0.027,0.623,0.082,1.376,0.161,2.262c0.081,0.886,0.104,1.909,0.063,3.064
			c0.04,0.89,0.471,1.715,1.303,2.48c1.652-0.69,3.11-1.866,4.373-3.523c1.162-1.827,2.066-3.422,2.723-4.786
			c0.893-1.904,2.193-5.229,3.899-9.974c1.702-4.742,2.668-7.695,2.883-8.861c0.245-0.546,0.585-0.828,1.022-0.845
			c0.358-0.016,0.654,0.151,0.889,0.494c0.236,0.347,0.277,0.745,0.117,1.196c-0.2,1.521-1.301,4.903-3.292,10.147
			c-1.997,5.247-3.113,8.188-3.35,8.817c-0.958,2.531-2.188,4.811-3.7,6.831c-1.669,2.473-3.686,3.939-6.061,4.396
			C307.334,186.153,305.184,184.642,303.563,181.864z M302.091,162.845c0.335-2.594,0.688-4.653,1.069-6.186
			c0.068-0.445,0.154-1.026,0.259-1.744c0.103-0.715,0.269-1.525,0.498-2.423l-0.544-0.244c-0.539-0.154-1.031-0.222-1.473-0.204
			c-0.793,0.034-1.564,0.247-2.301,0.633c-0.735,0.387-1.271,0.851-1.602,1.403c-0.99,1.732-1.691,4.053-2.1,6.961
			c-0.406,2.909-0.516,5.605-0.321,8.086c0.038,0.891,0.159,1.685,0.364,2.388c0.205,0.702,0.438,0.913,0.69,0.637
			C299.119,170.091,300.938,166.987,302.091,162.845z"/>
		<path fill="#001A35" d="M364.713,153.235c0,0,0.313-0.013,0.93-0.04c0.798-0.033,1.211,0.304,1.242,1.017
			c0.016,0.354-0.152,0.673-0.492,0.955l-4.492,3.792c-3.082,2.625-6.247,5.383-9.492,8.279c-0.129,1.072-0.19,1.789-0.176,2.143
			l0.19,1.326l1.513,10.612c0.402,3.187,0.67,6.42,0.809,9.703c0.18,4.175,0.109,7.78-0.207,10.821
			c-0.637,5.807-1.521,11.141-2.646,15.991c-1.698,5.943-4.024,10.715-6.976,14.311c-3.539,4.33-7.936,7.32-13.183,8.969
			c-1.395,0.503-3.11,0.799-5.148,0.884c-2.477,0.108-4.658-0.156-6.55-0.787c-2.256-0.971-3.992-2.231-5.209-3.781
			c-2.246-2.838-3.313-5.909-3.184-9.206c0.191-8.013,2.193-15.218,5.998-21.606c2.395-4.104,5.136-8.537,8.211-13.293
			c1.08-1.735,3.474-4.91,7.181-9.514l0.761-0.833c-0.625-0.148-1.029-0.178-1.201-0.083c-2.561,0.199-4.649-1.046-6.271-3.735
			c-1.045-1.646-1.81-4.06-2.301-7.241c-0.355-2.03-0.574-4.024-0.654-5.977c-0.068-1.6-0.075-3.91-0.027-6.939
			c0.053-0.89,0.229-1.921,0.531-3.09c0.308-1.169,0.673-1.986,1.098-2.45c0.42-0.461,1.245-0.896,2.469-1.306
			c1.063-0.045,1.875,0.367,2.449,1.229c0.643,0.596,0.997,1.559,1.051,2.891l-0.054,4.939l0.043,4.27
			c0.079,1.776,0.282,3.546,0.626,5.31c0.541,2.292,1.195,4.267,1.979,5.922c0.452,0.246,0.8,0.101,1.042-0.445
			c0.746-1.274,1.235-2.365,1.457-3.264c2.124-6.406,3.618-11.985,4.48-16.737c0.299-1.26,0.481-2.199,0.545-2.827
			c0.697-2.342,1.055-4.402,1.07-6.185c-0.029-0.62,0.08-1.205,0.322-1.749c0.568-1.178,1.43-1.793,2.581-1.843
			c0.617-0.026,1.292,0.211,2.021,0.712c0.277,0.168,0.746,0.771,1.407,1.809c0.595,1.4,0.948,2.411,1.065,3.023
			c0.857,3.612,1.465,7.547,1.825,11.802c0.061,1.423,0.28,2.434,0.663,3.04c5.223-4.314,9.246-7.734,12.064-10.257
			C364.502,153.425,364.713,153.235,364.713,153.235z M347.213,195.217c0,0-0.053-1.111-0.143-3.33
			c-0.129-3.022-0.59-7.625-1.385-13.819l-0.546-3.446l-1.399,1.393l-3.052,3.331l-5.972,6.528
			c-1.187,1.299-2.285,2.633-3.286,4.012c-1.687,2.205-4.429,6.414-8.248,12.626c-1.755,2.479-3.323,5.124-4.716,7.943
			c-2.73,6.607-3.988,12.58-3.762,17.907c0.104,2.398,1.176,4.755,3.227,7.069c0.922,0.85,1.912,1.297,2.981,1.341
			c1.423,0.117,2.445,0.161,3.063,0.135c2.742-0.116,5.064-0.882,6.948-2.298c0.786-0.389,1.559-0.913,2.33-1.567
			c0.771-0.656,1.321-1.123,1.665-1.404c4.44-4.014,7.318-8.275,8.637-12.778c0.854-2.884,1.563-6.028,2.129-9.433
			c0.717-3.945,1.203-8.148,1.457-12.604C347.188,195.751,347.213,195.217,347.213,195.217z M337.143,178.898
			c0.049,0.045,0.028,0.111-0.054,0.203l0.251-0.278l-0.129,0.005C337.122,178.832,337.1,178.856,337.143,178.898z M339.304,171.799
			c-0.931,3.066-1.548,5.316-1.84,6.752c0.347-0.193,0.689-0.43,1.032-0.712c1.618-1.492,2.81-2.742,3.566-3.756
			c1.278-1.121,2.174-2.047,2.672-2.78l-0.442-4.118c-0.335-3.723-0.63-6.513-0.882-8.369c-0.007-0.09-0.055-0.132-0.141-0.13
			c-0.09,0.005-0.18-0.035-0.272-0.121c-0.167,0.187-0.249,0.325-0.245,0.413L339.304,171.799z"/>
	</g>
	<g>
		<path fill="#001A35" d="M88.948,100.055l3.365-0.144l0.642,15.138l-3.367,0.144l-0.251-5.956l-5.998,0.257l0.25,5.954
			l-3.365,0.144l-0.641-15.137l3.367-0.144l0.27,6.326l5.998-0.257L88.948,100.055z"/>
		<path fill="#001A35" d="M111.73,114.248l-1.542-3.209l-6.326,0.269l-1.265,3.331l-3.58,0.152l5.875-15.416l3.259-0.138
			l7.157,14.859L111.73,114.248z M106.727,103.808l-1.713,4.479l3.775-0.161L106.727,103.808z"/>
		<path fill="#001A35" d="M131.183,99.609c1.094,0.857,1.684,2.222,1.764,4.091c0.08,1.87-0.404,3.261-1.453,4.174
			c-1.054,0.912-2.692,1.416-4.923,1.511l-2.005,0.085l0.177,4.223l-3.368,0.144l-0.637-15.138l5.329-0.228
			C128.38,98.373,130.089,98.751,131.183,99.609z M128.966,105.671c0.384-0.473,0.556-1.145,0.516-2.02
			c-0.034-0.871-0.325-1.482-0.865-1.827c-0.539-0.347-1.366-0.495-2.472-0.448l-1.919,0.083l0.216,5.087l2.265-0.097
			C127.827,106.401,128.582,106.141,128.966,105.671z"/>
		<path fill="#001A35" d="M150.11,98.803c1.094,0.857,1.684,2.221,1.764,4.09c0.078,1.871-0.407,3.261-1.454,4.172
			c-1.054,0.914-2.691,1.417-4.922,1.512l-2.008,0.087l0.178,4.221l-3.367,0.144l-0.637-15.137l5.329-0.227
			C147.308,97.566,149.015,97.945,150.11,98.803z M147.893,104.862c0.382-0.47,0.556-1.144,0.517-2.018
			c-0.035-0.873-0.325-1.483-0.866-1.83c-0.538-0.345-1.366-0.495-2.472-0.445l-1.92,0.081l0.214,5.089l2.266-0.099
			C146.753,105.595,147.51,105.335,147.893,104.862z"/>
		<path fill="#001A35" d="M165.615,111.95l-3.364,0.144l-0.254-5.978l-5.61-8.937l3.648-0.157l3.496,5.494l3.021-5.771l3.647-0.154
			l-4.835,9.382L165.615,111.95z"/>
	</g>
	<g>
		<path fill="#001A35" d="M124.526,218.8l0.484,11.397l-3.139,0.135l-0.487-11.398l-3.985,0.17l-0.119-2.728l11.118-0.474
			l0.116,2.727L124.526,218.8z"/>
		<path fill="#001A35" d="M151.73,227.104c-1.364,1.454-3.087,2.228-5.167,2.316c-2.082,0.09-3.865-0.535-5.347-1.869
			c-1.48-1.331-2.268-3.033-2.353-5.11c-0.087-2.074,0.551-3.838,1.915-5.296c1.363-1.455,3.088-2.227,5.166-2.316
			c2.08-0.087,3.863,0.536,5.348,1.868c1.479,1.334,2.266,3.039,2.353,5.114C153.729,223.886,153.09,225.648,151.73,227.104z
			 M150.443,221.957c-0.054-1.259-0.501-2.318-1.346-3.171c-0.842-0.854-1.851-1.259-3.024-1.208
			c-1.176,0.05-2.148,0.538-2.919,1.461c-0.763,0.922-1.124,2.016-1.07,3.273c0.052,1.261,0.501,2.316,1.347,3.162
			c0.843,0.847,1.851,1.248,3.026,1.198c1.172-0.05,2.145-0.535,2.913-1.451C150.137,224.307,150.494,223.219,150.443,221.957z"/>
		<path fill="#001A35" d="M186.102,227.594l-3.138,0.134l-0.237-5.578l-5.237-8.342l3.405-0.142l3.264,5.122l2.82-5.383l3.398-0.146
			l-4.511,8.756L186.102,227.594z"/>
		<path fill="#001A35" d="M212.803,224.501c-1.365,1.454-3.086,2.226-5.166,2.315c-2.083,0.089-3.862-0.536-5.344-1.868
			c-1.483-1.332-2.268-3.036-2.355-5.111c-0.087-2.073,0.549-3.839,1.917-5.294c1.359-1.456,3.082-2.229,5.164-2.315
			c2.082-0.09,3.863,0.532,5.345,1.866c1.48,1.334,2.265,3.037,2.354,5.112C214.807,221.28,214.166,223.045,212.803,224.501z
			 M211.515,219.353c-0.05-1.259-0.501-2.317-1.343-3.171c-0.845-0.855-1.85-1.259-3.023-1.209
			c-1.177,0.052-2.151,0.541-2.914,1.463c-0.768,0.922-1.127,2.015-1.076,3.273c0.056,1.261,0.505,2.315,1.344,3.162
			c0.845,0.848,1.851,1.247,3.026,1.197c1.174-0.052,2.147-0.535,2.916-1.451C211.212,221.701,211.569,220.612,211.515,219.353z"/>
		<path fill="#001A35" d="M230.315,222.054c0.545,0.632,1.263,0.927,2.153,0.889c0.881-0.036,1.568-0.393,2.061-1.067
			c0.488-0.678,0.708-1.58,0.664-2.711l-0.33-7.801l3.141-0.135l0.334,7.902c0.086,2.047-0.412,3.646-1.492,4.79
			c-1.082,1.147-2.5,1.756-4.262,1.832c-1.756,0.074-3.228-0.417-4.411-1.472c-1.176-1.056-1.812-2.602-1.896-4.638l-0.336-7.9
			l3.144-0.134l0.33,7.802C229.462,220.541,229.763,221.422,230.315,222.054z"/>
	</g>
</g>
<g>
	<g>
		<path fill="#001A35" d="M55.755,219.382c0,0-1.02-0.533-3.055-1.601c-2.127-0.979-3.767-2.578-4.916-4.8
			c-0.975-1.779-1.461-3.556-1.461-5.332c0-2.133,0.486-4.488,1.461-7.066c1.77-4.979,4.251-9.378,7.438-13.198l0.267-0.535
			c3.364-4.267,6.025-7.376,7.972-9.331c5.401-5.421,10.893-9.911,16.473-13.466c0.176-0.089,0.401-0.2,0.665-0.333
			c0.265-0.134,0.443-0.288,0.533-0.468l-0.533-0.934c-1.242-1.686-2.57-3.111-3.986-4.267c-1.771-1.509-4.207-2.532-7.307-3.065
			c-1.506-0.266-2.922-0.4-4.25-0.4c-1.774,0-3.719,0.18-5.847,0.533l-0.662,0.4l-1.729,1.066c-0.444,0.179-0.931,0.401-1.464,0.666
			c-0.53,0.267-1.062,0.534-1.592,0.8l-0.53,0.135c-0.358,0.179-0.89,0.268-1.595,0.268c-0.533,0-0.975-0.045-1.33-0.136
			l-0.134-0.132l-0.263-0.267c-0.269-0.177-0.533-0.445-0.8-0.802c-0.353-0.442-0.531-1.019-0.531-1.732
			c0-0.62,0.088-1.109,0.265-1.467c0.62-1.42,1.507-2.575,2.658-3.467l2.393-2.132c4.517-3.287,9.3-7.999,14.348-14.132
			c2.833-3.377,4.87-7.11,6.109-11.198c0.352-1.069,0.532-2.312,0.532-3.736c0-1.242-0.091-2.176-0.264-2.799
			c-0.269-1.419-1.152-2.71-2.657-3.865c-1.686-1.422-3.721-2.446-6.114-3.068c-1.328-0.443-3.145-0.667-5.445-0.667
			c-1.95,0-3.942,0.181-5.98,0.535c-3.721,0.622-8.103,2.089-13.151,4.397c-2.482,1.248-4.83,2.535-7.043,3.868
			c-4.514,2.579-8.502,6.265-11.956,11.067l-2.791,4.131c-0.707,1.068-1.284,1.867-1.726,2.4l-0.665,0.667l-0.133,0.132
			l-0.134,0.134h-0.131c-0.444-0.088-0.885-0.443-1.33-1.066v-0.269c0.264-0.975,0.664-1.865,1.198-2.665
			c3.542-6.043,7.925-11.021,13.153-14.934c2.39-1.775,5.845-3.82,10.359-6.13c4.694-2.312,9.212-3.911,13.551-4.801
			c2.745-0.621,5.225-0.934,7.438-0.934c0.887,0,2.04,0.092,3.456,0.269c3.366,0.532,6.377,1.598,9.037,3.198
			c4.69,2.666,7.04,6.933,7.04,12.799c0,3.023-0.598,6.245-1.793,9.667c-1.197,3.422-2.591,6.156-4.184,8.198
			c-3.812,4.714-7.31,8.534-10.497,11.468l-0.533,0.398v0.134c0.088,0.091,0.178,0.113,0.266,0.068
			c0.088-0.045,0.178-0.068,0.267-0.068h0.266c6.11-0.353,11.337,1.113,15.674,4.4c0.534,0.446,1.02,0.866,1.464,1.265
			c0.444,0.402,0.84,0.78,1.198,1.134l0.794,0.8l1.063,1.067c0,0.18,0.267,0.534,0.797,1.066c6.554-3.466,13.063-5.866,19.531-7.199
			l0.665-0.134c0.621,0,1.016,0.201,1.196,0.6c0.175,0.401-0.045,0.69-0.665,0.867c-3.013,0.98-6.796,2.489-11.357,4.533
			c-4.566,2.044-6.977,3.202-7.243,3.467l-0.267,0.132c-0.088,0.18-0.043,0.446,0.135,0.8l0.132,0.27
			c2.571,5.331,3.854,10.71,3.854,16.131c0,5.155-1.283,10.399-3.854,15.731c-3.542,7.466-8.594,13.467-15.143,17.999
			c-3.544,2.578-7.223,4.134-11.028,4.667c-0.889,0.177-1.64,0.267-2.259,0.267C56.862,219.382,55.755,219.382,55.755,219.382z
			 M35.694,190.316c-0.532,0-1.087-0.179-1.662-0.533c-0.572-0.356-1.04-0.755-1.393-1.2c-0.884-1.065-1.375-1.952-1.462-2.664
			c-0.444-1.069-0.885-2.446-1.33-4.135c-0.175-2.045-0.353-4.754-0.53-8.134c0-4.353,0.576-9.819,1.729-16.398
			c0.528-3.199,1.416-6.752,2.655-10.664c0.71-2.578,1.946-5.601,3.721-9.068c0.266-1.065,0.93-2.488,1.993-4.266
			c0.351-1.154,1.105-2.244,2.257-3.267c1.152-1.021,2.214-1.532,3.188-1.532c0.796,0,1.331,0.399,1.596,1.198l0.264,0.801
			c-0.089,1.422-0.264,2.555-0.529,3.399c-0.265,0.846-0.666,1.823-1.199,2.934c-0.53,1.112-0.882,1.889-1.062,2.333
			c-0.089,0.356-0.178,0.578-0.266,0.665c-2.214,5.779-3.674,9.824-4.384,12.132c-0.532,2.047-1.284,5.38-2.258,10.001
			c-0.709,4.267-1.019,8.046-0.926,11.333c0,3.647,0.26,7.29,0.792,10.934c0.179,0.354,0.313,0.865,0.402,1.53
			c0.085,0.668,0.173,1.224,0.263,1.669l-0.263,1.599C37.022,189.871,36.491,190.316,35.694,190.316z M56.818,212.581
			c1.063,0,2.127-0.267,3.188-0.799c5.136-2.4,9.167-5.065,12.089-7.998c4.165-4.356,7.262-9.201,9.302-14.535
			c0.619-1.686,1.15-3.508,1.592-5.464l0.401-1.6c0.532-2.134,0.796-4.313,0.796-6.535c0-2.309-0.264-4.667-0.796-7.063
			c-0.181-1.156-0.489-2.001-0.932-2.535c-0.709,0.534-1.239,0.891-1.594,1.067c-2.211,1.512-3.452,2.355-3.72,2.532
			c-7.349,5.69-13.108,11.378-17.271,17.066c-4.075,5.152-6.821,10.132-8.235,14.931c-0.621,1.867-0.933,3.688-0.933,5.467
			c0.179,2.133,1.24,3.732,3.191,4.801C54.958,212.359,55.93,212.581,56.818,212.581z"/>
		<path fill="#001A35" d="M110.757,185.65c-2.041,0-3.853-0.843-5.449-2.534c-1.594-1.687-2.834-4.086-3.717-7.199
			c-0.089-0.709-0.137-1.91-0.137-3.598c0-3.021,0.247-6.201,0.731-9.533c0.49-3.334,1.087-5.621,1.794-6.866
			c0.622-1.154,1.375-2.045,2.258-2.667c0.534-0.442,1.196-0.667,1.993-0.667c1.062,0,1.995,0.58,2.79,1.733
			c0.266,0.355,0.397,0.848,0.397,1.466c0,0.357-0.064,0.801-0.196,1.333c-0.135,0.535-0.201,0.981-0.201,1.336
			c-0.18,0.799-0.354,1.577-0.531,2.332c-0.179,0.754-0.265,1.265-0.265,1.532c-0.089,0.266-0.134,0.601-0.134,1
			c0,0.401-0.09,0.866-0.268,1.4c-0.621,3.289-1.017,6.711-1.193,10.267c0,1.778,0.417,3.223,1.259,4.333
			c0.843,1.11,1.885,1.666,3.126,1.666c1.326,0,2.655-0.709,3.985-2.134c3.275-3.819,5.689-7.242,7.24-10.264
			c1.547-3.022,3.209-7.735,4.982-14.134c0.086-0.445,0.31-0.666,0.665-0.666c0.266,0,0.508,0.156,0.728,0.466
			c0.221,0.313,0.289,0.646,0.201,1.001c-1.418,6.755-3.632,13.065-6.643,18.93c-3.014,5.868-6.247,9.378-9.699,10.533
			C113.234,185.341,111.997,185.65,110.757,185.65z M109.094,145.652c-0.489-0.265-0.773-0.753-0.863-1.466
			c-0.089-0.354-0.134-0.755-0.134-1.2c0-1.066,0.534-1.911,1.596-2.533c0.797-0.268,1.371-0.4,1.726-0.4
			c0.444,0,0.887,0.178,1.329,0.534c0.798,0.623,1.195,1.333,1.195,2.132c0,0.267,0.045,0.58,0.133,0.934
			c0.09,0.356,0,0.712-0.264,1.066c-0.177,0.356-0.377,0.622-0.597,0.802c-0.222,0.18-0.512,0.331-0.863,0.466
			c-0.355,0.132-0.665,0.245-0.933,0.333C110.358,146.144,109.582,145.92,109.094,145.652z"/>
		<path fill="#001A35" d="M137.458,186.316c-0.089-0.887-0.222-1.933-0.397-3.132c-0.178-1.201-0.269-2.2-0.269-2.998
			c0-0.979,0.134-1.914,0.4-2.803c0.086-2.398,0.351-4.708,0.795-6.933c0.441-2.219,1.152-5.241,2.128-9.064l0.662-2.667
			c-4.871-0.71-8.567-1.555-11.092-2.533c-2.523-0.978-4.625-2.487-6.31-4.534c-0.618-0.71-1.131-1.687-1.528-2.934
			c-0.397-1.242-0.599-2.532-0.599-3.865c0-2.044,0.447-3.82,1.33-5.334c0.444-0.8,1.151-1.554,2.125-2.265
			c0.797-0.534,1.595-0.8,2.392-0.8c0.887,0,1.682,0.311,2.393,0.934c1.416,1.155,2.301,2.533,2.654,4.131
			c0.442,2.047,0.666,4.002,0.666,5.867c0,1.155-0.045,2.047-0.134,2.667c-0.179,1.066-0.262,1.822-0.262,2.266
			c0.083,0.267,0.307,0.491,0.662,0.668l3.587,0.932c0.618,0.089,1.505,0.246,2.659,0.468c1.15,0.222,2.171,0.334,3.055,0.334
			c1.769,0.09,3.122,0.644,4.052,1.666c0.931,1.022,1.395,2.422,1.395,4.198c-0.089,0.89-0.312,2.224-0.666,4.002
			c-0.179,0.8-0.486,2.197-0.929,4.197c-0.445,2-0.752,3.801-0.927,5.399c-0.358,2.666-0.535,4.756-0.535,6.269
			c0,2.312,0.309,4.532,0.932,6.665c0.175,0.888,0.53,1.466,1.063,1.733c1.062-0.535,1.992-1.466,2.789-2.8
			c1.592-2.489,2.743-4.401,3.455-5.733c2.566-4.799,6.288-13.243,11.158-25.331c0.266-0.533,0.617-0.799,1.063-0.799
			c0.445,0,0.751,0.199,0.929,0.598c0.18,0.4,0.09,0.867-0.267,1.401c-0.975,2.665-2.455,6.446-4.451,11.331
			c-1.989,4.891-3.785,9.156-5.377,12.8c-1.595,3.646-1.995,4.49-1.197,2.533c-0.53,1.248-1.683,3.466-3.453,6.665
			c-0.622,0.979-1.375,1.868-2.259,2.669c-1.065,1.151-2.349,1.732-3.852,1.732c-1.244,0-2.352-0.313-3.324-0.934
			C139.32,191.472,137.812,189.249,137.458,186.316z M129.619,151.52l0.267-0.532c0.181-1.601,0.269-2.89,0.269-3.866l-0.136-2.668
			c-0.265-2.398-1.194-4.086-2.789-5.065h-0.267c-0.708,0-1.28,0.398-1.728,1.2c-0.619,0.89-0.93,2.09-0.93,3.599
			c0,1.245,0.289,2.513,0.861,3.801c0.583,1.289,1.354,2.245,2.327,2.866l1.595,0.799L129.619,151.52z"/>
		<path fill="#001A35" d="M225.275,118.057c0.176,0,0.309,0.089,0.398,0.267c0.084,0.179,0.041,0.445-0.133,0.799l-1.859,2.532
			c-3.189,4.622-7.488,7.957-12.892,10.001c-3.716,1.421-6.551,2.266-8.5,2.532c-3.101,0.533-6.067,0.8-8.899,0.8
			c-1.152,0-2.79-0.087-4.917-0.267c-2.922-0.177-6.557-0.843-10.894-1.999c-1.508,6.133-2.613,11.555-3.32,16.266
			c-0.269,1.778-0.446,3.313-0.531,4.601c-0.09,1.286-0.179,2.378-0.268,3.264c-0.441,3.113-0.665,6.846-0.665,11.201
			c0,2.844,0.043,4.978,0.133,6.398c0.267,5.424,1.372,10.934,3.321,16.531c1.418,3.467,2.877,5.2,4.387,5.2
			c1.946,0,3.807-2.423,5.577-7.267c1.772-4.844,3.851-11.752,6.246-20.73c2.035-7.287,3.275-11.6,3.72-12.932
			c0.265-0.801,0.706-1.201,1.329-1.201c0.352,0,0.617,0.179,0.796,0.533c0.176,0.356,0.176,0.846,0,1.467
			c-0.886,3.113-1.952,7.379-3.188,12.799c-1.775,7.2-3.301,13.022-4.585,17.465c-1.285,4.445-2.879,8.2-4.781,11.267
			c-1.904,3.067-4.096,4.599-6.577,4.599c-3.188,0-6.732-2.576-10.626-7.732c-3.011-5.244-4.519-13.153-4.519-23.731
			c0-3.467,0.133-6.844,0.4-10.133c0.265-3.999,0.753-8.442,1.459-13.33c1.064-6.667,2.214-12.444,3.453-17.332l-3.986-1.868
			c-3.983-1.6-7.835-2.754-11.556-3.466c-2.213-0.443-4.25-0.668-6.11-0.668c-7.085,0-13.333,2.134-18.733,6.401
			c-2.036,1.69-3.496,3.247-4.385,4.667c-0.531-0.177-0.839-0.267-0.929-0.267c0-0.086-0.022-0.198-0.066-0.333
			c-0.045-0.132-0.021-0.245,0.066-0.333c0.885-1.775,1.95-3.152,3.188-4.131c3.809-3.021,7.437-5.11,10.893-6.269
			c4.164-1.332,8.062-2,11.692-2c5.669,0,11.291,1.156,16.874,3.466c1.77,0.712,3.099,1.201,3.985,1.467l0.929-3.066
			c0.974-3.2,2.214-6.134,3.722-8.8c0.975-1.866,2.082-3.467,3.321-4.799l0.797-0.8c0.174-0.088,0.464-0.269,0.861-0.536
			c0.398-0.266,0.819-0.398,1.265-0.398c0.975,0.179,1.678,0.665,2.123,1.467c0.092,0.267,0.134,0.665,0.134,1.199
			c0,0.624-0.134,1.333-0.397,2.133l-4.387,15.599l-0.262,0.933c3.1,1.066,5.798,1.778,8.101,2.135
			c3.722,0.622,6.953,0.93,9.701,0.93c1.86,0,3.629-0.132,5.314-0.398c3.188-0.354,7.26-1.553,12.219-3.6
			c1.598-0.71,2.969-1.622,4.122-2.733c1.151-1.111,2.786-2.865,4.915-5.267l2.125-2.401
			C224.965,118.101,225.096,118.057,225.275,118.057z"/>
		<path fill="#001A35" d="M232.046,199.783c-2.035-2.934-3.497-6.046-4.38-9.334c-1.508-5.866-2.258-11.153-2.258-15.865
			c0-4.352,0.043-7.642,0.133-9.865l0.93-11.466l0.137-2.133c0-1.42-0.271-2.621-0.802-3.599c-0.091-0.088-0.265-0.135-0.53-0.135
			c-0.355,0-0.713,0.18-1.065,0.533c-1.505,1.157-2.786,2.489-3.853,3.998c-1.596,2.224-2.971,4.847-4.116,7.867l-2.792,8.933
			c-0.266,0.712-0.488,1.4-0.665,2.066c-0.173,0.668-0.398,1.357-0.662,2.067l-2.127,4.399c-0.976,1.779-2.437,2.846-4.383,3.201
			c-2.657-0.355-4.652-2.134-5.981-5.334c-0.885-2.134-1.505-4.044-1.857-5.732c-1.417-5.245-2.079-10.133-1.996-14.665v-4.934
			c0-4.621,0.667-10.753,1.996-18.4c1.24-5.686,2.522-10.442,3.85-14.265c1.947-5.511,4.337-10.043,7.176-13.599
			c1.77-2.221,3.673-4,5.717-5.333c2.653-1.687,5.09-2.533,7.303-2.533c1.771,0,3.499,0.712,5.18,2.134
			c1.596,1.599,2.611,3.511,3.059,5.732c0.354,2.313,0.529,4.133,0.529,5.467c0,5.422-1.284,11.377-3.852,17.864
			c-3.012,8.178-8.194,15.021-15.544,20.532c-0.978,0.711-2.615,1.69-4.918,2.933c-0.264,0.181-1.196,0.668-2.787,1.467
			c-0.269,7.38,0.973,14.755,3.714,22.132c0.622-0.443,0.978-0.756,1.067-0.934c0.884-1.688,1.371-2.71,1.461-3.066l4.122-10.932
			c1.327-4.176,3.319-7.909,5.976-11.199c1.507-1.867,3.098-3.377,4.782-4.534c0.973-0.621,2.037-0.932,3.189-0.932
			c0.797,0,1.414,0.089,1.859,0.267c1.239,0.532,2.212,1.421,2.922,2.664c0.618,1.068,1.018,2.225,1.193,3.467
			c0.182,1.247,0.271,1.957,0.271,2.135c0.087,0.712,0.104,1.356,0.065,1.932c-0.047,0.58-0.065,1.09-0.065,1.534l-0.4,4.532
			c0,1.334-0.089,3.334-0.265,6.001c-0.268,2.665-0.4,5.245-0.4,7.732c0,4.888,0.619,9.956,1.857,15.198
			c0.799,3.199,2.437,6.354,4.92,9.466c0.263,0,0.576-0.181,0.93-0.533c1.682-3.022,2.742-6.31,3.188-9.866
			c0.353-2.486,0.797-6.219,1.325-11.199l0.403-3.199c0.084-0.71,0.174-1.599,0.262-2.666c0.092-1.067,0.271-2.31,0.533-3.733
			c0.086-0.534,0.287-1.734,0.599-3.599c0.31-1.868,0.687-3.867,1.131-6c0.438-1.601,1.013-2.4,1.724-2.4
			c0.352,0,0.666,0.267,0.938,0.8c0.262,0.533,0.305,1.067,0.129,1.601c-0.353,1.777-1.066,6.668-2.125,14.666l-0.665,7.866
			l-0.401,3.466c-0.09,2.398-0.353,4.799-0.799,7.2c-0.529,3.375-1.546,6.798-3.053,10.264c-0.266,0.71-0.665,1.334-1.195,1.869
			c-1.063,1.241-2.305,1.864-3.72,1.864c-0.534,0-0.927-0.045-1.196-0.133C235.107,202.894,233.198,201.648,232.046,199.783z
			 M204.815,148.719c6.908-3.91,12.308-9.331,16.207-16.264c2.832-4.978,4.826-10.71,5.979-17.2
			c0.268-1.598,0.396-3.242,0.396-4.933c0-0.887-0.086-2.309-0.265-4.265c-0.524-3.288-1.993-5.377-4.384-6.267
			c-2.921,0.623-5.491,2.313-7.702,5.066c-2.039,2.846-3.546,5.732-4.519,8.666c-1.417,4.447-2.305,7.334-2.657,8.666
			c-1.772,6.667-2.877,11.866-3.323,15.599l-0.928,7.2c-0.088,0.445-0.131,1.2-0.131,2.269c0,0.799,0.083,1.422,0.266,1.865
			L204.815,148.719z"/>
		<path fill="#001A35" d="M271.242,204.049c-1.596-3.732-2.702-6.621-3.32-8.666c-0.8-2.666-1.551-6.666-2.261-12l-0.528-3.732
			c-0.18-0.887-0.271-1.6-0.271-2.132l0.135-1.868c-0.529,0.533-0.842,0.89-0.929,1.068c-0.886,2.132-1.685,3.778-2.39,4.931
			c-1.243,2.667-2.881,4.58-4.918,5.735c-0.887,0.355-1.592,0.533-2.126,0.533c-0.354,0-1.063-0.178-2.124-0.533
			c-2.301-1.068-3.985-2.356-5.049-3.867c-1.506-2.578-2.263-5.245-2.263-7.999c-0.173-3.82-0.04-7.6,0.401-11.334
			c0.973-5.333,3.055-10.22,6.246-14.663c1.328-1.602,2.965-2.934,4.914-4c1.064-0.535,2.127-0.802,3.188-0.802
			c1.331,0,2.659,0.401,3.986,1.2c1.063,0.711,1.86,1.289,2.393,1.733l1.727-8.798c0.176-1.421,0.537-3.466,1.064-6.133
			c1.504-7.287,3.586-14,6.242-20.131c2.123-5.245,4.918-9.821,8.372-13.734c0.441-0.532,1.726-1.865,3.851-4
			c1.415-1.065,2.7-1.643,3.855-1.733c2.478-0.177,4.249,0.623,5.313,2.401c1.15,2.044,1.771,3.955,1.859,5.733
			c0.086,0.888,0.109,1.666,0.068,2.333c-0.048,0.665-0.068,1.223-0.068,1.666c0,1.066,0.043,1.865,0.133,2.4
			c0.089,1.865-0.064,3.912-0.465,6.131c-0.396,2.224-0.645,3.732-0.731,4.535c-1.241,5.51-3.502,11.153-6.772,16.931l-1.73,2.667
			c-0.709,1.245-1.859,3.023-3.453,5.332c-2.922,4.357-5.805,7.558-8.636,9.601c-0.532,0.445-1.108,0.866-1.729,1.267
			c-0.618,0.398-1.283,0.866-1.99,1.399c-0.354,3.023-0.578,5.332-0.664,6.934c-0.089,1.421-0.135,3.51-0.135,6.265
			c0,3.38,0.09,5.956,0.268,7.733c0.268,4.533,0.711,8.446,1.328,11.733c0.881,4.266,2.391,8.618,4.519,13.064l0.661,0.933
			c0.885-0.799,1.638-2.043,2.259-3.733c1.948-5.332,4.738-12.864,8.373-22.595c3.629-9.735,6.288-16.822,7.973-21.268
			c0.351-0.621,0.746-0.935,1.191-0.935c0.353,0,0.665,0.202,0.929,0.602c0.27,0.399,0.313,0.689,0.135,0.866
			c-2.039,4.8-4.962,12.978-8.769,24.531c-3.81,11.555-6.026,18.666-6.643,21.334c-0.089,0.353-0.243,0.819-0.464,1.399
			c-0.224,0.576-0.375,1.044-0.464,1.4c-0.712,1.419-1.354,2.441-1.926,3.065c-0.578,0.619-1.575,1.244-2.99,1.866
			c-0.092,0-0.203,0.021-0.333,0.067c-0.134,0.042-0.287,0.02-0.463-0.067C275.095,208.716,272.832,207.16,271.242,204.049z
			 M255.963,183.45c0.355-0.043,0.576-0.155,0.665-0.334c0.885-0.62,1.639-1.332,2.259-2.132c0.883-1.067,1.727-2.333,2.521-3.799
			c0.803-1.469,1.508-2.913,2.129-4.334c0.796-1.512,1.195-3.377,1.195-5.601c0-4.798,0.354-10.043,1.062-15.731
			c-1.327-1.512-2.522-2.399-3.583-2.666c-0.533-0.177-0.89-0.268-1.066-0.268c-0.446,0-0.976,0.223-1.593,0.668
			c-0.715,0.533-1.331,1.289-1.862,2.266c-2.305,5.066-3.762,9.912-4.384,14.532c-0.265,1.156-0.397,2.891-0.397,5.199
			c0,4.268,0.217,7.423,0.662,9.467c0.177,0.799,0.357,1.399,0.533,1.799c0.176,0.401,0.576,0.734,1.195,1.001
			C255.385,183.518,255.607,183.497,255.963,183.45z M280.277,147.255c4.07-5.334,7.305-10.268,9.696-14.8
			c3.456-6.22,5.491-12.709,6.111-19.465c0.177-1.243,0.267-3.153,0.267-5.733c0.086-1.242-0.132-3.287-0.665-6.133
			c-0.089-1.066-0.441-2.132-1.062-3.2c-0.355-0.8-1.066-1.242-2.129-1.332c-1.059,0.445-2.168,1.512-3.318,3.199
			c-2.216,3.467-3.811,6.623-4.783,9.466c-1.063,3.2-1.905,5.601-2.524,7.199c-1.946,5.334-3.544,10.8-4.784,16.398
			c-1.24,5.601-2.437,12.09-3.589,19.466c-0.083,0.18-0.083,0.379,0,0.6c0.089,0.222,0.089,0.424,0,0.601
			C275.979,152.008,278.238,149.919,280.277,147.255z"/>
		<path fill="#001A35" d="M310.033,180.718c-1.328-2.667-1.99-5.155-1.99-7.466c0.082-0.535,0.107-1,0.064-1.401
			c-0.045-0.398-0.064-0.776-0.064-1.133v-0.398l0.262-3.068c-1.505,2.667-2.566,4.313-3.186,4.935
			c-1.24,1.424-2.174,2.398-2.789,2.933c-0.533,0.532-1.196,0.799-1.998,0.799c-0.349,0-0.793-0.087-1.325-0.267
			c-2.126-0.799-3.365-2.266-3.722-4.399c-0.264-1.6-0.398-3.154-0.398-4.665c0-1.155,0.046-1.999,0.135-2.533
			c0.443-3.112,1.109-5.734,1.994-7.866c0.974-1.955,1.952-3.376,2.92-4.269c2.124-2.131,4.561-3.199,7.31-3.199
			c0.97,0,1.996,0.135,3.053,0.401c0.534,0.089,1.108,0.313,1.729,0.667l0.531-1.335c1.328-1.331,2.475-1.999,3.453-1.999
			c1.24,0,2.084,0.313,2.525,0.934c0.441,0.622,0.84,1.646,1.195,3.065l-1.062,4.934c-1.242,4.533-2.128,8.89-2.659,13.065
			c-0.178,2.313-0.264,4.09-0.264,5.334c0,0.623,0.019,1.379,0.066,2.267c0.042,0.889,0.02,1.912-0.066,3.066
			c0,0.888,0.396,1.731,1.193,2.531c1.68-0.62,3.188-1.732,4.519-3.331c1.235-1.778,2.211-3.333,2.922-4.668
			c0.974-1.865,2.413-5.132,4.319-9.798c1.904-4.667,2.988-7.576,3.254-8.733c0.266-0.533,0.617-0.8,1.063-0.8
			c0.353,0,0.639,0.179,0.862,0.533c0.218,0.356,0.241,0.757,0.067,1.2c-0.266,1.511-1.507,4.846-3.721,9.999
			c-2.213,5.156-3.455,8.046-3.72,8.665c-1.062,2.49-2.39,4.714-3.985,6.667c-1.771,2.401-3.851,3.779-6.242,4.133
			C313.623,185.163,311.539,183.562,310.033,180.718z M309.369,161.653c0.443-2.578,0.885-4.622,1.326-6.134
			c0.09-0.443,0.201-1.021,0.334-1.732c0.129-0.71,0.33-1.513,0.599-2.401l-0.53-0.266c-0.531-0.178-1.02-0.267-1.465-0.267
			c-0.794,0-1.57,0.179-2.325,0.532c-0.751,0.356-1.304,0.8-1.659,1.335c-1.063,1.689-1.862,3.977-2.391,6.866
			c-0.531,2.888-0.754,5.577-0.664,8.064c0,0.89,0.09,1.688,0.27,2.401c0.172,0.712,0.395,0.931,0.66,0.665
			C306.093,168.766,308.043,165.741,309.369,161.653z"/>
		<path fill="#001A35" d="M372.341,154.721c0,0,0.31,0,0.929,0c0.798,0,1.197,0.355,1.197,1.064c0,0.357-0.178,0.668-0.533,0.935
			l-4.65,3.599c-3.185,2.49-6.465,5.112-9.829,7.867c-0.18,1.064-0.263,1.779-0.263,2.134l0.131,1.332l1.064,10.666
			c0.266,3.199,0.396,6.444,0.396,9.731c0,4.178-0.22,7.777-0.664,10.8c-0.887,5.777-1.993,11.067-3.321,15.865
			c-1.948,5.867-4.473,10.535-7.569,14.001c-3.723,4.177-8.244,6.975-13.555,8.399c-1.416,0.443-3.145,0.665-5.182,0.665
			c-2.479,0-4.646-0.356-6.508-1.065c-2.217-1.066-3.898-2.401-5.051-4.001c-2.126-2.934-3.055-6.044-2.789-9.333
			c0.531-7.998,2.836-15.109,6.908-21.33c2.571-4.001,5.492-8.313,8.768-12.934c1.154-1.689,3.675-4.755,7.572-9.199l0.801-0.801
			c-0.624-0.177-1.023-0.22-1.199-0.133c-2.57,0.09-4.604-1.243-6.109-3.998c-0.977-1.688-1.637-4.134-1.992-7.334
			c-0.271-2.044-0.4-4.044-0.4-6c0-1.599,0.089-3.908,0.268-6.932c0.086-0.887,0.309-1.91,0.665-3.067
			c0.354-1.154,0.753-1.953,1.194-2.399c0.444-0.442,1.288-0.844,2.523-1.199c1.063,0,1.859,0.445,2.391,1.332
			c0.62,0.622,0.934,1.601,0.934,2.933l-0.271,4.934l-0.131,4.266c0,1.781,0.131,3.558,0.402,5.335
			c0.441,2.31,1.014,4.312,1.727,5.997c0.439,0.268,0.791,0.137,1.063-0.398c0.796-1.243,1.327-2.311,1.594-3.199
			c2.391-6.31,4.117-11.82,5.18-16.532c0.352-1.245,0.576-2.176,0.665-2.801c0.796-2.309,1.237-4.354,1.327-6.132
			c0-0.622,0.134-1.199,0.398-1.733c0.62-1.155,1.503-1.732,2.656-1.732c0.619,0,1.284,0.266,1.993,0.8
			c0.269,0.179,0.71,0.799,1.33,1.865c0.531,1.424,0.841,2.447,0.931,3.067c0.707,3.646,1.148,7.6,1.332,11.865
			c0,1.423,0.169,2.445,0.529,3.066c5.4-4.087,9.564-7.332,12.486-9.731C372.117,154.899,372.341,154.721,372.341,154.721z
			 M353.076,195.917c0,0,0-1.113,0-3.332c0-3.024-0.262-7.646-0.797-13.866l-0.396-3.466l-1.464,1.332l-3.188,3.199l-6.248,6.267
			c-1.24,1.247-2.387,2.532-3.451,3.867c-1.773,2.131-4.691,6.22-8.768,12.264c-1.859,2.401-3.544,4.979-5.049,7.734
			c-3.01,6.485-4.52,12.399-4.52,17.731c0,2.4,0.979,4.8,2.924,7.2c0.887,0.888,1.863,1.375,2.928,1.466
			c1.416,0.177,2.434,0.268,3.055,0.268c2.742,0,5.09-0.667,7.039-2.002c0.797-0.355,1.596-0.846,2.391-1.467
			c0.799-0.621,1.375-1.065,1.725-1.332c4.607-3.823,7.662-7.956,9.17-12.398c0.974-2.847,1.814-5.956,2.523-9.334
			c0.883-3.911,1.55-8.088,1.994-12.53C353.032,196.449,353.076,195.917,353.076,195.917z M343.711,179.185
			c0.043,0.045,0.021,0.111-0.067,0.198l0.265-0.265h-0.13C343.689,179.118,343.662,179.141,343.711,179.185z M346.168,172.186
			c-1.062,3.022-1.774,5.245-2.124,6.665c0.35-0.177,0.712-0.398,1.063-0.667c1.681-1.42,2.923-2.621,3.723-3.6
			c1.326-1.065,2.255-1.953,2.789-2.666l-0.271-4.135c-0.178-3.73-0.352-6.531-0.528-8.396c0-0.09-0.047-0.134-0.133-0.134
			c-0.087,0-0.176-0.046-0.266-0.135c-0.178,0.179-0.265,0.313-0.265,0.401L346.168,172.186z"/>
	</g>
	<g>
		<path fill="#001A35" d="M99.072,89.839h3.372v15.151h-3.372v-5.961h-6.006v5.961h-3.368V89.839h3.368v6.331h6.006V89.839z"/>
		<path fill="#001A35" d="M121.232,104.99l-1.403-3.272h-6.328l-1.407,3.272h-3.582l6.523-15.151h3.26l6.525,15.151H121.232z
			 M116.675,94.347l-1.899,4.401h3.78L116.675,94.347z"/>
		<path fill="#001A35" d="M141.29,91.193c1.059,0.902,1.587,2.291,1.587,4.163c0,1.87-0.544,3.24-1.628,4.107
			c-1.088,0.867-2.75,1.301-4.981,1.301h-2.009v4.226h-3.369V89.839h5.336C138.542,89.839,140.23,90.292,141.29,91.193z
			 M138.814,97.155c0.405-0.455,0.607-1.121,0.607-1.995c0-0.874-0.264-1.496-0.788-1.863c-0.528-0.369-1.345-0.553-2.452-0.553
			h-1.924v5.094h2.269C137.65,97.838,138.413,97.609,138.814,97.155z"/>
		<path fill="#001A35" d="M160.232,91.193c1.058,0.902,1.588,2.291,1.588,4.163c0,1.87-0.542,3.24-1.631,4.107
			c-1.084,0.867-2.745,1.301-4.977,1.301h-2.009v4.226h-3.368V89.839h5.332C157.488,89.839,159.176,90.292,160.232,91.193z
			 M157.761,97.155c0.401-0.455,0.604-1.121,0.604-1.995c0-0.874-0.264-1.496-0.787-1.863c-0.528-0.369-1.344-0.553-2.454-0.553
			h-1.922v5.094h2.267C156.595,97.838,157.357,97.609,157.761,97.155z"/>
		<path fill="#001A35" d="M175.17,104.99H171.8v-5.981l-5.229-9.17h3.651l3.261,5.637l3.263-5.637h3.65l-5.226,9.17V104.99z"/>
	</g>
	<g>
		<path fill="#001A35" d="M129.601,209.993v11.408h-3.148v-11.408h-3.989v-2.729h11.128v2.729H129.601z"/>
		<path fill="#001A35" d="M156.425,219.45c-1.425,1.396-3.181,2.092-5.263,2.092c-2.083,0-3.836-0.696-5.261-2.092
			c-1.424-1.396-2.136-3.132-2.136-5.211c0-2.076,0.712-3.81,2.136-5.208c1.425-1.395,3.177-2.091,5.261-2.091
			c2.082,0,3.838,0.696,5.263,2.091c1.425,1.398,2.135,3.132,2.135,5.208C158.56,216.318,157.85,218.055,156.425,219.45z
			 M155.355,214.252c0-1.262-0.403-2.336-1.208-3.227c-0.804-0.891-1.798-1.334-2.974-1.334c-1.175,0-2.164,0.443-2.973,1.334
			c-0.805,0.891-1.208,1.965-1.208,3.227s0.403,2.332,1.208,3.215c0.809,0.883,1.798,1.326,2.973,1.326
			c1.176,0,2.17-0.443,2.974-1.326C154.953,216.584,155.355,215.514,155.355,214.252z"/>
		<path fill="#001A35" d="M190.75,221.401h-3.147v-5.582l-4.878-8.556h3.407l3.043,5.26l3.044-5.26h3.407l-4.876,8.556V221.401z"/>
		<path fill="#001A35" d="M217.556,219.45c-1.426,1.396-3.182,2.092-5.262,2.092c-2.083,0-3.838-0.696-5.261-2.092
			c-1.424-1.396-2.133-3.132-2.133-5.211c0-2.076,0.709-3.81,2.133-5.208c1.423-1.395,3.179-2.091,5.261-2.091
			c2.08,0,3.836,0.696,5.262,2.091c1.421,1.398,2.134,3.132,2.134,5.208C219.689,216.318,218.977,218.055,217.556,219.45z
			 M216.485,214.252c0-1.262-0.401-2.336-1.206-3.227c-0.809-0.891-1.8-1.334-2.974-1.334c-1.18,0-2.167,0.443-2.975,1.334
			c-0.806,0.891-1.208,1.965-1.208,3.227s0.403,2.332,1.208,3.215c0.808,0.883,1.795,1.326,2.975,1.326
			c1.173,0,2.165-0.443,2.974-1.326C216.083,216.584,216.485,215.514,216.485,214.252z"/>
		<path fill="#001A35" d="M235.148,217.75c0.523,0.654,1.232,0.979,2.117,0.979c0.886,0,1.589-0.325,2.106-0.979
			c0.519-0.654,0.777-1.549,0.777-2.679v-7.808h3.144v7.908c0,2.049-0.564,3.624-1.695,4.722c-1.131,1.101-2.57,1.648-4.332,1.648
			c-1.759,0-3.211-0.554-4.342-1.658c-1.137-1.104-1.707-2.677-1.707-4.712v-7.908h3.148v7.808
			C234.365,216.201,234.626,217.096,235.148,217.75z"/>
	</g>
</g>
<g>
	
		<linearGradient id="SVGID_1_" gradientUnits="userSpaceOnUse" x1="1084.4043" y1="-1219.2568" x2="1162.418" y2="-1219.2568" gradientTransform="matrix(0.8278 0.5611 -0.5611 0.8278 -1226.8276 456.3101)">
		<stop  offset="0" style="stop-color:#781700"/>
		<stop  offset="0.0163" style="stop-color:#811700"/>
		<stop  offset="0.1071" style="stop-color:#B11700"/>
		<stop  offset="0.1872" style="stop-color:#D41700"/>
		<stop  offset="0.2528" style="stop-color:#E91700"/>
		<stop  offset="0.2957" style="stop-color:#F11700"/>
		<stop  offset="0.3281" style="stop-color:#F53218"/>
		<stop  offset="0.372" style="stop-color:#F95132"/>
		<stop  offset="0.4152" style="stop-color:#FC6646"/>
		<stop  offset="0.4566" style="stop-color:#FE7451"/>
		<stop  offset="0.4946" style="stop-color:#FF7855"/>
		<stop  offset="0.533" style="stop-color:#FE7351"/>
		<stop  offset="0.576" style="stop-color:#FC6645"/>
		<stop  offset="0.6211" style="stop-color:#F95032"/>
		<stop  offset="0.6674" style="stop-color:#F53116"/>
		<stop  offset="0.6989" style="stop-color:#F11700"/>
		<stop  offset="0.7423" style="stop-color:#E71700"/>
		<stop  offset="0.8146" style="stop-color:#CE1700"/>
		<stop  offset="0.907" style="stop-color:#A41700"/>
		<stop  offset="1" style="stop-color:#731700"/>
	</linearGradient>
	<polygon fill="url(#SVGID_1_)" points="418.889,30.354 323.25,102.261 387.76,146.139 	"/>
	
		<linearGradient id="SVGID_2_" gradientUnits="userSpaceOnUse" x1="1084.9531" y1="-1215.4995" x2="1162.418" y2="-1215.4995" gradientTransform="matrix(0.8278 0.5611 -0.5611 0.8278 -1226.8276 456.3101)">
		<stop  offset="0" style="stop-color:#781700"/>
		<stop  offset="0.0163" style="stop-color:#811700"/>
		<stop  offset="0.1071" style="stop-color:#B11700"/>
		<stop  offset="0.1872" style="stop-color:#D41700"/>
		<stop  offset="0.2528" style="stop-color:#E91700"/>
		<stop  offset="0.2957" style="stop-color:#F11700"/>
		<stop  offset="0.3281" style="stop-color:#F53218"/>
		<stop  offset="0.372" style="stop-color:#F95132"/>
		<stop  offset="0.4152" style="stop-color:#FC6646"/>
		<stop  offset="0.4566" style="stop-color:#FE7451"/>
		<stop  offset="0.4946" style="stop-color:#FF7855"/>
		<stop  offset="0.533" style="stop-color:#FE7351"/>
		<stop  offset="0.576" style="stop-color:#FC6645"/>
		<stop  offset="0.6211" style="stop-color:#F95032"/>
		<stop  offset="0.6674" style="stop-color:#F53116"/>
		<stop  offset="0.6989" style="stop-color:#F11700"/>
		<stop  offset="0.7423" style="stop-color:#E71700"/>
		<stop  offset="0.8146" style="stop-color:#CE1700"/>
		<stop  offset="0.907" style="stop-color:#A41700"/>
		<stop  offset="1" style="stop-color:#731700"/>
	</linearGradient>
	<path fill="url(#SVGID_2_)" d="M409.025,67.046l0.731-2.731l-4.658-0.58l-8.587-16.557l-2.264,1.701l9.052,17.455L409.025,67.046z
		 M396.997,75.667l9.395,1.166l0.737-2.732l-8.333-1.034l-9.358-18.046l-2.883-0.355l-3.227,2.424l4.311,0.532L396.997,75.667z
		 M411.653,57.26l0.735-2.731l-0.99-0.124l-6.874-13.253l-2.263,1.703l7.338,14.15L411.653,57.26z M332.656,108.659l5.07,3.449
		l12.107,1.495l5.4,10.412l4.859,3.308l-8.461-16.318L332.656,108.659z M388.077,144.959l-6.964-13.415l-18.119-2.25l5.08,3.455
		l11.242,1.395l5.016,9.663l3.428,2.332L388.077,144.959z M390.696,84.996l13.065,1.623l0.733-2.733l-12-1.488l-9.358-18.046
		l-8.133-1.005l-3.221,2.425l9.555,1.18L390.696,84.996z M324.606,101.239l1.563,3.005l4.859,3.307l-4.155-8.015L324.606,101.239z
		 M390.805,134.807l1.074-3.996l-4.461-8.594l-20.125-2.498l-9.357-18.044l-20.107-2.483l-2.942-5.68l-2.263,1.703l3.406,6.576
		l20.107,2.485l9.359,18.045l20.125,2.498L390.805,134.807z M362.434,94.941l9.354,18.043l20.126,2.498l2.691,5.189l1.075-3.997
		l-1.968-3.794l-20.127-2.497l-9.354-18.044l-20.101-2.48l-1.231-2.374l-2.263,1.704l1.695,3.271L362.434,94.941z M415.875,41.561
		l-3.338-6.433l-2.262,1.703l4.525,8.727L415.875,41.561z M378.098,103.659l20.123,2.5l0.189,0.361l0.823-3.06l-19.337-2.402
		l-9.358-18.045l-18.628-2.301l-3.225,2.424l20.054,2.478L378.098,103.659z M384.395,94.326l16.736,2.078l0.736-2.732l-15.674-1.946
		l-9.355-18.044l-13.377-1.653l-3.227,2.424l14.807,1.83L384.395,94.326z"/>
	
		<linearGradient id="SVGID_3_" gradientUnits="userSpaceOnUse" x1="1116.0244" y1="-1159.3906" x2="1133.2729" y2="-1206.3702" gradientTransform="matrix(0.8278 0.5611 -0.5611 0.8278 -1226.8276 456.3101)">
		<stop  offset="0" style="stop-color:#000000"/>
		<stop  offset="0.2676" style="stop-color:#5D323B"/>
		<stop  offset="0.5351" style="stop-color:#B46072"/>
		<stop  offset="0.7223" style="stop-color:#EA7D95"/>
		<stop  offset="0.8128" style="stop-color:#FF88A2"/>
	</linearGradient>
	<polygon opacity="0.5" fill="url(#SVGID_3_)" points="418.889,30.354 356.292,124.736 379.799,140.723 	"/>
	
		<linearGradient id="SVGID_4_" gradientUnits="userSpaceOnUse" x1="1112.8203" y1="-1291.2397" x2="1125.3916" y2="-1273.0275" gradientTransform="matrix(0.8278 0.5611 -0.5611 0.8278 -1226.8276 456.3101)">
		<stop  offset="0" style="stop-color:#781700"/>
		<stop  offset="0.0163" style="stop-color:#811700"/>
		<stop  offset="0.1071" style="stop-color:#B11700"/>
		<stop  offset="0.1872" style="stop-color:#D41700"/>
		<stop  offset="0.2528" style="stop-color:#E91700"/>
		<stop  offset="0.2957" style="stop-color:#F11700"/>
		<stop  offset="0.3281" style="stop-color:#F53218"/>
		<stop  offset="0.372" style="stop-color:#F95132"/>
		<stop  offset="0.4152" style="stop-color:#FC6646"/>
		<stop  offset="0.4566" style="stop-color:#FE7451"/>
		<stop  offset="0.4946" style="stop-color:#FF7855"/>
		<stop  offset="0.533" style="stop-color:#FE7351"/>
		<stop  offset="0.576" style="stop-color:#FC6645"/>
		<stop  offset="0.6211" style="stop-color:#F95032"/>
		<stop  offset="0.6674" style="stop-color:#F53116"/>
		<stop  offset="0.6989" style="stop-color:#F11700"/>
		<stop  offset="0.7423" style="stop-color:#E71700"/>
		<stop  offset="0.8146" style="stop-color:#CE1700"/>
		<stop  offset="0.907" style="stop-color:#A41700"/>
		<stop  offset="1" style="stop-color:#731700"/>
	</linearGradient>
	<path fill="url(#SVGID_4_)" d="M423.172,32.948c-1.548,2.292-4.654,2.892-6.939,1.338s-2.883-4.671-1.334-6.963
		c1.549-2.293,4.655-2.891,6.939-1.338C424.123,27.539,424.723,30.657,423.172,32.948z"/>
	<path fill="#FFFFFF" d="M387.762,146.139c-0.055,0.082-0.105,0.158-0.17,0.236c-3.865,4.771-20.893-0.865-38.422-12.789
		c-17.54-11.929-29.057-25.705-26.072-31.079c0.049-0.089,0.1-0.164,0.156-0.246c0.055-0.083,0.104-0.159,0.17-0.236
		c4.21-5.375,21.553-0.192,39.121,11.757c17.561,11.943,28.789,26.195,25.373,32.111
		C387.872,145.979,387.818,146.055,387.762,146.139z"/>
	
		<linearGradient id="SVGID_5_" gradientUnits="userSpaceOnUse" x1="1123.4141" y1="-1171.9541" x2="1123.4141" y2="-1087.1886" gradientTransform="matrix(0.8278 0.5611 -0.5611 0.8278 -1226.8276 456.3101)">
		<stop  offset="0" style="stop-color:#5A1100"/>
		<stop  offset="0.066" style="stop-color:#761100"/>
		<stop  offset="0.1632" style="stop-color:#981100"/>
		<stop  offset="0.2433" style="stop-color:#AD1100"/>
		<stop  offset="0.2957" style="stop-color:#B51100"/>
		<stop  offset="0.3006" style="stop-color:#B51403"/>
		<stop  offset="0.3519" style="stop-color:#BA331D"/>
		<stop  offset="0.4021" style="stop-color:#BD4831"/>
		<stop  offset="0.4504" style="stop-color:#BE563C"/>
		<stop  offset="0.4946" style="stop-color:#BF5A40"/>
		<stop  offset="0.5395" style="stop-color:#BE553C"/>
		<stop  offset="0.5897" style="stop-color:#BD4830"/>
		<stop  offset="0.6424" style="stop-color:#B9321D"/>
		<stop  offset="0.6965" style="stop-color:#B51301"/>
		<stop  offset="0.6989" style="stop-color:#B51100"/>
		<stop  offset="0.7525" style="stop-color:#AB1100"/>
		<stop  offset="0.8418" style="stop-color:#921100"/>
		<stop  offset="0.9553" style="stop-color:#681100"/>
		<stop  offset="1" style="stop-color:#561100"/>
	</linearGradient>
	<path fill="url(#SVGID_5_)" d="M387.762,146.139c-0.055,0.082-0.105,0.158-0.17,0.236c-3.865,4.771-20.893-0.865-38.422-12.789
		c-17.54-11.929-29.057-25.705-26.072-31.079c0.049-0.089,0.1-0.164,0.156-0.246c0.055-0.083,0.104-0.159,0.17-0.236
		c3.869-4.772,20.887,0.86,38.424,12.787c17.531,11.925,29.054,25.707,26.07,31.082
		C387.872,145.979,387.818,146.055,387.762,146.139z"/>
</g>
</svg>
