<?xml version="1.0" encoding="utf-8"?>
<!-- Generator: Adobe Illustrator 16.0.0, SVG Export Plug-In . SVG Version: 6.00 Build 0)  -->
<!DOCTYPE svg PUBLIC "-//W3C//DTD SVG 1.1//EN" "http://www.w3.org/Graphics/SVG/1.1/DTD/svg11.dtd">
<svg version="1.1" id="Layer_1" xmlns="http://www.w3.org/2000/svg" xmlns:xlink="http://www.w3.org/1999/xlink" x="0px" y="0px"
	 width="2354.991px" height="1365.303px" viewBox="0 0 2354.991 1365.303" enable-background="new 0 0 2354.991 1365.303"
	 xml:space="preserve">
<g>
	<g>
		<defs>
			<rect id="SVGID_1_" x="0" width="2354.991" height="1365.304"/>
		</defs>
		<use xlink:href="#SVGID_1_"  overflow="visible" fill="#0AABCC"/>
		<clipPath id="SVGID_2_">
			<use xlink:href="#SVGID_1_"  overflow="visible"/>
		</clipPath>
		<g clip-path="url(#SVGID_2_)">
			<g>
				<path fill="#E6F5EC" d="M1140.161,1333.839c0.858-3.353,1.347-6.827,1.347-10.405c0-26.353-24.563-47.717-54.87-47.717
					c-2.022,0-4.015,0.113-5.979,0.299c-7.613-18.402-27.8-31.582-51.585-31.582c-22.195,0-41.264,11.479-49.905,27.961
					c-6.949-1.957-14.353-3.039-22.055-3.039c-28.308,0-52.703,14.309-64.349,35.029c-7.149-3.707-15.474-5.883-24.396-5.883
					c-26.364,0-47.735,18.59-47.735,41.512c0,3.692,0.607,7.256,1.654,10.668c-0.236-0.002-0.464-0.031-0.692-0.031
					c-21.063,0-38.139,14.852-38.139,33.169c0,18.313,17.076,33.165,38.139,33.165c2.298,0,4.534-0.209,6.723-0.547
					c3.125,22.021,24.678,39.082,50.842,39.082c18.452,0,34.58-8.504,43.611-21.225c10.46,16.975,31.037,28.526,54.732,28.526
					c23.633,0,44.17-11.487,54.652-28.392c6.005,3.435,13.18,5.448,20.9,5.448c18.281,0,33.537-11.204,37.217-26.144
					c8.26,4.712,18.127,7.482,28.747,7.482c28.981,0,52.468-20.432,52.468-45.633
					C1171.488,1356.93,1158.602,1340.912,1140.161,1333.839z"/>
				<g>
					<path fill="#FFFFFF" d="M868.369,1310.738c8.922,0,17.246,2.174,24.396,5.886c11.646-20.725,36.041-35.032,64.349-35.032
						c7.702,0,15.105,1.08,22.055,3.039c8.642-16.482,27.71-27.961,49.905-27.961c23.785,0,43.972,13.18,51.585,31.582
						c1.965-0.186,3.957-0.295,5.979-0.295c27.935,0,50.937,18.158,54.374,41.634c0.312-2.019,0.496-4.069,0.496-6.157
						c0-26.353-24.563-47.717-54.87-47.717c-2.022,0-4.015,0.113-5.979,0.299c-7.613-18.402-27.8-31.582-51.585-31.582
						c-22.195,0-41.264,11.479-49.905,27.961c-6.949-1.957-14.353-3.039-22.055-3.039c-28.308,0-52.703,14.309-64.349,35.029
						c-7.149-3.707-15.474-5.883-24.396-5.883c-26.364,0-47.735,18.59-47.735,41.512c0,2.092,0.213,4.137,0.571,6.139
						C824.607,1326.129,844.394,1310.738,868.369,1310.738z"/>
					<path fill="#FFFFFF" d="M1141.508,1335.67c0,3.577-0.488,7.051-1.347,10.404c16.351,6.271,28.313,19.582,30.821,35.519
						c0.299-1.97,0.506-3.968,0.506-6.009c0-18.217-12.304-33.895-30.057-41.207
						C1141.446,1334.811,1141.508,1335.234,1141.508,1335.67z"/>
					<path fill="#FFFFFF" d="M821.596,1362.889c0.229,0,0.456,0.025,0.692,0.031c-1.047-3.414-1.654-6.979-1.654-10.667
						c0-0.526,0.068-1.043,0.09-1.562c-20.654,0.405-37.267,15.059-37.267,33.128c0,2.09,0.25,4.129,0.676,6.116
						C787.436,1374.545,802.938,1362.889,821.596,1362.889z"/>
				</g>
				<g>
					<path fill="#93CCDE" d="M1119.021,1410.609c-10.62,0-20.487-2.764-28.747-7.479c-3.68,14.944-18.936,26.143-37.217,26.143
						c-7.721,0-14.896-2.013-20.9-5.453c-10.482,16.907-31.02,28.394-54.652,28.394c-23.695,0-44.272-11.555-54.732-28.524
						c-9.031,12.72-25.159,21.228-43.611,21.228c-26.164,0-47.717-17.061-50.842-39.078c-2.188,0.332-4.425,0.544-6.723,0.544
						c-18.981,0-34.682-12.077-37.605-27.87c-0.323,1.73-0.533,3.496-0.533,5.308c0,18.313,17.076,33.165,38.139,33.165
						c2.298,0,4.534-0.209,6.723-0.547c3.125,22.021,24.678,39.082,50.842,39.082c18.452,0,34.58-8.504,43.611-21.225
						c10.46,16.975,31.037,28.526,54.732,28.526c23.633,0,44.17-11.487,54.652-28.392c6.005,3.435,13.18,5.448,20.9,5.448
						c18.281,0,33.537-11.204,37.217-26.144c8.26,4.712,18.127,7.482,28.747,7.482c28.981,0,52.468-20.432,52.468-45.633
						c0-1.793-0.15-3.553-0.383-5.289C1168.074,1392.984,1145.929,1410.609,1119.021,1410.609z"/>
				</g>
				<path fill="#FFFFFF" d="M981.726,1287.859c15.368-5.715,32.904-0.577,41.399,11.452c-0.408-1.376-0.903-2.737-1.563-4.079
					c-7.225-14.707-26.793-21.537-43.71-15.254c-16.914,6.284-24.759,23.307-17.532,38.01c0.662,1.346,1.453,2.598,2.304,3.803
					C958.509,1308.137,966.356,1293.568,981.726,1287.859z"/>
				<path fill="#FFFFFF" d="M895.188,1320.894c15.369-5.714,32.902-0.571,41.4,11.452c-0.408-1.373-0.9-2.733-1.563-4.078
					c-7.225-14.711-26.799-21.532-43.712-15.25c-16.913,6.289-24.757,23.301-17.532,38.016c0.662,1.337,1.451,2.592,2.308,3.793
					C871.972,1341.178,879.818,1326.605,895.188,1320.894z"/>
				<path fill="#93CCDE" d="M1030.484,1422.85c-15.706,4.969-32.887-1.004-40.608-13.416c0.318,1.388,0.728,2.771,1.304,4.145
					c6.281,15.035,25.386,22.789,42.678,17.324c17.284-5.467,26.199-22.086,19.915-37.113c-0.575-1.368-1.287-2.654-2.063-3.906
					C1054.948,1403.713,1046.192,1417.885,1030.484,1422.85z"/>
				<path fill="#93CCDE" d="M1090.383,1401.512c-11.979,3.788-25.08-0.77-30.97-10.231c0.249,1.061,0.557,2.115,0.999,3.162
					c4.786,11.466,19.355,17.379,32.538,13.208c13.184-4.164,19.982-16.836,15.188-28.3c-0.438-1.047-0.979-2.027-1.57-2.978
					C1109.041,1386.915,1102.361,1397.724,1090.383,1401.512z"/>
				<path fill="#93CCDE" d="M924.692,1420.943c-12.598-1.688-21.563-11.161-21.493-21.922c-0.369,1.034-0.681,2.087-0.877,3.185
					c-2.141,12.056,7.365,23.333,21.228,25.194c13.862,1.86,26.831-6.408,28.968-18.465c0.192-1.102,0.26-2.189,0.271-3.266
					C949.125,1415.949,937.289,1422.634,924.692,1420.943z"/>
			</g>
			<g>
				<path fill="#E6F5EC" d="M972.798,1243.221c1.836-7.191,2.887-14.641,2.887-22.311c0-56.521-52.67-102.327-117.667-102.327
					c-4.342,0-8.61,0.232-12.829,0.63c-16.326-39.462-59.612-67.729-110.626-67.729c-47.598,0-88.486,24.616-107.021,59.964
					c-14.909-4.2-30.782-6.518-47.297-6.518c-60.701,0-113.031,30.685-138.002,75.124c-15.325-7.954-33.179-12.61-52.316-12.61
					c-56.537,0-102.367,39.858-102.367,89.019c0,7.924,1.305,15.561,3.542,22.877c-0.509-0.012-0.987-0.066-1.485-0.066
					c-45.168,0-81.789,31.847-81.789,71.121c0,39.289,36.621,71.138,81.789,71.138c4.929,0,9.729-0.452,14.423-1.177
					c6.703,47.229,52.911,83.814,109.031,83.814c39.573,0,74.158-18.242,93.531-45.521c22.426,36.402,66.558,61.174,117.367,61.174
					c50.679,0,94.73-24.632,117.209-60.885c12.876,7.371,28.26,11.686,44.824,11.686c39.201,0,71.92-24.024,79.813-56.064
					c17.714,10.111,38.872,16.033,61.643,16.033c62.156,0,112.529-43.805,112.529-97.853
					C1039.985,1292.729,1012.344,1258.391,972.798,1243.221z"/>
				<g>
					<path fill="#FFFFFF" d="M389.926,1193.686c19.138,0,36.991,4.658,52.316,12.608c24.971-44.433,77.301-75.118,138.002-75.118
						c16.515,0,32.388,2.318,47.297,6.514c18.535-35.347,59.424-59.965,107.021-59.965c51.014,0,94.3,28.267,110.626,67.729
						c4.219-0.397,8.487-0.63,12.829-0.63c59.902,0,109.225,38.938,116.605,89.283c0.667-4.316,1.062-8.715,1.062-13.196
						c0-56.521-52.67-102.327-117.667-102.327c-4.342,0-8.61,0.232-12.829,0.63c-16.326-39.462-59.612-67.729-110.626-67.729
						c-47.598,0-88.486,24.616-107.021,59.964c-14.909-4.2-30.782-6.518-47.297-6.518c-60.701,0-113.031,30.685-138.002,75.124
						c-15.325-7.954-33.179-12.61-52.316-12.61c-56.537,0-102.367,39.858-102.367,89.019c0,4.488,0.458,8.871,1.226,13.168
						C296.074,1226.687,338.51,1193.686,389.926,1193.686z"/>
					<path fill="#FFFFFF" d="M975.685,1247.149c0,7.672-1.051,15.126-2.887,22.31c35.067,13.454,60.727,41.99,66.101,76.174
						c0.641-4.229,1.087-8.513,1.087-12.894c0-39.067-26.391-72.688-64.464-88.374
						C975.554,1245.303,975.685,1246.21,975.685,1247.149z"/>
					<path fill="#FFFFFF" d="M289.615,1305.516c0.498,0,0.977,0.057,1.485,0.066c-2.237-7.312-3.542-14.954-3.542-22.877
						c0-1.133,0.148-2.229,0.193-3.35c-44.298,0.873-79.925,32.309-79.925,71.039c0,4.492,0.538,8.871,1.45,13.127
						C216.365,1330.517,249.608,1305.516,289.615,1305.516z"/>
				</g>
				<g>
					<path fill="#93CCDE" d="M927.456,1407.855c-22.771,0-43.929-5.93-61.643-16.037c-7.893,32.034-40.611,56.061-79.813,56.061
						c-16.564,0-31.948-4.313-44.824-11.684c-22.479,36.251-66.53,60.889-117.209,60.889c-50.81,0-94.941-24.777-117.367-61.174
						c-19.373,27.277-53.958,45.518-93.531,45.518c-56.12,0-102.328-36.582-109.031-83.813c-4.694,0.721-9.494,1.169-14.423,1.169
						c-40.703,0-74.374-25.893-80.646-59.755c-0.687,3.707-1.143,7.486-1.143,11.365c0,39.289,36.621,71.138,81.789,71.138
						c4.929,0,9.729-0.452,14.423-1.177c6.703,47.229,52.911,83.814,109.031,83.814c39.573,0,74.158-18.242,93.531-45.521
						c22.426,36.402,66.558,61.174,117.367,61.174c50.679,0,94.73-24.632,117.209-60.885c12.876,7.371,28.26,11.686,44.824,11.686
						c39.201,0,71.92-24.024,79.813-56.064c17.714,10.111,38.872,16.033,61.643,16.033c62.156,0,112.529-43.805,112.529-97.853
						c0-3.843-0.329-7.615-0.825-11.339C1032.655,1370.063,985.169,1407.855,927.456,1407.855z"/>
				</g>
				<path fill="#FFFFFF" d="M633.028,1144.61c32.956-12.249,70.559-1.23,88.782,24.556c-0.881-2.944-1.939-5.867-3.354-8.74
					c-15.496-31.551-57.463-46.19-93.738-32.707c-36.27,13.479-53.098,49.968-37.603,81.509c1.422,2.881,3.117,5.568,4.945,8.157
					C583.235,1188.11,600.063,1156.852,633.028,1144.61z"/>
				<path fill="#FFFFFF" d="M447.444,1215.459c32.959-12.25,70.561-1.221,88.784,24.557c-0.878-2.938-1.94-5.86-3.354-8.742
					c-15.494-31.544-57.465-46.186-93.739-32.706c-36.27,13.479-53.097,49.976-37.604,81.517c1.421,2.878,3.12,5.564,4.945,8.154
					C397.655,1258.959,414.48,1227.71,447.444,1215.459z"/>
				<path fill="#93CCDE" d="M737.596,1434.111c-33.688,10.65-70.532-2.16-87.093-28.776c0.689,2.972,1.563,5.946,2.791,8.886
					c13.47,32.243,54.45,48.877,91.526,37.154c37.072-11.723,56.187-47.355,42.713-79.591c-1.233-2.94-2.758-5.702-4.423-8.374
					C790.061,1393.064,771.282,1423.465,737.596,1434.111z"/>
				<path fill="#93CCDE" d="M866.049,1388.348c-25.689,8.127-53.783-1.643-66.414-21.94c0.529,2.274,1.193,4.53,2.129,6.778
					c10.271,24.587,41.521,37.27,69.795,28.328c28.268-8.936,42.844-36.11,32.574-60.693c-0.941-2.244-2.105-4.35-3.372-6.387
					C906.06,1357.043,891.739,1380.229,866.049,1388.348z"/>
				<path fill="#93CCDE" d="M510.719,1430.021c-27.021-3.621-46.248-23.943-46.099-47.014c-0.793,2.207-1.462,4.477-1.882,6.834
					c-4.592,25.85,15.799,50.04,45.532,54.025c29.727,3.984,57.53-13.747,62.118-39.593c0.414-2.366,0.557-4.694,0.575-7.011
					C563.103,1419.306,537.729,1433.641,510.719,1430.021z"/>
			</g>
			<g>
				<path fill="#E6F5EC" d="M2271.559,1274.598c39.088-72.221,3.455-158.341-79.592-192.361
					c-27.586-11.3-56.92-15.291-85.259-13.115c-7.788-69.582-56.032-133.978-134.052-165.933
					c-100.202-41.05-216.611-15.25-283.412,56.352c-15.957-19.278-37.537-35.434-63.992-46.268
					c-83.07-34.03-182.141-3.055-221.274,69.183c-10.92,20.167-15.829,41.398-15.696,62.299
					c-95.285-12.291-192.513,30.1-235.676,109.794c-52.784,97.439-4.738,213.638,107.314,259.545
					c22.76,9.321,46.416,14.856,70.1,17.215c-8.166,79.212,40.036,158.004,127.585,193.869
					c78.493,32.153,167.493,21.159,231.952-21.744c15.746,12.202,33.654,22.75,53.709,30.964
					c93.936,38.479,202.85,15.174,266.781-50.734c1.184,0.51,2.269,1.123,3.467,1.613c112.051,45.91,245.675,4.124,298.467-93.327
					C2352.541,1417.068,2333.381,1331.229,2271.559,1274.598z"/>
				<g>
					<path fill="#93CCDE" d="M2311.98,1435.414c-52.792,97.445-186.416,139.234-298.467,93.325
						c-1.198-0.489-2.283-1.102-3.467-1.616c-63.932,65.912-172.846,89.219-266.781,50.736
						c-20.055-8.211-37.963-18.753-53.709-30.963c-64.459,42.902-153.459,53.896-231.952,21.74
						c-87.549-35.854-135.751-114.653-127.585-193.865c-23.684-2.352-47.34-7.891-70.1-17.209
						c-70.616-28.938-115.783-85.797-126.335-148.284c-14.039,82.815,34.753,167.292,126.335,204.814
						c22.76,9.321,46.416,14.856,70.1,17.215c-8.166,79.212,40.036,158.004,127.585,193.869
						c78.493,32.153,167.493,21.159,231.952-21.744c15.746,12.202,33.654,22.75,53.709,30.964
						c93.936,38.479,202.85,15.174,266.781-50.734c1.184,0.51,2.269,1.123,3.467,1.613c112.051,45.91,245.675,4.124,298.467-93.327
						c19.479-35.956,25.055-74.425,18.879-110.991C2327.719,1399.365,2321.58,1417.699,2311.98,1435.414z"/>
					<path fill="#93CCDE" d="M2284.007,1184.821c-2.597,11.241-6.581,22.407-12.448,33.243c5.101,4.673,9.797,9.604,14.312,14.655
						C2288.422,1216.589,2287.594,1200.433,2284.007,1184.821z"/>
				</g>
				<g>
					<path fill="#FFFFFF" d="M2286.607,1290.105c-1.645,16.576-6.424,33.176-15.049,49.099
						c30.91,28.316,51.156,63.926,58.603,101.824C2340.502,1387.258,2324.13,1332.57,2286.607,1290.105z"/>
					<path fill="#FFFFFF" d="M1152.605,1219.155c43.163-79.696,140.391-122.081,235.676-109.794
						c-0.133-20.901,4.776-42.128,15.696-62.294c39.134-72.238,138.204-103.211,221.274-69.187
						c26.455,10.836,48.035,26.995,63.992,46.267c66.801-71.594,183.21-97.401,283.412-56.348
						c78.02,31.951,126.264,96.348,134.052,165.932c28.339-2.177,57.673,1.815,85.259,13.113
						c48.076,19.699,80.121,56.89,91.126,98.699c17.29-64.916-18.991-133.756-91.126-163.307
						c-27.586-11.3-56.92-15.291-85.259-13.115c-7.788-69.582-56.032-133.978-134.052-165.933
						c-100.202-41.05-216.611-15.25-283.412,56.352c-15.957-19.278-37.537-35.434-63.992-46.268
						c-83.07-34.03-182.141-3.055-221.274,69.183c-10.92,20.167-15.829,41.398-15.696,62.299
						c-95.285-12.291-192.513,30.1-235.676,109.794c-20.242,37.368-25.61,77.493-18.265,115.356
						C1137.677,1252.739,1143.656,1235.678,1152.605,1219.155z"/>
				</g>
				<path fill="#93CCDE" d="M1689.557,1549.027c-67.828,0-123.613-44.822-130.32-102.27c-0.449,3.83-0.677,7.721-0.677,11.653
					c0,62.918,58.644,113.919,130.997,113.919c72.353,0,130.992-51.001,130.992-113.919c0-3.933-0.221-7.823-0.677-11.653
					C1813.163,1504.205,1757.379,1549.027,1689.557,1549.027z"/>
				<path fill="#93CCDE" d="M2009.18,1520.807c-67.434,6.311-128.414-33.073-142.152-89.558c0.032,3.847,0.277,7.732,0.768,11.644
					c7.734,62.559,72.318,107.811,144.249,101.081c71.94-6.735,123.983-62.898,116.237-125.46
					c-0.482-3.904-1.189-7.747-2.102-11.518C2126.578,1464.732,2076.621,1514.494,2009.18,1520.807z"/>
				<path fill="#FFFFFF" d="M2094.773,1163.108c40.783,30.223,50.288,80.49,25.733,119.877c6.071-4.065,11.761-8.707,16.932-13.986
					c39.913-40.731,34.298-101.908-12.55-136.619c-46.847-34.718-117.188-29.825-157.105,10.908
					c-5.173,5.282-9.541,10.91-13.19,16.761C1995.414,1132.709,2053.987,1132.895,2094.773,1163.108z"/>
				<path fill="#FFFFFF" d="M1683.082,1051.022c53.585,0,98.303,32.895,108.99,76.722c1.586-6.514,2.459-13.265,2.459-20.19
					c0-53.524-49.898-96.919-111.449-96.919c-61.552,0-111.443,43.395-111.443,96.919c0,6.925,0.869,13.677,2.453,20.19
					C1584.781,1083.917,1629.5,1051.022,1683.082,1051.022z"/>
			</g>
			<g>
				<path fill="#E6F5EC" d="M250.313,659.392c11.963-22.096,1.06-48.452-24.356-58.863c-8.441-3.459-17.417-4.68-26.089-4.014
					c-2.383-21.292-17.147-41-41.024-50.776c-30.662-12.563-66.287-4.667-86.729,17.245c-4.882-5.901-11.487-10.846-19.581-14.162
					c-25.421-10.413-55.737-0.934-67.713,21.171c-3.345,6.174-4.845,12.67-4.804,19.063c-29.159-3.759-58.913,9.214-72.121,33.601
					c-16.154,29.821-1.45,65.38,32.839,79.426c6.966,2.853,14.204,4.544,21.452,5.268c-2.5,24.24,12.252,48.352,39.043,59.327
					c24.019,9.838,51.255,6.478,70.981-6.651c4.82,3.729,10.299,6.956,16.435,9.471c28.748,11.778,62.079,4.648,81.641-15.525
					c0.361,0.155,0.694,0.343,1.062,0.497c34.287,14.046,75.18,1.258,91.335-28.565
					C275.095,702.995,269.233,676.723,250.313,659.392z"/>
				<g>
					<path fill="#93CCDE" d="M262.685,708.609c-16.155,29.819-57.049,42.606-91.335,28.554c-0.368-0.148-0.701-0.333-1.062-0.491
						c-19.562,20.168-52.894,27.302-81.641,15.524c-6.136-2.514-11.615-5.737-16.435-9.473
						c-19.727,13.125-46.962,16.495-70.981,6.654c-26.791-10.974-41.543-35.089-39.043-59.328
						c-7.248-0.722-14.486-2.412-21.452-5.268c-21.611-8.853-35.434-26.255-38.66-45.374c-4.296,25.343,10.634,51.194,38.66,62.675
						c6.966,2.853,14.204,4.544,21.452,5.268c-2.5,24.24,12.252,48.352,39.043,59.327c24.019,9.838,51.255,6.478,70.981-6.651
						c4.82,3.729,10.299,6.956,16.435,9.471c28.748,11.778,62.079,4.648,81.641-15.525c0.361,0.155,0.694,0.343,1.062,0.497
						c34.287,14.046,75.18,1.258,91.335-28.565c5.961-11,7.665-22.771,5.774-33.962
						C267.498,697.578,265.623,703.189,262.685,708.609z"/>
					<path fill="#93CCDE" d="M254.123,631.921c-0.796,3.44-2.014,6.856-3.81,10.173c1.563,1.431,2.998,2.94,4.38,4.483
						C255.475,641.644,255.222,636.7,254.123,631.921z"/>
				</g>
				<g>
					<path fill="#FFFFFF" d="M254.919,664.141c-0.503,5.071-1.966,10.152-4.605,15.026c9.461,8.666,15.655,19.564,17.936,31.16
						C271.411,693.868,266.402,677.137,254.919,664.141z"/>
					<path fill="#FFFFFF" d="M-92.104,642.43c13.208-24.388,42.962-37.36,72.121-33.6c-0.042-6.397,1.459-12.894,4.804-19.067
						c11.976-22.104,42.292-31.581,67.713-21.169c8.094,3.314,14.699,8.258,19.581,14.16c20.441-21.91,56.066-29.809,86.729-17.242
						c23.876,9.775,38.641,29.48,41.024,50.775c8.672-0.666,17.648,0.556,26.089,4.012c14.713,6.028,24.52,17.408,27.887,30.204
						c5.292-19.864-5.813-40.93-27.887-49.975c-8.441-3.459-17.417-4.68-26.089-4.014c-2.383-21.292-17.147-41-41.024-50.776
						c-30.662-12.563-66.287-4.667-86.729,17.245c-4.882-5.901-11.487-10.846-19.581-14.162
						c-25.421-10.413-55.737-0.934-67.713,21.171c-3.345,6.174-4.845,12.67-4.804,19.063c-29.159-3.759-58.913,9.214-72.121,33.601
						c-6.197,11.437-7.839,23.713-5.593,35.302C-96.674,652.704-94.845,647.485-92.104,642.43z"/>
				</g>
				<path fill="#93CCDE" d="M72.212,743.373c-20.755,0-37.829-13.718-39.88-31.292c-0.139,1.17-0.209,2.361-0.209,3.566
					c0,19.249,17.946,34.859,40.09,34.859c22.139,0,40.085-15.61,40.085-34.859c0-1.205-0.07-2.396-0.204-3.566
					C110.04,729.655,92.967,743.373,72.212,743.373z"/>
				<path fill="#93CCDE" d="M170.021,734.738c-20.635,1.932-39.296-10.119-43.5-27.405c0.009,1.175,0.083,2.371,0.235,3.564
					c2.366,19.142,22.132,32.99,44.143,30.934c22.013-2.063,37.939-19.25,35.571-38.392c-0.149-1.2-0.365-2.375-0.646-3.528
					C205.947,717.582,190.658,732.806,170.021,734.738z"/>
				<path fill="#FFFFFF" d="M196.215,625.277c12.48,9.249,15.389,24.629,7.875,36.684c1.857-1.246,3.597-2.666,5.178-4.279
					c12.217-12.464,10.5-31.186-3.836-41.806c-14.338-10.625-35.865-9.129-48.079,3.337c-1.581,1.613-2.917,3.338-4.038,5.126
					C165.808,615.978,183.731,616.033,196.215,625.277z"/>
				<path fill="#FFFFFF" d="M70.229,590.976c16.4,0,30.083,10.066,33.352,23.479c0.487-1.996,0.754-4.057,0.754-6.179
					c0-16.38-15.271-29.659-34.106-29.659c-18.834,0-34.103,13.279-34.103,29.659c0,2.122,0.266,4.184,0.749,6.179
					C40.149,601.042,53.833,590.976,70.229,590.976z"/>
			</g>
			<g>
				<path fill="#E6F5EC" d="M906.179,1241.724c30.817-56.942,2.725-124.845-62.757-151.667c-21.749-8.91-44.878-12.059-67.22-10.344
					c-6.142-54.86-44.182-105.637-105.697-130.832c-79.006-32.365-170.791-12.02-223.461,44.43
					c-12.581-15.199-29.595-27.937-50.452-36.481c-65.499-26.827-143.613-2.409-174.47,54.552
					c-8.61,15.899-12.478,32.639-12.374,49.115c-75.13-9.688-151.787,23.736-185.825,86.57
					c-41.617,76.83-3.737,168.448,84.615,204.646c17.946,7.35,36.598,11.715,55.272,13.565
					c-6.441,62.464,31.566,124.588,100.595,152.86c61.89,25.357,132.063,16.686,182.885-17.139
					c12.417,9.619,26.535,17.935,42.348,24.413c74.065,30.34,159.943,11.961,210.351-40.006c0.928,0.407,1.786,0.892,2.729,1.273
					c88.351,36.202,193.709,3.25,235.335-73.581C970.032,1354.061,954.925,1286.368,906.179,1241.724z"/>
				<g>
					<path fill="#93CCDE" d="M938.053,1368.524c-41.626,76.83-146.984,109.782-235.335,73.578c-0.943-0.384-1.802-0.868-2.729-1.265
						c-50.407,51.961-136.285,70.338-210.351,39.998c-15.813-6.479-29.931-14.788-42.348-24.414
						c-50.821,33.832-120.995,42.494-182.885,17.144c-69.028-28.273-107.036-90.399-100.595-152.856
						c-18.675-1.856-37.326-6.224-55.272-13.576c-55.68-22.811-91.291-67.639-99.611-116.908
						c-11.066,65.294,27.403,131.904,99.611,161.488c17.946,7.35,36.598,11.715,55.272,13.565
						c-6.441,62.464,31.566,124.588,100.595,152.86c61.89,25.357,132.063,16.686,182.885-17.139
						c12.417,9.619,26.535,17.935,42.348,24.413c74.065,30.34,159.943,11.961,210.351-40.006c0.928,0.407,1.786,0.892,2.729,1.273
						c88.351,36.202,193.709,3.25,235.335-73.581c15.355-28.349,19.751-58.685,14.881-87.512
						C950.46,1340.102,945.614,1354.56,938.053,1368.524z"/>
					<path fill="#93CCDE" d="M915.992,1170.943c-2.05,8.861-5.187,17.662-9.813,26.203c4.024,3.687,7.723,7.58,11.281,11.555
						C919.472,1195.99,918.823,1183.25,915.992,1170.943z"/>
				</g>
				<g>
					<path fill="#FFFFFF" d="M918.051,1253.949c-1.299,13.07-5.076,26.158-11.872,38.718c24.37,22.321,40.334,50.399,46.21,80.281
						C960.535,1330.55,947.635,1287.438,918.051,1253.949z"/>
					<path fill="#FFFFFF" d="M23.923,1198.014c34.038-62.84,110.694-96.26,185.825-86.572c-0.104-16.48,3.764-33.217,12.374-49.115
						c30.856-56.963,108.971-81.38,174.47-54.552c20.857,8.541,37.871,21.282,50.452,36.481
						c52.67-56.453,144.455-76.799,223.461-44.43c61.516,25.194,99.556,75.97,105.697,130.833
						c22.342-1.72,45.471,1.427,67.22,10.337c37.907,15.53,63.173,44.853,71.845,77.816c13.641-51.175-14.97-105.454-71.845-128.756
						c-21.749-8.91-44.878-12.059-67.22-10.344c-6.142-54.86-44.182-105.637-105.697-130.832
						c-79.006-32.365-170.791-12.02-223.461,44.43c-12.581-15.199-29.595-27.937-50.452-36.481
						c-65.499-26.827-143.613-2.409-174.47,54.552c-8.61,15.899-12.478,32.639-12.374,49.115
						c-75.13-9.688-151.787,23.736-185.825,86.57c-15.958,29.466-20.191,61.101-14.402,90.957
						C12.151,1224.489,16.869,1211.039,23.923,1198.014z"/>
				</g>
				<path fill="#93CCDE" d="M447.29,1458.104c-53.479,0-97.464-35.343-102.753-80.633c-0.355,3.019-0.531,6.086-0.531,9.182
					c0,49.609,46.236,89.824,103.284,89.824c57.045,0,103.285-40.215,103.285-89.824c0-3.096-0.181-6.163-0.536-9.182
					C544.754,1422.761,500.769,1458.104,447.29,1458.104z"/>
				<path fill="#93CCDE" d="M699.302,1435.848c-53.167,4.98-101.25-26.071-112.079-70.612c0.021,3.034,0.214,6.101,0.601,9.185
					c6.101,49.323,57.023,85.007,113.737,79.698c56.722-5.313,97.757-49.599,91.646-98.919c-0.377-3.08-0.938-6.11-1.657-9.084
					C791.863,1391.637,752.475,1430.873,699.302,1435.848z"/>
				<path fill="#FFFFFF" d="M766.787,1153.818c32.16,23.83,39.654,63.46,20.292,94.519c4.784-3.203,9.271-6.864,13.349-11.026
					c31.476-32.119,27.045-80.348-9.896-107.718c-36.935-27.375-92.397-23.516-123.871,8.6c-4.076,4.161-7.521,8.602-10.4,13.214
					C688.445,1129.85,734.632,1130,766.787,1153.818z"/>
				<path fill="#FFFFFF" d="M442.188,1065.439c42.247,0,77.506,25.94,85.934,60.493c1.251-5.133,1.937-10.45,1.937-15.917
					c0-42.201-39.342-76.411-87.87-76.411c-48.531,0-87.873,34.21-87.873,76.411c0,5.467,0.688,10.783,1.938,15.917
					C364.682,1091.38,399.938,1065.439,442.188,1065.439z"/>
			</g>
			<g>
				<path fill="#E6F5EC" d="M2555.018,1091.039c0-83.804-78.139-151.748-174.499-151.748c-34.834,0-67.265,8.917-94.499,24.21
					c-22.961-25.007-58.244-41.073-97.902-41.073c-45.933,0-85.975,21.563-107.787,53.625
					c-22.552-14.139-50.213-22.495-80.135-22.495c-75.773,0-137.216,53.427-137.216,119.328c0,12.242,2.136,24.048,6.075,35.169
					c-49.979,12.378-86.609,52.285-86.609,99.719c0,56.02,51.083,101.545,114.93,103.566c-0.02,0.5-0.091,0.991-0.091,1.488
					c0,46.564,43.407,84.307,96.948,84.307c15.179,0,29.486-3.121,42.28-8.529c24.235,39.419,72.012,66.248,127.001,66.248
					c56.941,0,106.152-28.77,129.488-70.498c20.539,7.385,43.039,11.486,66.639,11.486c96.359,0,174.498-67.941,174.498-151.755
					c0-21.758-5.307-42.429-14.791-61.142C2541.711,1157.438,2555.018,1125.596,2555.018,1091.039z"/>
				<g>
					<path fill="#93CCDE" d="M2359.641,1362.984c-23.6,0-46.1-4.104-66.639-11.486c-23.336,41.73-72.547,70.5-129.488,70.5
						c-54.989,0-102.766-26.828-127.001-66.25c-12.794,5.412-27.102,8.532-42.28,8.532c-53.541,0-96.948-37.745-96.948-84.302
						c0-0.508,0.071-0.994,0.091-1.492c-57.58-1.828-104.641-39.072-113.359-87.452c-1.016,5.447-1.57,11.041-1.57,16.739
						c0,56.02,51.083,101.545,114.93,103.566c-0.02,0.5-0.091,0.991-0.091,1.488c0,46.564,43.407,84.307,96.948,84.307
						c15.179,0,29.486-3.121,42.28-8.529c24.235,39.419,72.012,66.248,127.001,66.248c56.941,0,106.152-28.77,129.488-70.498
						c20.539,7.385,43.039,11.486,66.639,11.486c96.359,0,174.498-67.941,174.498-151.755c0-5.561-0.354-11.046-1.03-16.45
						C2523.701,1303.73,2449.627,1362.984,2359.641,1362.984z"/>
				</g>
				<g>
					<path fill="#FFFFFF" d="M2000.195,996.794c29.922,0,57.583,8.355,80.135,22.495c21.813-32.061,61.854-53.624,107.787-53.624
						c39.658,0,74.941,16.065,97.902,41.073c27.234-15.295,59.665-24.211,94.499-24.211c87.789,0,160.427,56.399,172.659,129.808
						c1.129-6.97,1.84-14.059,1.84-21.296c0-83.804-78.139-151.748-174.499-151.748c-34.834,0-67.265,8.917-94.499,24.21
						c-22.961-25.007-58.244-41.073-97.902-41.073c-45.933,0-85.975,21.563-107.787,53.625
						c-22.552-14.139-50.213-22.495-80.135-22.495c-75.773,0-137.216,53.427-137.216,119.328c0,7.336,0.851,14.496,2.317,21.473
						C1877.07,1038.854,1932.967,996.794,2000.195,996.794z"/>
					<path fill="#FFFFFF" d="M1869.055,1151.29c-3.939-11.121-6.075-22.928-6.075-35.167c0-2.147,0.069-4.27,0.202-6.383
						c-46.936,13.958-80.736,52.495-80.736,98.034c0,7.449,0.957,14.696,2.676,21.701
						C1794.293,1191.83,1826.869,1161.739,1869.055,1151.29z"/>
				</g>
				<path fill="#FFFFFF" d="M2081.305,1029.382c34.141-4.38,66.064,14.143,75.24,42.256c-0.055-2.544-0.271-5.121-0.711-7.711
					c-5.473-32.279-40.006-54.583-77.121-49.826c-37.117,4.764-62.764,34.787-57.287,67.065c0.434,2.595,1.086,5.112,1.881,7.564
					C2022.758,1059.511,2047.172,1033.761,2081.305,1029.382z"/>
				<path fill="#93CCDE" d="M2287.072,1343.636c-32.953,8.894-67.785-5.124-81.824-31.679c0.5,2.515,1.172,5.029,2.061,7.527
					c11.139,31.158,49.203,48.57,85.035,38.893c35.83-9.68,55.85-42.786,44.717-73.938c-0.891-2.505-1.975-4.906-3.197-7.221
					C2339.59,1306.012,2320.026,1334.734,2287.072,1343.636z"/>
				<path fill="#93CCDE" d="M2047.654,1351.206c-29.147-16.058-39.434-48.222-25.273-74.719c-1.881,1.956-3.65,4.038-5.264,6.245
					c-20.076,27.559-10.658,64.058,21.033,81.521c31.697,17.464,73.665,9.274,93.734-18.282c1.624-2.216,3.018-4.491,4.251-6.798
					C2114.631,1361.617,2076.795,1367.271,2047.654,1351.206z"/>
				<path fill="#FFFFFF" d="M2285.426,1016.852c34.504-0.349,63.284,21.74,68.021,50.672c0.342-2.533,0.527-5.11,0.49-7.726
					c-0.438-32.627-31.203-58.767-68.722-58.391c-37.519,0.382-67.568,27.141-67.126,59.756c0.02,2.624,0.277,5.193,0.686,7.722
					C2222.749,1039.865,2250.926,1017.194,2285.426,1016.852z"/>
			</g>
			<g>
				<path fill="#E6F5EC" d="M1883.884,1219.719c0-112.839-105.198-204.313-234.942-204.313c-46.898,0-90.561,12.002-127.227,32.593
					c-30.916-33.665-78.422-55.294-131.812-55.294c-61.841,0-115.763,29.037-145.123,72.194
					c-30.361-19.039-67.608-30.288-107.893-30.288c-102.02,0-184.743,71.931-184.743,160.661c0,16.486,2.869,32.383,8.175,47.356
					c-67.287,16.661-116.609,70.396-116.609,134.254c0,75.422,68.783,136.716,154.738,139.443c-0.016,0.673-0.117,1.328-0.117,2.004
					c0,62.684,58.444,113.504,130.523,113.504c20.442,0,39.707-4.201,56.933-11.482c32.631,53.07,96.949,89.19,170.987,89.19
					c76.663,0,142.923-38.729,174.347-94.911c27.652,9.941,57.931,15.459,89.707,15.459c129.74,0,234.949-91.468,234.949-204.314
					c0-29.295-7.146-57.128-19.918-82.32C1865.971,1309.11,1883.884,1266.242,1883.884,1219.719z"/>
				<g>
					<path fill="#93CCDE" d="M1620.828,1585.85c-31.776,0-62.055-5.518-89.707-15.455c-31.424,56.182-97.684,94.913-174.347,94.913
						c-74.038,0-138.356-36.126-170.987-89.198c-17.226,7.287-36.49,11.49-56.933,11.49c-72.079,0-130.523-50.822-130.523-113.504
						c0-0.678,0.102-1.336,0.117-2.014c-77.523-2.453-140.887-52.597-152.619-117.739c-1.368,7.341-2.119,14.858-2.119,22.54
						c0,75.422,68.783,136.716,154.738,139.443c-0.016,0.673-0.117,1.328-0.117,2.004c0,62.684,58.444,113.504,130.523,113.504
						c20.442,0,39.707-4.201,56.933-11.482c32.631,53.07,96.949,89.19,170.987,89.19c76.663,0,142.923-38.729,174.347-94.911
						c27.652,9.941,57.931,15.459,89.707,15.459c129.74,0,234.949-91.468,234.949-204.314c0-7.487-0.48-14.875-1.391-22.152
						C1841.717,1506.075,1741.988,1585.85,1620.828,1585.85z"/>
				</g>
				<g>
					<path fill="#FFFFFF" d="M1136.888,1092.825c40.284,0,77.531,11.249,107.893,30.283c29.36-43.161,83.282-72.196,145.123-72.196
						c53.39,0,100.896,21.636,131.812,55.301c36.666-20.59,80.328-32.593,127.227-32.593c118.201,0,215.994,75.931,232.467,174.765
						c1.523-9.382,2.476-18.923,2.476-28.665c0-112.839-105.198-204.313-234.942-204.313c-46.898,0-90.561,12.002-127.227,32.593
						c-30.916-33.665-78.422-55.294-131.812-55.294c-61.841,0-115.763,29.037-145.123,72.194
						c-30.361-19.039-67.608-30.288-107.893-30.288c-102.02,0-184.743,71.931-184.743,160.661c0,9.881,1.148,19.523,3.123,28.919
						C971.11,1149.453,1046.375,1092.825,1136.888,1092.825z"/>
					<path fill="#FFFFFF" d="M960.319,1300.836c-5.306-14.969-8.175-30.874-8.175-47.359c0-2.876,0.094-5.738,0.269-8.58
						c-63.184,18.793-108.703,70.675-108.703,131.986c0,10.032,1.294,19.788,3.61,29.211
						C859.663,1355.419,903.528,1314.902,960.319,1300.836z"/>
				</g>
				<path fill="#FFFFFF" d="M1246.091,1136.698c45.97-5.894,88.95,19.046,101.294,56.903c-0.069-3.437-0.355-6.903-0.947-10.393
					c-7.373-43.457-53.863-73.487-103.834-67.075c-49.979,6.407-84.508,46.835-77.131,90.285c0.587,3.498,1.457,6.884,2.528,10.19
					C1167.259,1177.266,1200.129,1142.59,1246.091,1136.698z"/>
				<path fill="#93CCDE" d="M1523.137,1559.795c-44.378,11.982-91.27-6.893-110.174-42.643c0.678,3.385,1.574,6.77,2.779,10.135
					c14.984,41.949,66.24,65.397,114.486,52.366c48.244-13.033,75.197-57.606,60.209-99.551c-1.205-3.369-2.662-6.607-4.309-9.725
					C1593.838,1509.148,1567.503,1547.82,1523.137,1559.795z"/>
				<path fill="#93CCDE" d="M1200.787,1569.997c-39.248-21.619-53.09-64.922-34.029-100.599c-2.534,2.637-4.911,5.43-7.086,8.401
					c-27.028,37.108-14.354,86.251,28.323,109.757c42.677,23.522,99.177,12.494,126.199-24.615c2.177-2.982,4.063-6.038,5.724-9.149
					C1290.957,1584.017,1240.02,1591.62,1200.787,1569.997z"/>
				<path fill="#FFFFFF" d="M1520.914,1119.827c46.448-0.468,85.199,29.271,91.578,68.225c0.463-3.412,0.711-6.875,0.666-10.396
					c-0.587-43.925-42.01-79.128-92.525-78.616c-50.516,0.511-90.977,36.538-90.378,80.456c0.024,3.529,0.372,6.988,0.924,10.392
					C1436.531,1150.813,1474.461,1120.296,1520.914,1119.827z"/>
			</g>
			<g>
				<path fill="#E6F5EC" d="M2665.777,765.312c0-88.019-82.062-159.372-183.267-159.372c-36.583,0-70.64,9.36-99.242,25.424
					c-24.114-26.26-61.173-43.132-102.819-43.132c-48.235,0-90.298,22.647-113.199,56.316c-23.68-14.85-52.734-23.625-84.156-23.625
					c-79.583,0-144.109,56.106-144.109,125.319c0,12.855,2.24,25.259,6.377,36.94c-52.486,12.999-90.961,54.91-90.961,104.72
					c0,58.833,53.652,106.646,120.702,108.769c-0.015,0.529-0.087,1.039-0.087,1.566c0,48.895,45.585,88.539,101.807,88.539
					c15.948,0,30.979-3.277,44.406-8.96c25.461,41.398,75.63,69.578,133.381,69.578c59.799,0,111.488-30.215,135.996-74.037
					c21.567,7.754,45.191,12.059,69.979,12.059c101.204,0,183.266-71.35,183.266-159.371c0-22.857-5.575-44.564-15.539-64.211
					C2651.806,835.043,2665.777,801.602,2665.777,765.312z"/>
				<g>
					<path fill="#93CCDE" d="M2460.584,1050.908c-24.787,0-48.411-4.305-69.979-12.06c-24.508,43.827-76.197,74.04-135.996,74.04
						c-57.751,0-107.92-28.177-133.381-69.576c-13.428,5.68-28.458,8.957-44.406,8.957c-56.222,0-101.807-39.639-101.807-88.536
						c0-0.526,0.072-1.035,0.087-1.565c-60.471-1.92-109.895-41.033-119.052-91.837c-1.063,5.721-1.65,11.585-1.65,17.573
						c0,58.833,53.652,106.646,120.702,108.769c-0.015,0.529-0.087,1.039-0.087,1.566c0,48.895,45.585,88.539,101.807,88.539
						c15.948,0,30.979-3.277,44.406-8.96c25.461,41.398,75.63,69.578,133.381,69.578c59.799,0,111.488-30.215,135.996-74.037
						c21.567,7.754,45.191,12.059,69.979,12.059c101.204,0,183.266-71.35,183.266-159.371c0-5.841-0.377-11.607-1.087-17.282
						C2632.884,988.682,2555.092,1050.908,2460.584,1050.908z"/>
				</g>
				<g>
					<path fill="#FFFFFF" d="M2083.094,666.327c31.422,0,60.477,8.778,84.156,23.625c22.901-33.666,64.964-56.314,113.199-56.314
						c41.646,0,78.705,16.872,102.819,43.134c28.603-16.066,62.659-25.428,99.242-25.428c92.2,0,168.483,59.232,181.335,136.323
						c1.186-7.313,1.932-14.755,1.932-22.356c0-88.019-82.062-159.372-183.267-159.372c-36.583,0-70.64,9.36-99.242,25.424
						c-24.114-26.26-61.173-43.132-102.819-43.132c-48.235,0-90.298,22.647-113.199,56.316
						c-23.68-14.85-52.734-23.625-84.156-23.625c-79.583,0-144.109,56.106-144.109,125.319c0,7.709,0.894,15.229,2.438,22.557
						C1953.781,710.502,2012.486,666.327,2083.094,666.327z"/>
					<path fill="#FFFFFF" d="M1945.361,828.59c-4.137-11.686-6.377-24.083-6.377-36.945c0-2.246,0.072-4.476,0.205-6.695
						c-49.279,14.657-84.789,55.129-84.789,102.953c0,7.83,1.014,15.432,2.819,22.789
						C1866.848,871.162,1901.064,839.561,1945.361,828.59z"/>
				</g>
				<path fill="#FFFFFF" d="M2168.27,700.554c35.861-4.596,69.389,14.852,79.02,44.383c-0.057-2.679-0.281-5.383-0.741-8.101
					c-5.749-33.902-42.011-57.323-80.999-52.328c-38.979,5.001-65.914,36.534-60.157,70.43c0.454,2.728,1.13,5.369,1.971,7.949
					C2106.783,732.198,2132.424,705.152,2168.27,700.554z"/>
				<path fill="#93CCDE" d="M2384.377,1030.583c-34.614,9.348-71.19-5.379-85.938-33.269c0.523,2.644,1.229,5.284,2.168,7.911
					c11.693,32.724,51.67,51.008,89.301,40.843c37.633-10.161,58.656-44.929,46.963-77.646c-0.934-2.635-2.069-5.157-3.357-7.587
					C2439.53,991.076,2418.984,1021.243,2384.377,1030.583z"/>
				<path fill="#93CCDE" d="M2132.934,1038.542c-30.611-16.865-41.414-50.644-26.545-78.469c-1.975,2.049-3.828,4.234-5.525,6.549
					c-21.08,28.948-11.197,67.279,22.088,85.615c33.294,18.346,77.367,9.742,98.445-19.194c1.695-2.33,3.164-4.718,4.463-7.144
					C2203.273,1049.479,2163.537,1055.415,2132.934,1038.542z"/>
				<path fill="#FFFFFF" d="M2382.646,687.397c36.233-0.365,66.462,22.828,71.432,53.211c0.363-2.656,0.562-5.361,0.521-8.109
					c-0.463-34.264-32.771-61.72-72.178-61.319c-39.4,0.399-70.963,28.499-70.498,62.753c0.025,2.759,0.295,5.455,0.723,8.107
					C2316.822,711.564,2346.41,687.757,2382.646,687.397z"/>
			</g>
			<g>
				<path fill="#E6F5EC" d="M494.485,859.78c0-88.446-82.462-160.143-184.16-160.143c-36.761,0-70.983,9.407-99.728,25.546
					c-24.231-26.388-61.472-43.342-103.318-43.342c-48.477,0-90.741,22.76-113.755,56.591c-23.803-14.926-52.994-23.74-84.575-23.74
					c-79.966,0-144.809,56.378-144.809,125.928c0,12.921,2.252,25.385,6.408,37.125c-52.74,13.061-91.405,55.172-91.405,105.228
					c0,59.12,53.917,107.17,121.294,109.305c-0.015,0.528-0.094,1.041-0.094,1.575c0,49.134,45.814,88.968,102.312,88.968
					c16.025,0,31.125-3.297,44.627-9.003c25.577,41.601,75.996,69.914,134.024,69.914c60.095,0,112.033-30.352,136.665-74.401
					c21.672,7.798,45.413,12.119,70.318,12.119c101.698,0,184.16-71.697,184.16-160.148c0-22.96-5.601-44.781-15.611-64.526
					C480.442,929.854,494.485,896.253,494.485,859.78z"/>
				<g>
					<path fill="#93CCDE" d="M288.289,1146.776c-24.905,0-48.646-4.326-70.318-12.115c-24.632,44.043-76.569,74.395-136.665,74.395
						c-58.028,0-108.447-28.314-134.024-69.915c-13.502,5.714-28.602,9.007-44.627,9.007c-56.498,0-102.312-39.836-102.312-88.969
						c0-0.531,0.08-1.045,0.094-1.574c-60.767-1.929-110.433-41.238-119.632-92.292c-1.071,5.751-1.663,11.647-1.663,17.661
						c0,59.12,53.917,107.17,121.294,109.305c-0.015,0.528-0.094,1.041-0.094,1.575c0,49.134,45.814,88.968,102.312,88.968
						c16.025,0,31.125-3.297,44.627-9.003c25.577,41.601,75.996,69.914,134.024,69.914c60.095,0,112.033-30.352,136.665-74.401
						c21.672,7.798,45.413,12.119,70.318,12.119c101.698,0,184.16-71.697,184.16-160.148c0-5.865-0.375-11.663-1.091-17.365
						C461.432,1084.248,383.26,1146.776,288.289,1146.776z"/>
				</g>
				<g>
					<path fill="#FFFFFF" d="M-91.051,760.321c31.582,0,60.772,8.815,84.575,23.735c23.014-33.827,65.278-56.587,113.755-56.587
						c41.846,0,79.087,16.955,103.318,43.343c28.744-16.144,62.967-25.549,99.728-25.549c92.654,0,169.305,59.521,182.218,136.992
						c1.193-7.353,1.942-14.833,1.942-22.474c0-88.446-82.462-160.143-184.16-160.143c-36.761,0-70.983,9.407-99.728,25.546
						c-24.231-26.388-61.472-43.342-103.318-43.342c-48.477,0-90.741,22.76-113.755,56.591
						c-23.803-14.926-52.994-23.74-84.575-23.74c-79.966,0-144.809,56.378-144.809,125.928c0,7.747,0.899,15.306,2.449,22.671
						C-220.991,804.709-161.998,760.321-91.051,760.321z"/>
					<path fill="#FFFFFF" d="M-229.452,923.37c-4.156-11.736-6.408-24.198-6.408-37.122c0-2.258,0.074-4.504,0.21-6.731
						c-49.524,14.73-85.208,55.403-85.208,103.457c0,7.867,1.018,15.513,2.831,22.902
						C-308.348,966.151-273.965,934.397-229.452,923.37z"/>
				</g>
				<path fill="#FFFFFF" d="M-5.449,794.71c36.032-4.621,69.724,14.93,79.401,44.599c-0.054-2.692-0.282-5.406-0.745-8.136
					c-5.778-34.069-42.221-57.607-81.392-52.585c-39.172,5.022-66.239,36.713-60.46,70.774c0.463,2.734,1.143,5.392,1.988,7.987
					C-67.242,826.505-41.474,799.331-5.449,794.71z"/>
				<path fill="#93CCDE" d="M211.71,1126.354c-34.783,9.393-71.538-5.4-86.354-33.426c0.526,2.655,1.233,5.309,2.178,7.945
					c11.746,32.884,51.923,51.257,89.733,41.041c37.822-10.21,58.945-45.145,47.197-78.023c-0.94-2.647-2.085-5.181-3.375-7.626
					C267.133,1086.658,246.486,1116.966,211.71,1126.354z"/>
				<path fill="#93CCDE" d="M-40.962,1134.351c-30.763-16.95-41.615-50.889-26.672-78.856c-1.987,2.064-3.85,4.259-5.55,6.588
					c-21.189,29.088-11.255,67.604,22.192,86.03c33.455,18.439,77.744,9.795,98.925-19.291c1.708-2.34,3.186-4.734,4.486-7.175
					C29.72,1145.343-10.208,1151.303-40.962,1134.351z"/>
				<path fill="#FFFFFF" d="M209.972,781.486c36.411-0.365,66.783,22.947,71.783,53.479c0.362-2.673,0.56-5.39,0.521-8.155
					c-0.459-34.429-32.93-62.018-72.527-61.615c-39.595,0.396-71.31,28.635-70.841,63.06c0.023,2.77,0.294,5.481,0.724,8.145
					C143.826,805.773,173.558,781.852,209.972,781.486z"/>
			</g>
			<g>
				<path fill="#E6F5EC" d="M1320.031,1069.139c1.217-4.772,1.913-9.727,1.913-14.82c0-37.548-34.993-67.984-78.175-67.984
					c-2.881,0-5.727,0.154-8.518,0.417c-10.851-26.216-39.609-44.995-73.502-44.995c-31.625,0-58.788,16.353-71.104,39.838
					c-9.905-2.788-20.452-4.329-31.424-4.329c-40.33,0-75.095,20.383-91.683,49.911c-10.185-5.289-22.045-8.382-34.761-8.382
					c-37.563,0-68.011,26.483-68.011,59.144c0,5.266,0.864,10.342,2.355,15.199c-0.339-0.006-0.658-0.041-0.987-0.041
					c-30.007,0-54.337,21.155-54.337,47.254c0,26.096,24.33,47.254,54.337,47.254c3.273,0,6.465-0.296,9.58-0.78
					c4.454,31.377,35.154,55.687,72.438,55.687c26.293,0,49.269-12.121,62.142-30.243c14.899,24.185,44.218,40.639,77.978,40.639
					c33.668,0,62.937-16.368,77.871-40.448c8.553,4.896,18.777,7.757,29.781,7.757c26.041,0,47.775-15.952,53.021-37.237
					c11.771,6.71,25.83,10.648,40.961,10.648c41.291,0,74.759-29.107,74.759-65.018
					C1364.667,1102.037,1346.309,1079.223,1320.031,1069.139z"/>
				<g>
					<path fill="#FFFFFF" d="M932.779,1036.233c12.716,0,24.576,3.096,34.761,8.379c16.588-29.53,51.353-49.912,91.683-49.912
						c10.972,0,21.519,1.538,31.424,4.329c12.315-23.487,39.479-39.842,71.104-39.842c33.893,0,62.651,18.781,73.502,44.998
						c2.791-0.263,5.637-0.417,8.518-0.417c39.798,0,72.57,25.87,77.473,59.32c0.442-2.878,0.702-5.794,0.702-8.77
						c0-37.548-34.993-67.984-78.175-67.984c-2.881,0-5.727,0.154-8.518,0.417c-10.851-26.216-39.609-44.995-73.502-44.995
						c-31.625,0-58.788,16.353-71.104,39.838c-9.905-2.788-20.452-4.329-31.424-4.329c-40.33,0-75.095,20.383-91.683,49.911
						c-10.185-5.289-22.045-8.382-34.761-8.382c-37.563,0-68.011,26.483-68.011,59.144c0,2.981,0.304,5.896,0.814,8.75
						C870.427,1058.159,898.617,1036.233,932.779,1036.233z"/>
					<path fill="#FFFFFF" d="M1321.944,1071.748c0,5.102-0.696,10.053-1.913,14.824c23.295,8.941,40.338,27.901,43.914,50.614
						c0.422-2.815,0.722-5.66,0.722-8.573c0-25.953-17.534-48.288-42.827-58.71
						C1321.861,1070.523,1321.944,1071.129,1321.944,1071.748z"/>
					<path fill="#FFFFFF" d="M866.137,1110.527c0.329,0,0.648,0.041,0.987,0.045c-1.491-4.86-2.355-9.933-2.355-15.199
						c0-0.747,0.097-1.479,0.131-2.225c-29.432,0.577-53.1,21.467-53.1,47.204c0,2.979,0.353,5.886,0.962,8.717
						C817.468,1127.138,839.556,1110.527,866.137,1110.527z"/>
				</g>
				<g>
					<path fill="#93CCDE" d="M1289.908,1178.521c-15.131,0-29.189-3.942-40.961-10.655c-5.246,21.282-26.98,37.246-53.021,37.246
						c-11.004,0-21.229-2.864-29.781-7.764c-14.935,24.087-44.203,40.454-77.871,40.454c-33.76,0-63.078-16.46-77.978-40.643
						c-12.873,18.125-35.849,30.245-62.142,30.245c-37.283,0-67.983-24.312-72.438-55.685c-3.115,0.478-6.307,0.778-9.58,0.778
						c-27.045,0-49.414-17.205-53.581-39.702c-0.456,2.462-0.756,4.979-0.756,7.557c0,26.096,24.33,47.254,54.337,47.254
						c3.273,0,6.465-0.296,9.58-0.78c4.454,31.377,35.154,55.687,72.438,55.687c26.293,0,49.269-12.121,62.142-30.243
						c14.899,24.185,44.218,40.639,77.978,40.639c33.668,0,62.937-16.368,77.871-40.448c8.553,4.896,18.777,7.757,29.781,7.757
						c26.041,0,47.775-15.952,53.021-37.237c11.771,6.71,25.83,10.648,40.961,10.648c41.291,0,74.759-29.107,74.759-65.018
						c0-2.548-0.22-5.053-0.55-7.527C1359.794,1153.415,1328.251,1178.521,1289.908,1178.521z"/>
				</g>
				<path fill="#FFFFFF" d="M1094.294,1003.628c21.896-8.142,46.876-0.819,58.982,16.314c-0.583-1.954-1.289-3.898-2.229-5.81
					c-10.294-20.957-38.177-30.687-62.275-21.732c-24.102,8.962-35.278,33.204-24.986,54.158c0.945,1.912,2.074,3.694,3.287,5.419
					C1061.211,1032.523,1072.391,1011.762,1094.294,1003.628z"/>
				<path fill="#FFFFFF" d="M970.995,1050.699c21.896-8.137,46.876-0.815,58.986,16.314c-0.583-1.954-1.287-3.897-2.229-5.811
					c-10.296-20.957-38.181-30.684-62.283-21.729c-24.096,8.958-35.274,33.204-24.979,54.16c0.946,1.915,2.07,3.696,3.285,5.418
					C937.912,1079.602,949.092,1058.832,970.995,1050.699z"/>
				<path fill="#93CCDE" d="M1163.764,1195.965c-22.383,7.079-46.858-1.437-57.859-19.116c0.456,1.969,1.035,3.95,1.855,5.903
					c8.943,21.422,36.168,32.471,60.806,24.688c24.628-7.789,37.326-31.467,28.375-52.887c-0.821-1.95-1.83-3.788-2.938-5.561
					C1198.619,1168.691,1186.146,1188.89,1163.764,1195.965z"/>
				<path fill="#93CCDE" d="M1249.108,1165.564c-17.07,5.396-35.73-1.096-44.128-14.579c0.35,1.505,0.793,3.014,1.415,4.505
					c6.825,16.332,27.589,24.754,46.374,18.824c18.783-5.941,28.463-23.998,21.635-40.33c-0.623-1.49-1.393-2.89-2.236-4.241
					C1275.688,1144.768,1266.174,1160.168,1249.108,1165.564z"/>
				<path fill="#93CCDE" d="M1013.032,1193.245c-17.952-2.402-30.725-15.901-30.627-31.229c-0.527,1.462-0.974,2.973-1.251,4.537
					c-3.052,17.176,10.496,33.245,30.248,35.895c19.751,2.651,38.229-9.134,41.273-26.306c0.275-1.571,0.369-3.118,0.385-4.658
					C1047.836,1186.133,1030.98,1195.655,1013.032,1193.245z"/>
			</g>
			<g>
				<path fill="#E6F5EC" d="M309.419,1273.398c1.222-4.775,1.92-9.729,1.92-14.82c0-37.555-34.996-67.989-78.178-67.989
					c-2.882,0-5.72,0.158-8.521,0.421c-10.851-26.216-39.606-44.999-73.5-44.999c-31.622,0-58.79,16.357-71.103,39.836
					c-9.905-2.786-20.45-4.32-31.422-4.32c-40.33,0-75.095,20.381-91.686,49.904c-10.183-5.277-22.044-8.377-34.76-8.377
					c-37.562,0-68.007,26.483-68.007,59.143c0,5.268,0.866,10.34,2.353,15.199c-0.337-0.01-0.657-0.039-0.989-0.039
					c-30.009,0-54.337,21.158-54.337,47.247c0,26.102,24.329,47.259,54.337,47.259c3.278,0,6.465-0.295,9.581-0.777
					c4.457,31.379,35.157,55.684,72.441,55.684c26.291,0,49.268-12.12,62.14-30.24c14.898,24.18,44.218,40.645,77.977,40.645
					c33.67,0,62.937-16.371,77.871-40.453c8.553,4.894,18.775,7.764,29.78,7.764c26.047,0,47.782-15.96,53.026-37.252
					c11.768,6.721,25.825,10.659,40.955,10.659c41.291,0,74.758-29.112,74.758-65.018
					C354.057,1306.299,335.696,1283.479,309.419,1273.398z"/>
				<g>
					<path fill="#FFFFFF" d="M-77.829,1240.492c12.716,0,24.577,3.092,34.76,8.375c16.59-29.521,51.356-49.91,91.686-49.91
						c10.972,0,21.517,1.539,31.422,4.332c12.313-23.485,39.48-39.842,71.103-39.842c33.894,0,62.649,18.78,73.5,44.997
						c2.801-0.263,5.639-0.421,8.521-0.421c39.799,0,72.571,25.877,77.473,59.327c0.44-2.872,0.705-5.795,0.705-8.771
						c0-37.555-34.996-67.989-78.178-67.989c-2.882,0-5.72,0.158-8.521,0.421c-10.851-26.216-39.606-44.999-73.5-44.999
						c-31.622,0-58.79,16.357-71.103,39.836c-9.905-2.786-20.45-4.32-31.422-4.32c-40.33,0-75.095,20.381-91.686,49.904
						c-10.183-5.277-22.044-8.377-34.76-8.377c-37.562,0-68.007,26.483-68.007,59.143c0,2.976,0.302,5.891,0.811,8.75
						C-140.181,1262.409-111.987,1240.492-77.829,1240.492z"/>
					<path fill="#FFFFFF" d="M311.339,1276.016c0,5.09-0.698,10.039-1.92,14.814c23.298,8.941,40.346,27.901,43.916,50.614
						c0.428-2.812,0.722-5.659,0.722-8.57c0-25.957-17.531-48.29-42.824-58.712C311.25,1274.785,311.339,1275.386,311.339,1276.016z
						"/>
					<path fill="#FFFFFF" d="M-144.473,1314.787c0.332,0,0.651,0.037,0.989,0.043c-1.487-4.858-2.353-9.936-2.353-15.195
						c0-0.75,0.094-1.481,0.127-2.227c-29.428,0.578-53.101,21.465-53.101,47.196c0,2.987,0.357,5.89,0.964,8.719
						C-193.137,1331.4-171.053,1314.787-144.473,1314.787z"/>
				</g>
				<g>
					<path fill="#93CCDE" d="M279.299,1382.781c-15.13,0-29.188-3.941-40.955-10.658c-5.244,21.284-26.979,37.248-53.026,37.248
						c-11.005,0-21.228-2.866-29.78-7.76c-14.935,24.082-44.201,40.45-77.871,40.45c-33.758,0-63.079-16.458-77.977-40.642
						c-12.872,18.12-35.849,30.24-62.14,30.24c-37.284,0-67.984-24.309-72.441-55.684c-3.116,0.479-6.303,0.777-9.581,0.777
						c-27.043,0-49.41-17.205-53.578-39.704c-0.459,2.466-0.759,4.983-0.759,7.555c0,26.102,24.329,47.259,54.337,47.259
						c3.278,0,6.465-0.295,9.581-0.777c4.457,31.379,35.157,55.684,72.441,55.684c26.291,0,49.268-12.12,62.14-30.24
						c14.898,24.18,44.218,40.645,77.977,40.645c33.67,0,62.937-16.371,77.871-40.453c8.553,4.894,18.775,7.764,29.78,7.764
						c26.047,0,47.782-15.96,53.026-37.252c11.768,6.721,25.825,10.659,40.955,10.659c41.291,0,74.758-29.112,74.758-65.018
						c0-2.55-0.218-5.056-0.544-7.529C349.186,1357.671,317.639,1382.781,279.299,1382.781z"/>
				</g>
				<path fill="#FFFFFF" d="M83.685,1207.886c21.896-8.139,46.878-0.814,58.986,16.315c-0.583-1.96-1.288-3.897-2.229-5.81
					c-10.296-20.958-38.177-30.687-62.28-21.73c-24.098,8.957-35.275,33.204-24.982,54.154c0.943,1.913,2.072,3.699,3.285,5.416
					C50.604,1236.783,61.784,1216.02,83.685,1207.886z"/>
				<path fill="#FFFFFF" d="M-39.614,1254.96c21.897-8.138,46.88-0.817,58.986,16.313c-0.582-1.957-1.288-3.896-2.226-5.809
					c-10.297-20.959-38.179-30.688-62.281-21.732c-24.1,8.958-35.275,33.203-24.982,54.16c0.944,1.91,2.071,3.695,3.285,5.418
					C-72.693,1283.857-61.513,1263.096-39.614,1254.96z"/>
				<path fill="#93CCDE" d="M153.156,1400.227c-22.381,7.072-46.859-1.437-57.864-19.121c0.462,1.977,1.039,3.951,1.858,5.907
					c8.947,21.423,36.171,32.473,60.806,24.687c24.63-7.795,37.326-31.467,28.377-52.88c-0.82-1.956-1.833-3.792-2.938-5.566
					C188.015,1372.952,175.538,1393.154,153.156,1400.227z"/>
				<path fill="#93CCDE" d="M238.499,1369.816c-17.069,5.4-35.734-1.092-44.126-14.572c0.352,1.509,0.794,3.006,1.417,4.499
					c6.826,16.338,27.586,24.767,46.371,18.825c18.783-5.936,28.466-23.993,21.64-40.323c-0.624-1.491-1.398-2.89-2.24-4.24
					C265.082,1349.021,255.568,1364.432,238.499,1369.816z"/>
				<path fill="#93CCDE" d="M2.422,1397.502c-17.951-2.404-30.725-15.897-30.625-31.229c-0.525,1.468-0.974,2.97-1.249,4.537
					c-3.051,17.182,10.496,33.247,30.248,35.896c19.75,2.648,38.223-9.129,41.271-26.306c0.277-1.569,0.373-3.119,0.385-4.655
					C37.229,1390.387,20.371,1399.911,2.422,1397.502z"/>
			</g>
			<g>
				<path fill="#E6F5EC" d="M1815.25,1207.773c1.256-4.921,1.983-10.035,1.983-15.295c0-38.752-36.12-70.162-80.686-70.162
					c-2.974,0-5.905,0.162-8.796,0.435c-11.194-27.063-40.875-46.441-75.852-46.441c-32.643,0-60.676,16.872-73.385,41.115
					c-10.228-2.878-21.105-4.469-32.43-4.469c-41.625,0-77.5,21.042-94.627,51.513c-10.51-5.455-22.75-8.646-35.871-8.646
					c-38.768,0-70.191,27.33-70.191,61.036c0,5.434,0.893,10.677,2.426,15.685c-0.342-0.004-0.676-0.039-1.017-0.039
					c-30.972,0-56.077,21.834-56.077,48.762c0,26.938,25.105,48.775,56.077,48.775c3.38,0,6.671-0.307,9.886-0.801
					c4.602,32.387,36.287,57.473,74.767,57.473c27.136,0,50.848-12.518,64.131-31.22c15.377,24.965,45.638,41.95,80.478,41.95
					c34.746,0,64.957-16.896,80.365-41.754c8.826,5.053,19.378,8.016,30.734,8.016c26.884,0,49.318-16.471,54.725-38.44
					c12.15,6.933,26.656,10.991,42.271,10.991c42.615,0,77.16-30.037,77.16-67.094
					C1861.322,1241.728,1842.371,1218.182,1815.25,1207.773z"/>
				<g>
					<path fill="#FFFFFF" d="M1415.588,1173.809c13.121,0,25.361,3.196,35.871,8.65c17.127-30.472,53.002-51.508,94.627-51.508
						c11.324,0,22.202,1.587,32.43,4.47c12.709-24.241,40.742-41.115,73.385-41.115c34.977,0,64.657,19.379,75.852,46.438
						c2.891-0.275,5.822-0.435,8.796-0.435c41.077,0,74.894,26.702,79.956,61.224c0.457-2.965,0.729-5.979,0.729-9.054
						c0-38.752-36.12-70.162-80.686-70.162c-2.974,0-5.905,0.162-8.796,0.435c-11.194-27.063-40.875-46.441-75.852-46.441
						c-32.643,0-60.676,16.872-73.385,41.115c-10.228-2.878-21.105-4.469-32.43-4.469c-41.625,0-77.5,21.042-94.627,51.513
						c-10.51-5.455-22.75-8.646-35.871-8.646c-38.768,0-70.191,27.33-70.191,61.036c0,3.081,0.313,6.083,0.842,9.026
						C1351.234,1196.442,1380.334,1173.809,1415.588,1173.809z"/>
					<path fill="#FFFFFF" d="M1817.233,1210.474c0,5.258-0.728,10.366-1.983,15.298c24.043,9.227,41.637,28.789,45.326,52.234
						c0.438-2.902,0.746-5.841,0.746-8.844c0-26.791-18.102-49.839-44.2-60.593
						C1817.137,1209.205,1817.233,1209.83,1817.233,1210.474z"/>
					<path fill="#FFFFFF" d="M1346.806,1250.497c0.341,0,0.675,0.037,1.017,0.043c-1.533-5.015-2.426-10.257-2.426-15.687
						c0-0.773,0.102-1.526,0.133-2.297c-30.375,0.599-54.801,22.154-54.801,48.709c0,3.082,0.365,6.081,0.991,8.996
						C1296.579,1267.639,1319.375,1250.497,1346.806,1250.497z"/>
				</g>
				<g>
					<path fill="#93CCDE" d="M1784.162,1320.67c-15.615,0-30.121-4.065-42.271-10.998c-5.406,21.968-27.841,38.438-54.725,38.438
						c-11.356,0-21.908-2.955-30.734-8.012c-15.408,24.861-45.619,41.752-80.365,41.752c-34.84,0-65.101-16.992-80.478-41.947
						c-13.283,18.701-36.995,31.211-64.131,31.211c-38.479,0-70.165-25.088-74.767-57.471c-3.215,0.498-6.506,0.806-9.886,0.806
						c-27.913,0-50.993-17.759-55.296-40.976c-0.475,2.549-0.781,5.134-0.781,7.793c0,26.938,25.105,48.775,56.077,48.775
						c3.38,0,6.671-0.307,9.886-0.801c4.602,32.387,36.287,57.473,74.767,57.473c27.136,0,50.848-12.518,64.131-31.22
						c15.377,24.965,45.638,41.95,80.478,41.95c34.746,0,64.957-16.896,80.365-41.754c8.826,5.053,19.378,8.016,30.734,8.016
						c26.884,0,49.318-16.471,54.725-38.44c12.15,6.933,26.656,10.991,42.271,10.991c42.615,0,77.16-30.037,77.16-67.094
						c0-2.633-0.229-5.223-0.569-7.771C1856.292,1294.754,1823.732,1320.67,1784.162,1320.67z"/>
				</g>
				<path fill="#FFFFFF" d="M1582.275,1140.163c22.598-8.401,48.387-0.84,60.881,16.834c-0.603-2.014-1.33-4.018-2.299-5.989
					c-10.627-21.631-39.406-31.671-64.275-22.427c-24.874,9.239-36.412,34.263-25.786,55.892c0.974,1.973,2.134,3.817,3.39,5.589
					C1548.137,1169.988,1559.678,1148.56,1582.275,1140.163z"/>
				<path fill="#FFFFFF" d="M1455.025,1188.749c22.598-8.403,48.379-0.844,60.879,16.831c-0.604-2.016-1.328-4.02-2.298-5.991
					c-10.624-21.629-39.405-31.671-64.279-22.424c-24.87,9.241-36.408,34.262-25.781,55.892c0.974,1.975,2.136,3.814,3.39,5.587
					C1420.883,1218.574,1432.42,1197.146,1455.025,1188.749z"/>
				<path fill="#93CCDE" d="M1653.979,1338.67c-23.104,7.301-48.365-1.481-59.722-19.73c0.475,2.038,1.07,4.077,1.918,6.092
					c9.229,22.109,37.334,33.514,62.752,25.477c25.423-8.036,38.527-32.471,29.291-54.577c-0.847-2.014-1.892-3.907-3.031-5.743
					C1689.951,1310.523,1677.078,1331.371,1653.979,1338.67z"/>
				<path fill="#93CCDE" d="M1742.054,1307.289c-17.611,5.57-36.878-1.131-45.538-15.045c0.361,1.558,0.816,3.111,1.461,4.65
					c7.045,16.857,28.473,25.553,47.854,19.426c19.391-6.13,29.383-24.763,22.34-41.615c-0.65-1.536-1.449-2.988-2.315-4.379
					C1769.49,1285.828,1759.673,1301.725,1742.054,1307.289z"/>
				<path fill="#93CCDE" d="M1498.412,1335.865c-18.525-2.482-31.711-16.416-31.61-32.237c-0.539,1.517-1.001,3.072-1.29,4.687
					c-3.145,17.725,10.834,34.312,31.217,37.043c20.383,2.739,39.453-9.423,42.602-27.146c0.282-1.622,0.383-3.223,0.395-4.81
					C1534.33,1328.517,1516.932,1338.345,1498.412,1335.865z"/>
			</g>
			<g>
				<path fill="#E6F5EC" d="M1003.219,830.848c0.789-3.059,1.234-6.242,1.234-9.508c0-24.098-22.456-43.63-50.173-43.63
					c-1.85,0-3.668,0.097-5.468,0.27c-6.959-16.829-25.419-28.881-47.17-28.881c-20.296,0-37.73,10.497-45.633,25.565
					c-6.356-1.786-13.125-2.778-20.165-2.778c-25.881,0-48.194,13.084-58.843,32.037c-6.535-3.394-14.146-5.378-22.309-5.378
					c-24.106,0-43.645,16.995-43.645,37.956c0,3.375,0.556,6.633,1.509,9.755c-0.216-0.006-0.422-0.028-0.633-0.028
					c-19.259,0-34.873,13.577-34.873,30.324c0,16.748,15.614,30.333,34.873,30.333c2.102,0,4.15-0.196,6.148-0.508
					c2.856,20.141,22.562,35.739,46.489,35.739c16.874,0,31.62-7.781,39.882-19.407c9.559,15.521,28.379,26.087,50.043,26.087
					c21.609,0,40.393-10.505,49.977-25.963c5.485,3.145,12.048,4.982,19.11,4.982c16.715,0,30.666-10.244,34.035-23.905
					c7.549,4.312,16.572,6.837,26.282,6.837c26.5,0,47.983-18.679,47.983-41.724C1031.875,851.962,1020.086,837.32,1003.219,830.848
					z"/>
				<g>
					<path fill="#FFFFFF" d="M754.693,809.733c8.162,0,15.773,1.985,22.309,5.375c10.648-18.95,32.962-32.034,58.843-32.034
						c7.04,0,13.809,0.992,20.165,2.783c7.902-15.075,25.337-25.574,45.633-25.574c21.751,0,40.211,12.058,47.17,28.878
						c1.8-0.165,3.618-0.268,5.468-0.268c25.542,0,46.573,16.606,49.721,38.073c0.286-1.84,0.452-3.717,0.452-5.627
						c0-24.098-22.456-43.63-50.173-43.63c-1.85,0-3.668,0.097-5.468,0.27c-6.959-16.829-25.419-28.881-47.17-28.881
						c-20.296,0-37.73,10.497-45.633,25.565c-6.356-1.786-13.125-2.778-20.165-2.778c-25.881,0-48.194,13.084-58.843,32.037
						c-6.535-3.394-14.146-5.378-22.309-5.378c-24.106,0-43.645,16.995-43.645,37.956c0,1.911,0.194,3.782,0.521,5.611
						C714.679,823.802,732.771,809.733,754.693,809.733z"/>
					<path fill="#FFFFFF" d="M1004.453,832.527c0,3.269-0.445,6.449-1.234,9.514c14.956,5.736,25.898,17.904,28.188,32.478
						c0.276-1.8,0.469-3.631,0.469-5.496c0-16.657-11.258-30.995-27.491-37.678C1004.4,831.741,1004.453,832.126,1004.453,832.527z"
						/>
					<path fill="#FFFFFF" d="M711.925,857.411c0.211,0,0.417,0.029,0.633,0.029c-0.953-3.117-1.509-6.376-1.509-9.751
						c0-0.48,0.06-0.952,0.081-1.432c-18.888,0.373-34.078,13.78-34.078,30.294c0,1.916,0.229,3.779,0.616,5.597
						C680.691,868.072,694.867,857.411,711.925,857.411z"/>
				</g>
				<g>
					<path fill="#93CCDE" d="M983.892,901.049c-9.71,0-18.733-2.529-26.282-6.835c-3.369,13.657-17.32,23.9-34.035,23.9
						c-7.063,0-13.625-1.838-19.11-4.979c-9.584,15.456-28.367,25.961-49.977,25.961c-21.664,0-40.484-10.563-50.043-26.084
						c-8.262,11.63-23.008,19.408-39.882,19.408c-23.928,0-43.633-15.604-46.489-35.737c-1.998,0.311-4.047,0.496-6.148,0.496
						c-17.355,0-31.713-11.037-34.388-25.478c-0.295,1.582-0.485,3.197-0.485,4.85c0,16.748,15.614,30.333,34.873,30.333
						c2.102,0,4.15-0.196,6.148-0.508c2.856,20.141,22.562,35.739,46.489,35.739c16.874,0,31.62-7.781,39.882-19.407
						c9.559,15.521,28.379,26.087,50.043,26.087c21.609,0,40.393-10.505,49.977-25.963c5.485,3.145,12.048,4.982,19.11,4.982
						c16.715,0,30.666-10.244,34.035-23.905c7.549,4.312,16.572,6.837,26.282,6.837c26.5,0,47.983-18.679,47.983-41.724
						c0-1.639-0.147-3.243-0.357-4.833C1028.744,884.942,1008.498,901.049,983.892,901.049z"/>
				</g>
				<path fill="#FFFFFF" d="M858.351,788.806c14.053-5.226,30.086-0.521,37.854,10.468c-0.372-1.25-0.828-2.5-1.429-3.728
					c-6.606-13.448-24.499-19.691-39.97-13.944c-15.464,5.746-22.639,21.311-16.03,34.754c0.603,1.232,1.326,2.375,2.109,3.476
					C837.121,807.353,844.294,794.023,858.351,788.806z"/>
				<path fill="#FFFFFF" d="M779.22,819.016c14.053-5.223,30.086-0.521,37.857,10.469c-0.376-1.253-0.824-2.499-1.433-3.726
					c-6.606-13.448-24.501-19.695-39.968-13.947c-15.466,5.75-22.639,21.308-16.032,34.757c0.604,1.229,1.328,2.371,2.107,3.478
					C757.988,837.562,765.166,824.237,779.22,819.016z"/>
				<path fill="#93CCDE" d="M902.936,912.246c-14.364,4.541-30.074-0.924-37.136-12.271c0.297,1.269,0.67,2.532,1.193,3.787
					c5.743,13.749,23.214,20.842,39.023,15.843c15.807-4.998,23.957-20.191,18.212-33.935c-0.527-1.252-1.174-2.433-1.884-3.573
					C925.303,894.744,917.301,907.708,902.936,912.246z"/>
				<path fill="#93CCDE" d="M957.706,892.735c-10.952,3.462-22.931-0.705-28.317-9.355c0.225,0.965,0.51,1.93,0.908,2.889
					c4.382,10.484,17.706,15.894,29.761,12.079c12.052-3.812,18.268-15.398,13.89-25.882c-0.402-0.953-0.902-1.851-1.439-2.721
					C974.769,879.383,968.662,889.272,957.706,892.735z"/>
				<path fill="#93CCDE" d="M806.199,910.503c-11.522-1.546-19.719-10.206-19.657-20.046c-0.337,0.94-0.623,1.909-0.801,2.915
					c-1.955,11.021,6.736,21.339,19.411,23.035c12.679,1.697,24.534-5.86,26.487-16.882c0.177-1.013,0.242-2.002,0.246-2.99
					C828.535,905.935,817.718,912.047,806.199,910.503z"/>
			</g>
			<g>
				<path fill="#E6F5EC" d="M593.031,630.533c11.414-21.093,1.008-46.24-23.245-56.178c-8.054-3.305-16.624-4.464-24.899-3.831
					c-2.272-20.317-16.36-39.129-39.146-48.458c-29.263-11.989-63.26-4.453-82.771,16.455c-4.66-5.628-10.962-10.346-18.686-13.511
					c-24.261-9.938-53.195-0.893-64.625,20.204c-3.188,5.888-4.619,12.088-4.583,18.193c-27.826-3.586-56.219,8.793-68.826,32.063
					c-15.414,28.458-1.384,62.394,31.341,75.801c6.646,2.724,13.554,4.337,20.473,5.026c-2.387,23.135,11.692,46.146,37.259,56.616
					c22.922,9.396,48.916,6.181,67.739-6.347c4.601,3.564,9.829,6.643,15.686,9.042c27.433,11.238,59.241,4.43,77.914-14.816
					c0.343,0.148,0.66,0.325,1.011,0.472c32.723,13.403,71.748,1.202,87.166-27.256C616.682,672.142,611.087,647.07,593.031,630.533
					z"/>
				<g>
					<path fill="#93CCDE" d="M604.838,677.5c-15.418,28.458-54.443,40.661-87.166,27.253c-0.351-0.143-0.668-0.319-1.011-0.473
						c-18.673,19.25-50.481,26.057-77.914,14.82c-5.856-2.4-11.085-5.482-15.686-9.048c-18.823,12.534-44.817,15.742-67.739,6.354
						c-25.566-10.472-39.646-33.486-37.259-56.621c-6.919-0.684-13.827-2.303-20.473-5.026
						c-20.624-8.448-33.813-25.054-36.896-43.303c-4.099,24.187,10.147,48.857,36.896,59.816c6.646,2.724,13.554,4.337,20.473,5.026
						c-2.387,23.135,11.692,46.146,37.259,56.616c22.922,9.396,48.916,6.181,67.739-6.347c4.601,3.564,9.829,6.643,15.686,9.042
						c27.433,11.238,59.241,4.43,77.914-14.816c0.343,0.148,0.66,0.325,1.011,0.472c32.723,13.403,71.748,1.202,87.166-27.256
						c5.687-10.5,7.313-21.736,5.512-32.418C609.434,666.971,607.64,672.325,604.838,677.5z"/>
					<path fill="#93CCDE" d="M596.664,604.315c-0.754,3.282-1.919,6.542-3.633,9.705c1.491,1.365,2.861,2.81,4.18,4.281
						C597.956,613.592,597.713,608.875,596.664,604.315z"/>
				</g>
				<g>
					<path fill="#FFFFFF" d="M597.427,635.063c-0.481,4.84-1.877,9.688-4.396,14.339c9.025,8.269,14.938,18.667,17.116,29.736
						C613.165,663.434,608.385,647.464,597.427,635.063z"/>
					<path fill="#FFFFFF" d="M266.25,614.343c12.607-23.271,41-35.654,68.826-32.069c-0.036-6.101,1.395-12.3,4.583-18.189
						c11.43-21.098,40.364-30.144,64.625-20.208c7.724,3.167,14.025,7.883,18.686,13.514c19.511-20.908,53.508-28.444,82.771-16.453
						c22.786,9.327,36.874,28.137,39.146,48.458c8.275-0.639,16.846,0.528,24.899,3.829c14.04,5.753,23.4,16.615,26.612,28.824
						c5.052-18.956-5.544-39.063-26.612-47.692c-8.054-3.305-16.624-4.464-24.899-3.831c-2.272-20.317-16.36-39.129-39.146-48.458
						c-29.263-11.989-63.26-4.453-82.771,16.455c-4.66-5.628-10.962-10.346-18.686-13.511c-24.261-9.938-53.195-0.893-64.625,20.204
						c-3.188,5.888-4.619,12.088-4.583,18.193c-27.826-3.586-56.219,8.793-68.826,32.063c-5.912,10.915-7.476,22.631-5.335,33.689
						C261.887,624.148,263.637,619.167,266.25,614.343z"/>
				</g>
				<path fill="#93CCDE" d="M423.062,710.68c-19.81,0-36.101-13.092-38.061-29.868c-0.13,1.117-0.196,2.254-0.196,3.402
					c0,18.376,17.129,33.27,38.257,33.27c21.132,0,38.257-14.894,38.257-33.27c0-1.147-0.067-2.285-0.198-3.402
					C459.162,697.587,442.869,710.68,423.062,710.68z"/>
				<path fill="#93CCDE" d="M516.407,702.432c-19.695,1.845-37.507-9.655-41.516-26.151c0.01,1.127,0.079,2.26,0.222,3.4
					c2.261,18.271,21.121,31.483,42.128,29.52c21.01-1.968,36.208-18.368,33.948-36.636c-0.141-1.145-0.349-2.265-0.614-3.367
					C550.689,686.06,536.1,700.593,516.407,702.432z"/>
				<path fill="#FFFFFF" d="M541.403,597.973c11.909,8.828,14.685,23.506,7.514,35.009c1.772-1.185,3.435-2.54,4.945-4.084
					c11.657-11.897,10.02-29.762-3.664-39.895c-13.682-10.14-34.226-8.715-45.885,3.185c-1.509,1.537-2.784,3.183-3.851,4.893
					C512.384,589.097,529.492,589.149,541.403,597.973z"/>
				<path fill="#FFFFFF" d="M421.172,565.237c15.649,0,28.707,9.605,31.826,22.407c0.468-1.904,0.72-3.875,0.72-5.896
					c0-15.629-14.57-28.3-32.546-28.3c-17.975,0-32.547,12.67-32.547,28.3c0,2.021,0.255,3.993,0.718,5.896
					C392.466,574.843,405.524,565.237,421.172,565.237z"/>
			</g>
			<g>
				<path fill="#E6F5EC" d="M1812.068,784.849c0-30.842-28.753-55.846-64.211-55.846c-12.822,0-24.76,3.283-34.779,8.914
					c-8.451-9.204-21.434-15.117-36.027-15.117c-16.903,0-31.643,7.935-39.668,19.732c-8.299-5.205-18.477-8.278-29.488-8.278
					c-27.879,0-50.496,19.662-50.496,43.912c0,4.508,0.789,8.851,2.236,12.944c-18.395,4.553-31.875,19.239-31.875,36.694
					c0,20.615,18.803,37.366,42.299,38.113c-0.004,0.185-0.033,0.367-0.033,0.552c0,17.128,15.969,31.024,35.672,31.024
					c5.592,0,10.857-1.15,15.562-3.142c8.918,14.506,26.501,24.379,46.735,24.379c20.956,0,39.066-10.585,47.651-25.941
					c7.562,2.716,15.839,4.225,24.522,4.225c35.461,0,64.219-25.002,64.219-55.845c0-8.005-1.953-15.616-5.445-22.5
					C1807.172,809.284,1812.068,797.561,1812.068,784.849z"/>
				<g>
					<path fill="#93CCDE" d="M1740.168,884.919c-8.684,0-16.961-1.508-24.522-4.226c-8.585,15.357-26.695,25.944-47.651,25.944
						c-20.234,0-37.817-9.875-46.735-24.379c-4.704,1.991-9.97,3.14-15.562,3.14c-19.703,0-35.672-13.892-35.672-31.024
						c0-0.186,0.029-0.366,0.033-0.551c-21.188-0.671-38.514-14.375-41.715-32.181c-0.373,2.004-0.584,4.061-0.584,6.159
						c0,20.615,18.803,37.366,42.299,38.113c-0.004,0.185-0.033,0.367-0.033,0.552c0,17.128,15.969,31.024,35.672,31.024
						c5.592,0,10.857-1.15,15.562-3.142c8.918,14.506,26.501,24.379,46.735,24.379c20.956,0,39.066-10.585,47.651-25.941
						c7.562,2.716,15.839,4.225,24.522,4.225c35.461,0,64.219-25.002,64.219-55.845c0-2.045-0.133-4.065-0.375-6.055
						C1800.544,863.115,1773.287,884.919,1740.168,884.919z"/>
				</g>
				<g>
					<path fill="#FFFFFF" d="M1607.895,750.166c11.012,0,21.189,3.072,29.488,8.276c8.025-11.795,22.765-19.736,39.668-19.736
						c14.594,0,27.576,5.913,36.027,15.117c10.02-5.63,21.957-8.908,34.779-8.908c32.299,0,59.033,20.752,63.533,47.767
						c0.416-2.565,0.678-5.172,0.678-7.833c0-30.842-28.753-55.846-64.211-55.846c-12.822,0-24.76,3.283-34.779,8.914
						c-8.451-9.204-21.434-15.117-36.027-15.117c-16.903,0-31.643,7.935-39.668,19.732c-8.299-5.205-18.477-8.278-29.488-8.278
						c-27.879,0-50.496,19.662-50.496,43.912c0,2.703,0.314,5.337,0.857,7.907C1562.582,765.641,1583.154,750.166,1607.895,750.166z
						"/>
					<path fill="#FFFFFF" d="M1559.635,807.019c-1.447-4.093-2.236-8.438-2.236-12.943c0-0.787,0.025-1.569,0.072-2.346
						c-17.268,5.139-29.711,19.315-29.711,36.074c0,2.744,0.359,5.411,0.986,7.985
						C1532.12,821.936,1544.111,810.866,1559.635,807.019z"/>
				</g>
				<path fill="#FFFFFF" d="M1637.742,762.154c12.563-1.612,24.313,5.204,27.687,15.555c-0.014-0.94-0.093-1.889-0.26-2.842
					c-2.013-11.876-14.721-20.084-28.378-18.334c-13.662,1.751-23.102,12.801-21.082,24.675c0.159,0.955,0.396,1.886,0.69,2.788
					C1616.197,773.243,1625.185,763.767,1637.742,762.154z"/>
				<path fill="#93CCDE" d="M1713.465,877.8c-12.127,3.273-24.947-1.885-30.111-11.659c0.18,0.928,0.434,1.855,0.756,2.772
					c4.1,11.465,18.11,17.874,31.295,14.313c13.189-3.567,20.553-15.744,16.457-27.21c-0.329-0.92-0.726-1.81-1.176-2.662
					C1732.789,863.959,1725.592,874.521,1713.465,877.8z"/>
				<path fill="#93CCDE" d="M1625.357,880.588c-10.723-5.91-14.512-17.745-9.299-27.497c-0.693,0.718-1.34,1.482-1.939,2.296
					c-7.383,10.146-3.921,23.575,7.744,30.001c11.664,6.425,27.104,3.411,34.497-6.727c0.595-0.818,1.106-1.653,1.563-2.505
					C1650.006,884.421,1636.08,886.501,1625.357,880.588z"/>
				<path fill="#FFFFFF" d="M1712.855,757.543c12.701-0.129,23.294,8,25.033,18.647c0.127-0.93,0.195-1.878,0.182-2.839
					c-0.158-12.008-11.482-21.626-25.285-21.489c-13.811,0.141-24.865,9.988-24.703,21.991c0.008,0.963,0.102,1.909,0.25,2.839
					C1689.797,766.016,1700.162,757.671,1712.855,757.543z"/>
			</g>
			<g>
				<path fill="#E6F5EC" d="M2424.021,663.018c11.149-20.601,0.987-45.165-22.702-54.872c-7.869-3.224-16.238-4.359-24.32-3.74
					c-2.221-19.846-15.98-38.215-38.232-47.33c-28.583-11.708-61.787-4.352-80.844,16.072c-4.548-5.499-10.708-10.106-18.252-13.197
					c-23.693-9.707-51.949-0.874-63.115,19.734c-3.115,5.75-4.514,11.808-4.479,17.768c-27.176-3.504-54.912,8.587-67.224,31.319
					c-15.056,27.792-1.354,60.939,30.61,74.031c6.494,2.657,13.238,4.242,19.993,4.912c-2.323,22.596,11.421,45.068,36.392,55.3
					c22.393,9.172,47.783,6.032,66.162-6.204c4.494,3.481,9.602,6.491,15.32,8.833c26.795,10.977,57.865,4.327,76.096-14.471
					c0.337,0.147,0.652,0.319,0.991,0.457c31.958,13.098,70.077,1.176,85.138-26.619
					C2447.121,703.655,2441.658,679.167,2424.021,663.018z"/>
				<g>
					<path fill="#93CCDE" d="M2435.555,708.886c-15.061,27.797-53.18,39.713-85.138,26.62c-0.339-0.139-0.654-0.314-0.991-0.458
						c-18.23,18.802-49.301,25.45-76.096,14.466c-5.719-2.34-10.826-5.344-15.32-8.828c-18.379,12.235-43.77,15.375-66.162,6.201
						c-24.971-10.229-38.715-32.704-36.392-55.296c-6.755-0.677-13.499-2.256-19.993-4.911
						c-20.145-8.254-33.025-24.472-36.039-42.297c-4,23.625,9.913,47.717,36.039,58.421c6.494,2.657,13.238,4.242,19.993,4.912
						c-2.323,22.596,11.421,45.068,36.392,55.3c22.393,9.172,47.783,6.032,66.162-6.204c4.494,3.481,9.602,6.491,15.32,8.833
						c26.795,10.977,57.865,4.327,76.096-14.471c0.337,0.147,0.652,0.319,0.991,0.457c31.958,13.098,70.077,1.176,85.138-26.619
						c5.558-10.254,7.142-21.228,5.379-31.657C2440.04,698.604,2438.291,703.836,2435.555,708.886z"/>
					<path fill="#93CCDE" d="M2427.573,637.408c-0.741,3.208-1.874,6.392-3.553,9.481c1.455,1.333,2.798,2.741,4.084,4.182
						C2428.83,646.47,2428.594,641.861,2427.573,637.408z"/>
				</g>
				<g>
					<path fill="#FFFFFF" d="M2428.318,667.439c-0.474,4.726-1.838,9.463-4.298,14.007c8.816,8.077,14.596,18.232,16.72,29.042
						C2443.688,695.151,2439.021,679.552,2428.318,667.439z"/>
					<path fill="#FFFFFF" d="M2104.853,647.201c12.312-22.73,40.048-34.82,67.224-31.314c-0.035-5.964,1.363-12.021,4.479-17.77
						c11.166-20.608,39.422-29.444,63.115-19.737c7.544,3.094,13.704,7.7,18.252,13.2c19.057-20.421,52.261-27.784,80.844-16.073
						c22.252,9.112,36.012,27.483,38.232,47.329c8.082-0.622,16.451,0.518,24.32,3.742c13.713,5.618,22.855,16.224,25.995,28.149
						c4.935-18.514-5.421-38.15-25.995-46.58c-7.869-3.224-16.238-4.359-24.32-3.74c-2.221-19.846-15.98-38.215-38.232-47.33
						c-28.583-11.708-61.787-4.352-80.844,16.072c-4.548-5.499-10.708-10.106-18.252-13.197
						c-23.693-9.707-51.949-0.874-63.115,19.734c-3.115,5.75-4.514,11.808-4.479,17.768c-27.176-3.504-54.912,8.587-67.224,31.319
						c-5.771,10.661-7.306,22.104-5.206,32.903C2100.594,656.782,2102.301,651.915,2104.853,647.201z"/>
				</g>
				<path fill="#93CCDE" d="M2258.01,741.294c-19.345,0-35.257-12.786-37.176-29.171c-0.125,1.093-0.19,2.203-0.19,3.323
					c0,17.948,16.729,32.494,37.366,32.494c20.641,0,37.369-14.546,37.369-32.494c0-1.12-0.065-2.23-0.192-3.323
					C2293.27,728.508,2277.357,741.294,2258.01,741.294z"/>
				<path fill="#93CCDE" d="M2349.184,733.243c-19.236,1.801-36.632-9.43-40.549-25.544c0.012,1.095,0.079,2.207,0.218,3.318
					c2.208,17.847,20.628,30.754,41.146,28.838c20.52-1.923,35.365-17.944,33.155-35.788c-0.14-1.114-0.342-2.212-0.602-3.287
					C2382.668,717.248,2368.417,731.441,2349.184,733.243z"/>
				<path fill="#FFFFFF" d="M2373.598,631.213c11.632,8.624,14.342,22.961,7.342,34.195c1.729-1.158,3.354-2.482,4.825-3.988
					c11.39-11.619,9.782-29.067-3.581-38.973c-13.362-9.902-33.426-8.507-44.813,3.113c-1.473,1.507-2.717,3.113-3.758,4.781
					C2345.254,622.544,2361.966,622.599,2373.598,631.213z"/>
				<path fill="#FFFFFF" d="M2256.163,599.242c15.282,0,28.04,9.382,31.089,21.884c0.452-1.858,0.706-3.78,0.706-5.761
					c0-15.265-14.237-27.642-31.795-27.642s-31.786,12.377-31.786,27.642c0,1.98,0.25,3.903,0.701,5.761
					C2228.125,608.625,2240.886,599.242,2256.163,599.242z"/>
			</g>
		</g>
	</g>
</g>
</svg>
