<?xml version="1.0" encoding="utf-8"?>
<!-- Generator: Adobe Illustrator 16.0.0, SVG Export Plug-In . SVG Version: 6.00 Build 0)  -->
<!DOCTYPE svg PUBLIC "-//W3C//DTD SVG 1.1//EN" "http://www.w3.org/Graphics/SVG/1.1/DTD/svg11.dtd">
<svg version="1.1" id="Layer_1" xmlns="http://www.w3.org/2000/svg" xmlns:xlink="http://www.w3.org/1999/xlink" x="0px" y="0px"
	 width="504px" height="288px" viewBox="0 0 504 288" enable-background="new 0 0 504 288" xml:space="preserve">
<g>
	<g>
		<defs>
			<rect id="SVGID_180_" x="0" y="0" width="504" height="288"/>
		</defs>
		<use xlink:href="#SVGID_180_"  overflow="visible" fill="#005AA2"/>
		<clipPath id="SVGID_1_">
			<use xlink:href="#SVGID_180_"  overflow="visible"/>
		</clipPath>
		<g clip-path="url(#SVGID_1_)">
			<path fill="#5E5E5E" d="M10.222,133.833c-33.85,0-61.389-27.539-61.389-61.389c0-33.85,27.539-61.389,61.389-61.389
				c33.85,0,61.389,27.539,61.389,61.389C71.611,106.294,44.072,133.833,10.222,133.833z M10.222,12.055
				c-33.299,0-60.389,27.09-60.389,60.389c0,33.298,27.09,60.389,60.389,60.389c33.298,0,60.389-27.09,60.389-60.389
				C70.611,39.146,43.521,12.055,10.222,12.055z"/>
		</g>
		<linearGradient id="SVGID_2_" gradientUnits="userSpaceOnUse" x1="105.9678" y1="209.8857" x2="59.4415" y2="306.1694">
			<stop  offset="0" style="stop-color:#0C1A3B"/>
			<stop  offset="1" style="stop-color:#000000"/>
		</linearGradient>
		<path clip-path="url(#SVGID_1_)" fill="url(#SVGID_2_)" d="M59.485,181.423c5.49,8.552,9.119,18.664,16.978,25.106
			c11.169,9.156,27.182,8.172,41.609,7.511c14.427-0.66,31.019,0.46,39.896,11.851c7.038,9.03,7.264,22.456,15.619,30.283
			c5.564,5.212,13.602,6.794,19.922,11.059c8.021,5.411,12.757,15.338,11.919,24.976c-0.838,9.639-7.218,18.599-16.052,22.543
			c-6.626,2.96-14.106,3.159-21.362,3.312c-48.925,1.025-97.851,2.051-146.776,3.075c-6.664,0.14-13.717,0.184-19.467-3.188
			c-7.787-4.565-11.016-14.029-13.197-22.789c-7.93-31.85-9.941-65.145-6.062-97.729c1.015-8.526,2.457-16.988,4.251-25.384
			c0.923-4.318,1.197-11.851,4.046-15.482c6.379-8.133,25.326-3.619,33.582-1.095C38.572,159.809,51.43,168.876,59.485,181.423z"/>
		<g clip-path="url(#SVGID_1_)">
			
				<image overflow="visible" width="892" height="630" xlink:href="42E88537.png"  transform="matrix(0.48 0 0 0.48 -87.856 138.5347)">
			</image>
		</g>
		<g clip-path="url(#SVGID_1_)">
			
				<image overflow="visible" width="892" height="630" xlink:href="42E88535.png"  transform="matrix(0.48 0 0 0.48 132.7134 -153.2876)">
			</image>
		</g>
		
			<linearGradient id="SVGID_3_" gradientUnits="userSpaceOnUse" x1="-165.0117" y1="85.7588" x2="-211.5376" y2="182.0415" gradientTransform="matrix(0.9757 -0.2192 0.2192 0.9757 237.8657 112.7469)">
			<stop  offset="0" style="stop-color:#0C1A3B"/>
			<stop  offset="1" style="stop-color:#000000"/>
		</linearGradient>
		<path clip-path="url(#SVGID_1_)" fill="url(#SVGID_3_)" d="M44.07,215.011c7.23,7.141,12.988,16.212,22.068,20.775
			c12.903,6.485,28.312,2.015,42.243-1.791c13.932-3.807,30.366-6.351,41.524,2.818c8.845,7.269,12.008,20.317,21.875,26.123
			c6.571,3.866,14.761,3.648,21.862,6.424c9.011,3.521,15.808,12.169,17.103,21.757c1.294,9.588-2.967,19.728-10.721,25.513
			c-5.817,4.34-13.071,6.175-20.117,7.913c-47.512,11.723-95.022,23.445-142.534,35.169c-6.471,1.597-13.343,3.185-19.692,1.156
			c-8.598-2.748-13.823-11.274-17.871-19.343c-14.717-29.337-23.977-61.383-27.333-94.025c-0.879-8.541-1.326-17.113-1.416-25.698
			c-0.046-4.416-1.43-11.825,0.555-15.993c4.442-9.333,23.917-9.082,32.525-8.428C18.929,198.506,33.461,204.534,44.07,215.011z"/>
		
			<linearGradient id="SVGID_4_" gradientUnits="userSpaceOnUse" x1="1587.0791" y1="-2502.7798" x2="1540.5527" y2="-2406.4961" gradientTransform="matrix(-1 0 0 -1 2003.377 -2441.2861)">
			<stop  offset="0" style="stop-color:#0C1A3B"/>
			<stop  offset="1" style="stop-color:#000000"/>
		</linearGradient>
		<path clip-path="url(#SVGID_1_)" fill="url(#SVGID_4_)" d="M462.78,89.957c-5.49-8.552-9.119-18.665-16.979-25.107
			c-11.169-9.156-27.182-8.171-41.608-7.511c-14.427,0.66-31.02-0.459-39.896-11.851c-7.037-9.03-7.264-22.456-15.619-30.283
			c-5.563-5.212-13.602-6.794-19.922-11.059c-8.02-5.411-12.757-15.337-11.919-24.976c0.839-9.638,7.218-18.598,16.052-22.543
			c6.627-2.959,14.107-3.16,21.362-3.312c48.926-1.025,97.851-2.05,146.776-3.075c6.664-0.14,13.717-0.183,19.467,3.188
			c7.787,4.565,11.016,14.03,13.197,22.789c7.929,31.849,9.94,65.145,6.062,97.73c-1.015,8.526-2.457,16.988-4.251,25.383
			c-0.923,4.319-1.197,11.851-4.046,15.483c-6.38,8.132-25.327,3.619-33.583,1.094C483.693,111.571,470.835,102.503,462.78,89.957z"
			/>
		
			<linearGradient id="SVGID_5_" gradientUnits="userSpaceOnUse" x1="1874.6455" y1="-2236.2388" x2="1828.1198" y2="-2139.9561" gradientTransform="matrix(-0.9757 0.2192 -0.2192 -0.9757 1765.5117 -2554.0332)">
			<stop  offset="0" style="stop-color:#0C1A3B"/>
			<stop  offset="1" style="stop-color:#000000"/>
		</linearGradient>
		<path clip-path="url(#SVGID_1_)" fill="url(#SVGID_5_)" d="M478.195,56.369c-7.23-7.14-12.988-16.211-22.068-20.775
			c-12.903-6.485-28.312-2.016-42.243,1.791c-13.932,3.806-30.365,6.35-41.523-2.819c-8.846-7.268-12.009-20.317-21.876-26.123
			c-6.571-3.867-14.76-3.648-21.861-6.424c-9.012-3.522-15.809-12.169-17.104-21.756c-1.294-9.588,2.967-19.728,10.722-25.513
			c5.816-4.34,13.071-6.175,20.116-7.913c47.512-11.723,95.022-23.446,142.534-35.169c6.471-1.597,13.343-3.185,19.692-1.156
			c8.598,2.748,13.822,11.274,17.87,19.343c14.717,29.337,23.977,61.382,27.334,94.025c0.878,8.541,1.325,17.113,1.415,25.698
			c0.046,4.416,1.43,11.825-0.555,15.993c-4.441,9.333-23.917,9.082-32.525,8.427C503.336,72.874,488.804,66.845,478.195,56.369z"/>
		<g opacity="0.5" clip-path="url(#SVGID_1_)">
			<circle fill="#163D64" cx="404.376" cy="195.419" r="0.031"/>
			<circle fill="#163D64" cx="415.471" cy="195.42" r="0.123"/>
			<circle fill="#163D64" cx="426.566" cy="195.42" r="0.246"/>
			<circle fill="#163D64" cx="437.661" cy="195.419" r="0.338"/>
			<circle fill="#163D64" cx="448.756" cy="195.419" r="0.338"/>
			<circle fill="#163D64" cx="459.852" cy="195.419" r="0.277"/>
			<circle fill="#163D64" cx="470.946" cy="195.419" r="0.154"/>
			<circle fill="#163D64" cx="482.041" cy="195.419" r="0.031"/>
			<circle fill="#163D64" cx="387.733" cy="206.514" r="0.031"/>
			<circle fill="#163D64" cx="398.829" cy="206.515" r="0.216"/>
			<circle fill="#163D64" cx="409.924" cy="206.515" r="0.492"/>
			<circle fill="#163D64" cx="421.019" cy="206.515" r="0.677"/>
			<circle fill="#163D64" cx="432.113" cy="206.515" r="0.8"/>
			<circle fill="#163D64" cx="443.209" cy="206.515" r="0.861"/>
			<circle fill="#163D64" cx="454.304" cy="206.515" r="0.831"/>
			<circle fill="#163D64" cx="465.398" cy="206.515" r="0.708"/>
			<circle fill="#163D64" cx="476.494" cy="206.515" r="0.492"/>
			<circle fill="#163D64" cx="487.589" cy="206.515" r="0.246"/>
			<circle fill="#163D64" cx="498.684" cy="206.514" r="0.031"/>
			<circle fill="#163D64" cx="382.187" cy="217.609" r="0.123"/>
			<circle fill="#163D64" cx="393.281" cy="217.61" r="0.461"/>
			<circle fill="#163D64" cx="404.376" cy="217.609" r="0.8"/>
			<circle fill="#163D64" cx="415.471" cy="217.61" r="1.077"/>
			<circle fill="#163D64" cx="426.566" cy="217.61" r="1.261"/>
			<circle fill="#163D64" cx="437.661" cy="217.609" r="1.354"/>
			<circle fill="#163D64" cx="448.756" cy="217.609" r="1.354"/>
			<circle fill="#163D64" cx="459.852" cy="217.61" r="1.261"/>
			<circle fill="#163D64" cx="470.946" cy="217.61" r="1.077"/>
			<circle fill="#163D64" cx="482.041" cy="217.61" r="0.831"/>
			<circle fill="#163D64" cx="493.137" cy="217.609" r="0.492"/>
			<circle fill="#163D64" cx="504.231" cy="217.61" r="0.154"/>
			<circle fill="#163D64" cx="376.639" cy="228.705" r="0.215"/>
			<circle fill="#163D64" cx="387.733" cy="228.705" r="0.646"/>
			<circle fill="#163D64" cx="398.829" cy="228.705" r="1.015"/>
			<circle fill="#163D64" cx="409.924" cy="228.705" r="1.354"/>
			<circle fill="#163D64" cx="421.019" cy="228.705" r="1.63"/>
			<circle fill="#163D64" cx="432.113" cy="228.705" r="1.815"/>
			<circle fill="#163D64" cx="443.209" cy="228.705" r="1.908"/>
			<circle fill="#163D64" cx="454.304" cy="228.705" r="1.846"/>
			<circle fill="#163D64" cx="465.398" cy="228.705" r="1.662"/>
			<circle fill="#163D64" cx="476.494" cy="228.705" r="1.384"/>
			<circle fill="#163D64" cx="487.589" cy="228.705" r="1.046"/>
			<circle fill="#163D64" cx="498.684" cy="228.705" r="0.677"/>
			<circle fill="#163D64" cx="509.779" cy="228.705" r="0.277"/>
			<circle fill="#163D64" cx="371.092" cy="239.8" r="0.246"/>
			<circle fill="#163D64" cx="382.187" cy="239.799" r="0.708"/>
			<circle fill="#163D64" cx="393.281" cy="239.8" r="1.169"/>
			<circle fill="#163D64" cx="404.376" cy="239.8" r="1.569"/>
			<circle fill="#163D64" cx="415.471" cy="239.8" r="1.938"/>
			<circle fill="#163D64" cx="426.566" cy="239.799" r="2.215"/>
			<circle fill="#163D64" cx="437.661" cy="239.799" r="2.4"/>
			<circle fill="#163D64" cx="448.756" cy="239.799" r="2.4"/>
			<circle fill="#163D64" cx="459.852" cy="239.8" r="2.246"/>
			<circle fill="#163D64" cx="470.946" cy="239.799" r="1.969"/>
			<circle fill="#163D64" cx="482.041" cy="239.8" r="1.6"/>
			<circle fill="#163D64" cx="493.137" cy="239.799" r="1.2"/>
			<circle fill="#163D64" cx="504.231" cy="239.8" r="0.738"/>
			<circle fill="#163D64" cx="515.326" cy="239.8" r="0.308"/>
			<circle fill="#163D64" cx="365.544" cy="250.895" r="0.185"/>
			<circle fill="#163D64" cx="376.639" cy="250.895" r="0.677"/>
			<circle fill="#163D64" cx="387.733" cy="250.895" r="1.169"/>
			<circle fill="#163D64" cx="398.829" cy="250.895" r="1.631"/>
			<circle fill="#163D64" cx="409.924" cy="250.895" r="2.092"/>
			<circle fill="#163D64" cx="421.019" cy="250.895" r="2.492"/>
			<circle fill="#163D64" cx="432.113" cy="250.895" r="2.8"/>
			<circle fill="#163D64" cx="443.209" cy="250.895" r="2.923"/>
			<circle fill="#163D64" cx="454.304" cy="250.895" r="2.83"/>
			<circle fill="#163D64" cx="465.398" cy="250.895" r="2.523"/>
			<circle fill="#163D64" cx="476.494" cy="250.895" r="2.123"/>
			<circle fill="#163D64" cx="487.589" cy="250.895" r="1.692"/>
			<circle fill="#163D64" cx="498.684" cy="250.895" r="1.2"/>
			<circle fill="#163D64" cx="509.779" cy="250.895" r="0.738"/>
			<circle fill="#163D64" cx="520.874" cy="250.895" r="0.246"/>
			<circle fill="#163D64" cx="359.996" cy="261.99" r="0.092"/>
			<circle fill="#163D64" cx="371.092" cy="261.99" r="0.554"/>
			<circle fill="#163D64" cx="382.187" cy="261.99" r="1.077"/>
			<circle fill="#163D64" cx="393.281" cy="261.99" r="1.569"/>
			<circle fill="#163D64" cx="404.376" cy="261.99" r="2.061"/>
			<circle fill="#163D64" cx="415.471" cy="261.99" r="2.553"/>
			<circle fill="#163D64" cx="426.566" cy="261.99" r="3.015"/>
			<circle fill="#163D64" cx="437.661" cy="261.989" r="3.354"/>
			<circle fill="#163D64" cx="448.756" cy="261.99" r="3.384"/>
			<circle fill="#163D64" cx="459.852" cy="261.989" r="3.046"/>
			<circle fill="#163D64" cx="470.946" cy="261.99" r="2.615"/>
			<circle fill="#163D64" cx="482.041" cy="261.99" r="2.123"/>
			<circle fill="#163D64" cx="493.137" cy="261.99" r="1.63"/>
			<circle fill="#163D64" cx="504.231" cy="261.99" r="1.108"/>
			<circle fill="#163D64" cx="515.326" cy="261.99" r="0.616"/>
			<circle fill="#163D64" cx="526.422" cy="261.989" r="0.123"/>
			<circle fill="#163D64" cx="365.544" cy="273.084" r="0.338"/>
			<circle fill="#163D64" cx="376.639" cy="273.085" r="0.861"/>
			<circle fill="#163D64" cx="387.733" cy="273.084" r="1.384"/>
			<circle fill="#163D64" cx="398.829" cy="273.084" r="1.908"/>
			<circle fill="#163D64" cx="409.924" cy="273.084" r="2.4"/>
			<circle fill="#163D64" cx="421.019" cy="273.085" r="2.923"/>
			<circle fill="#163D64" cx="432.113" cy="273.084" r="3.446"/>
			<circle fill="#163D64" cx="443.209" cy="273.085" r="3.784"/>
			<circle fill="#163D64" cx="454.304" cy="273.085" r="3.477"/>
			<circle fill="#163D64" cx="465.398" cy="273.085" r="2.984"/>
			<circle fill="#163D64" cx="476.494" cy="273.084" r="2.461"/>
			<circle fill="#163D64" cx="487.589" cy="273.085" r="1.938"/>
			<circle fill="#163D64" cx="498.684" cy="273.085" r="1.415"/>
			<circle fill="#163D64" cx="509.779" cy="273.085" r="0.923"/>
			<circle fill="#163D64" cx="520.874" cy="273.084" r="0.4"/>
			<circle fill="#163D64" cx="531.969" cy="273.084" r="0.031"/>
			<circle fill="#163D64" cx="359.996" cy="284.18" r="0.092"/>
			<circle fill="#163D64" cx="371.092" cy="284.18" r="0.554"/>
			<circle fill="#163D64" cx="382.187" cy="284.18" r="1.077"/>
			<circle fill="#163D64" cx="393.281" cy="284.18" r="1.569"/>
			<circle fill="#163D64" cx="404.376" cy="284.18" r="2.092"/>
			<circle fill="#163D64" cx="415.471" cy="284.18" r="2.584"/>
			<circle fill="#163D64" cx="426.566" cy="284.18" r="3.046"/>
			<circle fill="#163D64" cx="437.661" cy="284.18" r="3.415"/>
			<circle fill="#163D64" cx="448.756" cy="284.18" r="3.445"/>
			<circle fill="#163D64" cx="459.852" cy="284.18" r="3.076"/>
			<circle fill="#163D64" cx="470.946" cy="284.18" r="2.615"/>
			<circle fill="#163D64" cx="482.041" cy="284.18" r="2.123"/>
			<circle fill="#163D64" cx="493.137" cy="284.18" r="1.631"/>
			<circle fill="#163D64" cx="504.231" cy="284.18" r="1.107"/>
			<circle fill="#163D64" cx="515.326" cy="284.18" r="0.615"/>
			<circle fill="#163D64" cx="526.422" cy="284.18" r="0.123"/>
			<circle fill="#163D64" cx="365.544" cy="295.275" r="0.215"/>
			<circle fill="#163D64" cx="376.639" cy="295.275" r="0.708"/>
			<circle fill="#163D64" cx="387.733" cy="295.274" r="1.169"/>
			<circle fill="#163D64" cx="398.829" cy="295.275" r="1.662"/>
			<circle fill="#163D64" cx="409.924" cy="295.275" r="2.123"/>
			<circle fill="#163D64" cx="421.019" cy="295.275" r="2.523"/>
			<circle fill="#163D64" cx="432.113" cy="295.275" r="2.831"/>
			<circle fill="#163D64" cx="443.209" cy="295.274" r="2.984"/>
			<circle fill="#163D64" cx="454.304" cy="295.274" r="2.861"/>
			<circle fill="#163D64" cx="465.398" cy="295.274" r="2.554"/>
			<circle fill="#163D64" cx="476.494" cy="295.275" r="2.154"/>
			<circle fill="#163D64" cx="487.589" cy="295.275" r="1.692"/>
			<circle fill="#163D64" cx="498.684" cy="295.275" r="1.231"/>
			<circle fill="#163D64" cx="509.779" cy="295.274" r="0.738"/>
			<circle fill="#163D64" cx="520.874" cy="295.274" r="0.246"/>
			<circle fill="#163D64" cx="371.092" cy="306.37" r="0.277"/>
			<circle fill="#163D64" cx="382.187" cy="306.37" r="0.739"/>
			<circle fill="#163D64" cx="393.281" cy="306.37" r="1.169"/>
			<circle fill="#163D64" cx="404.376" cy="306.37" r="1.6"/>
			<circle fill="#163D64" cx="415.471" cy="306.37" r="1.969"/>
			<circle fill="#163D64" cx="426.566" cy="306.37" r="2.246"/>
			<circle fill="#163D64" cx="437.661" cy="306.37" r="2.431"/>
			<circle fill="#163D64" cx="448.756" cy="306.37" r="2.431"/>
			<circle fill="#163D64" cx="459.852" cy="306.37" r="2.277"/>
			<circle fill="#163D64" cx="470.946" cy="306.37" r="2"/>
			<circle fill="#163D64" cx="482.041" cy="306.37" r="1.63"/>
			<circle fill="#163D64" cx="493.137" cy="306.37" r="1.231"/>
			<circle fill="#163D64" cx="504.231" cy="306.37" r="0.769"/>
			<circle fill="#163D64" cx="515.326" cy="306.37" r="0.308"/>
			<circle fill="#163D64" cx="376.639" cy="317.465" r="0.246"/>
			<circle fill="#163D64" cx="387.733" cy="317.465" r="0.677"/>
			<circle fill="#163D64" cx="398.829" cy="317.465" r="1.046"/>
			<circle fill="#163D64" cx="409.924" cy="317.465" r="1.415"/>
			<circle fill="#163D64" cx="421.019" cy="317.465" r="1.692"/>
			<circle fill="#163D64" cx="432.113" cy="317.465" r="1.877"/>
			<circle fill="#163D64" cx="443.209" cy="317.465" r="1.938"/>
			<circle fill="#163D64" cx="454.304" cy="317.465" r="1.877"/>
			<circle fill="#163D64" cx="465.398" cy="317.465" r="1.692"/>
			<circle fill="#163D64" cx="476.494" cy="317.465" r="1.446"/>
			<circle fill="#163D64" cx="487.589" cy="317.465" r="1.077"/>
			<circle fill="#163D64" cx="498.684" cy="317.464" r="0.708"/>
			<circle fill="#163D64" cx="509.779" cy="317.465" r="0.277"/>
			<circle fill="#163D64" cx="382.187" cy="328.56" r="0.154"/>
			<circle fill="#163D64" cx="393.281" cy="328.56" r="0.492"/>
			<circle fill="#163D64" cx="404.376" cy="328.56" r="0.831"/>
			<circle fill="#163D64" cx="415.471" cy="328.56" r="1.107"/>
			<circle fill="#163D64" cx="426.566" cy="328.56" r="1.292"/>
			<circle fill="#163D64" cx="437.661" cy="328.56" r="1.415"/>
			<circle fill="#163D64" cx="448.756" cy="328.56" r="1.415"/>
			<circle fill="#163D64" cx="459.852" cy="328.56" r="1.323"/>
			<circle fill="#163D64" cx="470.946" cy="328.56" r="1.138"/>
			<circle fill="#163D64" cx="482.041" cy="328.56" r="0.861"/>
			<circle fill="#163D64" cx="493.137" cy="328.56" r="0.523"/>
			<circle fill="#163D64" cx="504.231" cy="328.56" r="0.185"/>
			<circle fill="#163D64" cx="387.733" cy="339.655" r="0.031"/>
			<circle fill="#163D64" cx="398.829" cy="339.655" r="0.277"/>
			<circle fill="#163D64" cx="409.924" cy="339.655" r="0.523"/>
			<circle fill="#163D64" cx="421.019" cy="339.655" r="0.739"/>
			<circle fill="#163D64" cx="432.113" cy="339.655" r="0.862"/>
			<circle fill="#163D64" cx="443.209" cy="339.655" r="0.923"/>
			<circle fill="#163D64" cx="454.304" cy="339.655" r="0.862"/>
			<circle fill="#163D64" cx="465.398" cy="339.655" r="0.739"/>
			<circle fill="#163D64" cx="476.494" cy="339.655" r="0.554"/>
			<circle fill="#163D64" cx="487.589" cy="339.655" r="0.277"/>
			<circle fill="#163D64" cx="498.684" cy="339.655" r="0.061"/>
			<circle fill="#163D64" cx="404.376" cy="350.75" r="0.031"/>
			<circle fill="#163D64" cx="415.471" cy="350.75" r="0.154"/>
			<circle fill="#163D64" cx="426.566" cy="350.75" r="0.308"/>
			<circle fill="#163D64" cx="437.661" cy="350.75" r="0.369"/>
			<circle fill="#163D64" cx="448.756" cy="350.75" r="0.369"/>
			<circle fill="#163D64" cx="459.852" cy="350.75" r="0.308"/>
			<circle fill="#163D64" cx="470.946" cy="350.75" r="0.185"/>
			<circle fill="#163D64" cx="482.041" cy="350.75" r="0.062"/>
			<circle fill="#163D64" cx="443.209" cy="361.845" r="0.031"/>
		</g>
		<g opacity="0.5" clip-path="url(#SVGID_1_)">
			<circle fill="#163D64" cx="30.978" cy="-57.965" r="0.031"/>
			<circle fill="#163D64" cx="42.072" cy="-57.965" r="0.123"/>
			<circle fill="#163D64" cx="53.167" cy="-57.965" r="0.246"/>
			<circle fill="#163D64" cx="64.262" cy="-57.965" r="0.339"/>
			<circle fill="#163D64" cx="75.357" cy="-57.965" r="0.339"/>
			<circle fill="#163D64" cx="86.452" cy="-57.965" r="0.277"/>
			<circle fill="#163D64" cx="97.547" cy="-57.965" r="0.154"/>
			<circle fill="#163D64" cx="108.643" cy="-57.965" r="0.031"/>
			<circle fill="#163D64" cx="14.335" cy="-46.87" r="0.031"/>
			<circle fill="#163D64" cx="25.43" cy="-46.87" r="0.215"/>
			<circle fill="#163D64" cx="36.525" cy="-46.87" r="0.492"/>
			<circle fill="#163D64" cx="47.62" cy="-46.87" r="0.677"/>
			<circle fill="#163D64" cx="58.715" cy="-46.87" r="0.8"/>
			<circle fill="#163D64" cx="69.81" cy="-46.87" r="0.861"/>
			<circle fill="#163D64" cx="80.905" cy="-46.87" r="0.831"/>
			<circle fill="#163D64" cx="92" cy="-46.87" r="0.708"/>
			<circle fill="#163D64" cx="103.095" cy="-46.87" r="0.492"/>
			<circle fill="#163D64" cx="114.189" cy="-46.87" r="0.246"/>
			<circle fill="#163D64" cx="125.285" cy="-46.87" r="0.031"/>
			<circle fill="#163D64" cx="8.787" cy="-35.775" r="0.123"/>
			<circle fill="#163D64" cx="19.882" cy="-35.775" r="0.462"/>
			<circle fill="#163D64" cx="30.978" cy="-35.775" r="0.8"/>
			<circle fill="#163D64" cx="42.072" cy="-35.775" r="1.077"/>
			<circle fill="#163D64" cx="53.167" cy="-35.775" r="1.261"/>
			<circle fill="#163D64" cx="64.262" cy="-35.775" r="1.354"/>
			<circle fill="#163D64" cx="75.357" cy="-35.775" r="1.354"/>
			<circle fill="#163D64" cx="86.452" cy="-35.775" r="1.261"/>
			<circle fill="#163D64" cx="97.547" cy="-35.775" r="1.077"/>
			<circle fill="#163D64" cx="108.643" cy="-35.775" r="0.831"/>
			<circle fill="#163D64" cx="119.737" cy="-35.775" r="0.492"/>
			<circle fill="#163D64" cx="130.833" cy="-35.774" r="0.154"/>
			<circle fill="#163D64" cx="3.24" cy="-24.68" r="0.215"/>
			<circle fill="#163D64" cx="14.335" cy="-24.68" r="0.646"/>
			<circle fill="#163D64" cx="25.43" cy="-24.68" r="1.015"/>
			<circle fill="#163D64" cx="36.525" cy="-24.679" r="1.354"/>
			<circle fill="#163D64" cx="47.62" cy="-24.679" r="1.631"/>
			<circle fill="#163D64" cx="58.715" cy="-24.679" r="1.815"/>
			<circle fill="#163D64" cx="69.81" cy="-24.679" r="1.907"/>
			<circle fill="#163D64" cx="80.905" cy="-24.679" r="1.846"/>
			<circle fill="#163D64" cx="92" cy="-24.679" r="1.661"/>
			<circle fill="#163D64" cx="103.095" cy="-24.679" r="1.385"/>
			<circle fill="#163D64" cx="114.189" cy="-24.679" r="1.046"/>
			<circle fill="#163D64" cx="125.285" cy="-24.68" r="0.677"/>
			<circle fill="#163D64" cx="136.38" cy="-24.68" r="0.277"/>
			<circle fill="#163D64" cx="-2.308" cy="-13.584" r="0.246"/>
			<circle fill="#163D64" cx="8.787" cy="-13.584" r="0.708"/>
			<circle fill="#163D64" cx="19.882" cy="-13.585" r="1.169"/>
			<circle fill="#163D64" cx="30.978" cy="-13.585" r="1.569"/>
			<circle fill="#163D64" cx="42.072" cy="-13.585" r="1.938"/>
			<circle fill="#163D64" cx="53.167" cy="-13.585" r="2.215"/>
			<circle fill="#163D64" cx="64.262" cy="-13.584" r="2.4"/>
			<circle fill="#163D64" cx="75.357" cy="-13.584" r="2.4"/>
			<circle fill="#163D64" cx="86.452" cy="-13.585" r="2.246"/>
			<circle fill="#163D64" cx="97.547" cy="-13.585" r="1.969"/>
			<circle fill="#163D64" cx="108.643" cy="-13.585" r="1.6"/>
			<circle fill="#163D64" cx="119.737" cy="-13.584" r="1.2"/>
			<circle fill="#163D64" cx="130.833" cy="-13.585" r="0.739"/>
			<circle fill="#163D64" cx="141.927" cy="-13.584" r="0.308"/>
			<circle fill="#163D64" cx="-7.855" cy="-2.49" r="0.185"/>
			<circle fill="#163D64" cx="3.24" cy="-2.49" r="0.677"/>
			<circle fill="#163D64" cx="14.335" cy="-2.49" r="1.169"/>
			<circle fill="#163D64" cx="25.43" cy="-2.49" r="1.631"/>
			<circle fill="#163D64" cx="36.525" cy="-2.49" r="2.092"/>
			<circle fill="#163D64" cx="47.62" cy="-2.49" r="2.492"/>
			<circle fill="#163D64" cx="58.715" cy="-2.49" r="2.8"/>
			<circle fill="#163D64" cx="69.81" cy="-2.49" r="2.923"/>
			<circle fill="#163D64" cx="80.905" cy="-2.49" r="2.83"/>
			<circle fill="#163D64" cx="92" cy="-2.49" r="2.523"/>
			<circle fill="#163D64" cx="103.095" cy="-2.49" r="2.123"/>
			<circle fill="#163D64" cx="114.189" cy="-2.49" r="1.692"/>
			<circle fill="#163D64" cx="125.285" cy="-2.49" r="1.2"/>
			<circle fill="#163D64" cx="136.38" cy="-2.49" r="0.739"/>
			<circle fill="#163D64" cx="147.475" cy="-2.49" r="0.246"/>
			<circle fill="#163D64" cx="-13.403" cy="8.605" r="0.092"/>
			<circle fill="#163D64" cx="-2.308" cy="8.605" r="0.554"/>
			<circle fill="#163D64" cx="8.787" cy="8.605" r="1.077"/>
			<circle fill="#163D64" cx="19.882" cy="8.605" r="1.569"/>
			<circle fill="#163D64" cx="30.978" cy="8.605" r="2.062"/>
			<circle fill="#163D64" cx="42.072" cy="8.605" r="2.554"/>
			<circle fill="#163D64" cx="53.167" cy="8.605" r="3.015"/>
			<circle fill="#163D64" cx="64.262" cy="8.605" r="3.354"/>
			<circle fill="#163D64" cx="75.357" cy="8.605" r="3.384"/>
			<circle fill="#163D64" cx="86.452" cy="8.605" r="3.046"/>
			<circle fill="#163D64" cx="97.547" cy="8.605" r="2.615"/>
			<circle fill="#163D64" cx="108.643" cy="8.605" r="2.123"/>
			<circle fill="#163D64" cx="119.737" cy="8.606" r="1.631"/>
			<circle fill="#163D64" cx="130.833" cy="8.605" r="1.107"/>
			<circle fill="#163D64" cx="141.927" cy="8.605" r="0.615"/>
			<circle fill="#163D64" cx="153.022" cy="8.605" r="0.123"/>
			<circle fill="#163D64" cx="-7.855" cy="19.701" r="0.338"/>
			<circle fill="#163D64" cx="3.24" cy="19.7" r="0.862"/>
			<circle fill="#163D64" cx="14.335" cy="19.7" r="1.385"/>
			<circle fill="#163D64" cx="25.43" cy="19.7" r="1.907"/>
			<circle fill="#163D64" cx="36.525" cy="19.7" r="2.4"/>
			<circle fill="#163D64" cx="47.62" cy="19.7" r="2.923"/>
			<circle fill="#163D64" cx="58.715" cy="19.701" r="3.446"/>
			<circle fill="#163D64" cx="69.81" cy="19.701" r="3.784"/>
			<circle fill="#163D64" cx="80.905" cy="19.7" r="3.477"/>
			<circle fill="#163D64" cx="92" cy="19.7" r="2.984"/>
			<circle fill="#163D64" cx="103.095" cy="19.7" r="2.461"/>
			<circle fill="#163D64" cx="114.189" cy="19.7" r="1.938"/>
			<circle fill="#163D64" cx="125.285" cy="19.7" r="1.415"/>
			<circle fill="#163D64" cx="136.38" cy="19.7" r="0.923"/>
			<circle fill="#163D64" cx="147.475" cy="19.7" r="0.4"/>
			<circle fill="#163D64" cx="158.57" cy="19.701" r="0.031"/>
			<circle fill="#163D64" cx="-13.403" cy="30.795" r="0.092"/>
			<circle fill="#163D64" cx="-2.308" cy="30.795" r="0.554"/>
			<circle fill="#163D64" cx="8.787" cy="30.795" r="1.077"/>
			<circle fill="#163D64" cx="19.882" cy="30.796" r="1.569"/>
			<circle fill="#163D64" cx="30.978" cy="30.795" r="2.092"/>
			<circle fill="#163D64" cx="42.072" cy="30.795" r="2.584"/>
			<circle fill="#163D64" cx="53.167" cy="30.795" r="3.046"/>
			<circle fill="#163D64" cx="64.262" cy="30.795" r="3.415"/>
			<circle fill="#163D64" cx="75.357" cy="30.795" r="3.446"/>
			<circle fill="#163D64" cx="86.452" cy="30.795" r="3.077"/>
			<circle fill="#163D64" cx="97.547" cy="30.795" r="2.615"/>
			<circle fill="#163D64" cx="108.643" cy="30.796" r="2.123"/>
			<circle fill="#163D64" cx="119.737" cy="30.796" r="1.631"/>
			<circle fill="#163D64" cx="130.833" cy="30.796" r="1.108"/>
			<circle fill="#163D64" cx="141.927" cy="30.795" r="0.615"/>
			<circle fill="#163D64" cx="153.022" cy="30.795" r="0.123"/>
			<circle fill="#163D64" cx="-7.855" cy="41.891" r="0.215"/>
			<circle fill="#163D64" cx="3.24" cy="41.891" r="0.708"/>
			<circle fill="#163D64" cx="14.335" cy="41.89" r="1.169"/>
			<circle fill="#163D64" cx="25.43" cy="41.89" r="1.661"/>
			<circle fill="#163D64" cx="36.525" cy="41.89" r="2.123"/>
			<circle fill="#163D64" cx="47.62" cy="41.89" r="2.523"/>
			<circle fill="#163D64" cx="58.715" cy="41.891" r="2.831"/>
			<circle fill="#163D64" cx="69.81" cy="41.891" r="2.984"/>
			<circle fill="#163D64" cx="80.905" cy="41.891" r="2.861"/>
			<circle fill="#163D64" cx="92" cy="41.891" r="2.554"/>
			<circle fill="#163D64" cx="103.095" cy="41.89" r="2.154"/>
			<circle fill="#163D64" cx="114.189" cy="41.89" r="1.692"/>
			<circle fill="#163D64" cx="125.285" cy="41.89" r="1.231"/>
			<circle fill="#163D64" cx="136.38" cy="41.89" r="0.739"/>
			<circle fill="#163D64" cx="147.475" cy="41.891" r="0.246"/>
			<circle fill="#163D64" cx="-2.308" cy="52.985" r="0.277"/>
			<circle fill="#163D64" cx="8.787" cy="52.985" r="0.738"/>
			<circle fill="#163D64" cx="19.882" cy="52.986" r="1.169"/>
			<circle fill="#163D64" cx="30.978" cy="52.986" r="1.6"/>
			<circle fill="#163D64" cx="42.072" cy="52.986" r="1.969"/>
			<circle fill="#163D64" cx="53.167" cy="52.986" r="2.246"/>
			<circle fill="#163D64" cx="64.262" cy="52.986" r="2.43"/>
			<circle fill="#163D64" cx="75.357" cy="52.986" r="2.43"/>
			<circle fill="#163D64" cx="86.452" cy="52.986" r="2.277"/>
			<circle fill="#163D64" cx="97.547" cy="52.986" r="2"/>
			<circle fill="#163D64" cx="108.643" cy="52.986" r="1.631"/>
			<circle fill="#163D64" cx="119.737" cy="52.986" r="1.231"/>
			<circle fill="#163D64" cx="130.833" cy="52.986" r="0.769"/>
			<circle fill="#163D64" cx="141.927" cy="52.985" r="0.308"/>
			<circle fill="#163D64" cx="3.24" cy="64.081" r="0.246"/>
			<circle fill="#163D64" cx="14.335" cy="64.081" r="0.677"/>
			<circle fill="#163D64" cx="25.43" cy="64.081" r="1.046"/>
			<circle fill="#163D64" cx="36.525" cy="64.08" r="1.415"/>
			<circle fill="#163D64" cx="47.62" cy="64.08" r="1.692"/>
			<circle fill="#163D64" cx="58.715" cy="64.08" r="1.877"/>
			<circle fill="#163D64" cx="69.81" cy="64.08" r="1.938"/>
			<circle fill="#163D64" cx="80.905" cy="64.08" r="1.877"/>
			<circle fill="#163D64" cx="92" cy="64.08" r="1.692"/>
			<circle fill="#163D64" cx="103.095" cy="64.081" r="1.446"/>
			<circle fill="#163D64" cx="114.189" cy="64.081" r="1.077"/>
			<circle fill="#163D64" cx="125.285" cy="64.081" r="0.708"/>
			<circle fill="#163D64" cx="136.38" cy="64.081" r="0.277"/>
			<circle fill="#163D64" cx="8.787" cy="75.176" r="0.154"/>
			<circle fill="#163D64" cx="19.882" cy="75.176" r="0.492"/>
			<circle fill="#163D64" cx="30.978" cy="75.176" r="0.831"/>
			<circle fill="#163D64" cx="42.072" cy="75.176" r="1.108"/>
			<circle fill="#163D64" cx="53.167" cy="75.176" r="1.292"/>
			<circle fill="#163D64" cx="64.262" cy="75.176" r="1.415"/>
			<circle fill="#163D64" cx="75.357" cy="75.176" r="1.415"/>
			<circle fill="#163D64" cx="86.452" cy="75.176" r="1.323"/>
			<circle fill="#163D64" cx="97.547" cy="75.176" r="1.138"/>
			<circle fill="#163D64" cx="108.643" cy="75.176" r="0.862"/>
			<circle fill="#163D64" cx="119.737" cy="75.176" r="0.523"/>
			<circle fill="#163D64" cx="130.833" cy="75.176" r="0.185"/>
			<circle fill="#163D64" cx="14.335" cy="86.271" r="0.031"/>
			<circle fill="#163D64" cx="25.43" cy="86.271" r="0.277"/>
			<circle fill="#163D64" cx="36.525" cy="86.271" r="0.523"/>
			<circle fill="#163D64" cx="47.62" cy="86.271" r="0.738"/>
			<circle fill="#163D64" cx="58.715" cy="86.271" r="0.861"/>
			<circle fill="#163D64" cx="69.81" cy="86.271" r="0.923"/>
			<circle fill="#163D64" cx="80.905" cy="86.271" r="0.861"/>
			<circle fill="#163D64" cx="92" cy="86.271" r="0.738"/>
			<circle fill="#163D64" cx="103.095" cy="86.271" r="0.554"/>
			<circle fill="#163D64" cx="114.189" cy="86.271" r="0.277"/>
			<circle fill="#163D64" cx="125.285" cy="86.271" r="0.062"/>
			<circle fill="#163D64" cx="30.978" cy="97.366" r="0.031"/>
			<circle fill="#163D64" cx="42.072" cy="97.366" r="0.154"/>
			<circle fill="#163D64" cx="53.167" cy="97.366" r="0.308"/>
			<circle fill="#163D64" cx="64.262" cy="97.366" r="0.369"/>
			<circle fill="#163D64" cx="75.357" cy="97.366" r="0.369"/>
			<circle fill="#163D64" cx="86.452" cy="97.366" r="0.308"/>
			<circle fill="#163D64" cx="97.547" cy="97.366" r="0.185"/>
			<circle fill="#163D64" cx="108.643" cy="97.366" r="0.062"/>
			<circle fill="#163D64" cx="69.81" cy="108.46" r="0.031"/>
		</g>
		
			<linearGradient id="SVGID_6_" gradientUnits="userSpaceOnUse" x1="1139.5215" y1="138.9014" x2="1177.1174" y2="240.1216" gradientTransform="matrix(0.7071 0.7071 -0.7071 0.7071 -604.903 -771.7074)">
			<stop  offset="0" style="stop-color:#0C1A3B"/>
			<stop  offset="1" style="stop-color:#000000"/>
		</linearGradient>
		<polygon clip-path="url(#SVGID_1_)" fill="url(#SVGID_6_)" points="99.475,159.461 117.069,141.866 107.767,132.563 
			90.171,150.158 72.576,132.563 63.272,141.866 80.868,159.462 63.272,177.057 72.576,186.359 90.171,168.765 107.767,186.359 
			117.069,177.057 		"/>
		
			<linearGradient id="SVGID_7_" gradientUnits="userSpaceOnUse" x1="1443.5459" y1="140.6855" x2="1451.2393" y2="119.9727" gradientTransform="matrix(0.7071 0.7071 -0.7071 0.7071 -520.8844 -1010.1019)">
			<stop  offset="0" style="stop-color:#0C1A3B"/>
			<stop  offset="1" style="stop-color:#000000"/>
		</linearGradient>
		<polygon clip-path="url(#SVGID_1_)" fill="url(#SVGID_7_)" points="416.418,104.8 424.869,96.349 420.4,91.88 411.949,100.331 
			403.498,91.88 399.029,96.349 407.48,104.8 399.029,113.251 403.498,117.72 411.949,109.269 420.4,117.72 424.869,113.251 		"/>
		<g clip-path="url(#SVGID_1_)">
			<circle fill="#2364A6" cx="434.452" cy="110.585" r="0.521"/>
			<circle fill="#2364A6" cx="439.535" cy="110.585" r="0.521"/>
			<circle fill="#2364A6" cx="444.618" cy="110.585" r="0.521"/>
			<circle fill="#2364A6" cx="449.7" cy="110.585" r="0.521"/>
			<circle fill="#2364A6" cx="454.783" cy="110.585" r="0.521"/>
			<circle fill="#2364A6" cx="459.866" cy="110.585" r="0.521"/>
			<circle fill="#2364A6" cx="434.452" cy="115.668" r="0.521"/>
			<circle fill="#2364A6" cx="439.535" cy="115.668" r="0.521"/>
			<circle fill="#2364A6" cx="444.618" cy="115.668" r="0.521"/>
			<circle fill="#2364A6" cx="449.7" cy="115.668" r="0.521"/>
			<circle fill="#2364A6" cx="454.783" cy="115.668" r="0.521"/>
			<circle fill="#2364A6" cx="459.866" cy="115.668" r="0.521"/>
			<circle fill="#2364A6" cx="434.452" cy="120.751" r="0.521"/>
			<circle fill="#2364A6" cx="439.535" cy="120.751" r="0.521"/>
			<circle fill="#2364A6" cx="444.618" cy="120.751" r="0.521"/>
			<circle fill="#2364A6" cx="449.7" cy="120.751" r="0.521"/>
			<circle fill="#2364A6" cx="454.783" cy="120.751" r="0.521"/>
			<circle fill="#2364A6" cx="459.866" cy="120.751" r="0.521"/>
			<circle fill="#2364A6" cx="434.452" cy="125.834" r="0.521"/>
			<circle fill="#2364A6" cx="439.535" cy="125.834" r="0.521"/>
			<circle fill="#2364A6" cx="444.618" cy="125.834" r="0.521"/>
			<circle fill="#2364A6" cx="449.7" cy="125.834" r="0.521"/>
			<circle fill="#2364A6" cx="454.783" cy="125.834" r="0.521"/>
			<circle fill="#2364A6" cx="459.866" cy="125.834" r="0.521"/>
			<circle fill="#2364A6" cx="434.452" cy="130.917" r="0.521"/>
			<circle fill="#2364A6" cx="439.535" cy="130.917" r="0.521"/>
			<circle fill="#2364A6" cx="444.618" cy="130.917" r="0.521"/>
			<circle fill="#2364A6" cx="449.7" cy="130.917" r="0.521"/>
			<circle fill="#2364A6" cx="454.783" cy="130.917" r="0.521"/>
			<circle fill="#2364A6" cx="459.866" cy="130.917" r="0.521"/>
			<circle fill="#2364A6" cx="434.452" cy="136" r="0.521"/>
			<circle fill="#2364A6" cx="439.535" cy="136" r="0.521"/>
			<circle fill="#2364A6" cx="444.618" cy="136" r="0.521"/>
			<circle fill="#2364A6" cx="449.7" cy="136" r="0.521"/>
			<circle fill="#2364A6" cx="454.783" cy="136" r="0.521"/>
			<circle fill="#2364A6" cx="459.866" cy="136" r="0.521"/>
			<circle fill="#2364A6" cx="434.452" cy="141.083" r="0.521"/>
			<circle fill="#2364A6" cx="439.535" cy="141.083" r="0.521"/>
			<circle fill="#2364A6" cx="444.618" cy="141.083" r="0.521"/>
			<circle fill="#2364A6" cx="449.7" cy="141.083" r="0.521"/>
			<circle fill="#2364A6" cx="454.783" cy="141.083" r="0.521"/>
			<circle fill="#2364A6" cx="459.866" cy="141.083" r="0.521"/>
			<circle fill="#2364A6" cx="434.452" cy="146.165" r="0.521"/>
			<circle fill="#2364A6" cx="439.535" cy="146.165" r="0.521"/>
			<circle fill="#2364A6" cx="444.618" cy="146.165" r="0.521"/>
			<circle fill="#2364A6" cx="449.7" cy="146.165" r="0.521"/>
			<circle fill="#2364A6" cx="454.783" cy="146.165" r="0.521"/>
			<circle fill="#2364A6" cx="459.866" cy="146.165" r="0.521"/>
			<circle fill="#2364A6" cx="434.452" cy="151.248" r="0.521"/>
			<circle fill="#2364A6" cx="439.535" cy="151.248" r="0.521"/>
			<circle fill="#2364A6" cx="444.618" cy="151.248" r="0.521"/>
			<circle fill="#2364A6" cx="449.7" cy="151.248" r="0.521"/>
			<circle fill="#2364A6" cx="454.783" cy="151.248" r="0.521"/>
			<circle fill="#2364A6" cx="459.866" cy="151.248" r="0.521"/>
			<circle fill="#2364A6" cx="434.452" cy="156.331" r="0.521"/>
			<circle fill="#2364A6" cx="439.535" cy="156.331" r="0.521"/>
			<circle fill="#2364A6" cx="444.618" cy="156.331" r="0.521"/>
			<circle fill="#2364A6" cx="449.7" cy="156.331" r="0.521"/>
			<circle fill="#2364A6" cx="454.783" cy="156.331" r="0.521"/>
			<circle fill="#2364A6" cx="459.866" cy="156.331" r="0.521"/>
			<circle fill="#2364A6" cx="434.452" cy="161.414" r="0.521"/>
			<circle fill="#2364A6" cx="439.535" cy="161.414" r="0.521"/>
			<circle fill="#2364A6" cx="444.618" cy="161.414" r="0.521"/>
			<circle fill="#2364A6" cx="449.7" cy="161.414" r="0.521"/>
			<circle fill="#2364A6" cx="454.783" cy="161.414" r="0.521"/>
			<circle fill="#2364A6" cx="459.866" cy="161.414" r="0.521"/>
			<circle fill="#2364A6" cx="434.452" cy="166.497" r="0.521"/>
			<circle fill="#2364A6" cx="439.535" cy="166.497" r="0.521"/>
			<circle fill="#2364A6" cx="444.618" cy="166.497" r="0.521"/>
			<circle fill="#2364A6" cx="449.7" cy="166.497" r="0.521"/>
			<circle fill="#2364A6" cx="454.783" cy="166.497" r="0.521"/>
			<circle fill="#2364A6" cx="459.866" cy="166.497" r="0.521"/>
		</g>
		<g clip-path="url(#SVGID_1_)">
			<circle fill="#2364A6" cx="38.35" cy="73.731" r="0.521"/>
			<circle fill="#2364A6" cx="43.433" cy="73.731" r="0.521"/>
			<circle fill="#2364A6" cx="48.515" cy="73.731" r="0.521"/>
			<circle fill="#2364A6" cx="53.598" cy="73.731" r="0.521"/>
			<circle fill="#2364A6" cx="58.681" cy="73.731" r="0.521"/>
			<circle fill="#2364A6" cx="63.764" cy="73.731" r="0.521"/>
			<circle fill="#2364A6" cx="38.35" cy="78.814" r="0.521"/>
			<circle fill="#2364A6" cx="43.433" cy="78.814" r="0.521"/>
			<circle fill="#2364A6" cx="48.515" cy="78.814" r="0.521"/>
			<circle fill="#2364A6" cx="53.598" cy="78.814" r="0.521"/>
			<circle fill="#2364A6" cx="58.681" cy="78.814" r="0.521"/>
			<circle fill="#2364A6" cx="63.764" cy="78.814" r="0.521"/>
			<circle fill="#2364A6" cx="38.35" cy="83.897" r="0.521"/>
			<circle fill="#2364A6" cx="43.433" cy="83.897" r="0.521"/>
			<circle fill="#2364A6" cx="48.515" cy="83.897" r="0.521"/>
			<circle fill="#2364A6" cx="53.598" cy="83.897" r="0.521"/>
			<circle fill="#2364A6" cx="58.681" cy="83.897" r="0.521"/>
			<circle fill="#2364A6" cx="63.764" cy="83.897" r="0.521"/>
			<circle fill="#2364A6" cx="38.35" cy="88.98" r="0.521"/>
			<circle fill="#2364A6" cx="43.433" cy="88.98" r="0.521"/>
			<circle fill="#2364A6" cx="48.515" cy="88.98" r="0.521"/>
			<circle fill="#2364A6" cx="53.598" cy="88.98" r="0.521"/>
			<circle fill="#2364A6" cx="58.681" cy="88.98" r="0.521"/>
			<circle fill="#2364A6" cx="63.764" cy="88.98" r="0.521"/>
			<circle fill="#2364A6" cx="38.35" cy="94.063" r="0.521"/>
			<circle fill="#2364A6" cx="43.433" cy="94.063" r="0.521"/>
			<circle fill="#2364A6" cx="48.515" cy="94.063" r="0.521"/>
			<circle fill="#2364A6" cx="53.598" cy="94.063" r="0.521"/>
			<circle fill="#2364A6" cx="58.681" cy="94.063" r="0.521"/>
			<circle fill="#2364A6" cx="63.764" cy="94.063" r="0.521"/>
			<circle fill="#2364A6" cx="38.35" cy="99.146" r="0.521"/>
			<circle fill="#2364A6" cx="43.433" cy="99.146" r="0.521"/>
			<circle fill="#2364A6" cx="48.515" cy="99.146" r="0.521"/>
			<circle fill="#2364A6" cx="53.598" cy="99.146" r="0.521"/>
			<circle fill="#2364A6" cx="58.681" cy="99.146" r="0.521"/>
			<circle fill="#2364A6" cx="63.764" cy="99.146" r="0.521"/>
			<circle fill="#2364A6" cx="38.35" cy="104.229" r="0.521"/>
			<circle fill="#2364A6" cx="43.433" cy="104.229" r="0.521"/>
			<circle fill="#2364A6" cx="48.515" cy="104.229" r="0.521"/>
			<circle fill="#2364A6" cx="53.598" cy="104.229" r="0.521"/>
			<circle fill="#2364A6" cx="58.681" cy="104.229" r="0.521"/>
			<circle fill="#2364A6" cx="63.764" cy="104.229" r="0.521"/>
			<circle fill="#2364A6" cx="38.35" cy="109.312" r="0.521"/>
			<circle fill="#2364A6" cx="43.433" cy="109.312" r="0.521"/>
			<circle fill="#2364A6" cx="48.515" cy="109.312" r="0.521"/>
			<circle fill="#2364A6" cx="53.598" cy="109.312" r="0.521"/>
			<circle fill="#2364A6" cx="58.681" cy="109.312" r="0.521"/>
			<circle fill="#2364A6" cx="63.764" cy="109.312" r="0.521"/>
			<circle fill="#2364A6" cx="38.35" cy="114.395" r="0.521"/>
			<circle fill="#2364A6" cx="43.433" cy="114.395" r="0.521"/>
			<circle fill="#2364A6" cx="48.515" cy="114.395" r="0.521"/>
			<circle fill="#2364A6" cx="53.598" cy="114.395" r="0.521"/>
			<circle fill="#2364A6" cx="58.681" cy="114.395" r="0.521"/>
			<circle fill="#2364A6" cx="63.764" cy="114.395" r="0.521"/>
			<circle fill="#2364A6" cx="38.35" cy="119.477" r="0.522"/>
			<circle fill="#2364A6" cx="43.433" cy="119.477" r="0.522"/>
			<circle fill="#2364A6" cx="48.515" cy="119.477" r="0.522"/>
			<circle fill="#2364A6" cx="53.598" cy="119.477" r="0.522"/>
			<circle fill="#2364A6" cx="58.681" cy="119.477" r="0.522"/>
			<circle fill="#2364A6" cx="63.764" cy="119.477" r="0.522"/>
			<circle fill="#2364A6" cx="38.35" cy="124.56" r="0.521"/>
			<circle fill="#2364A6" cx="43.433" cy="124.56" r="0.521"/>
			<circle fill="#2364A6" cx="48.515" cy="124.56" r="0.521"/>
			<circle fill="#2364A6" cx="53.598" cy="124.56" r="0.521"/>
			<circle fill="#2364A6" cx="58.681" cy="124.56" r="0.521"/>
			<circle fill="#2364A6" cx="63.764" cy="124.56" r="0.521"/>
			<circle fill="#2364A6" cx="38.35" cy="129.643" r="0.521"/>
			<circle fill="#2364A6" cx="43.433" cy="129.643" r="0.521"/>
			<circle fill="#2364A6" cx="48.515" cy="129.643" r="0.521"/>
			<circle fill="#2364A6" cx="53.598" cy="129.643" r="0.521"/>
			<circle fill="#2364A6" cx="58.681" cy="129.643" r="0.521"/>
			<circle fill="#2364A6" cx="63.764" cy="129.643" r="0.521"/>
		</g>
		<g clip-path="url(#SVGID_1_)">
			<path fill="#FFCC00" d="M228.848,307.54l-3-0.027c0.084-9.373-4.285-18.767-11.987-25.772
				c-7.701-7.005-17.467-10.469-26.789-9.498c-2.678,0.278-5.572,0.834-8.371,1.372c-9.36,1.798-19.04,3.657-25.522-3.229
				c-3.511-3.729-4.46-8.704-5.377-13.517c-0.558-2.925-1.135-5.95-2.29-8.568c-5.027-11.396-20.801-14.481-33.096-11.6
				c-6.435,1.51-12.691,4.193-18.741,6.787c-6.079,2.608-12.366,5.305-18.951,6.884c-13.758,3.301-30.78-0.087-36.69-12.95
				c-2.333-5.081-2.483-10.702-2.628-16.14c-0.147-5.517-0.286-10.727-2.537-15.315c-4.962-10.114-18.662-12.896-29.04-9.742
				c-11.206,3.406-20.233,12.072-28.197,19.718l-2.077-2.164c8.207-7.879,17.509-16.809,29.402-20.423
				c11.577-3.521,26.94-0.257,32.605,11.29c2.539,5.177,2.693,10.962,2.842,16.558c0.143,5.37,0.278,10.444,2.356,14.967
				c5.233,11.392,20.698,14.299,33.264,11.285c6.337-1.52,12.504-4.165,18.468-6.724c6.169-2.646,12.548-5.382,19.239-6.95
				c13.807-3.237,30.785,0.295,36.526,13.309c1.292,2.931,1.902,6.127,2.491,9.218c0.876,4.592,1.703,8.93,4.615,12.022
				c5.354,5.685,13.814,4.059,22.772,2.338c2.861-0.55,5.82-1.118,8.626-1.41c10.178-1.059,20.787,2.684,29.119,10.264
				C224.213,287.102,228.939,297.313,228.848,307.54z"/>
		</g>
		<g clip-path="url(#SVGID_1_)">
			<path fill="#FFCC00" d="M530.243,119.043l-2.887-0.815c2.055-7.274,0.521-15.465-4.211-22.474
				c-4.73-7.008-11.754-11.495-19.269-12.309c-3.25-0.353-6.701-0.135-10.041,0.074c-5.844,0.366-11.889,0.746-17.395-1.805
				c-7.289-3.375-11.035-10.534-14.66-17.456c-2.16-4.127-4.395-8.395-7.343-11.77c-9.582-10.966-26.198-11.99-38.55-9.29
				c-8.927,1.951-17.539,5.68-25.868,9.288c-4.657,2.017-9.475,4.103-14.33,5.876c-17.224,6.289-31.761,6.689-43.206,1.19
				c-12.632-6.068-20.35-18.805-26.234-30.464c-0.793-1.571-1.576-3.156-2.36-4.744c-5.045-10.213-10.263-20.773-18.663-28.304
				c-9.227-8.271-24.682-12.144-34.574-4.313l-1.862-2.352c11.553-9.147,28.426-4.544,38.439,4.431
				c8.831,7.917,14.179,18.741,19.351,29.208c0.78,1.581,1.559,3.158,2.348,4.721c5.657,11.208,13.034,23.432,24.856,29.111
				c10.688,5.136,24.441,4.696,40.878-1.305c4.772-1.742,9.549-3.811,14.167-5.811c8.46-3.664,17.207-7.453,26.419-9.465
				c13.191-2.883,31.007-1.704,41.449,10.247c3.184,3.643,5.5,8.07,7.742,12.352c3.548,6.777,6.898,13.178,13.262,16.125
				c4.816,2.231,10.224,1.891,15.947,1.533c3.465-0.217,7.047-0.442,10.552-0.063c8.395,0.91,16.206,5.872,21.433,13.613
				C530.857,101.817,532.539,110.918,530.243,119.043z"/>
		</g>
		<g clip-path="url(#SVGID_1_)">
			<path fill="#A8A8A8" d="M102.97,298.941c-7.731-3.736-9.967-13.418-10.482-20.884c-0.091-1.334-0.157-2.685-0.223-4.04
				c-0.323-6.643-0.658-13.511-4.211-18.989c-7.098-10.942-22.837-11.184-37.296-9.978c-20.04,1.673-32.245-2.334-37.318-12.247
				c-2.704-5.284-2.619-11.338-2.536-17.191c0.064-4.568,0.131-9.292-1.125-13.628c-1.883-6.505-7.383-11.828-14.71-14.24
				s-14.915-1.396-20.294,2.719l-0.607-0.794c5.641-4.316,13.57-5.392,21.214-2.875c7.641,2.515,13.383,8.09,15.358,14.913
				c1.297,4.479,1.229,9.277,1.163,13.92c-0.084,5.995-0.165,11.659,2.427,16.722c4.867,9.511,16.757,13.338,36.345,11.706
				c14.752-1.232,30.834-0.955,38.218,10.43c3.701,5.705,4.042,12.71,4.372,19.485c0.065,1.349,0.131,2.692,0.222,4.021
				c0.497,7.2,2.62,16.523,9.92,20.051L102.97,298.941z"/>
		</g>
		<g clip-path="url(#SVGID_1_)">
			<path fill="#A8A8A8" d="M532.762,97.462c-6.984,0-14.197-3.981-19.483-8.648c-2.183-1.928-4.286-4.045-6.321-6.093
				c-4.809-4.84-9.78-9.845-16.044-12.546c-13.757-5.934-29.155,0.311-43.746,7.214c-14.114,6.677-30.364,13.263-44.583,6.835
				c-11.709-5.293-17.777-17.904-20.807-27.551c-1.395-4.439-2.479-9.047-3.527-13.503c-1.594-6.774-3.24-13.779-6.004-20.26
				c-7.771-18.229-24.66-32.026-44.073-36.008l0.201-0.979c19.729,4.046,36.894,18.068,44.792,36.595
				c2.797,6.56,4.454,13.607,6.059,20.423c1.043,4.438,2.123,9.028,3.506,13.433c2.969,9.452,8.894,21.798,20.266,26.939
				c13.83,6.253,29.832-0.246,43.743-6.828c14.8-7.002,30.43-13.328,44.57-7.228c6.44,2.777,11.481,7.852,16.357,12.759
				c2.022,2.037,4.115,4.142,6.273,6.048c7.074,6.246,17.675,11.248,26.21,6.548l0.482,0.876
				C538.127,96.868,535.461,97.462,532.762,97.462z"/>
		</g>
		<g clip-path="url(#SVGID_1_)">
			<path fill="#FFCC00" d="M501.777,243.166c-24.129,0-43.759-19.63-43.759-43.759s19.63-43.759,43.759-43.759
				s43.759,19.63,43.759,43.759S525.906,243.166,501.777,243.166z M501.777,156.648c-23.577,0-42.759,19.182-42.759,42.759
				s19.182,42.759,42.759,42.759s42.759-19.182,42.759-42.759S525.354,156.648,501.777,156.648z"/>
		</g>
		<g clip-path="url(#SVGID_1_)">
			<g>
				<g>
					<circle fill="#FFFFFF" cx="8.802" cy="92.874" r="0.778"/>
				</g>
			</g>
			<g>
				<g>
					<circle fill="#FFFFFF" cx="85.21" cy="178.181" r="0.778"/>
				</g>
			</g>
			<g>
				<g>
					<circle fill="#FFFFFF" cx="105.65" cy="173.711" r="0.778"/>
				</g>
			</g>
			<g>
				<g>
					<circle fill="#FFFFFF" cx="125.023" cy="211.019" r="0.778"/>
				</g>
			</g>
			<g>
				<g>
					<circle fill="#FFFFFF" cx="77.321" cy="257.558" r="0.778"/>
				</g>
			</g>
			<g>
				<g>
					<circle fill="#FFFFFF" cx="42.489" cy="173.311" r="0.778"/>
				</g>
			</g>
			<g>
				<g>
					<circle fill="#FFFFFF" cx="16.38" cy="162.503" r="0.778"/>
				</g>
			</g>
			<g>
				<g>
					<circle fill="#FFFFFF" cx="86.214" cy="195.295" r="0.778"/>
				</g>
			</g>
			<g>
				<g>
					<circle fill="#FFFFFF" cx="195.288" cy="206.205" r="0.778"/>
				</g>
			</g>
			<g>
				<g>
					<circle fill="#FFFFFF" cx="197.819" cy="271.23" r="0.778"/>
				</g>
			</g>
			<g>
				<g>
					<circle fill="#FFFFFF" cx="198.716" cy="289.847" r="0.778"/>
				</g>
			</g>
			<g>
				<g>
					<circle fill="#FFFFFF" cx="286.072" cy="274.18" r="0.778"/>
				</g>
			</g>
			<g>
				<g>
					<circle fill="#FFFFFF" cx="497.864" cy="194.219" r="0.778"/>
				</g>
			</g>
			<g>
				<g>
					<circle fill="#FFFFFF" cx="423.537" cy="139.081" r="0.778"/>
				</g>
			</g>
			<g>
				<g>
					<circle fill="#FFFFFF" cx="477.482" cy="62.944" r="0.778"/>
				</g>
			</g>
			<g>
				<g>
					<circle fill="#FFFFFF" cx="480.136" cy="31.349" r="0.778"/>
				</g>
			</g>
			<g>
				<g>
					<circle fill="#FFFFFF" cx="397.146" cy="28.596" r="0.778"/>
				</g>
			</g>
			<g>
				<g>
					<circle fill="#FFFFFF" cx="388.193" cy="58.588" r="0.778"/>
				</g>
			</g>
			<g>
				<g>
					<circle fill="#FFFFFF" cx="314.768" cy="58.461" r="0.778"/>
				</g>
			</g>
			<g>
				<g>
					<circle fill="#FFFFFF" cx="258.039" cy="-19.177" r="0.777"/>
				</g>
			</g>
			<g>
				<g>
					<circle fill="#FFFFFF" cx="353.186" cy="56.667" r="0.777"/>
				</g>
			</g>
			<g>
				<g>
					<circle fill="#FFFFFF" cx="450.499" cy="120.062" r="0.778"/>
				</g>
			</g>
			<g>
				<g>
					<circle fill="#FFFFFF" cx="479.498" cy="123.736" r="0.778"/>
				</g>
			</g>
		</g>
	</g>
</g>
</svg>
