<?xml version="1.0" encoding="utf-8"?>
<!-- Generator: Adobe Illustrator 16.0.0, SVG Export Plug-In . SVG Version: 6.00 Build 0)  -->
<!DOCTYPE svg PUBLIC "-//W3C//DTD SVG 1.1//EN" "http://www.w3.org/Graphics/SVG/1.1/DTD/svg11.dtd">
<svg version="1.1" id="Layer_1" xmlns="http://www.w3.org/2000/svg" xmlns:xlink="http://www.w3.org/1999/xlink" x="0px" y="0px"
	 width="959.318px" height="380.17px" viewBox="0 0 959.318 380.17" enable-background="new 0 0 959.318 380.17"
	 xml:space="preserve">
<g id="BACKGROUND">
	<g>
		<g>
			<rect x="0.39" y="1" fill="#B3B3B3" width="958" height="380"/>
		</g>
	</g>
</g>
<g id="OBJECTS">
	<g>
		<defs>
			<rect id="SVGID_1_" x="0.39" y="1" width="959" height="381"/>
		</defs>
		<clipPath id="SVGID_2_">
			<use xlink:href="#SVGID_1_"  overflow="visible"/>
		</clipPath>
		<rect x="0.39" y="1" clip-path="url(#SVGID_2_)" fill="#FFFFFF" width="959" height="381"/>
	</g>
	<g>
		<defs>
			<rect id="SVGID_3_" x="0.39" y="1" width="959" height="381"/>
		</defs>
		<clipPath id="SVGID_4_">
			<use xlink:href="#SVGID_3_"  overflow="visible"/>
		</clipPath>
		<g clip-path="url(#SVGID_4_)">
			<polygon fill="#F0635C" points="0.001,10.786 86.471,-50.115 46.337,-50.115 0.001,-17.482 			"/>
			<polygon fill="#337196" points="0.001,88.554 196.881,-50.116 156.746,-50.116 0.001,60.286 			"/>
			<polygon fill="#F0635C" points="0.001,166.32 307.293,-50.116 267.161,-50.116 0.001,138.054 			"/>
			<polygon fill="#337196" points="0.001,244.087 417.708,-50.116 377.575,-50.116 0.001,215.819 			"/>
			<polygon fill="#F0635C" points="0.001,321.856 528.118,-50.115 487.986,-50.115 0.001,293.588 			"/>
			<polygon fill="#337196" points="0.001,399.622 638.533,-50.116 598.396,-50.116 0.001,371.356 			"/>
			<polygon fill="#F0635C" points="708.813,-50.116 0,449.124 0,453.965 33.26,453.965 748.947,-50.116 			"/>
			<polygon fill="#337196" points="143.669,453.965 859.357,-50.116 819.226,-50.116 103.54,453.965 			"/>
			<polygon fill="#F0635C" points="254.083,453.965 963.118,-45.432 963.118,-50.116 929.639,-50.116 213.953,453.965 			"/>
			<polygon fill="#337196" points="364.498,453.965 963.118,32.336 963.118,4.068 324.364,453.965 			"/>
			<polygon fill="#F0635C" points="474.911,453.965 963.118,110.104 963.118,81.835 434.778,453.965 			"/>
			<polygon fill="#337196" points="585.32,453.965 963.118,187.87 963.118,159.604 545.188,453.965 			"/>
			<polygon fill="#F0635C" points="695.733,453.965 963.118,265.638 963.118,237.366 655.602,453.965 			"/>
			<polygon fill="#337196" points="806.146,453.965 963.118,343.403 963.118,315.14 766.011,453.965 			"/>
			<polygon fill="#F0635C" points="916.563,453.965 963.118,421.172 963.118,392.903 876.424,453.965 			"/>
		</g>
	</g>
	<g>
		<defs>
			<rect id="SVGID_5_" x="0.39" y="1" width="959" height="381"/>
		</defs>
		<clipPath id="SVGID_6_">
			<use xlink:href="#SVGID_5_"  overflow="visible"/>
		</clipPath>
		<rect x="25.39" y="22" clip-path="url(#SVGID_6_)" fill="#FFFAE9" width="899" height="339"/>
	</g>
	<g>
		<defs>
			<rect id="SVGID_7_" x="0.39" y="1" width="959" height="381"/>
		</defs>
		<clipPath id="SVGID_8_">
			<use xlink:href="#SVGID_7_"  overflow="visible"/>
		</clipPath>
		<g clip-path="url(#SVGID_8_)">
			<path fill="#F0635C" d="M233.288,120.17c-0.941,0.689-1.324,1.298-1.733,1.878c-2.719,3.835-4.16,8.036-4.989,12.405
				c-0.552,2.893-0.85,5.81-0.97,8.74c-0.064,1.529-0.37,1.967-1.68,2.34c-1.571,0.448-3.236,0.071-4.126-0.95
				c-0.487-0.558-0.781-1.202-1.074-1.843c-0.543-1.195-1.082-2.392-1.629-3.585c-0.014-0.034-0.084-0.049-0.23-0.126
				c-0.295,0.427-0.352,0.902-0.47,1.363c-0.881,3.444-1.767,6.887-3.246,10.197c-0.632,1.418-1.36,2.798-2.402,4.042
				c-2.998,3.585-8.426,3.719-11.636,0.273c-2.108-2.264-3.436-4.874-4.58-7.554c-0.902-2.112-1.563-4.285-2.037-6.496
				c-0.075-0.348-0.059-0.729-0.534-1.082c-0.373,0.923-0.724,1.779-1.062,2.639c-1.556,3.952-3.061,7.919-4.958,11.769
				c-0.646,1.313-1.363,2.597-2.306,3.782c-3.213,4.036-8.878,4.54-13.04,1.163c-1.36-1.103-2.25-2.449-2.951-3.909
				c-1.794-3.741-2.054-7.645-1.846-11.608c0.219-4.209,0.797-8.39,1.347-12.575c0.216-1.64,0.369-3.281,0.275-4.932
				c-0.019-0.346,0.083-0.726-0.298-1.085c-0.487,0.19-0.608,0.611-0.823,0.945c-2.076,3.231-4.447,6.295-7.245,9.124
				c-0.977,0.988-2.029,1.913-3.157,2.781c-3.859,2.965-8.648,1.674-10.928-1.125c-1.639-2.012-2.37-4.305-2.861-6.662
				c-0.597-2.875-0.368-5.744,0.183-8.606c0.11-0.577,0.226-1.153,0.359-1.83c-1.343-0.093-2.498,0.212-3.664,0.343
				c-0.709,0.08-0.511,0.609-0.479,1c0.143,1.689,0.253,3.378,0.161,5.073c-0.392,7.176-2.864,13.845-6.913,20.137
				c-2.952,4.589-6.558,8.756-11.247,12.208c-5.093,3.75-10.858,6.418-17.579,7.482c-3.249,0.516-6.502,0.563-9.74-0.081
				c-4.512-0.895-7.86-3.066-9.979-6.527c-2.262-3.691-2.95-7.651-2.464-11.735c0.821-6.91,4.365-12.684,10.667-17.207
				c0.845-0.607,0.821-1.17,0.591-1.917c-1.667-5.436-2.457-10.968-2.396-16.578c0.024-2.287,0.206-4.572,0.32-6.857
				c0.029-0.547,0.081-1.092,0.12-1.625c-0.623-0.255-0.832,0.185-1.117,0.399c-6.686,5.004-12.999,10.314-18.426,16.314
				c-3.406,3.764-6.354,7.769-8.372,12.214c-1.173,2.588-1.94,5.238-1.832,8.031c0.046,1.152,0.29,2.277,0.746,3.36
				c0.379,0.907,0.79,1.813,1.961,2.257c0.292,0.113,0.579,0.328,0.452,0.647c-0.115,0.287-0.458,0.383-0.786,0.41
				c-1.147,0.091-1.994-0.372-2.665-1.093c-0.859-0.92-1.322-1.995-1.614-3.121c-0.749-2.888-0.414-5.737,0.53-8.547
				c1.223-3.641,3.222-6.985,5.612-10.177c4.768-6.36,10.799-11.828,17.182-17.04c2.461-2.01,4.997-3.958,7.548-5.887
				c0.784-0.593,1.148-1.229,1.26-2.113c1.217-9.667,3.996-18.999,8.701-27.9c2.713-5.13,6.048-9.941,10.563-14.125
				c2.766-2.565,5.87-4.771,9.592-6.318c5.655-2.35,11.388-1.785,16.151,1.66c3.273,2.368,5.046,5.672,3.284,9.736
				c-1.111,2.562-2.723,4.881-4.599,7.086c-3.638,4.273-8.074,7.922-12.705,11.413c-4.667,3.518-9.52,6.852-14.359,10.2
				c-0.797,0.552-1.264,1.16-1.484,2.028c-1.741,6.854-2.941,13.778-3.737,20.752c-0.042,0.36-0.005,0.727-0.005,1.192
				c0.619-0.324,0.713-0.849,0.952-1.271c1.502-2.655,3.22-5.196,5.491-7.45c0.527-0.523,1.079-1.033,1.659-1.516
				c2.996-2.481,6.593-3.263,10.678-2.615c6.187,0.985,10.669,3.958,13.867,8.411c1.594,2.217,2.549,4.645,3.248,7.152
				c0.309,1.111,0.313,1.109,1.581,0.967c0.811-0.088,1.618-0.204,2.433-0.255c0.974-0.064,1.538-0.405,1.833-1.247
				c0.494-1.403,1.182-2.755,2.046-4.034c1.727-2.557,4.611-2.899,7.134-0.798c1.777,1.478,2.689,3.305,2.78,5.411
				c0.093,2.17-0.329,4.292-0.901,6.391c-0.717,2.63-1.521,5.245-2.253,7.873c-0.371,1.33-0.624,2.677-0.428,4.104
				c0.8,0.015,1.235-0.443,1.723-0.768c2.68-1.777,4.783-4.001,6.783-6.294c1.902-2.182,3.515-4.517,5.046-6.896
				c0.479-0.744,0.528-1.407,0.151-2.208c-1.183-2.51-2.319-5.035-3.182-7.64c-1.008-3.042-1.389-6.108-0.489-9.22
				c0.431-1.489,1.182-2.851,2.377-4.019c2.92-2.856,7.66-2.252,9.413,1.215c0.851,1.685,0.873,3.479,0.787,5.269
				c-0.146,3.094-0.946,6.095-2.294,8.95c-0.671,1.423-0.439,2.459,0.609,3.624c1.277,1.421,2.333,2.982,3.532,4.456
				c3.376,4.147,4.342,8.69,3.418,13.613c-0.763,4.066-1.81,8.097-2.324,12.196c-0.302,2.41-0.623,4.825-0.199,7.254
				c0.103,0.589,0.192,1.177,0.488,1.722c0.581,0.111,0.778-0.285,1.036-0.547c1.297-1.315,2.235-2.819,3.056-4.365
				c2.196-4.144,3.918-8.437,5.679-12.718c1.158-2.81,2.267-5.634,3.416-8.446c0.322-0.788,0.478-1.582,0.483-2.418
				c0.052-7.283,0.768-14.535,1.445-21.79c0.162-1.732,0.334-3.465,0.455-5.2c0.08-1.145,0.04-1.159-1.295-1.195
				c-2.669-0.076-5.34-0.136-8.012-0.203c-0.73-0.018-1.409-0.14-1.918-0.629c-0.591-0.568-0.458-1.036,0.397-1.197
				c0.58-0.109,1.19-0.143,1.786-0.145c2.672-0.008,5.343,0.013,8.016,0.011c1.167,0,1.247-0.026,1.269-0.973
				c0.136-5.627,0.312-11.256-0.249-16.875c-0.068-0.68-0.298-1.347-0.448-2.02c-0.175-0.792,0.175-1.21,1.125-1.326
				c0.552-0.067,1.077,0.047,1.599,0.203c2.024,0.602,3.595,1.697,4.864,3.122c2.122,2.38,3.488,5.054,4.398,7.911
				c0.875,2.75,1.354,5.553,1.668,8.382c0.045,0.411,0.146,0.819,0.146,1.229c0.002,0.651,0.379,0.858,1.114,0.878
				c1.198,0.031,2.394,0.138,3.589,0.216c0.377,0.024,0.773,0.006,1.099,0.211c0.353,0.219,0.773,0.461,0.726,0.854
				c-0.061,0.494-0.647,0.42-1.04,0.436c-1.36,0.053-2.725,0.048-4.086,0.086c-1.177,0.035-1.219,0.049-1.19,1.01
				c0.16,5.595-0.456,11.153-1.15,16.708c-0.656,5.232-1.426,10.458-1.7,15.717c-0.216,4.158-0.598,8.317-0.189,12.483
				c0.208,2.11,0.648,4.173,1.666,6.125c0.109,0.208,0.25,0.407,0.398,0.597c0.052,0.066,0.175,0.093,0.343,0.175
				c0.67-0.387,1.009-1.018,1.4-1.597c1.789-2.646,2.903-5.521,3.896-8.424c1.174-3.431,2.081-6.917,2.996-10.401
				c0.19-0.726,0.201-1.449,0.071-2.182c-1.127-6.375-0.952-12.781-0.525-19.182c0.448-6.72,1.287-13.409,2.815-20.025
				c0.819-3.548,1.598-7.105,2.95-10.548c0.188-0.477,0.386-0.954,0.641-1.408c0.762-1.363,1.844-1.802,3.588-1.445
				c2.725,0.558,4.489,1.988,5.276,4.24c0.494,1.414,0.621,2.875,0.666,4.344c0.12,3.763-0.356,7.497-0.819,11.228
				c-0.995,8.01-2.259,15.995-2.82,24.041c-0.031,0.442-0.208,0.898,0.065,1.349c0.495-0.066,0.49-0.447,0.638-0.709
				c1.14-2.027,2.249-4.066,3.407-6.086c1.097-1.918,2.458-2.532,4.974-2.374c4.198,0.264,7.094,2.153,9.045,5.155
				c1.459,2.251,2.041,4.722,2.191,7.259c0.248,4.215-0.058,8.418-0.515,12.614c-0.592,5.439-0.714,10.875,0.184,16.298
				c0.184,1.106,0.208,2.269,1.073,3.322c0.854-0.713,1.317-1.542,1.794-2.354c1.626-2.765,2.607-5.72,3.538-8.685
				c0.569-1.813,1.055-3.644,1.594-5.464c0.148-0.501,0.206-0.965-0.051-1.468c-2.479-4.858-2.204-9.813-0.663-14.799
				c0.549-1.775,1.299-3.49,2.424-5.079c0.617-0.869,1.298-1.694,2.124-2.432c2.1-1.875,4.642-2.838,7.751-2.611
				c0.543,0.041,1.088,0.071,1.627,0.135c1.25,0.148,1.248,0.155,1.487-0.937c0.501-2.294,0.943-4.601,1.521-6.881
				c1.182-4.666,2.879-9.201,5.124-13.585c0.82-1.601,1.733-3.159,2.92-4.594c0.562-0.68,1.19-1.312,1.999-1.799
				c1.396-0.842,2.859-0.806,4.324-0.176c1.404,0.604,2.032,1.591,1.928,2.927c-0.178,2.333-0.667,4.631-1.068,6.939
				c-1.259,7.244-2.714,14.461-3.55,21.755c-1.008,8.817-0.982,17.637-0.341,26.466c0.15,2.056,0.301,4.11,0.779,6.136
				c0.108,0.471,0.175,0.96,0.583,1.525c0.722-0.874,1-1.748,1.319-2.6c1.516-4.065,2.552-8.23,3.644-12.385
				c0.236-0.894,0.433-1.793,0.697-2.681c0.647-2.182,0.948-4.338,0.626-6.631c-0.523-3.725,0.617-7.271,2.636-10.602
				c0.974-1.606,2.265-3.021,3.947-4.157c3.836-2.582,9.518-2.336,12.979,0.604c0.695,0.59,1.348,0.874,2.371,0.925
				c4.277,0.213,7.326,2.4,8.448,5.862c0.813,2.514,0.783,5.07,0.616,7.636c-0.183,2.789-0.279,5.577,0.042,8.365
				c0.081,0.668,0.193,1.325,0.609,2.037c0.813-0.531,1.033-1.202,1.297-1.821c0.925-2.16,1.458-4.406,1.982-6.649
				c0.788-3.366,1.507-6.744,2.288-10.11c0.198-0.848,0.102-1.573-0.429-2.351c-1.97-2.876-2.691-6.065-3.088-9.317
				c-0.547-4.468-0.495-8.957-0.6-13.439c-0.058-2.521-0.239-5.032-0.759-7.515c-0.226-1.067-0.444-2.107-1.809-2.751
				c-1.014-0.479-0.764-1.217,0.392-1.56c1.194-0.354,2.374-0.2,3.53,0.121c1.792,0.499,3.348,1.318,4.624,2.497
				c2.445,2.259,3.895,4.936,4.758,7.871c1.011,3.437,1.479,6.934,1.599,10.462c0.146,4.302,0.343,8.599,0.994,12.87
				c0.205,1.326,0.579,2.611,1.207,3.835c0.301,0.581,0.539,0.604,1.05,0.141c0.707-0.647,1.205-1.415,1.654-2.198
				c1.595-2.784,2.491-5.756,3.272-8.753c1.139-4.382,2.003-8.807,2.825-13.236c0.15-0.827,0.093-1.64-0.021-2.461
				c-0.39-2.864-0.759-5.731-0.891-8.615c-0.085-1.832-0.098-3.664,0.422-5.461c0.139-0.485,0.321-0.974,0.582-1.42
				c0.625-1.057,1.646-1.456,3.146-1.187c3.067,0.547,5.202,1.959,6.049,4.609c1.559,4.869,2.604,9.82,3.538,14.792
				c1.306,6.962,2.56,13.927,3.464,20.934c1.291,9.976,1,19.916-0.899,29.828c-0.854,4.476-1.879,8.92-3.318,13.291
				c-0.214,0.649-0.232,1.244,0.171,1.849c0.207,0.316,0.333,0.677,0.455,1.026c0.367,1.07,0.261,1.261-1.021,1.168
				c-1.054-0.075-1.139,0.495-1.349,1.053c-1.575,4.195-3.442,8.293-5.613,12.297c-3.875,7.15-9.035,13.574-15.589,19.185
				c-6.806,5.822-14.938,9.627-24.614,10.832c-9.922,1.235-19.447,0.098-27.958-4.537c-10.853-5.914-15.453-14.526-14.052-25.271
				c0.947-7.266,5.181-13.23,11.434-18.197c7.433-5.907,16.336-9.514,26.253-11.409c11.516-2.202,22.64-1.046,33.401,2.917
				c1.994,0.734,3.96,1.531,5.938,2.299c1.084,0.421,1.108,0.424,1.324-0.588c1.2-5.591,1.905-11.231,2.254-16.903
				c0.549-8.981,0.003-17.932-1.019-26.87c-0.096-0.841-0.236-1.677-0.372-2.613c-0.561,0.401-0.507,0.833-0.591,1.226
				c-0.708,3.285-1.461,6.564-2.579,9.774c-0.441,1.277-0.965,2.529-1.714,3.702c-1.525,2.377-3.811,3.253-6.954,2.742
				c-1.765-0.286-3.271-0.969-4.66-1.893c-0.417-0.278-0.731-0.681-1.373-0.827c-0.494,0.979-0.494,2.035-0.679,3.05
				c-0.705,3.841-1.379,7.687-2.298,11.498c-0.171,0.715-0.416,1.421-0.674,2.12c-1.171,3.177-4.194,4.468-8.266,3.589
				c-2.551-0.553-4.367-2.008-5.833-3.78c-1.772-2.146-2.759-4.562-3.232-7.123c-0.273-1.48-0.427-2.977-0.736-4.474
				c-0.699,1.277-0.865,2.66-1.219,3.997c-0.541,2.055-1.058,4.116-1.947,6.09c-0.327,0.726-0.677,1.452-1.124,2.13
				c-1.382,2.108-3.679,2.8-6.392,1.98c-1.834-0.557-3.088-1.68-4.118-3.005c-0.557-0.715-1.055-1.464-1.679-2.338
				c-0.621,1.471-0.792,2.833-1.112,4.161c-0.881,3.629-1.574,7.292-2.65,10.888c-0.266,0.884-0.573,1.772-0.998,2.609
				c-1.298,2.57-4.345,3.569-7.439,2.496c-1.346-0.466-2.416-1.229-3.329-2.161c-2.328-2.375-3.759-5.13-4.837-8.034
				c-0.355-0.955-0.668-1.921-1.06-3.054c-1.197,1.009-2.147,2.072-3.689,2.492c-1.495,0.409-3.002,0.418-4.52,0.166
				c-1.575-0.262-2.875-1.026-4.319-1.847c-0.199,0.635-0.382,1.142-0.513,1.659c-0.68,2.685-1.499,5.343-2.408,7.979
				c-0.684,1.985-1.574,3.909-3.077,5.574c-2.341,2.591-6.306,3.455-9.63,2.128c-1.477-0.589-2.551-1.551-3.455-2.659
				c-1.754-2.153-2.666-4.595-3.417-7.088c-1.561-5.179-2.098-10.448-2.009-15.782c0.08-4.849,0.276-9.699,0.088-14.552
				C233.397,121.73,233.346,121.105,233.288,120.17z M320.337,151.691c-9.954-0.006-18.491,1.963-26.514,5.541
				c-7.165,3.194-13.167,7.487-17.213,13.481c-4.38,6.486-5.571,13.351-2.727,20.486c3.904,9.794,14.853,16.606,29.256,16.493
				c6.765-0.051,12.781-2.061,18.08-5.574c4.961-3.288,8.607-7.488,11.619-12.092c3.07-4.697,5.615-9.598,7.783-14.637
				c2.279-5.296,4.131-10.694,5.501-16.206c0.27-1.088,0.27-1.115-0.863-1.603c-1.259-0.542-2.532-1.063-3.827-1.544
				C334.453,153.433,327.273,151.532,320.337,151.691z M93.148,132.667c-0.452-0.05-0.617,0.155-0.792,0.312
				c-6.379,5.746-8.942,12.456-7.052,20.209c0.688,2.824,2.245,5.342,4.707,7.412c1.904,1.603,4.18,2.256,6.86,1.873
				c1.352-0.194,2.643-0.542,3.894-1.007c3.908-1.448,7.182-3.618,10.069-6.224c3.328-3.005,6.043-6.37,8.248-10.021
				c4.246-7.034,6.578-14.51,7.195-22.369c0.093-1.179,0.076-1.211-1.271-1.033c-1.882,0.249-3.759,0.538-5.634,0.834
				c-5.642,0.891-11.133,2.192-16.384,4.176c-1.062,0.402-1.587,0.956-1.758,1.917c-0.354,1.994-0.686,3.981-0.717,6.002
				c-0.019,1.198-0.646,1.74-2.036,1.914c-2.255,0.284-3.792-0.468-4.612-2.27C93.596,133.809,93.371,133.212,93.148,132.667z
				 M107.213,87.826c0.677-0.125,1.057-0.53,1.486-0.843c1.731-1.255,3.444-2.529,5.151-3.806
				c4.558-3.411,9.005-6.912,12.845-10.917c2.434-2.54,4.567-5.237,6.021-8.279c0.797-1.667,1.306-3.388,1.247-5.204
				c-0.094-2.881-1.591-3.687-4.766-2.535c-1.871,0.677-3.495,1.674-4.989,2.825c-2.424,1.868-4.434,4.024-6.206,6.341
				c-5.174,6.774-8.436,14.211-10.785,21.962C107.181,87.493,107.213,87.629,107.213,87.826z M102.706,124.601
				c2.29-0.698,4.533-1.398,6.841-1.93c5.003-1.147,10.109-1.848,15.227-2.503c1.604-0.205,1.642-0.215,1.549-1.531
				c-0.172-2.43-0.649-4.816-1.589-7.126c-0.459-1.127-1.019-2.218-1.842-3.201c-1.317-1.571-3.078-2.246-5.371-1.928
				c-0.984,0.138-1.891,0.418-2.761,0.81c-1.656,0.746-3.05,1.763-4.249,2.965c-4.116,4.13-6.343,9.012-7.944,14.139
				C102.557,124.331,102.601,124.377,102.706,124.601z M305.206,120.083c-0.558,0.195-0.759,0.539-0.98,0.842
				c-3.443,4.753-4.887,9.945-4.63,15.468c0.049,1.091,0.192,2.251,1.043,3.291c0.729-0.565,1.123-1.214,1.491-1.87
				c0.888-1.58,1.51-3.238,2-4.929c0.958-3.288,1.879-6.584,2.837-9.871c0.239-0.816,0.611-1.599-0.801-1.952
				C305.688,120.943,305.534,120.457,305.206,120.083z M264.948,143.351c0.714-0.231,0.931-0.729,1.237-1.148
				c0.886-1.214,1.458-2.549,2.071-3.871c0.484-1.05,0.635-2.1,0.5-3.222c-0.432-3.599-0.61-7.207-0.488-10.823
				c0.01-0.298,0.168-0.639-0.196-0.896c-0.463,0.061-0.529,0.416-0.703,0.673c-1.009,1.477-1.722,3.06-2.259,4.695
				c-1.257,3.821-1.869,7.703-1.333,11.668C263.918,141.465,264.238,142.463,264.948,143.351z M169.791,113.227
				c0.085-0.148,0.198-0.296,0.258-0.458c1.121-2.981,1.801-6.023,1.708-9.159c-0.032-1.094-0.125-2.194-0.528-3.249
				c-0.478-1.25-1.158-1.421-2.355-0.573c-0.367,0.26-0.676,0.59-0.958,0.922c-0.677,0.796-1.058,1.707-1.246,2.655
				c-0.707,3.573,0.573,6.76,2.771,9.755C169.482,113.18,169.631,113.182,169.791,113.227z"/>
			<path fill="#F0635C" d="M152.266,108.119c-0.812-0.004-1.778-0.232-2.63-0.792c-0.87-0.57-1.185-1.286-0.878-2.169
				c0.314-0.902,0.998-1.518,2.136-1.664c1.053-0.136,2.058,0.06,2.973,0.511c1.257,0.62,1.784,1.524,1.484,2.481
				C155.02,107.541,154.041,108.105,152.266,108.119z"/>
		</g>
	</g>
	<g>
		<defs>
			<rect id="SVGID_9_" x="0.39" y="1" width="959" height="381"/>
		</defs>
		<clipPath id="SVGID_10_">
			<use xlink:href="#SVGID_9_"  overflow="visible"/>
		</clipPath>
		<g clip-path="url(#SVGID_10_)">
			
				<text transform="matrix(1.4342 0 0 1 57.9805 194.0391)" fill="#043B56" font-family="'ArialMT'" font-size="22.8256" letter-spacing="3.486">Nana Febreyanti</text>
		</g>
	</g>
	<g>
		<defs>
			<rect id="SVGID_11_" x="0.39" y="1" width="959" height="381"/>
		</defs>
		<clipPath id="SVGID_12_">
			<use xlink:href="#SVGID_11_"  overflow="visible"/>
		</clipPath>
		<g clip-path="url(#SVGID_12_)">
			<rect x="59.639" y="231.197" fill="none" width="264.725" height="57.004"/>
			<text transform="matrix(1.4342 0 0 1 59.6396 239.0869)" fill="#043B56" font-family="'ArialMT'" font-size="11.112">Hobi : Nyanyi. </text>
			<text transform="matrix(1.4342 0 0 1 59.6396 257.2695)" fill="#043B56" font-family="'ArialMT'" font-size="11.112">Cita-Cita : bermanfaat untuk banyak orang. </text>
			<text transform="matrix(1.4342 0 0 1 59.6396 275.4531)" enable-background="new    "><tspan x="0" y="0" fill="#043B56" font-family="'ArialMT'" font-size="11.112">pengalaman terbaik dalam hidupku menurutku</tspan><tspan x="0" y="13.335" fill="#043B56" font-family="'ArialMT'" font-size="11.112">lahir kedunia, singkatnya aku menangis mereka tersenyum</tspan><tspan x="0" y="26.669" fill="#043B56" font-family="'ArialMT'" font-size="11.112"> </tspan></text>
		</g>
	</g>
	<g>
		<defs>
			<rect id="SVGID_13_" x="0.39" y="1" width="959" height="381"/>
		</defs>
		<clipPath id="SVGID_14_">
			<use xlink:href="#SVGID_13_"  overflow="visible"/>
		</clipPath>
		<g clip-path="url(#SVGID_14_)">
			<text transform="matrix(1.4342 0 0 1 57.9805 340.8125)" fill="#043B56" font-family="'ArialMT'" font-size="14.6299">arisena166.github.io/HappyLucky.github.io</text>
		</g>
	</g>
	<g>
		<defs>
			<rect id="SVGID_15_" x="0.39" y="1" width="959" height="381"/>
		</defs>
		<clipPath id="SVGID_16_">
			<use xlink:href="#SVGID_15_"  overflow="visible"/>
		</clipPath>
		<g clip-path="url(#SVGID_16_)">
			<text transform="matrix(1.4342 0 0 1 57.9814 315.2363)" fill="#043B56" font-family="'ArialMT'" font-size="9.9578">QUALITY CATERING / LIVE MUSIC / FUN ACTIVITIES</text>
		</g>
	</g>
	<g>
		<defs>
			<rect id="SVGID_17_" x="0.39" y="1" width="959" height="381"/>
		</defs>
		<clipPath id="SVGID_18_">
			<use xlink:href="#SVGID_17_"  overflow="visible"/>
		</clipPath>
		
			<line clip-path="url(#SVGID_18_)" fill="none" stroke="#F0635C" stroke-width="2" stroke-miterlimit="10" x1="57.39" y1="320" x2="435.39" y2="320"/>
	</g>
	<g>
		<defs>
			<rect id="SVGID_19_" x="0.39" y="1" width="959" height="381"/>
		</defs>
		<clipPath id="SVGID_20_">
			<use xlink:href="#SVGID_19_"  overflow="visible"/>
		</clipPath>
		
			<line clip-path="url(#SVGID_20_)" fill="none" stroke="#F0635C" stroke-width="2" stroke-miterlimit="10" x1="57.39" y1="303" x2="435.39" y2="303"/>
	</g>
</g>
</svg>
