<?xml version="1.0" encoding="utf-8"?>
<!-- Generator: Adobe Illustrator 16.0.0, SVG Export Plug-In . SVG Version: 6.00 Build 0)  -->
<!DOCTYPE svg PUBLIC "-//W3C//DTD SVG 1.1//EN" "http://www.w3.org/Graphics/SVG/1.1/DTD/svg11.dtd">
<svg version="1.1" id="Layer_1" xmlns="http://www.w3.org/2000/svg" xmlns:xlink="http://www.w3.org/1999/xlink" x="0px" y="0px"
	 width="213.42px" height="231.245px" viewBox="0 0 213.42 231.245" enable-background="new 0 0 213.42 231.245"
	 xml:space="preserve">
<g>
	<g>
		<path fill="#E6F6FD" d="M188.986,171.168c-2.632,5.221-5.709,9.579-9.151,12.708c-1.012,0.924-2.057,1.743-3.139,2.44
			c-1.02,0.662-2.074,1.221-3.146,1.665c-15.688,6.484-31.752-8.271-49.697-6.528c-15.044,1.464-25.869,9.822-35.465,16.839
			c-3.39,2.484-6.633,4.803-9.857,6.581c-0.907,0.505-1.822,0.967-2.728,1.377c-0.977,0.436-2.014,0.845-3.121,1.22
			c0,0.009-0.009,0.009-0.009,0.009l-0.009-0.009c-13.901,4.768-37.382,4.594-47.789-5.665
			c-10.895-10.747-24.125-45.575,5.84-90.437c33.294-49.863,124.263-56.758,148.572-40.267
			C204.439,88.15,203.429,142.519,188.986,171.168z"/>
		<g>
			<path fill="#E6F6FD" d="M190.882,91.508c2.761-2.213,5.003-5.069,6.496-8.277c0.24-0.518,0.466-1.061,0.473-1.631
				c0.015-1.104-0.796-2.065-1.73-2.654c-2.285-1.439-5.455-1.122-7.585,0.539s-3.209,4.478-3.019,7.172
				c0.105,1.479,0.611,3.006,1.741,3.968s2.972,1.161,4.069,0.165c-0.016-0.474-0.66-0.786-1.042-0.505L190.882,91.508z"/>
			<path fill="#E6F6FD" d="M194.645,162.136c2.761-2.213,5.003-5.07,6.497-8.278c0.24-0.517,0.465-1.061,0.473-1.631
				c0.014-1.104-0.797-2.065-1.73-2.653c-2.285-1.439-5.455-1.122-7.586,0.538c-2.129,1.66-3.208,4.478-3.018,7.172
				c0.105,1.479,0.611,3.006,1.74,3.968c1.13,0.962,2.972,1.161,4.07,0.164c-0.016-0.473-0.66-0.785-1.042-0.505L194.645,162.136z"
				/>
			<path fill="#E6F6FD" d="M191.523,80.617c1.45-0.027,2.86-0.861,3.581-2.12c-0.75-1.237-2.008-2.264-3.452-2.333
				c-1.444-0.07-2.953,1.098-2.902,2.544c0.052,1.445,2.094,2.465,3.106,1.432L191.523,80.617z"/>
			<path fill="#E6F6FD" d="M199.774,70.592c0.557,0.377,1.295,0.472,1.932,0.25c-0.076-0.292-0.156-0.593-0.34-0.833
				s-0.5-0.405-0.789-0.321c-0.396,0.115-0.54,0.592-0.621,0.997c-0.063-0.094-0.127-0.188-0.19-0.283L199.774,70.592z"/>
			<path fill="#E6F6FD" d="M198.518,72.944c-0.106,0.175-0.267,0.316-0.454,0.398c-0.131-0.508,0.203-1.012,0.539-1.415
				c0.188-0.224,0.457-0.465,0.733-0.371c0.192,0.065,0.298,0.27,0.454,0.399c0.314,0.26,0.897,0.293,0.941,0.699
				c0.024,0.229-0.181,0.432-0.404,0.489c-0.223,0.057-0.459,0.005-0.684-0.047c-0.49-0.114-0.98-0.228-1.471-0.341L198.518,72.944z
				"/>
			<path opacity="0.5" fill="#E6F6FD" d="M217.178,44.42c0.414-0.09,0.329-0.789-0.06-0.956c-0.389-0.167-0.832,0.015-1.216,0.193
				c0.171,0.559,0.712,0.984,1.294,1.02L217.178,44.42z"/>
			<path fill="#E6F6FD" d="M205.586,34.742c-0.198,0.019-0.368-0.178-0.378-0.376c-0.008-0.199,0.105-0.384,0.25-0.522
				c0.084-0.081,0.182-0.152,0.295-0.182c0.262-0.067,0.556,0.139,0.592,0.406c0.037,0.268-0.18,0.541-0.447,0.577
				c-0.268,0.037-0.543-0.156-0.612-0.417L205.586,34.742z"/>
			<path fill="#E6F6FD" d="M198.137,64.485c-0.121,0.406,0.372,0.843,0.761,0.673c0.049-0.214,0.065-0.447-0.024-0.648
				s-0.312-0.355-0.526-0.309c-0.215,0.047-0.35,0.343-0.205,0.508L198.137,64.485z"/>
			<path fill="#E6F6FD" d="M196.667,73.872c0.309,0.403,0.813,0.65,1.32,0.649c-0.037-0.415-0.074-0.829-0.111-1.244
				c-0.017-0.195-0.037-0.4-0.151-0.56c-0.222-0.313-0.747-0.292-1.001-0.005c-0.254,0.288-0.247,0.745-0.051,1.075L196.667,73.872z
				"/>
			<path opacity="0.5" fill="#E6F6FD" d="M205.556,40.545c-0.004-0.141-0.008-0.281-0.011-0.422c-0.21-0.097-0.489-0.038-0.62,0.153
				s-0.07,0.493,0.135,0.598c0.207,0.105,0.503-0.05,0.513-0.281L205.556,40.545z"/>
			<path fill="#E6F6FD" d="M198.228,67.554c-0.232-0.148-0.533,0.121-0.57,0.394c-0.035,0.273,0.073,0.545,0.066,0.821
				c-0.008,0.283-0.146,0.561-0.367,0.737c-0.129,0.103-0.306,0.173-0.459,0.111c-0.102-0.042-0.173-0.135-0.236-0.226
				c-0.313-0.443-0.58-0.943-0.613-1.485s0.219-1.129,0.713-1.355c0.343-0.157,0.77-0.114,1.074,0.108
				c0.305,0.223,0.475,0.617,0.43,0.991L198.228,67.554z"/>
			<path fill="#E6F6FD" d="M203.22,72.933c0.225,0.258,0.672,0.239,0.92,0.003c0.249-0.235,0.311-0.625,0.213-0.954
				c-0.043-0.145-0.152-0.304-0.303-0.286c-0.103,0.013-0.174,0.105-0.232,0.19c-0.242,0.346-0.483,0.692-0.725,1.039L203.22,72.933
				z"/>
			<path fill="#E6F6FD" d="M210.615,58.601c-0.663-0.225-0.919-1.194-0.454-1.717c0.481,0.245,0.99,0.516,1.256,0.986
				c0.267,0.471,0.146,1.198-0.365,1.373c-0.293-0.116-0.587-0.233-0.881-0.349L210.615,58.601z"/>
			<path fill="#E6F6FD" d="M179.36,102.99c-0.051,0.15-0.258,0.194-0.399,0.122c-0.141-0.072-0.224-0.221-0.283-0.368
				c-0.048-0.119-0.087-0.247-0.075-0.375c0.022-0.253,0.256-0.46,0.508-0.483c0.254-0.023,0.506,0.121,0.643,0.334
				c0.067,0.104,0.111,0.232,0.08,0.352c-0.029,0.12-0.152,0.221-0.273,0.195L179.36,102.99z"/>
			<path fill="#E6F6FD" d="M201.722,63.04c0.146-0.004,0.293-0.008,0.44-0.012c0.022-0.226,0.038-0.476-0.098-0.657
				c-0.136-0.182-0.487-0.19-0.546,0.029c-0.023,0.083,0.002,0.169,0.026,0.251c0.079,0.261,0.157,0.521,0.235,0.783L201.722,63.04z
				"/>
			<path fill="#E6F6FD" d="M204.775,55.818c0.348-0.095,0.706-0.195,0.987-0.42c0.282-0.225,0.469-0.61,0.354-0.952
				c-0.058-0.169-0.184-0.311-0.334-0.408c-0.455-0.293-1.142-0.124-1.408,0.348c-0.268,0.471-0.06,1.147,0.426,1.388
				L204.775,55.818z"/>
			<path fill="#E6F6FD" d="M208.413,54.706c0.162-0.184,0.323-0.368,0.485-0.552c-0.106-0.155-0.247-0.286-0.408-0.382
				c-0.323,0.164-0.456,0.618-0.272,0.93L208.413,54.706z"/>
			<path fill="#E6F6FD" d="M214.536,77.23c0.631-1.268,0.966-2.682,0.97-4.098c0.001-0.229-0.009-0.464-0.103-0.672
				c-0.18-0.403-0.636-0.617-1.074-0.673c-1.072-0.139-2.17,0.509-2.665,1.47s-0.413,2.166,0.108,3.112
				c0.286,0.52,0.727,0.989,1.299,1.149c0.571,0.16,1.274-0.078,1.506-0.624c-0.086-0.169-0.372-0.175-0.463-0.008L214.536,77.23z"
				/>
			<path fill="#E6F6FD" d="M185.839,71.449c0.672-0.033,1.32-0.398,1.695-0.957c-0.235-0.188-0.479-0.382-0.771-0.464
				c-0.29-0.082-0.642-0.025-0.824,0.216c-0.249,0.329-0.077,0.797,0.101,1.169c-0.107-0.038-0.215-0.075-0.322-0.112
				L185.839,71.449z"/>
			<path fill="#E6F6FD" d="M186.79,66.677c0.164-0.092,0.34-0.195,0.414-0.369c0.072-0.168,0.03-0.359-0.006-0.539
				c-0.102-0.488-0.158-0.986-0.17-1.484c-0.52,0.647-1.039,1.295-1.559,1.942c-0.042,0.051-0.085,0.104-0.144,0.135
				c-0.203,0.109-0.433-0.096-0.661-0.115c-0.336-0.028-0.564,0.333-0.66,0.656C183.322,69.201,185.89,67.178,186.79,66.677z"/>
			<path fill="#E6F6FD" d="M185.315,75.937c0.488,0.138,1.039,0.034,1.445-0.271c-0.277-0.31-0.555-0.62-0.833-0.929
				c-0.131-0.146-0.271-0.298-0.458-0.358c-0.365-0.117-0.773,0.213-0.804,0.596c-0.031,0.382,0.249,0.744,0.603,0.891
				L185.315,75.937z"/>
			<path fill="#E6F6FD" d="M189.999,71.26c0.336,0.072,0.682-0.211,0.739-0.549s-0.126-0.686-0.401-0.891
				c-0.121-0.09-0.304-0.153-0.412-0.048c-0.075,0.072-0.077,0.188-0.074,0.292c0.015,0.422,0.029,0.844,0.043,1.266L189.999,71.26z
				"/>
			<path fill="#E6F6FD" d="M193.658,75.956c0.348-0.095,0.706-0.195,0.988-0.42c0.281-0.226,0.468-0.611,0.353-0.952
				c-0.057-0.169-0.183-0.311-0.333-0.408c-0.456-0.293-1.143-0.124-1.409,0.348c-0.268,0.471-0.06,1.147,0.426,1.387
				L193.658,75.956z"/>
			<path fill="#E6F6FD" d="M208.44,65.282c0.057-0.361-0.299-0.643-0.621-0.816c-0.322-0.174-0.698-0.392-0.727-0.757
				c-0.007-0.1,0.02-0.209,0.098-0.272c0.199-0.163,0.461,0.085,0.695,0.192c0.187,0.086,0.401,0.076,0.604,0.116
				c0.479,0.098,0.875,0.519,0.944,1.003c-0.086,0.248-0.327,0.434-0.589,0.453c-0.262,0.02-0.527-0.129-0.648-0.361L208.44,65.282z
				"/>
			<path fill="#E6F6FD" d="M207.366,56.292c0.058-0.361-0.299-0.643-0.621-0.817c-0.321-0.174-0.697-0.392-0.725-0.757
				c-0.008-0.1,0.018-0.209,0.096-0.272c0.199-0.163,0.462,0.085,0.695,0.193c0.188,0.085,0.402,0.075,0.604,0.116
				c0.48,0.097,0.877,0.518,0.945,1.003c-0.086,0.248-0.328,0.433-0.59,0.453c-0.261,0.019-0.527-0.129-0.648-0.362L207.366,56.292z
				"/>
			<path fill="#E6F6FD" d="M211.897,51.278c0.226-0.194,0.406-0.44,0.523-0.714c0.019-0.044,0.036-0.09,0.035-0.138
				c-0.002-0.093-0.072-0.171-0.152-0.218c-0.196-0.115-0.462-0.08-0.637,0.065c-0.174,0.146-0.258,0.385-0.234,0.611
				c0.014,0.124,0.061,0.251,0.157,0.329c0.098,0.078,0.253,0.089,0.343,0.002c-0.002-0.04-0.058-0.064-0.089-0.04L211.897,51.278z"
				/>
			<path fill="#E6F6FD" d="M186.68,86.196c0.673-0.033,1.321-0.398,1.696-0.957c-0.236-0.188-0.48-0.382-0.771-0.464
				s-0.643-0.025-0.825,0.216c-0.248,0.33-0.076,0.797,0.102,1.17c-0.107-0.038-0.215-0.075-0.322-0.112L186.68,86.196z"/>
			<path fill="#E6F6FD" d="M181.71,82.286c0.146,0.398,0.803,0.452,1.013,0.083c-0.089-0.201-0.216-0.397-0.407-0.504
				c-0.193-0.107-0.463-0.098-0.607,0.068c-0.144,0.167-0.074,0.484,0.142,0.529L181.71,82.286z"/>
			<path fill="#E6F6FD" d="M191.416,76.62c0.146,0.398,0.802,0.452,1.013,0.083c-0.09-0.201-0.216-0.397-0.408-0.504
				c-0.191-0.107-0.462-0.098-0.605,0.068c-0.145,0.166-0.075,0.484,0.141,0.529L191.416,76.62z"/>
			<path fill="#E6F6FD" d="M183.621,84.689c-0.274,0.02-0.354,0.417-0.22,0.657c0.135,0.24,0.385,0.393,0.544,0.618
				c0.164,0.231,0.22,0.536,0.148,0.81c-0.042,0.16-0.142,0.322-0.301,0.363c-0.107,0.028-0.22-0.004-0.325-0.039
				c-0.516-0.168-1.029-0.408-1.381-0.822c-0.352-0.414-0.5-1.035-0.241-1.512c0.181-0.332,0.548-0.553,0.925-0.557
				c0.378-0.004,0.75,0.209,0.938,0.537L183.621,84.689z"/>
			<path fill="#E6F6FD" d="M206.386,62.178c-0.275,0.021-0.355,0.417-0.221,0.657s0.385,0.394,0.545,0.618
				c0.163,0.231,0.219,0.536,0.147,0.81c-0.042,0.16-0.142,0.322-0.301,0.363c-0.106,0.027-0.22-0.004-0.325-0.039
				c-0.516-0.168-1.029-0.408-1.381-0.822c-0.351-0.414-0.5-1.036-0.24-1.512c0.18-0.332,0.547-0.553,0.925-0.557
				c0.378-0.004,0.749,0.209,0.937,0.537L206.386,62.178z"/>
			<path fill="#E6F6FD" d="M209.256,64.297c-0.274,0.021-0.354,0.417-0.22,0.657s0.385,0.393,0.544,0.618
				c0.163,0.231,0.22,0.536,0.148,0.81c-0.042,0.16-0.142,0.322-0.302,0.363c-0.106,0.028-0.219-0.004-0.324-0.039
				c-0.516-0.168-1.029-0.408-1.381-0.822c-0.352-0.414-0.5-1.035-0.241-1.512c0.181-0.332,0.548-0.553,0.925-0.557
				c0.378-0.004,0.75,0.209,0.938,0.537L209.256,64.297z"/>
			<path fill="#E6F6FD" d="M205.149,67.95c-0.275,0.021-0.354,0.417-0.221,0.657c0.135,0.24,0.385,0.394,0.545,0.618
				c0.163,0.231,0.219,0.536,0.147,0.81c-0.042,0.16-0.142,0.322-0.301,0.363c-0.106,0.027-0.22-0.004-0.325-0.039
				c-0.516-0.168-1.029-0.408-1.381-0.822c-0.351-0.414-0.5-1.036-0.24-1.512c0.18-0.332,0.547-0.553,0.925-0.557
				c0.378-0.004,0.749,0.209,0.937,0.537L205.149,67.95z"/>
			<path fill="#E6F6FD" d="M186.03,34.535c-0.275,0.021-0.354,0.417-0.221,0.657c0.135,0.24,0.386,0.394,0.545,0.618
				c0.163,0.231,0.219,0.536,0.148,0.81c-0.042,0.16-0.142,0.322-0.302,0.363c-0.106,0.027-0.22-0.004-0.325-0.039
				c-0.516-0.168-1.029-0.408-1.381-0.821c-0.351-0.414-0.5-1.036-0.24-1.512c0.18-0.332,0.547-0.553,0.925-0.557
				c0.378-0.004,0.75,0.209,0.938,0.537L186.03,34.535z"/>
			<path fill="#E6F6FD" d="M183.716,78.981c0.115-0.091,0.23-0.183,0.345-0.273c-0.117-0.194-0.254-0.404-0.472-0.468
				c-0.217-0.063-0.504,0.14-0.42,0.351c0.031,0.08,0.104,0.134,0.172,0.185c0.219,0.162,0.438,0.324,0.658,0.486L183.716,78.981z"
				/>
			<path fill="#E6F6FD" d="M192.195,51.319c0.349-0.095,0.706-0.196,0.988-0.421s0.468-0.61,0.353-0.952
				c-0.057-0.17-0.183-0.311-0.333-0.408c-0.456-0.293-1.143-0.124-1.409,0.347c-0.268,0.472-0.059,1.148,0.426,1.388
				L192.195,51.319z"/>
			<path fill="#E6F6FD" d="M194.558,81.459c-0.29,0.428-1.076,0.313-1.232-0.179c0.088-0.272,0.234-0.524,0.426-0.736
				c0.283,0.141,0.51,0.39,0.623,0.685L194.558,81.459z"/>
			<path opacity="0.5" fill="#E6F6FD" d="M196.432,49.532c0.186-0.091,0.377-0.187,0.511-0.344c0.135-0.158,0.197-0.395,0.095-0.575
				c-0.169-0.297-0.618-0.244-0.904-0.43c-0.286-0.187-0.401-0.613-0.734-0.692c-0.329-0.078-0.63,0.282-0.62,0.62
				c0.011,0.338,0.229,0.63,0.453,0.884c0.199,0.226,0.425,0.449,0.713,0.536c0.289,0.087,0.654-0.009,0.778-0.283L196.432,49.532z"
				/>
			<path fill="#E6F6FD" d="M200.808,67.608c1.178,0.848,2.807,1.024,4.138,0.448c0.14-1.439-0.251-3.015-1.366-3.937
				s-3.023-0.89-3.848,0.298c-0.825,1.188,0.199,3.229,1.629,3.007L200.808,67.608z"/>
			<path fill="#E6F6FD" d="M197.146,83.57c-0.17-0.104-0.188-0.363-0.076-0.528c0.111-0.165,0.314-0.245,0.512-0.269
				c0.116-0.015,0.237-0.013,0.346,0.032c0.25,0.103,0.361,0.443,0.23,0.68s-0.467,0.325-0.703,0.194
				c-0.237-0.131-0.342-0.451-0.24-0.702L197.146,83.57z"/>
			<path fill="#E6F6FD" d="M198.844,75.796c-0.065-0.36-0.495-0.507-0.856-0.565s-0.789-0.139-0.936-0.474
				c-0.04-0.092-0.051-0.204,0-0.289c0.135-0.22,0.465-0.072,0.721-0.049c0.205,0.019,0.404-0.062,0.607-0.09
				c0.485-0.067,0.999,0.199,1.225,0.634c0,0.262-0.166,0.517-0.406,0.622c-0.24,0.105-0.541,0.053-0.731-0.126L198.844,75.796z"/>
			<path fill="#E6F6FD" d="M196.899,64.306c0.082-0.115,0.164-0.229,0.244-0.344c-0.109-0.204-0.368-0.323-0.588-0.249
				c-0.219,0.074-0.352,0.353-0.25,0.56c0.103,0.208,0.433,0.261,0.578,0.082L196.899,64.306z"/>
			<path fill="#E6F6FD" d="M195.495,72.214c-0.131,0.089-0.324,0-0.394-0.142s-0.047-0.311-0.007-0.464
				c0.033-0.124,0.078-0.249,0.164-0.345c0.17-0.189,0.48-0.216,0.697-0.083c0.216,0.133,0.332,0.399,0.313,0.653
				c-0.009,0.124-0.051,0.251-0.146,0.33c-0.097,0.078-0.255,0.086-0.336-0.007L195.495,72.214z"/>
			<path fill="#E6F6FD" d="M184.283,67.596c0.336,1.411,1.452,2.61,2.837,3.045c1.047-0.997,1.781-2.445,1.541-3.871
				s-1.704-2.65-3.105-2.292c-1.4,0.359-1.961,2.573-0.734,3.34L184.283,67.596z"/>
			<path fill="#E6F6FD" d="M185.914,78.837c0.414-0.09,0.329-0.79-0.06-0.956c-0.39-0.167-0.832,0.014-1.216,0.193
				c0.171,0.559,0.711,0.984,1.294,1.02L185.914,78.837z"/>
			<path fill="#E6F6FD" d="M201.156,81.041c0.081-0.114,0.163-0.229,0.245-0.344c-0.11-0.204-0.369-0.323-0.589-0.249
				s-0.353,0.353-0.25,0.56s0.433,0.261,0.578,0.082L201.156,81.041z"/>
			<path fill="#E6F6FD" d="M195.723,75.601c1.226-0.925,2.233-2.135,2.921-3.507c0.111-0.221,0.216-0.454,0.227-0.702
				c0.02-0.479-0.32-0.905-0.717-1.172c-0.973-0.653-2.352-0.555-3.297,0.138c-0.943,0.693-1.447,1.901-1.398,3.072
				c0.026,0.643,0.227,1.312,0.705,1.743c0.477,0.431,1.273,0.541,1.762,0.123c0-0.206-0.276-0.349-0.445-0.232L195.723,75.601z"/>
			<path fill="#E6F6FD" d="M181.632,54.565c1.451-0.026,2.86-0.861,3.582-2.12c-0.75-1.236-2.008-2.264-3.453-2.333
				c-1.443-0.07-2.953,1.099-2.902,2.544s2.094,2.465,3.105,1.432L181.632,54.565z"/>
			<path fill="#E6F6FD" d="M208.853,51.709c0.672-0.033,1.32-0.398,1.695-0.957c-0.234-0.188-0.479-0.382-0.77-0.464
				c-0.291-0.082-0.643-0.025-0.824,0.216c-0.25,0.33-0.078,0.797,0.1,1.17c-0.107-0.038-0.215-0.075-0.322-0.112L208.853,51.709z"
				/>
			<path fill="#E6F6FD" d="M209.804,46.937c0.164-0.092,0.341-0.195,0.414-0.369c0.072-0.168,0.031-0.36-0.006-0.539
				c-0.102-0.488-0.158-0.986-0.17-1.484c-0.52,0.647-1.039,1.295-1.559,1.942c-0.041,0.052-0.085,0.104-0.143,0.136
				c-0.203,0.108-0.434-0.096-0.662-0.115c-0.336-0.028-0.563,0.333-0.659,0.656C206.336,49.461,208.904,47.437,209.804,46.937z"/>
			<path fill="#E6F6FD" d="M200.149,74.782c0.162-0.182,0.324-0.363,0.486-0.545c-0.385-0.298-0.96-0.414-1.354-0.128
				c-0.395,0.285-0.375,1.028,0.088,1.177c0.286,0.092,0.773,0.12,0.676,0.405L200.149,74.782z"/>
			<path fill="#E6F6FD" d="M200.957,53.857c-0.105,0.175-0.267,0.316-0.453,0.398c-0.132-0.508,0.202-1.011,0.538-1.414
				c0.188-0.225,0.457-0.466,0.734-0.372c0.192,0.065,0.297,0.27,0.453,0.399c0.315,0.259,0.898,0.293,0.941,0.699
				c0.024,0.229-0.18,0.433-0.404,0.489c-0.223,0.057-0.458,0.004-0.683-0.047c-0.491-0.114-0.981-0.227-1.472-0.341L200.957,53.857
				z"/>
			<path fill="#E6F6FD" d="M194.271,49.541c0.414-0.09,0.33-0.79-0.06-0.956c-0.39-0.167-0.831,0.014-1.216,0.193
				c0.172,0.559,0.711,0.984,1.295,1.02L194.271,49.541z"/>
			<path opacity="0.5" fill="#E6F6FD" d="M202.394,45.573c-0.197,0.019-0.369-0.178-0.377-0.376
				c-0.01-0.199,0.105-0.384,0.248-0.522c0.084-0.081,0.183-0.152,0.296-0.181c0.262-0.068,0.556,0.138,0.593,0.406
				c0.036,0.268-0.18,0.54-0.447,0.577c-0.268,0.037-0.545-0.157-0.613-0.418L202.394,45.573z"/>
			<path fill="#E6F6FD" d="M203.883,47.799c0.146,0.398,0.802,0.453,1.013,0.084c-0.09-0.201-0.216-0.397-0.408-0.504
				s-0.462-0.098-0.606,0.068c-0.144,0.166-0.075,0.484,0.142,0.529L203.883,47.799z"/>
			<path fill="#E6F6FD" d="M208.329,56.196c0.489,0.137,1.04,0.034,1.446-0.271c-0.278-0.31-0.556-0.62-0.833-0.929
				c-0.131-0.146-0.271-0.298-0.458-0.358c-0.365-0.117-0.773,0.213-0.805,0.596c-0.03,0.382,0.249,0.744,0.603,0.891
				L208.329,56.196z"/>
			<path opacity="0.5" fill="#E6F6FD" d="M196.512,44.792c-0.293,0.016-0.587-0.157-0.717-0.42s-0.085-0.603,0.106-0.825
				c0.132-0.152,0.395-0.236,0.523-0.082c0.054,0.065,0.066,0.153,0.078,0.237c0.051,0.368,0.1,0.735,0.15,1.104
				c-0.064-0.001-0.13-0.003-0.195-0.004L196.512,44.792z"/>
			<path opacity="0.5" fill="#E6F6FD" d="M193.729,39.716c0.057-0.361-0.299-0.643-0.621-0.817
				c-0.322-0.174-0.698-0.392-0.727-0.757c-0.007-0.1,0.02-0.209,0.097-0.272c0.199-0.163,0.462,0.085,0.696,0.193
				c0.187,0.085,0.401,0.075,0.603,0.116c0.479,0.097,0.876,0.518,0.945,1.003c-0.086,0.248-0.327,0.433-0.589,0.453
				c-0.262,0.019-0.527-0.129-0.648-0.362L193.729,39.716z"/>
			<path opacity="0.5" fill="#E6F6FD" d="M210.73,68.253c0.058-0.361-0.299-0.643-0.62-0.816c-0.322-0.174-0.699-0.392-0.727-0.757
				c-0.008-0.1,0.019-0.209,0.096-0.272c0.199-0.163,0.463,0.085,0.696,0.193c0.187,0.085,0.401,0.075,0.603,0.116
				c0.48,0.098,0.877,0.519,0.945,1.003c-0.086,0.248-0.327,0.433-0.588,0.453c-0.262,0.019-0.528-0.129-0.649-0.362L210.73,68.253z
				"/>
			<path opacity="0.5" fill="#E6F6FD" d="M196.974,38.021c0.115-0.081,0.229-0.163,0.345-0.244c-0.036-0.229-0.241-0.427-0.473-0.43
				c-0.231-0.003-0.449,0.216-0.422,0.446c0.028,0.229,0.321,0.389,0.519,0.269L196.974,38.021z"/>
			<path fill="#E6F6FD" d="M205.794,50.202c-0.275,0.021-0.354,0.417-0.22,0.657c0.134,0.24,0.385,0.394,0.544,0.618
				c0.164,0.231,0.219,0.536,0.148,0.81c-0.042,0.16-0.142,0.322-0.301,0.363c-0.107,0.028-0.221-0.004-0.326-0.039
				c-0.516-0.168-1.029-0.408-1.381-0.822c-0.351-0.414-0.5-1.035-0.24-1.512c0.18-0.332,0.548-0.553,0.926-0.557
				c0.377-0.004,0.749,0.209,0.937,0.536L205.794,50.202z"/>
			<path fill="#E6F6FD" d="M213.013,51.519c0.336,0.072,0.682-0.211,0.74-0.549c0.058-0.338-0.127-0.686-0.402-0.891
				c-0.121-0.09-0.304-0.153-0.412-0.048c-0.074,0.072-0.076,0.189-0.073,0.292c0.015,0.422,0.028,0.844,0.042,1.266L213.013,51.519
				z"/>
			<path fill="#E6F6FD" d="M194.497,55.499c-0.662-0.225-0.92-1.193-0.455-1.717c0.482,0.246,0.991,0.516,1.258,0.987
				c0.266,0.471,0.146,1.197-0.365,1.373c-0.294-0.116-0.588-0.232-0.881-0.349L194.497,55.499z"/>
			<path opacity="0.5" fill="#E6F6FD" d="M205.888,44.494c0.115-0.091,0.23-0.182,0.346-0.273c-0.117-0.194-0.254-0.404-0.472-0.468
				s-0.503,0.14-0.421,0.351c0.031,0.08,0.104,0.134,0.172,0.185c0.22,0.162,0.439,0.324,0.658,0.485L205.888,44.494z"/>
			<path fill="#E6F6FD" d="M191.325,80.422c0.348-0.095,0.707-0.196,0.988-0.421s0.469-0.61,0.353-0.952
				c-0.058-0.169-0.183-0.311-0.333-0.408c-0.455-0.293-1.143-0.124-1.41,0.348c-0.266,0.471-0.059,1.147,0.428,1.387
				L191.325,80.422z"/>
			<path fill="#E6F6FD" d="M185.506,59.826c0.161-0.184,0.323-0.368,0.485-0.552c-0.106-0.155-0.246-0.286-0.408-0.382
				c-0.322,0.164-0.455,0.618-0.271,0.93L185.506,59.826z"/>
			<path fill="#E6F6FD" d="M179.665,95.439c-0.197,0.019-0.369-0.178-0.377-0.376c-0.01-0.199,0.105-0.384,0.248-0.522
				c0.084-0.081,0.184-0.152,0.297-0.181c0.261-0.068,0.555,0.138,0.592,0.406c0.036,0.268-0.18,0.54-0.447,0.577
				s-0.545-0.157-0.613-0.418L179.665,95.439z"/>
			<path fill="#E6F6FD" d="M191.444,58.572c0.162-0.184,0.324-0.368,0.485-0.552c-0.106-0.155-0.247-0.286-0.408-0.381
				c-0.323,0.164-0.456,0.618-0.272,0.93L191.444,58.572z"/>
			<path fill="#E6F6FD" d="M207.007,71.318c0.268,0.062,0.461-0.294,0.402-0.563s-0.252-0.489-0.338-0.751
				c-0.088-0.269-0.053-0.576,0.097-0.817c0.087-0.141,0.229-0.267,0.394-0.259c0.111,0.005,0.209,0.069,0.3,0.132
				c0.444,0.313,0.864,0.693,1.078,1.191c0.214,0.499,0.174,1.137-0.214,1.517c-0.271,0.264-0.687,0.367-1.049,0.26
				c-0.361-0.107-0.654-0.42-0.738-0.789L207.007,71.318z"/>
			<path fill="#E6F6FD" d="M192.58,73.666c-0.204,0.033-0.415,0.067-0.589,0.179c-0.176,0.111-0.305,0.319-0.26,0.521
				c0.074,0.333,0.52,0.415,0.737,0.677c0.22,0.263,0.204,0.704,0.499,0.877c0.291,0.172,0.686-0.083,0.774-0.41
				c0.089-0.326-0.033-0.67-0.173-0.978c-0.125-0.274-0.273-0.554-0.524-0.722c-0.25-0.168-0.627-0.184-0.827,0.042L192.58,73.666z"
				/>
			<path fill="#E6F6FD" d="M203.007,61.749c-0.725,1.019-1.209,2.207-1.405,3.441c-0.032,0.199-0.056,0.405-0.003,0.6
				c0.102,0.376,0.471,0.625,0.845,0.734c0.915,0.268,1.962-0.147,2.524-0.917s0.656-1.832,0.33-2.729
				c-0.178-0.492-0.498-0.962-0.975-1.179s-1.122-0.106-1.398,0.338c0.051,0.159,0.301,0.203,0.402,0.071L203.007,61.749z"/>
			<path fill="#E6F6FD" d="M208.376,69.057c0.162,0.098,0.34,0.199,0.527,0.177c0.181-0.021,0.326-0.153,0.463-0.274
				c0.374-0.33,0.777-0.627,1.204-0.885c-0.82-0.129-1.64-0.258-2.46-0.387c-0.066-0.01-0.133-0.021-0.189-0.057
				c-0.195-0.122-0.131-0.423-0.229-0.631c-0.143-0.305-0.569-0.323-0.896-0.246C204.462,67.304,207.495,68.526,208.376,69.057z"/>
			<path fill="#E6F6FD" d="M203.302,61.84c0.12-0.073,0.24-0.146,0.361-0.219c-0.021-0.231-0.211-0.443-0.441-0.462
				c-0.23-0.019-0.463,0.184-0.452,0.415c0.011,0.231,0.293,0.411,0.499,0.305L203.302,61.84z"/>
			<path fill="#E6F6FD" d="M209.161,65.182c0.104,0.327,0.521,0.486,0.844,0.368s0.531-0.451,0.572-0.791
				c0.019-0.15-0.018-0.34-0.163-0.382c-0.1-0.029-0.202,0.028-0.29,0.082c-0.359,0.222-0.718,0.444-1.077,0.666L209.161,65.182z"/>
			<path fill="#E6F6FD" d="M205.843,62.082c0.363,0.567,1.003,0.948,1.674,0.996c0.047-0.298,0.093-0.606,0.02-0.899
				s-0.298-0.57-0.598-0.608c-0.409-0.052-0.73,0.329-0.965,0.669c-0.021-0.112-0.041-0.224-0.063-0.336L205.843,62.082z"/>
			<path fill="#E6F6FD" d="M204.927,59.172c-0.205-0.005-0.406-0.074-0.571-0.195c0.376-0.367,0.978-0.328,1.495-0.236
				c0.287,0.051,0.631,0.165,0.688,0.452c0.039,0.2-0.087,0.392-0.121,0.593c-0.068,0.402,0.191,0.924-0.139,1.164
				c-0.187,0.136-0.465,0.059-0.625-0.107c-0.16-0.166-0.232-0.396-0.299-0.616c-0.145-0.482-0.291-0.964-0.436-1.446
				L204.927,59.172z"/>
			<path fill="#E6F6FD" d="M206.563,66.731c0.125,0.493,0.488,0.919,0.955,1.12c0.131-0.395,0.261-0.79,0.391-1.185
				c0.063-0.186,0.125-0.383,0.084-0.575c-0.08-0.375-0.57-0.565-0.918-0.401c-0.346,0.163-0.521,0.585-0.473,0.966L206.563,66.731z
				"/>
			<path fill="#E6F6FD" d="M210.503,61.55c-0.154-0.228-0.537-0.1-0.68,0.136c-0.141,0.236-0.149,0.53-0.266,0.779
				c-0.119,0.257-0.355,0.457-0.629,0.531c-0.158,0.043-0.35,0.038-0.465-0.08c-0.076-0.079-0.105-0.193-0.127-0.301
				c-0.111-0.531-0.159-1.096,0.025-1.606c0.185-0.511,0.649-0.949,1.191-0.961c0.378-0.008,0.752,0.2,0.943,0.526
				c0.191,0.325,0.191,0.754,0.001,1.08L210.503,61.55z"/>
			<path fill="#E6F6FD" d="M193.47,66.613c0.255,0.254,0.52,0.516,0.855,0.648s0.763,0.103,1.002-0.167
				c0.118-0.134,0.178-0.313,0.188-0.492c0.027-0.541-0.461-1.053-1.002-1.05c-0.542,0.003-1.025,0.52-0.992,1.06L193.47,66.613z"/>
			<path fill="#E6F6FD" d="M198.342,73.017c0.362,0.567,1.003,0.948,1.674,0.996c0.047-0.298,0.093-0.606,0.02-0.899
				s-0.298-0.57-0.598-0.608c-0.409-0.052-0.729,0.329-0.965,0.669c-0.021-0.112-0.042-0.224-0.063-0.335L198.342,73.017z"/>
			<path fill="#E6F6FD" d="M205.096,57.901c0.083-0.356-0.253-0.662-0.562-0.858s-0.669-0.44-0.671-0.806
				c-0.001-0.1,0.033-0.207,0.115-0.265c0.21-0.149,0.454,0.118,0.681,0.241c0.18,0.098,0.395,0.104,0.594,0.158
				c0.471,0.131,0.837,0.579,0.871,1.067c-0.104,0.241-0.357,0.409-0.619,0.41s-0.518-0.166-0.621-0.406L205.096,57.901z"/>
			<path fill="#E6F6FD" d="M182.794,75.126c0.053-0.13,0.105-0.261,0.158-0.392c-0.154-0.172-0.434-0.229-0.63-0.105
				s-0.261,0.424-0.113,0.603c0.147,0.179,0.481,0.154,0.581-0.055L182.794,75.126z"/>
			<path fill="#E6F6FD" d="M203.126,66.857c0.137,0.054,0.273,0.109,0.41,0.164c0.109-0.198,0.224-0.421,0.17-0.642
				c-0.053-0.221-0.371-0.367-0.513-0.19c-0.054,0.066-0.065,0.156-0.075,0.241c-0.031,0.271-0.063,0.541-0.094,0.812
				L203.126,66.857z"/>
		</g>
		<g>
			<path fill="#FFFFFF" d="M126.134,172.204c-1.889-1.502-4.127-2.561-6.486-3.069c-0.38-0.082-0.775-0.149-1.156-0.068
				c-0.736,0.158-1.252,0.842-1.502,1.553c-0.612,1.736,0.078,3.797,1.504,4.963c1.426,1.165,3.463,1.457,5.225,0.923
				c0.969-0.293,1.907-0.861,2.376-1.757c0.47-0.896,0.323-2.151-0.505-2.731c-0.313,0.082-0.424,0.558-0.18,0.77L126.134,172.204z"
				/>
			<path fill="#FFFFFF" d="M118.795,173.422c-0.237-0.96-1.005-1.771-1.951-2.061c-0.709,0.686-1.202,1.677-1.03,2.648
				c0.172,0.971,1.178,1.798,2.131,1.545c0.953-0.252,1.322-1.765,0.482-2.281L118.795,173.422z"/>
			<path fill="#FFFFFF" d="M110.882,169.452c0.166-0.429,0.118-0.934-0.126-1.323c-0.183,0.096-0.371,0.193-0.502,0.352
				s-0.194,0.395-0.094,0.574c0.136,0.246,0.475,0.27,0.757,0.262c-0.054,0.057-0.106,0.113-0.159,0.17L110.882,169.452z"/>
			<path fill="#FFFFFF" d="M112.636,169.931c0.132,0.044,0.25,0.13,0.333,0.242c-0.318,0.163-0.703,0.018-1.022-0.145
				c-0.178-0.091-0.378-0.233-0.357-0.432c0.015-0.139,0.135-0.238,0.197-0.363c0.125-0.248,0.059-0.641,0.322-0.73
				c0.148-0.051,0.314,0.055,0.387,0.194c0.071,0.14,0.072,0.304,0.071,0.462c-0.001,0.343-0.003,0.686-0.004,1.029L112.636,169.931
				z"/>
			<path opacity="0.5" fill="#FFFFFF" d="M90.848,161.833c-0.122-0.261-0.575-0.1-0.626,0.185c-0.052,0.284,0.135,0.551,0.312,0.779
				c0.346-0.199,0.547-0.621,0.483-1.016L90.848,161.833z"/>
			<path fill="#FFFFFF" d="M86.163,171.003c0.042,0.129-0.063,0.272-0.193,0.309s-0.271-0.013-0.385-0.087
				c-0.067-0.043-0.129-0.098-0.166-0.169c-0.084-0.164,0.008-0.391,0.181-0.455c0.173-0.064,0.387,0.038,0.452,0.21
				c0.065,0.173-0.022,0.386-0.186,0.471L86.163,171.003z"/>
			<path fill="#FFFFFF" d="M107.068,171.463c0.288,0.019,0.504-0.375,0.333-0.608c-0.15,0-0.308,0.024-0.428,0.114
				c-0.12,0.091-0.189,0.261-0.125,0.396c0.063,0.137,0.281,0.182,0.369,0.06L107.068,171.463z"/>
			<path fill="#FFFFFF" d="M113.532,171.022c0.221-0.267,0.31-0.639,0.232-0.977c-0.271,0.087-0.54,0.175-0.811,0.262
				c-0.127,0.041-0.26,0.086-0.35,0.186c-0.174,0.195-0.082,0.541,0.148,0.667c0.229,0.125,0.532,0.051,0.723-0.129L113.532,171.022
				z"/>
			<path opacity="0.5" fill="#FFFFFF" d="M90.027,170.147c-0.093,0.024-0.186,0.048-0.279,0.071
				c-0.033,0.154,0.049,0.331,0.195,0.389c0.147,0.059,0.339-0.027,0.378-0.18c0.039-0.153-0.109-0.327-0.265-0.299L90.027,170.147z
				"/>
			<path fill="#FFFFFF" d="M109.095,170.939c-0.063,0.177,0.162,0.336,0.349,0.319c0.187-0.018,0.352-0.131,0.536-0.168
				c0.189-0.038,0.395,0.012,0.546,0.133c0.088,0.069,0.162,0.177,0.143,0.288c-0.012,0.074-0.063,0.136-0.114,0.191
				c-0.248,0.274-0.54,0.528-0.895,0.633c-0.355,0.104-0.784,0.024-1.009-0.27c-0.157-0.204-0.193-0.495-0.091-0.731
				c0.103-0.235,0.338-0.408,0.595-0.435L109.095,170.939z"/>
			<path fill="#FFFFFF" d="M111.918,166.806c0.138-0.189,0.058-0.482-0.138-0.612c-0.193-0.13-0.462-0.112-0.666,0.003
				c-0.09,0.051-0.18,0.146-0.145,0.244c0.024,0.066,0.097,0.1,0.162,0.126c0.267,0.108,0.533,0.217,0.8,0.325L111.918,166.806z"/>
			<path fill="#FFFFFF" d="M101.269,164.054c-0.049,0.475-0.655,0.791-1.073,0.562c0.09-0.357,0.193-0.737,0.466-0.985
				c0.272-0.248,0.774-0.277,0.968,0.036c-0.033,0.213-0.066,0.425-0.099,0.638L101.269,164.054z"/>
			<path fill="#FFFFFF" d="M135.511,178.129c0.107,0.012,0.168,0.144,0.142,0.248s-0.113,0.182-0.202,0.243
				c-0.072,0.051-0.15,0.096-0.237,0.107c-0.172,0.022-0.345-0.101-0.398-0.266c-0.054-0.164,0.004-0.354,0.126-0.478
				c0.059-0.061,0.137-0.108,0.221-0.106c0.085,0.002,0.17,0.067,0.172,0.152L135.511,178.129z"/>
			<path fill="#FFFFFF" d="M105.565,169.297c-0.025-0.097-0.05-0.194-0.074-0.291c-0.154,0.019-0.322,0.046-0.422,0.164
				s-0.053,0.353,0.102,0.359c0.058,0.002,0.112-0.027,0.163-0.057c0.162-0.091,0.323-0.183,0.485-0.274L105.565,169.297z"/>
			<path fill="#FFFFFF" d="M100.301,168.358c-0.116-0.217-0.237-0.44-0.429-0.593c-0.192-0.154-0.477-0.22-0.687-0.092
				c-0.104,0.064-0.179,0.169-0.221,0.283c-0.126,0.348,0.091,0.779,0.444,0.885c0.354,0.106,0.772-0.134,0.858-0.493
				L100.301,168.358z"/>
			<path fill="#FFFFFF" d="M99.012,166.107c-0.147-0.08-0.293-0.159-0.44-0.239c-0.087,0.095-0.153,0.208-0.192,0.329
				c0.158,0.189,0.479,0.209,0.659,0.041L99.012,166.107z"/>
			<path fill="#FFFFFF" d="M113.065,158.631c-0.939-0.228-1.93-0.237-2.873-0.025c-0.152,0.034-0.307,0.076-0.432,0.169
				c-0.241,0.182-0.313,0.517-0.285,0.816c0.069,0.734,0.667,1.367,1.38,1.551c0.713,0.184,1.502-0.053,2.053-0.543
				c0.303-0.269,0.549-0.633,0.568-1.037s-0.244-0.836-0.643-0.907c-0.1,0.083-0.061,0.274,0.064,0.31L113.065,158.631z"/>
			<path fill="#FFFFFF" d="M113.558,178.588c-0.123-0.441-0.465-0.817-0.893-0.983c-0.09,0.186-0.182,0.377-0.192,0.583
				s0.081,0.431,0.269,0.516c0.256,0.115,0.541-0.069,0.762-0.244c-0.008,0.077-0.017,0.154-0.025,0.231L113.558,178.588z"/>
			<path fill="#FFFFFF" d="M110.241,178.677c-0.086-0.096-0.182-0.197-0.309-0.22c-0.123-0.022-0.244,0.034-0.357,0.086
				c-0.31,0.141-0.632,0.253-0.961,0.336c0.509,0.248,1.018,0.496,1.527,0.744c0.041,0.02,0.083,0.04,0.112,0.074
				c0.103,0.118,0.001,0.302,0.023,0.458c0.032,0.227,0.307,0.324,0.536,0.339C112.442,180.602,110.709,179.2,110.241,178.677z"/>
			<path fill="#FFFFFF" d="M116.62,178.258c0.018-0.346-0.135-0.696-0.398-0.921c-0.164,0.232-0.328,0.464-0.492,0.695
				c-0.077,0.108-0.157,0.225-0.168,0.358c-0.023,0.26,0.258,0.481,0.518,0.444c0.258-0.037,0.457-0.277,0.501-0.535L116.62,178.258
				z"/>
			<path fill="#FFFFFF" d="M132.881,183.122c-0.093,0.024-0.187,0.048-0.279,0.071c-0.032,0.154,0.049,0.331,0.196,0.389
				c0.146,0.059,0.338-0.027,0.377-0.18c0.039-0.153-0.109-0.327-0.264-0.298L132.881,183.122z"/>
			<path fill="#FFFFFF" d="M112.803,175.85c-0.003-0.233-0.243-0.421-0.478-0.408c-0.232,0.013-0.437,0.188-0.531,0.401
				c-0.042,0.095-0.056,0.226,0.031,0.282c0.059,0.038,0.137,0.021,0.205,0.004c0.277-0.073,0.557-0.146,0.835-0.219L112.803,175.85
				z"/>
			<path fill="#FFFFFF" d="M115.372,172.708c-0.115-0.217-0.236-0.44-0.429-0.594s-0.477-0.219-0.687-0.091
				c-0.104,0.064-0.179,0.169-0.221,0.283c-0.126,0.348,0.09,0.778,0.444,0.885c0.354,0.106,0.772-0.134,0.858-0.493
				L115.372,172.708z"/>
			<path fill="#FFFFFF" d="M106.041,164.491c-0.249,0.017-0.382,0.296-0.449,0.536c-0.067,0.24-0.155,0.523-0.394,0.598
				c-0.065,0.02-0.142,0.019-0.196-0.023c-0.138-0.107-0.013-0.32,0.023-0.492c0.029-0.137-0.01-0.277-0.014-0.418
				c-0.008-0.334,0.212-0.661,0.524-0.779c0.178,0.02,0.338,0.151,0.39,0.322s-0.006,0.371-0.143,0.486L106.041,164.491z"/>
			<path fill="#FFFFFF" d="M100.224,166.564c-0.249,0.016-0.382,0.295-0.449,0.535c-0.067,0.24-0.155,0.523-0.394,0.598
				c-0.065,0.02-0.142,0.02-0.196-0.023c-0.138-0.107-0.013-0.32,0.023-0.491c0.029-0.138-0.01-0.278-0.014-0.419
				c-0.008-0.334,0.212-0.66,0.524-0.779c0.177,0.02,0.337,0.152,0.39,0.322c0.052,0.172-0.006,0.371-0.142,0.486L100.224,166.564z"
				/>
			<path fill="#FFFFFF" d="M96.206,164.308c-0.163-0.121-0.354-0.204-0.554-0.24c-0.032-0.006-0.065-0.011-0.097-0.003
				c-0.062,0.016-0.103,0.074-0.122,0.135c-0.047,0.147,0.017,0.319,0.14,0.413s0.295,0.113,0.442,0.063
				c0.081-0.027,0.158-0.077,0.195-0.153c0.037-0.077,0.021-0.183-0.05-0.229c-0.026,0.008-0.034,0.048-0.013,0.064L96.206,164.308z
				"/>
			<path fill="#FFFFFF" d="M123.236,175.8c-0.123-0.441-0.464-0.817-0.893-0.983c-0.09,0.186-0.181,0.377-0.192,0.583
				c-0.01,0.205,0.081,0.431,0.269,0.516c0.257,0.115,0.542-0.069,0.763-0.244c-0.009,0.077-0.018,0.154-0.025,0.231L123.236,175.8z
				"/>
			<path fill="#FFFFFF" d="M121.388,179.696c0.242-0.157,0.18-0.602-0.098-0.686c-0.12,0.09-0.231,0.203-0.273,0.348
				c-0.043,0.144,0.004,0.321,0.137,0.393s0.334-0.023,0.33-0.174L121.388,179.696z"/>
			<path fill="#FFFFFF" d="M116.153,174.098c0.242-0.157,0.179-0.602-0.098-0.686c-0.121,0.09-0.232,0.203-0.274,0.347
				c-0.042,0.145,0.005,0.322,0.138,0.394c0.132,0.07,0.332-0.023,0.33-0.174L116.153,174.098z"/>
			<path fill="#FFFFFF" d="M122.696,178.062c0.056,0.18,0.331,0.173,0.471,0.047c0.139-0.126,0.203-0.315,0.328-0.455
				c0.129-0.144,0.324-0.227,0.517-0.221c0.112,0.003,0.235,0.045,0.287,0.146c0.034,0.066,0.03,0.146,0.023,0.222
				c-0.034,0.368-0.116,0.746-0.338,1.042s-0.612,0.489-0.969,0.389c-0.248-0.069-0.45-0.28-0.511-0.531
				c-0.06-0.25,0.025-0.529,0.216-0.704L122.696,178.062z"/>
			<path fill="#FFFFFF" d="M104.288,166.326c0.055,0.18,0.331,0.174,0.47,0.047c0.14-0.125,0.204-0.314,0.329-0.455
				c0.129-0.143,0.323-0.227,0.517-0.221c0.112,0.004,0.235,0.045,0.287,0.146c0.034,0.067,0.03,0.147,0.023,0.222
				c-0.034,0.369-0.115,0.746-0.337,1.043c-0.222,0.296-0.613,0.488-0.969,0.389c-0.248-0.07-0.45-0.281-0.51-0.531
				c-0.06-0.25,0.026-0.53,0.215-0.705L104.288,166.326z"/>
			<path fill="#FFFFFF" d="M105.263,164.097c0.055,0.18,0.331,0.172,0.47,0.047c0.14-0.126,0.204-0.315,0.329-0.455
				c0.129-0.145,0.323-0.227,0.516-0.221c0.112,0.003,0.235,0.045,0.287,0.145c0.035,0.067,0.03,0.146,0.023,0.223
				c-0.034,0.368-0.116,0.746-0.338,1.042s-0.613,0.489-0.969,0.389c-0.248-0.069-0.45-0.28-0.51-0.53
				c-0.06-0.251,0.026-0.531,0.215-0.705L105.263,164.097z"/>
			<path fill="#FFFFFF" d="M108.312,166.277c0.055,0.179,0.331,0.172,0.47,0.047c0.139-0.127,0.203-0.316,0.329-0.455
				c0.129-0.145,0.323-0.228,0.516-0.222c0.113,0.003,0.236,0.046,0.287,0.146c0.035,0.066,0.03,0.146,0.023,0.222
				c-0.034,0.368-0.116,0.747-0.337,1.042c-0.223,0.297-0.613,0.49-0.969,0.389c-0.248-0.069-0.451-0.28-0.51-0.53
				c-0.06-0.251,0.025-0.53,0.215-0.704L108.312,166.277z"/>
			<path fill="#FFFFFF" d="M88.981,184.04c0.055,0.18,0.331,0.173,0.47,0.047c0.139-0.126,0.203-0.315,0.329-0.455
				c0.129-0.144,0.323-0.227,0.517-0.221c0.112,0.003,0.235,0.045,0.287,0.145c0.035,0.067,0.03,0.147,0.023,0.223
				c-0.034,0.368-0.115,0.746-0.337,1.042s-0.613,0.489-0.969,0.389c-0.248-0.069-0.451-0.28-0.51-0.53
				c-0.06-0.251,0.025-0.53,0.215-0.705L88.981,184.04z"/>
			<path fill="#FFFFFF" d="M118.888,178.862c-0.078-0.063-0.156-0.125-0.234-0.188c-0.111,0.106-0.23,0.229-0.24,0.384
				s0.169,0.313,0.297,0.227c0.049-0.033,0.074-0.089,0.098-0.143c0.074-0.17,0.148-0.341,0.223-0.511L118.888,178.862z"/>
			<path fill="#FFFFFF" d="M99.21,177.404c-0.116-0.218-0.236-0.44-0.429-0.594s-0.477-0.22-0.687-0.091
				c-0.104,0.063-0.179,0.169-0.221,0.283c-0.126,0.347,0.09,0.778,0.444,0.885c0.354,0.106,0.772-0.135,0.858-0.493L99.21,177.404z
				"/>
			<path fill="#FFFFFF" d="M118.896,171.278c0.328,0.128,0.371,0.669,0.067,0.847c-0.194-0.018-0.385-0.076-0.555-0.172
				c0.051-0.21,0.183-0.398,0.361-0.518L118.896,171.278z"/>
			<path opacity="0.5" fill="#FFFFFF" d="M97.382,174.856c-0.089-0.109-0.181-0.222-0.306-0.287s-0.292-0.071-0.396,0.023
				c-0.172,0.157-0.068,0.448-0.149,0.667s-0.347,0.359-0.349,0.593c-0.002,0.23,0.283,0.377,0.506,0.318
				c0.223-0.058,0.385-0.247,0.519-0.435c0.12-0.167,0.234-0.351,0.249-0.556c0.014-0.205-0.105-0.433-0.306-0.474L97.382,174.856z"
				/>
			<path fill="#FFFFFF" d="M108.741,169.214c0.386-0.91,0.257-2.021-0.328-2.818c-0.979,0.124-1.967,0.623-2.411,1.503
				c-0.444,0.881-0.135,2.145,0.78,2.514s2.117-0.62,1.753-1.537L108.741,169.214z"/>
			<path fill="#FFFFFF" d="M119.909,169.238c-0.044,0.129-0.214,0.181-0.34,0.131c-0.127-0.05-0.211-0.172-0.256-0.301
				c-0.027-0.074-0.045-0.155-0.031-0.234c0.029-0.182,0.24-0.307,0.417-0.256c0.177,0.052,0.286,0.262,0.235,0.439
				c-0.051,0.177-0.248,0.295-0.43,0.266L119.909,169.238z"/>
			<path fill="#FFFFFF" d="M114.483,169.283c-0.23,0.099-0.264,0.406-0.246,0.655c0.016,0.249,0.026,0.546-0.174,0.694
				c-0.056,0.04-0.128,0.064-0.193,0.043c-0.166-0.056-0.117-0.298-0.141-0.472c-0.019-0.14-0.102-0.26-0.151-0.391
				c-0.118-0.313-0.019-0.694,0.235-0.909c0.175-0.041,0.369,0.031,0.476,0.176c0.106,0.144,0.116,0.352,0.026,0.506
				L114.483,169.283z"/>
			<path fill="#FFFFFF" d="M107.135,172.313c-0.088-0.037-0.177-0.074-0.266-0.111c-0.119,0.104-0.159,0.295-0.077,0.429
				c0.083,0.135,0.288,0.182,0.41,0.082s0.108-0.327-0.033-0.396L107.135,172.313z"/>
			<path fill="#FFFFFF" d="M112.606,172.052c0.08,0.073,0.049,0.215-0.035,0.282s-0.199,0.078-0.307,0.075
				c-0.088-0.004-0.178-0.015-0.255-0.058c-0.151-0.084-0.216-0.287-0.159-0.45c0.055-0.164,0.215-0.281,0.387-0.308
				c0.082-0.013,0.174-0.005,0.24,0.048c0.066,0.052,0.096,0.155,0.046,0.224L112.606,172.052z"/>
			<path fill="#FFFFFF" d="M111.23,180.205c0.888-0.437,1.517-1.359,1.597-2.346c-0.822-0.546-1.896-0.815-2.808-0.44
				s-1.505,1.534-1.055,2.411c0.45,0.878,2.007,0.916,2.332-0.016L111.23,180.205z"/>
			<path fill="#FFFFFF" d="M118.459,177.421c-0.122-0.262-0.575-0.1-0.626,0.185c-0.053,0.284,0.135,0.551,0.312,0.779
				c0.346-0.198,0.547-0.622,0.482-1.015L118.459,177.421z"/>
			<path fill="#FFFFFF" d="M117.621,166.953c-0.089-0.037-0.177-0.073-0.266-0.11c-0.118,0.104-0.159,0.294-0.077,0.429
				s0.288,0.182,0.41,0.082c0.123-0.1,0.109-0.327-0.033-0.396L117.621,166.953z"/>
			<path fill="#FFFFFF" d="M114.824,171.388c-0.8-0.675-1.757-1.162-2.774-1.412c-0.163-0.041-0.334-0.075-0.5-0.044
				c-0.321,0.059-0.554,0.349-0.672,0.653c-0.287,0.746-0.014,1.647,0.59,2.171s1.484,0.676,2.255,0.467
				c0.423-0.115,0.837-0.35,1.052-0.732s0.168-0.929-0.185-1.19c-0.137,0.031-0.19,0.236-0.087,0.331L114.824,171.388z"/>
			<path fill="#FFFFFF" d="M102.965,183.937c-0.237-0.96-1.005-1.771-1.951-2.061c-0.709,0.686-1.202,1.677-1.03,2.648
				c0.172,0.971,1.177,1.798,2.13,1.545c0.954-0.252,1.323-1.765,0.483-2.281L102.965,183.937z"/>
			<path fill="#FFFFFF" d="M96.953,166.268c-0.124-0.442-0.464-0.818-0.893-0.983c-0.09,0.186-0.182,0.377-0.192,0.582
				c-0.01,0.206,0.081,0.432,0.269,0.516c0.256,0.115,0.542-0.068,0.762-0.243c-0.008,0.077-0.017,0.154-0.026,0.231L96.953,166.268
				z"/>
			<path fill="#FFFFFF" d="M93.636,166.357c-0.086-0.096-0.182-0.197-0.309-0.221c-0.122-0.021-0.244,0.035-0.357,0.086
				c-0.31,0.141-0.632,0.254-0.961,0.337c0.509,0.247,1.018,0.495,1.527,0.743c0.041,0.02,0.083,0.041,0.112,0.074
				c0.103,0.119,0.001,0.303,0.023,0.458c0.032,0.228,0.307,0.324,0.536,0.339C95.838,168.281,94.104,166.878,93.636,166.357z"/>
			<path fill="#FFFFFF" d="M113.611,168.568c-0.146-0.08-0.29-0.16-0.437-0.24c-0.14,0.301-0.13,0.701,0.119,0.92
				c0.25,0.218,0.74,0.094,0.77-0.237c0.018-0.204-0.037-0.532,0.167-0.511L113.611,168.568z"/>
			<path fill="#FFFFFF" d="M99.574,171.193c0.132,0.044,0.25,0.13,0.333,0.242c-0.318,0.164-0.703,0.019-1.022-0.145
				c-0.178-0.091-0.379-0.233-0.358-0.432c0.015-0.139,0.134-0.238,0.197-0.362c0.125-0.249,0.06-0.642,0.323-0.731
				c0.149-0.051,0.315,0.055,0.386,0.194c0.072,0.14,0.072,0.305,0.072,0.462c-0.001,0.343-0.003,0.687-0.004,1.029L99.574,171.193z
				"/>
			<path fill="#FFFFFF" d="M97.714,176.292c-0.122-0.261-0.575-0.1-0.626,0.185c-0.052,0.284,0.135,0.551,0.312,0.779
				c0.346-0.198,0.547-0.622,0.483-1.015L97.714,176.292z"/>
			<path opacity="0.5" fill="#FFFFFF" d="M93.848,171.49c0.042,0.129-0.063,0.272-0.193,0.309c-0.131,0.035-0.271-0.013-0.385-0.087
				c-0.067-0.044-0.129-0.099-0.166-0.169c-0.084-0.164,0.008-0.391,0.181-0.455c0.173-0.065,0.386,0.037,0.452,0.21
				c0.065,0.173-0.022,0.386-0.186,0.471L93.848,171.49z"/>
			<path fill="#FFFFFF" d="M95.104,170.164c0.243-0.158,0.18-0.602-0.097-0.686c-0.121,0.089-0.232,0.203-0.274,0.347
				c-0.042,0.145,0.005,0.322,0.137,0.393c0.132,0.071,0.333-0.023,0.331-0.173L95.104,170.164z"/>
			<path fill="#FFFFFF" d="M100.016,165.937c0.018-0.346-0.134-0.696-0.399-0.92c-0.164,0.231-0.328,0.463-0.492,0.694
				c-0.078,0.109-0.157,0.226-0.169,0.358c-0.023,0.261,0.259,0.482,0.518,0.445s0.458-0.277,0.501-0.535L100.016,165.937z"/>
			<path opacity="0.5" fill="#FFFFFF" d="M94.218,175.519c0.055,0.192-0.016,0.415-0.171,0.541
				c-0.156,0.125-0.388,0.147-0.564,0.054c-0.121-0.064-0.216-0.227-0.133-0.336c0.035-0.046,0.091-0.068,0.145-0.088
				c0.237-0.089,0.474-0.178,0.711-0.267c0.009,0.043,0.018,0.087,0.026,0.13L94.218,175.519z"/>
			<path opacity="0.5" fill="#FFFFFF" d="M91.263,178.137c-0.249,0.017-0.382,0.296-0.45,0.536c-0.067,0.24-0.155,0.523-0.394,0.597
				c-0.065,0.021-0.142,0.02-0.195-0.022c-0.139-0.108-0.013-0.32,0.023-0.492c0.028-0.137-0.011-0.278-0.014-0.419
				c-0.008-0.333,0.212-0.66,0.524-0.779c0.177,0.02,0.337,0.152,0.39,0.323s-0.006,0.37-0.142,0.485L91.263,178.137z"/>
			<path opacity="0.5" fill="#FFFFFF" d="M107.67,162.519c-0.249,0.016-0.382,0.296-0.449,0.536s-0.155,0.523-0.394,0.597
				c-0.065,0.021-0.142,0.02-0.196-0.022c-0.139-0.108-0.013-0.32,0.023-0.492c0.029-0.138-0.011-0.278-0.014-0.419
				c-0.008-0.333,0.212-0.66,0.524-0.779c0.178,0.02,0.338,0.152,0.39,0.323s-0.006,0.37-0.143,0.485L107.67,162.519z"/>
			<path opacity="0.5" fill="#FFFFFF" d="M89.645,176.236c-0.071-0.064-0.143-0.128-0.214-0.192
				c-0.146,0.059-0.248,0.225-0.214,0.379c0.033,0.154,0.211,0.267,0.36,0.213c0.148-0.053,0.21-0.272,0.1-0.386L89.645,176.236z"/>
			<path fill="#FFFFFF" d="M96.413,168.529c0.055,0.18,0.33,0.174,0.47,0.047c0.139-0.125,0.204-0.314,0.329-0.455
				c0.129-0.143,0.323-0.227,0.516-0.221c0.112,0.004,0.235,0.045,0.287,0.146c0.034,0.067,0.03,0.147,0.023,0.222
				c-0.034,0.369-0.115,0.746-0.337,1.043c-0.222,0.296-0.613,0.489-0.969,0.389c-0.248-0.07-0.45-0.281-0.51-0.531
				c-0.06-0.25,0.026-0.53,0.215-0.705L96.413,168.529z"/>
			<path fill="#FFFFFF" d="M96.198,163.529c-0.003-0.233-0.244-0.42-0.477-0.408c-0.233,0.013-0.437,0.188-0.532,0.402
				c-0.042,0.094-0.056,0.225,0.031,0.281c0.059,0.039,0.137,0.022,0.205,0.004c0.279-0.072,0.557-0.146,0.835-0.219L96.198,163.529
				z"/>
			<path fill="#FFFFFF" d="M101.642,175.241c-0.049,0.475-0.655,0.792-1.073,0.563c0.09-0.358,0.193-0.737,0.466-0.985
				c0.272-0.248,0.774-0.278,0.968,0.035c-0.033,0.213-0.066,0.426-0.099,0.639L101.642,175.241z"/>
			<path opacity="0.5" fill="#FFFFFF" d="M92.603,169.33c-0.078-0.063-0.156-0.125-0.234-0.188c-0.112,0.107-0.23,0.229-0.24,0.384
				c-0.009,0.155,0.169,0.314,0.296,0.227c0.048-0.032,0.074-0.089,0.097-0.142c0.075-0.171,0.149-0.341,0.224-0.511L92.603,169.33z
				"/>
			<path fill="#FFFFFF" d="M118.695,173.583c-0.116-0.217-0.237-0.439-0.429-0.593c-0.193-0.153-0.477-0.22-0.688-0.091
				c-0.104,0.063-0.178,0.168-0.221,0.283c-0.125,0.347,0.092,0.778,0.445,0.885s0.771-0.135,0.857-0.493L118.695,173.583z"/>
			<path fill="#FFFFFF" d="M105.878,180.566c-0.147-0.079-0.293-0.159-0.44-0.239c-0.087,0.095-0.153,0.207-0.192,0.329
				c0.158,0.19,0.479,0.21,0.659,0.041L105.878,180.566z"/>
			<path fill="#FFFFFF" d="M130.443,179.068c0.042,0.129-0.063,0.272-0.193,0.309s-0.271-0.013-0.386-0.087
				c-0.066-0.044-0.128-0.098-0.164-0.169c-0.085-0.164,0.008-0.391,0.18-0.455c0.173-0.064,0.387,0.038,0.451,0.21
				c0.065,0.173-0.021,0.386-0.185,0.471L130.443,179.068z"/>
			<path fill="#FFFFFF" d="M104.147,176.807c-0.147-0.08-0.293-0.16-0.44-0.239c-0.087,0.094-0.153,0.207-0.192,0.329
				c0.158,0.189,0.48,0.209,0.66,0.04L104.147,176.807z"/>
			<path fill="#FFFFFF" d="M110.271,164.533c0-0.188-0.265-0.263-0.435-0.184c-0.17,0.079-0.288,0.242-0.448,0.338
				c-0.166,0.1-0.375,0.122-0.559,0.06c-0.106-0.036-0.212-0.112-0.231-0.224c-0.013-0.074,0.014-0.148,0.043-0.219
				c0.141-0.342,0.33-0.68,0.629-0.896c0.299-0.218,0.729-0.287,1.041-0.087c0.216,0.14,0.348,0.401,0.332,0.657
				c-0.017,0.258-0.181,0.5-0.413,0.611L110.271,164.533z"/>
			<path fill="#FFFFFF" d="M114.013,173.771c0.053,0.131,0.107,0.266,0.207,0.364c0.102,0.1,0.26,0.154,0.387,0.094
				c0.211-0.1,0.197-0.408,0.338-0.593c0.143-0.186,0.438-0.241,0.509-0.464c0.07-0.22-0.159-0.443-0.39-0.453
				c-0.23-0.011-0.44,0.123-0.624,0.263c-0.163,0.124-0.327,0.266-0.401,0.457c-0.074,0.192-0.027,0.445,0.153,0.544
				L114.013,173.771z"/>
			<path fill="#FFFFFF" d="M104.512,168.638c0.787,0.327,1.65,0.471,2.5,0.414c0.137-0.009,0.278-0.024,0.399-0.089
				c0.235-0.124,0.344-0.407,0.36-0.673c0.04-0.648-0.395-1.281-0.992-1.539c-0.597-0.258-1.317-0.16-1.864,0.191
				c-0.3,0.193-0.564,0.478-0.637,0.827c-0.072,0.351,0.099,0.763,0.437,0.879c0.098-0.058,0.089-0.23-0.014-0.278L104.512,168.638z
				"/>
			<path fill="#FFFFFF" d="M108.561,163.962c0.04-0.121,0.081-0.256,0.038-0.377c-0.042-0.117-0.151-0.193-0.252-0.267
				c-0.276-0.198-0.534-0.422-0.771-0.667c0.038,0.565,0.076,1.13,0.114,1.695c0.003,0.045,0.006,0.092-0.009,0.134
				c-0.052,0.147-0.261,0.151-0.385,0.247c-0.181,0.141-0.129,0.428-0.028,0.634C107.987,166.831,108.341,164.629,108.561,163.962z"
				/>
			<path fill="#FFFFFF" d="M104.529,168.428c-0.067-0.069-0.134-0.138-0.2-0.207c-0.15,0.048-0.263,0.206-0.241,0.363
				c0.022,0.155,0.192,0.28,0.344,0.237c0.152-0.042,0.229-0.257,0.127-0.377L104.529,168.428z"/>
			<path fill="#FFFFFF" d="M105.866,164.027c0.201-0.119,0.244-0.42,0.117-0.617c-0.127-0.195-0.38-0.285-0.613-0.262
				c-0.103,0.012-0.223,0.064-0.229,0.167c-0.004,0.07,0.049,0.13,0.099,0.181c0.202,0.205,0.403,0.41,0.605,0.615L105.866,164.027z
				"/>
			<path fill="#FFFFFF" d="M104.305,166.701c0.322-0.326,0.479-0.809,0.41-1.263c-0.206,0.015-0.417,0.03-0.601,0.123
				s-0.334,0.284-0.314,0.489c0.027,0.279,0.33,0.436,0.591,0.54c-0.071,0.03-0.143,0.062-0.214,0.093L104.305,166.701z"/>
			<path fill="#FFFFFF" d="M102.509,167.75c0.028,0.137,0.012,0.282-0.043,0.409c-0.301-0.194-0.366-0.601-0.383-0.958
				c-0.009-0.199,0.014-0.444,0.197-0.525c0.127-0.056,0.273-0.002,0.413-0.01c0.277-0.015,0.585-0.267,0.794-0.083
				c0.118,0.104,0.109,0.3,0.023,0.432c-0.086,0.131-0.228,0.214-0.365,0.291c-0.298,0.17-0.597,0.34-0.896,0.509L102.509,167.75z"
				/>
			<path fill="#FFFFFF" d="M107.288,165.519c0.309-0.156,0.538-0.463,0.6-0.803c-0.282-0.027-0.565-0.055-0.847-0.082
				c-0.133-0.013-0.273-0.024-0.395,0.031c-0.237,0.11-0.289,0.465-0.128,0.671c0.161,0.206,0.468,0.259,0.714,0.169
				L107.288,165.519z"/>
			<path fill="#FFFFFF" d="M103.248,163.683c-0.128,0.137,0.015,0.373,0.193,0.431c0.178,0.059,0.375,0.021,0.558,0.06
				c0.189,0.04,0.357,0.167,0.448,0.338c0.053,0.1,0.078,0.227,0.017,0.32c-0.041,0.064-0.112,0.1-0.181,0.131
				c-0.336,0.154-0.705,0.271-1.072,0.227c-0.367-0.047-0.729-0.289-0.819-0.648c-0.063-0.25,0.02-0.53,0.208-0.707
				c0.188-0.176,0.473-0.24,0.718-0.163L103.248,163.683z"/>
			<path fill="#FFFFFF" d="M109.188,174.246c0.131-0.209,0.264-0.425,0.302-0.668c0.037-0.243-0.047-0.522-0.263-0.641
				c-0.107-0.059-0.235-0.071-0.355-0.051c-0.364,0.063-0.63,0.466-0.546,0.825c0.083,0.36,0.5,0.604,0.854,0.5L109.188,174.246z"/>
			<path fill="#FFFFFF" d="M112.71,170.037c0.322-0.326,0.479-0.81,0.41-1.264c-0.205,0.015-0.418,0.031-0.602,0.123
				c-0.184,0.094-0.334,0.285-0.313,0.49c0.027,0.279,0.329,0.436,0.591,0.54c-0.071,0.03-0.143,0.062-0.214,0.093L112.71,170.037z"
				/>
			<path fill="#FFFFFF" d="M101.638,167.83c-0.25,0-0.402,0.27-0.486,0.504s-0.192,0.512-0.435,0.568
				c-0.066,0.016-0.143,0.009-0.194-0.037c-0.13-0.117,0.01-0.32,0.058-0.488c0.039-0.136,0.009-0.279,0.016-0.42
				c0.016-0.333,0.258-0.644,0.578-0.74c0.176,0.031,0.326,0.176,0.366,0.35s-0.032,0.369-0.176,0.475L101.638,167.83z"/>
			<path fill="#FFFFFF" d="M116.463,180.057c-0.095-0.015-0.189-0.03-0.284-0.046c-0.092,0.129-0.087,0.323,0.025,0.435
				c0.111,0.112,0.321,0.109,0.418-0.016c0.096-0.125,0.029-0.343-0.125-0.378L116.463,180.057z"/>
			<path fill="#FFFFFF" d="M107.891,167.787c0.016-0.1,0.032-0.198,0.047-0.297c-0.148-0.044-0.314-0.086-0.453-0.018
				s-0.188,0.303-0.049,0.371c0.052,0.025,0.114,0.02,0.171,0.013c0.185-0.021,0.37-0.04,0.555-0.06L107.891,167.787z"/>
		</g>
	</g>
	
		<radialGradient id="SVGID_1_" cx="105.7021" cy="99.1284" r="40.7891" gradientTransform="matrix(1 0 0 0.2225 0 201.9764)" gradientUnits="userSpaceOnUse">
		<stop  offset="0" style="stop-color:#B89ECB"/>
		<stop  offset="0.3883" style="stop-color:#D9BEDC"/>
		<stop  offset="1" style="stop-color:#FFFFFF"/>
	</radialGradient>
	<ellipse opacity="0.5" fill="url(#SVGID_1_)" cx="105.702" cy="224.033" rx="40.785" ry="9.076"/>
	<g>
		<linearGradient id="SVGID_2_" gradientUnits="userSpaceOnUse" x1="186.6768" y1="56.875" x2="189.7383" y2="13.7399">
			<stop  offset="0" style="stop-color:#8458A4"/>
			<stop  offset="1" style="stop-color:#ED247E"/>
		</linearGradient>
		<polygon fill="url(#SVGID_2_)" points="200.622,14.512 203.538,15.762 200.622,48.405 198.123,49.522 184.378,50.898 
			183.337,56.638 173.336,48.405 		"/>
		<linearGradient id="SVGID_3_" gradientUnits="userSpaceOnUse" x1="82.4976" y1="209.6167" x2="86.8773" y2="174.7447">
			<stop  offset="0" style="stop-color:#CBC0DF"/>
			<stop  offset="1" style="stop-color:#E7DCED"/>
		</linearGradient>
		<path fill="url(#SVGID_3_)" d="M97.688,188.782c-1.187,6.941-6.463,22.976-11.195,21.285c-1.022-0.362-2.094-1.657-3.157-3.562
			c-3.231-5.787-6.414-17.171-7.988-24.871c-0.857-4.195-1.245-7.304-0.898-7.807c2.11-3.124,22.15,10.42,23.346,11.929
			C98.018,186.045,97.968,187.167,97.688,188.782z"/>
		<linearGradient id="SVGID_4_" gradientUnits="userSpaceOnUse" x1="113.8496" y1="214.5425" x2="119.4987" y2="169.5638">
			<stop  offset="0" style="stop-color:#CBC0DF"/>
			<stop  offset="1" style="stop-color:#E7DCED"/>
		</linearGradient>
		<path fill="url(#SVGID_4_)" d="M129.427,179.409c-0.074,0.644-0.166,1.311-0.256,2.004c-1.418,10.543-4.345,26.024-7.494,31.655
			c-0.75,1.352-1.517,2.135-2.275,2.151c-0.197,0.008-0.403-0.024-0.609-0.091c-0.709-0.206-1.459-0.783-2.227-1.641v-0.008
			c-4.772-5.358-10.164-21.632-10.354-26.487c-0.024-0.602,0.033-1.03,0.182-1.236c2.72-3.693,22.431-16.298,23.527-14.797
			C130.21,171.363,129.995,174.718,129.427,179.409z"/>
		<linearGradient id="SVGID_5_" gradientUnits="userSpaceOnUse" x1="86.0952" y1="186.9888" x2="86.0952" y2="173.2466">
			<stop  offset="0" style="stop-color:#B89ECB"/>
			<stop  offset="1" style="stop-color:#968AC2"/>
		</linearGradient>
		<path fill="url(#SVGID_5_)" d="M74.449,173.832c-2.218,2.898,15.858,16.019,23.48,12.591
			C97.929,186.422,77.396,169.978,74.449,173.832z"/>
		<linearGradient id="SVGID_6_" gradientUnits="userSpaceOnUse" x1="118.0586" y1="187.3071" x2="118.0586" y2="170.9614">
			<stop  offset="0" style="stop-color:#B89ECB"/>
			<stop  offset="1" style="stop-color:#968AC2"/>
		</linearGradient>
		<path fill="url(#SVGID_6_)" d="M106.212,186.989c-0.601,1.478,20.273-1.911,23.706-16.027
			C129.918,170.961,111.871,173.073,106.212,186.989z"/>
		<linearGradient id="SVGID_7_" gradientUnits="userSpaceOnUse" x1="86.1289" y1="210.0669" x2="86.1289" y2="173.3618">
			<stop  offset="0" style="stop-color:#976AAD"/>
			<stop  offset="1" style="stop-color:#CDECFC"/>
		</linearGradient>
		<path opacity="0.3" fill="url(#SVGID_7_)" d="M82.355,186.012c-1.014,1.253,0.239,17.493,4.138,24.055
			c-1.022-0.362-2.094-1.657-3.157-3.562c-0.635-2.844-1.574-7.064-2.465-11.277c-1.138-5.424-4.039-10.988-5.523-13.594
			c-0.857-4.195-1.245-7.304-0.898-7.807c2.11-3.124,22.15,10.42,23.346,11.929c0.223,0.289,0.173,1.41-0.107,3.025
			C97.688,188.782,83.369,184.767,82.355,186.012z"/>
		<path fill="#FFFFFF" d="M117.664,191.904c-0.853,0.263-1.05,7.063,0.37,7.439C119.455,199.719,119.634,191.297,117.664,191.904z"
			/>
		<linearGradient id="SVGID_8_" gradientUnits="userSpaceOnUse" x1="118.1279" y1="213.48" x2="118.1279" y2="170.8364">
			<stop  offset="0" style="stop-color:#976AAD"/>
			<stop  offset="1" style="stop-color:#CDECFC"/>
		</linearGradient>
		<path opacity="0.3" fill="url(#SVGID_8_)" d="M129.427,179.409c0,0-11.418,3.38-14.057,8.796
			c-2.637,5.408-1.648,18.269,1.195,25.275c-4.772-5.358-10.164-21.632-10.354-26.487c-0.024-0.602,0.033-1.03,0.182-1.236
			c2.72-3.693,22.431-16.298,23.527-14.797C130.21,171.363,129.995,174.718,129.427,179.409z"/>
		<linearGradient id="SVGID_9_" gradientUnits="userSpaceOnUse" x1="61.6992" y1="177.8462" x2="69.2499" y2="117.7267">
			<stop  offset="0" style="stop-color:#CBC0DF"/>
			<stop  offset="1" style="stop-color:#E7DCED"/>
		</linearGradient>
		<path fill="url(#SVGID_9_)" d="M80.088,126.188c-0.024,6.026-0.865,14.739-3.602,21.78c-4.526,11.656-11.327,26.33-11.533,26.791
			l-0.008,0.009c-4.155,2.53-9.125,2.398-12.291,1.937c-1.921-0.28-3.174-0.684-3.174-0.684s1.41-13.355,8.747-28.482
			c3.685-7.6,8.384-14.673,12.431-19.883c0.025-0.025,0.042-0.05,0.058-0.074c0.042-0.066,0.099-0.133,0.148-0.198
			c0.033-0.041,0.058-0.073,0.083-0.106c0.033-0.033,0.058-0.066,0.074-0.1c0.042-0.049,0.074-0.09,0.107-0.132
			c0.008-0.009,0.016-0.017,0.016-0.024c0.008-0.008,0.017-0.017,0.017-0.017c4.114-5.218,7.452-8.384,8.153-7.997
			C79.733,119.239,80.104,122.091,80.088,126.188z"/>
		<linearGradient id="SVGID_10_" gradientUnits="userSpaceOnUse" x1="57.2759" y1="177.27" x2="57.2759" y2="167.7153">
			<stop  offset="0" style="stop-color:#B89ECB"/>
			<stop  offset="1" style="stop-color:#968AC2"/>
		</linearGradient>
		<path fill="url(#SVGID_10_)" d="M49.542,175.499c0,0,5.351-8.826,10.87-7.681c5.519,1.145,4.529,6.95,4.529,6.95
			S57.884,179.874,49.542,175.499z"/>
		<linearGradient id="SVGID_11_" gradientUnits="userSpaceOnUse" x1="64.7837" y1="176.7046" x2="64.7837" y2="126.188">
			<stop  offset="0" style="stop-color:#976AAD"/>
			<stop  offset="1" style="stop-color:#CDECFC"/>
		</linearGradient>
		<path opacity="0.3" fill="url(#SVGID_11_)" d="M80.088,126.188c-0.024,6.026-0.865,14.739-3.602,21.78
			c-4.526,11.656-11.327,26.33-11.533,26.791l-0.008,0.009l-12.291,1.937c-1.921-0.28-3.174-0.684-3.174-0.684
			s1.41-13.355,8.747-28.482c3.685-7.6,8.384-14.673,12.431-19.883c-2.316,3.059-12.011,16.371-14.616,27.682
			c-2.968,12.869,9.002,7.914,13.899,0c4.888-7.914,9.999-29.149,9.999-29.149H80.088z"/>
		<path fill="#FFFFFF" d="M66.711,146.757c-0.975-0.365,4.061-11.767,5.623-11.871C73.896,134.783,67.544,147.07,66.711,146.757z"/>
		<path fill="#FFFFFF" d="M66.202,147.973c-0.769-0.407-1.495,1.726-0.792,2.038S67.071,148.435,66.202,147.973z"/>
		<linearGradient id="SVGID_12_" gradientUnits="userSpaceOnUse" x1="54.979" y1="203.2827" x2="59.0921" y2="170.5341">
			<stop  offset="0" style="stop-color:#CBC0DF"/>
			<stop  offset="1" style="stop-color:#E7DCED"/>
		</linearGradient>
		<path fill="url(#SVGID_12_)" d="M58.629,170.479c-2.856-0.466-7.007,2.208-8.303,4.607s-1.968,16.222,1.296,27.644
			c0,0,4.607,1.248,8.063,0c3.456-1.248,5.855-11.326,6.047-18.909S63.333,171.247,58.629,170.479z"/>
		<linearGradient id="SVGID_13_" gradientUnits="userSpaceOnUse" x1="61.4331" y1="203.1138" x2="61.4331" y2="173.8169">
			<stop  offset="0" style="stop-color:#B89ECB"/>
			<stop  offset="1" style="stop-color:#968AC2"/>
		</linearGradient>
		<path fill="url(#SVGID_13_)" d="M58.204,203.114c0,0-4.208-24.327,5.356-29.297c0,0,2.845,4.821,1.789,14.228
			C64.292,197.451,62.673,202.25,58.204,203.114z"/>
		<linearGradient id="SVGID_14_" gradientUnits="userSpaceOnUse" x1="61.0669" y1="194.0454" x2="61.0669" y2="182.7173">
			<stop  offset="0" style="stop-color:#90A3D3"/>
			<stop  offset="1" style="stop-color:#745FA9"/>
		</linearGradient>
		<path opacity="0.5" fill="url(#SVGID_14_)" d="M57.515,189.614c0,0,2.458,3.593,4.138,4.179c1.68,0.587,2.991-0.031,2.991-0.031
			l-6.207-11.044C58.438,182.717,57.312,187.104,57.515,189.614z"/>
		<linearGradient id="SVGID_15_" gradientUnits="userSpaceOnUse" x1="61.8281" y1="193.5112" x2="64.2311" y2="174.3783">
			<stop  offset="0" style="stop-color:#CBC0DF"/>
			<stop  offset="1" style="stop-color:#E7DCED"/>
		</linearGradient>
		<path fill="url(#SVGID_15_)" d="M58.438,182.717c0,0,1.363-6.739,5.433-8.385c0,0,3.782,3.729,2.822,18.223
			c0,0-2.112,2.784-5.087,0C61.605,192.555,59.109,187.612,58.438,182.717z"/>
		<path fill="#FFFFFF" d="M60.765,180.341c-1.383,0,0.72,6.119,1.44,5.976C62.925,186.172,61.917,180.341,60.765,180.341z"/>
		
			<linearGradient id="SVGID_16_" gradientUnits="userSpaceOnUse" x1="-669.6938" y1="68.8677" x2="-669.6938" y2="34.1924" gradientTransform="matrix(-1 0 0 1 -603.0918 0)">
			<stop  offset="0" style="stop-color:#B8ACD4"/>
			<stop  offset="1" style="stop-color:#E0D1E7"/>
		</linearGradient>
		<path fill="url(#SVGID_16_)" d="M76.484,40.526c0,0-6.254-5.396-13.909-6.333c0,0-2.344,1.146-5.051,9.58
			c-2.708,8.435,2.291,25.095,2.291,25.095L76.484,40.526z"/>
		<linearGradient id="SVGID_17_" gradientUnits="userSpaceOnUse" x1="64.1196" y1="55.7686" x2="64.1196" y2="34.1929">
			<stop  offset="0" style="stop-color:#B89ECB"/>
			<stop  offset="1" style="stop-color:#968AC2"/>
		</linearGradient>
		<path fill="url(#SVGID_17_)" d="M59.607,38.398c0,0,1.227-2.852,2.968-4.205c0,0,6.296,5.812,6.049,19.697l-1.816,1.879
			L59.607,38.398z"/>
		<linearGradient id="SVGID_18_" gradientUnits="userSpaceOnUse" x1="138.126" y1="68.8682" x2="138.126" y2="34.1929">
			<stop  offset="0" style="stop-color:#B8ACD4"/>
			<stop  offset="1" style="stop-color:#E0D1E7"/>
		</linearGradient>
		<path fill="url(#SVGID_18_)" d="M128.243,40.526c0,0,6.255-5.396,13.909-6.333c0,0,2.345,1.146,5.052,9.58
			s-2.291,25.095-2.291,25.095L128.243,40.526z"/>
		<linearGradient id="SVGID_19_" gradientUnits="userSpaceOnUse" x1="140.6436" y1="53.0405" x2="140.6436" y2="34.1904">
			<stop  offset="0" style="stop-color:#B89ECB"/>
			<stop  offset="1" style="stop-color:#968AC2"/>
		</linearGradient>
		<path fill="url(#SVGID_19_)" d="M142.152,34.193c0,0-6.194,6.638-6.194,17.337l2.395,1.51l6.978-14.441
			C145.33,38.599,143.015,34.066,142.152,34.193z"/>
		<linearGradient id="SVGID_20_" gradientUnits="userSpaceOnUse" x1="145.3301" y1="70.5273" x2="145.3301" y2="36.4575">
			<stop  offset="0" style="stop-color:#7DCBB5"/>
			<stop  offset="1" style="stop-color:#5CCAEA"/>
		</linearGradient>
		<path fill="url(#SVGID_20_)" d="M138.126,52.312c0,0-1.647-9.138,4.365-15.854c0,0,6.795,3.202,9.606,15.073
			c2.812,11.871-4.507,18.997-4.507,18.997L138.126,52.312z"/>
		
			<linearGradient id="SVGID_21_" gradientUnits="userSpaceOnUse" x1="-662.4897" y1="70.5269" x2="-662.4897" y2="36.457" gradientTransform="matrix(-1 0 0 1 -603.0918 0)">
			<stop  offset="0" style="stop-color:#7DCBB5"/>
			<stop  offset="1" style="stop-color:#5CCAEA"/>
		</linearGradient>
		<path fill="url(#SVGID_21_)" d="M66.603,52.312c0,0,1.647-9.138-4.366-15.854c0,0-6.794,3.202-9.606,15.073
			c-2.812,11.871,4.506,18.997,4.506,18.997L66.603,52.312z"/>
		<linearGradient id="SVGID_22_" gradientUnits="userSpaceOnUse" x1="98.624" y1="118.0508" x2="109.648" y2="30.277">
			<stop  offset="0" style="stop-color:#CBC0DF"/>
			<stop  offset="1" style="stop-color:#E7DCED"/>
		</linearGradient>
		<path fill="url(#SVGID_22_)" d="M146.474,102.817c-13.956,19.57-79.551,18.12-88.091,2.292
			c-5.573-10.337-4.963-25.877,0.404-40.18c7.04-18.771,22.282-35.423,42.496-35.423c23.791,0,42.067,23.701,47.574,45.348
			C151.643,85.811,151.165,96.239,146.474,102.817z"/>
		<path fill="#E0E2F2" d="M63.278,84.666c3.124,13.329,60.78,14.78,74.942,2.701c14.161-12.079-6.231-54.991-37.471-53.117
			C72.177,35.964,58.161,62.834,63.278,84.666z"/>
		<linearGradient id="SVGID_23_" gradientUnits="userSpaceOnUse" x1="102.2212" y1="93.9883" x2="102.2212" y2="32.5713">
			<stop  offset="0" style="stop-color:#2366B1"/>
			<stop  offset="1" style="stop-color:#2C2D72"/>
		</linearGradient>
		<path fill="url(#SVGID_23_)" d="M62.978,83.047c3.124,13.329,60.78,14.78,74.941,2.701c14.162-12.079-6.23-54.991-37.47-53.117
			C71.877,34.345,57.861,61.215,62.978,83.047z"/>
		<linearGradient id="SVGID_24_" gradientUnits="userSpaceOnUse" x1="102.5229" y1="117.2397" x2="102.5229" y2="64.9219">
			<stop  offset="0" style="stop-color:#976AAD"/>
			<stop  offset="1" style="stop-color:#CDECFC"/>
		</linearGradient>
		<path opacity="0.3" fill="url(#SVGID_24_)" d="M146.474,102.817c-13.956,19.57-79.551,18.12-88.091,2.292
			c-5.573-10.337-4.963-25.877,0.404-40.18c0-0.008,0.008-0.008,0.008-0.008c-0.231,0.84-5.729,20.889-0.115,29.709
			c5.737,9.019,28.44,7.766,52.809,6.727c24.368-1.047,32.431-4.583,36.519-11.458c3.224-5.408-0.016-17.345-1.541-22.175
			l2.391,7.13C151.643,85.811,151.165,96.239,146.474,102.817z"/>
		<linearGradient id="SVGID_25_" gradientUnits="userSpaceOnUse" x1="67.2612" y1="110.4385" x2="135.4375" y2="110.4385">
			<stop  offset="0" style="stop-color:#7E78B8"/>
			<stop  offset="1" style="stop-color:#968AC2"/>
		</linearGradient>
		<path fill="url(#SVGID_25_)" d="M101.356,117.228c-13.635-0.017-23.461-1.55-28.959-3.751h-0.008
			c-3.611-1.443-5.358-3.166-5.103-4.938c0.157-1.08,2.836-2.028,7.048-2.803c12.382-2.242,38.011-2.918,51.819-0.825
			c1.188,0.182,2.292,0.379,3.289,0.602c0.215,0.049,0.421,0.099,0.619,0.148c0.041,0.008,0.074,0.017,0.115,0.024
			c2.382,0.585,4.072,1.303,4.822,2.177c0.189,0.222,0.321,0.445,0.387,0.676C136.673,112.957,113.673,117.235,101.356,117.228z"/>
		<linearGradient id="SVGID_26_" gradientUnits="userSpaceOnUse" x1="101.25" y1="113.4766" x2="101.25" y2="103.6494">
			<stop  offset="0" style="stop-color:#90A3D3"/>
			<stop  offset="1" style="stop-color:#745FA9"/>
		</linearGradient>
		<path opacity="0.5" fill="url(#SVGID_26_)" d="M135.229,107.451c-0.049,0.132-0.123,0.272-0.23,0.412
			c-1.336,1.888-6.752,4.319-6.752,4.319s-20.815-8.516-37.689-4.731c-16.875,3.784-18.161,6.026-18.161,6.026h-0.008
			c-3.611-1.443-5.358-3.166-5.103-4.938c0.157-1.08,2.836-2.028,7.048-2.803c12.382-2.242,38.011-2.918,51.819-0.825
			c1.443,0.256,2.754,0.511,3.908,0.75c0.041,0.008,0.074,0.017,0.115,0.024C133.449,106.395,135.386,107.022,135.229,107.451z"/>
		<linearGradient id="SVGID_27_" gradientUnits="userSpaceOnUse" x1="101.0767" y1="112.0864" x2="102.3562" y2="101.8984">
			<stop  offset="0" style="stop-color:#5D4EA1"/>
			<stop  offset="1" style="stop-color:#6C4B96"/>
		</linearGradient>
		<path fill="url(#SVGID_27_)" d="M129.442,105.513c-3.223,3.083-18.68,5.746-27.492,5.738c-15.795-0.025-25.391-2.515-27.616-5.515
			C87.779,103.304,116.862,102.71,129.442,105.513z"/>
		<linearGradient id="SVGID_28_" gradientUnits="userSpaceOnUse" x1="98.0449" y1="185.8823" x2="107.6219" y2="109.6293">
			<stop  offset="0" style="stop-color:#CBC0DF"/>
			<stop  offset="1" style="stop-color:#E7DCED"/>
		</linearGradient>
		<path fill="url(#SVGID_28_)" d="M128.454,167.275c-1.904,11.244-11.971,18.737-26.405,18.737
			c-12.563,0-23.206-4.683-26.017-14.995c-2.811-10.305-1.723-29.363,2.028-41.234c0.561-1.773,1.237-3.479,2.02-5.104l0.008-0.016
			c0.709-1.468,1.5-2.869,2.375-4.18c0.008-0.008,0.008-0.016,0.008-0.016c4.583-6.9,11.293-11.409,18.877-11.409
			c7.897,0,13.94,3.248,18.053,8.054c1.913,2.234,3.414,4.806,4.485,7.543c1.236,3.149,2.274,6.487,3.099,9.934
			c0,0.024,0.009,0.058,0.018,0.099C129.599,145.47,130.151,157.234,128.454,167.275z"/>
		<linearGradient id="SVGID_29_" gradientUnits="userSpaceOnUse" x1="118.5957" y1="126.9565" x2="127.6689" y2="126.9565">
			<stop  offset="0" style="stop-color:#7E78B8"/>
			<stop  offset="1" style="stop-color:#968AC2"/>
		</linearGradient>
		<path fill="url(#SVGID_29_)" d="M118.596,116.217c0,0,1.231,13.355,9.073,21.479C127.669,137.696,125.496,125.246,118.596,116.217
			z"/>
		<linearGradient id="SVGID_30_" gradientUnits="userSpaceOnUse" x1="137.8711" y1="133.7134" x2="143.8332" y2="86.2426">
			<stop  offset="0" style="stop-color:#CBC0DF"/>
			<stop  offset="1" style="stop-color:#E7DCED"/>
		</linearGradient>
		<path fill="url(#SVGID_30_)" d="M162.929,99.899c-12.291,24.368-33.973,32.694-33.973,32.694
			c-5.96-3.857-11.153-16.454-9.101-18.911l0.009-0.008c0.098-0.124,0.23-0.223,0.37-0.289
			c26.446-12.654,34.359-25.778,34.359-25.778c3.569,0.256,5.614,2.341,6.776,4.732C163.077,95.811,162.929,99.899,162.929,99.899z"
			/>
		<linearGradient id="SVGID_31_" gradientUnits="userSpaceOnUse" x1="66.4473" y1="105.1094" x2="66.4473" y2="91.3218">
			<stop  offset="0" style="stop-color:#90A3D3"/>
			<stop  offset="1" style="stop-color:#745FA9"/>
		</linearGradient>
		<path opacity="0.5" fill="url(#SVGID_31_)" d="M58.383,105.109c0,0,2.77-3.232,8.204-5.835c5.435-2.603,10.431-4.642,11.202-6.733
			c0.772-2.091-14.907-0.857-14.907-0.857l-7.804,3.387C55.078,95.07,56.302,101.364,58.383,105.109z"/>
		<linearGradient id="SVGID_32_" gradientUnits="userSpaceOnUse" x1="158.0195" y1="104.5063" x2="158.0195" y2="87.4053">
			<stop  offset="0" style="stop-color:#B89ECB"/>
			<stop  offset="1" style="stop-color:#968AC2"/>
		</linearGradient>
		<path fill="url(#SVGID_32_)" d="M154.597,87.611c-2.201,0.587-1.979,15.203,0.834,16.661c2.811,1.458,7.496-4.374,7.496-4.374
			S162.407,85.529,154.597,87.611z"/>
		<linearGradient id="SVGID_33_" gradientUnits="userSpaceOnUse" x1="121.042" y1="63.1313" x2="121.042" y2="48.4053">
			<stop  offset="0" style="stop-color:#7DCBB5"/>
			<stop  offset="1" style="stop-color:#5CCAEA"/>
		</linearGradient>
		<path fill="url(#SVGID_33_)" d="M112.841,61.475c2.082,3.669,15.883,0.407,16.66-1.771c1.042-2.916-2.813-12.079-10.101-11.246
			C112.112,49.292,111.831,59.696,112.841,61.475z"/>
		
			<linearGradient id="SVGID_34_" gradientUnits="userSpaceOnUse" x1="-583.6714" y1="63.1309" x2="-583.6714" y2="48.4048" gradientTransform="matrix(-1 0 0 1 -500.5957 0)">
			<stop  offset="0" style="stop-color:#7DCBB5"/>
			<stop  offset="1" style="stop-color:#5CCAEA"/>
		</linearGradient>
		<path fill="url(#SVGID_34_)" d="M91.277,61.475c-2.083,3.669-15.883,0.407-16.661-1.771c-1.042-2.916,2.813-12.079,10.102-11.246
			C92.006,49.292,92.287,59.696,91.277,61.475z"/>
		<path fill="#3095CD" d="M87.433,68.243c0,0,3.935,4.062,15.088,4.062c11.153,0,16.879-4.686,16.879-4.686
			s-4.916,6.664-16.879,6.664C90.557,74.283,87.433,68.243,87.433,68.243z"/>
		<linearGradient id="SVGID_35_" gradientUnits="userSpaceOnUse" x1="47.7285" y1="96.1001" x2="52.7814" y2="55.8688">
			<stop  offset="0" style="stop-color:#B89ECB"/>
			<stop  offset="1" style="stop-color:#968AC2"/>
		</linearGradient>
		<path fill="url(#SVGID_35_)" d="M51.987,55.769c0,0,4.045,2.604,1.393,8.632c0,0-18.897,10.292-17.803,21.507
			c0.912,9.358,27.021,4.827,27.021,4.827l0.937,3.124c0,0-22.18,4.339-29.833-0.876c0,0-2.604-6.181,3.853-17.323
			C44.011,64.519,51.987,55.769,51.987,55.769z"/>
		
			<linearGradient id="SVGID_36_" gradientUnits="userSpaceOnUse" x1="59.7974" y1="20.5674" x2="59.7974" y2="9.2266" gradientTransform="matrix(0.9734 0.2292 -0.2292 0.9734 13.857 62.6119)">
			<stop  offset="0" style="stop-color:#DC208F"/>
			<stop  offset="1" style="stop-color:#ED247E"/>
		</linearGradient>
		<path fill="url(#SVGID_36_)" d="M59.294,89.868c-2.379,2.691,2.67,5.636,6.821,6.088c4.658,0.507,12.931-1.336,12.431-6.027
			C78.045,85.237,64.871,83.559,59.294,89.868z"/>
		<linearGradient id="SVGID_37_" gradientUnits="userSpaceOnUse" x1="72.4004" y1="47.022" x2="135.2314" y2="47.022">
			<stop  offset="0" style="stop-color:#010101"/>
			<stop  offset="1" style="stop-color:#7594CC"/>
		</linearGradient>
		<path opacity="0.5" fill="url(#SVGID_37_)" d="M72.438,49.344c-0.72,4.317,8.887,4.13,21.971,3.697
			c15.724-0.521,31.523,13.016,40.716,3.301c1.515-1.601-13.539-22.622-31.709-22.151C85.247,34.662,73.063,45.595,72.438,49.344z"
			/>
		<linearGradient id="SVGID_38_" gradientUnits="userSpaceOnUse" x1="81.2827" y1="88.3755" x2="125.9326" y2="88.3755">
			<stop  offset="0" style="stop-color:#010101"/>
			<stop  offset="1" style="stop-color:#7594CC"/>
		</linearGradient>
		<path opacity="0.5" fill="url(#SVGID_38_)" d="M81.353,86.947c-0.83,3.129,5.716,6.259,21.814,5.471
			c19.462-0.953,23.595-5.031,22.639-6.16c-0.575-0.678-6.405,2.994-22.389-0.51C92.861,83.434,82.227,83.655,81.353,86.947z"/>
		<linearGradient id="SVGID_39_" gradientUnits="userSpaceOnUse" x1="146.0986" y1="67.312" x2="146.0986" y2="65.8945">
			<stop  offset="0" style="stop-color:#976AAD"/>
			<stop  offset="1" style="stop-color:#CDECFC"/>
		</linearGradient>
		<path opacity="0.3" fill="url(#SVGID_39_)" d="M146.334,67.312l-0.47-1.417C145.954,66.167,146.128,66.653,146.334,67.312z"/>
		<linearGradient id="SVGID_40_" gradientUnits="userSpaceOnUse" x1="101.9375" y1="186.0122" x2="101.9375" y2="124.6636">
			<stop  offset="0" style="stop-color:#976AAD"/>
			<stop  offset="1" style="stop-color:#CDECFC"/>
		</linearGradient>
		<path opacity="0.3" fill="url(#SVGID_40_)" d="M128.454,167.275c-1.904,11.244-11.971,18.737-26.405,18.737
			c-12.563,0-23.206-4.683-26.017-14.995c-2.811-10.305-1.723-29.363,2.028-41.234c0.561-1.773,1.237-3.479,2.02-5.104l0.008-0.016
			c0,0-7.601,25.2-1.525,41.25c6.076,16.051,34.384,15.713,43.963,5.046c9.117-10.147,4.904-33.989,4.477-36.272
			C129.599,145.47,130.151,157.234,128.454,167.275z"/>
		<linearGradient id="SVGID_41_" gradientUnits="userSpaceOnUse" x1="101.3501" y1="184.7651" x2="101.3501" y2="136.4458">
			<stop  offset="0" style="stop-color:#B89ECB"/>
			<stop  offset="1" style="stop-color:#968AC2"/>
		</linearGradient>
		<path fill="url(#SVGID_41_)" d="M76.572,160.603c2.148-15.09,14.253-25.319,27.699-24.051
			c14.494,1.368,22.284,15.203,22.076,27.074c-0.209,11.871-8.885,21.139-24.436,21.139S74.563,174.715,76.572,160.603z"/>
		<radialGradient id="SVGID_42_" cx="102.3179" cy="178.5161" r="36.8707" gradientUnits="userSpaceOnUse">
			<stop  offset="0" style="stop-color:#7DCBB5"/>
			<stop  offset="1" style="stop-color:#5CCAEA"/>
		</radialGradient>
		<path fill="url(#SVGID_42_)" d="M76.708,161.852c2.148-15.09,14.253-25.319,27.698-24.05
			c14.493,1.367,22.284,15.203,22.075,27.074c-0.208,11.87-8.885,21.138-24.435,21.138S74.698,175.964,76.708,161.852z"/>
		<linearGradient id="SVGID_43_" gradientUnits="userSpaceOnUse" x1="100.8784" y1="124.0142" x2="100.8784" y2="109.0586">
			<stop  offset="0" style="stop-color:#90A3D3"/>
			<stop  offset="1" style="stop-color:#745FA9"/>
		</linearGradient>
		<path opacity="0.5" fill="url(#SVGID_43_)" d="M119.401,117.112c-3.074,4.823-20,7.63-29.781,6.737
			c-8.516-0.778-7.224-3.077-7.158-3.366c0.008-0.008,0.008-0.016,0.008-0.016c4.583-6.9,11.293-11.409,18.877-11.409
			C109.246,109.058,115.288,112.306,119.401,117.112z"/>
		<path fill="#FFFFFF" d="M113.386,125.471c-0.785,0.26-0.824,6.604,0,7.626s2.146,0.707,2.587-0.786
			S114.576,125.078,113.386,125.471z"/>
		<path fill="#FFFFFF" d="M114.839,134.788c-0.655,0.155-0.73,1.729-0.428,2.28c0.303,0.55,1.443,0.432,1.629-0.236
			C116.225,136.164,115.501,134.63,114.839,134.788z"/>
		<linearGradient id="SVGID_44_" gradientUnits="userSpaceOnUse" x1="102.5239" y1="183.3188" x2="102.5239" y2="174.9497">
			<stop  offset="0" style="stop-color:#D6E1F3"/>
			<stop  offset="1" style="stop-color:#010101"/>
		</linearGradient>
		<path opacity="0.72" fill="url(#SVGID_44_)" d="M85.22,177.22c0,0,3.474,6.049,16.41,6.099
			c12.937,0.051,18.197-7.653,18.197-7.653s-5.969,3.891-14.504,1.555S88.347,173.572,85.22,177.22z"/>
		<path fill="#FFFFFF" d="M112.415,32.267c-1.383,0.322,10.214,6.456,10.683,5.727S116.239,31.376,112.415,32.267z"/>
		<path fill="#FFFFFF" d="M134.63,36.852c-1.155,0.624-1.063,1.871,1.33,1.558s3.694-2.187,3.434-2.551
			C139.134,35.495,135.927,36.152,134.63,36.852z"/>
		<linearGradient id="SVGID_45_" gradientUnits="userSpaceOnUse" x1="141.165" y1="132.5933" x2="141.165" y2="88.7544">
			<stop  offset="0" style="stop-color:#976AAD"/>
			<stop  offset="1" style="stop-color:#CDECFC"/>
		</linearGradient>
		<path opacity="0.3" fill="url(#SVGID_45_)" d="M162.929,99.899c-12.291,24.368-33.973,32.694-33.973,32.694
			c-5.96-3.857-11.153-16.454-9.101-18.911l0.009-0.008c0.115-0.107,0.238-0.198,0.37-0.289c0,0,3.87,14.208,15.204,10.266
			c13.447-4.676,18.949-28.047,18.949-28.047v-6.851l6.982,3.586C163.077,95.811,162.929,99.899,162.929,99.899z"/>
		<linearGradient id="SVGID_46_" gradientUnits="userSpaceOnUse" x1="161.3652" y1="101.1436" x2="165.8256" y2="65.6301">
			<stop  offset="0" style="stop-color:#CBC0DF"/>
			<stop  offset="1" style="stop-color:#E7DCED"/>
		</linearGradient>
		<path fill="url(#SVGID_46_)" d="M153.812,91.736c0,0-0.104,7.706,4.27,8.955s9.84-6.92,11.871-10.307
			c2.029-3.386,5.102-18.642,2.186-22.286c-2.915-3.644-8.538-2.707-12.287,2.395C159.851,70.494,154.02,85.176,153.812,91.736z"/>
		<linearGradient id="SVGID_47_" gradientUnits="userSpaceOnUse" x1="160.8037" y1="89.4502" x2="160.8037" y2="65.8945">
			<stop  offset="0" style="stop-color:#B89ECB"/>
			<stop  offset="1" style="stop-color:#968AC2"/>
		</linearGradient>
		<path fill="url(#SVGID_47_)" d="M154.048,89.45c0,0,5.074-3.857,6.22-9.793s7.292-13.759,7.292-13.759s-3.23-0.298-7.709,4.596
			C155.374,75.388,154.048,89.45,154.048,89.45z"/>
		<linearGradient id="SVGID_48_" gradientUnits="userSpaceOnUse" x1="160.0547" y1="85.1543" x2="160.0547" y2="71.5093">
			<stop  offset="0" style="stop-color:#90A3D3"/>
			<stop  offset="1" style="stop-color:#745FA9"/>
		</linearGradient>
		<path opacity="0.5" fill="url(#SVGID_48_)" d="M159.051,71.509l3.876,1.462c0,0-1.715,2.893-2.416,5.654
			c-0.7,2.76-3.328,6.529-3.328,6.529L159.051,71.509z"/>
		<linearGradient id="SVGID_49_" gradientUnits="userSpaceOnUse" x1="154.7813" y1="88.0801" x2="157.2664" y2="68.2931">
			<stop  offset="0" style="stop-color:#CBC0DF"/>
			<stop  offset="1" style="stop-color:#E7DCED"/>
		</linearGradient>
		<path fill="url(#SVGID_49_)" d="M154.048,87.988c0,0-1.33-2.916-1.512-8.539c-0.183-5.623,1.15-10.049,1.775-10.83
			c0.625-0.781,2.812-0.676,3.854,0.573c1.041,1.25,1.79,7.431,1.79,7.431S158.554,86.634,154.048,87.988z"/>
		<linearGradient id="SVGID_50_" gradientUnits="userSpaceOnUse" x1="165.1104" y1="91.6831" x2="165.1104" y2="78.6255">
			<stop  offset="0" style="stop-color:#B89ECB"/>
			<stop  offset="1" style="stop-color:#968AC2"/>
		</linearGradient>
		<path fill="url(#SVGID_50_)" d="M160.268,79.657c0,0,2.604,8.588,8.878,12.026l0.807-1.298c0,0-6.387-3.367-9.441-11.759
			L160.268,79.657z"/>
		<path fill="#FFFFFF" d="M155.69,72.825c-0.629-0.074-0.416,5.463,0.364,5.23C156.836,77.823,156.575,72.929,155.69,72.825z"/>
		<linearGradient id="SVGID_51_" gradientUnits="userSpaceOnUse" x1="68.0493" y1="90.8467" x2="68.0493" y2="86.0317">
			<stop  offset="0" style="stop-color:#AD56A1"/>
			<stop  offset="1" style="stop-color:#F171AB"/>
		</linearGradient>
		<path fill="url(#SVGID_51_)" d="M59.608,90.363c-0.141,0.768,16.485,0.952,16.876-1.987
			C76.875,85.437,60.702,84.428,59.608,90.363z"/>
		
			<linearGradient id="SVGID_52_" gradientUnits="userSpaceOnUse" x1="65.2388" y1="58.5264" x2="65.2388" y2="35.7515" gradientTransform="matrix(0.9977 0.0684 -0.0684 0.9977 5.2506 18.4308)">
			<stop  offset="0" style="stop-color:#010101"/>
			<stop  offset="1" style="stop-color:#5BCAE8"/>
		</linearGradient>
		<path opacity="0.2" fill="url(#SVGID_52_)" d="M63.696,78.655c0,0-0.676-4.536,0.122-10.626c0.797-6.09,2.434-10.024,3.408-9.472
			c0.975,0.553,0.823,6.517,1.399,12.395c0.447,4.573,1.327,8.866,1.327,8.866S65.745,83.841,63.696,78.655z"/>
		<linearGradient id="SVGID_53_" gradientUnits="userSpaceOnUse" x1="81.7954" y1="149.6655" x2="123.8125" y2="149.6655">
			<stop  offset="0" style="stop-color:#010101"/>
			<stop  offset="1" style="stop-color:#D6E1F3"/>
		</linearGradient>
		<path opacity="0.72" fill="url(#SVGID_53_)" d="M81.848,152.277c2.555,4.076,13.069,1.904,24.917,3.061
			c11.848,1.156,13.869,5.011,16.368,4.23c2.5-0.781-1.449-18.617-19.15-19.826C86.28,138.531,81.212,151.262,81.848,152.277z"/>
		<linearGradient id="SVGID_54_" gradientUnits="userSpaceOnUse" x1="179.0537" y1="56.334" x2="182.1388" y2="12.8672">
			<stop  offset="0" style="stop-color:#AD56A1"/>
			<stop  offset="1" style="stop-color:#F171AB"/>
		</linearGradient>
		<path fill="url(#SVGID_54_)" d="M163.422,14.512c0,0-0.099,23.542,1.688,34.942l18.228,7.184l-2.916-5.107l17.702-2.008
			c0,0,1.874-26.472,2.499-35.01C200.622,14.512,186.669,11.805,163.422,14.512z"/>
		<g>
			<path fill="#FFFFFF" d="M176.8,25.042c-0.069,1.377-0.129,2.743-0.178,4.096c-0.048,1.353-0.083,2.711-0.104,4.075
				c0.174,0.014,0.35,0.021,0.527,0.021c0.177,0,0.353,0,0.526,0c0.223,0,0.45-0.003,0.684-0.01s0.468-0.017,0.704-0.031
				c0.014-0.306,0.021-0.607,0.021-0.903c0-0.295,0-0.6,0-0.913c0-1.058-0.011-2.111-0.031-3.162
				c-0.021-1.05-0.057-2.108-0.105-3.172h2.567c-0.125,1.677-0.221,3.341-0.287,4.993c-0.065,1.652-0.099,3.316-0.099,4.993
				c0,0.821,0.01,1.638,0.031,2.452c0.021,0.814,0.049,1.635,0.084,2.462h-2.38c0.034-0.828,0.065-1.652,0.095-2.473
				c0.027-0.82,0.055-1.642,0.083-2.462c-0.397-0.021-0.792-0.04-1.185-0.057c-0.393-0.018-0.784-0.026-1.174-0.026h-0.084v2.149
				c0,0.487,0,0.967,0,1.44c0,0.473,0.008,0.95,0.021,1.43h-2.39c0.034-1.001,0.058-1.991,0.067-2.969
				c0.011-0.977,0.016-1.959,0.016-2.948c0-2.991-0.063-5.985-0.188-8.984H176.8z"/>
			<path fill="#FFFFFF" d="M186.775,39.879c-0.278-0.014-0.557-0.024-0.835-0.031c-0.277-0.007-0.557-0.011-0.834-0.011
				c-0.459,0-0.919,0.009-1.378,0.026c-0.459,0.017-0.918,0.043-1.378,0.078l0.021-2.243c0.16,0.021,0.32,0.036,0.48,0.047
				c0.16,0.01,0.319,0.022,0.479,0.037c0.042-1.079,0.081-2.151,0.12-3.219c0.038-1.068,0.057-2.137,0.057-3.208
				c0-0.716-0.01-1.424-0.031-2.124c-0.02-0.699-0.041-1.403-0.063-2.113c-0.181,0-0.365,0.003-0.553,0.01s-0.379,0.018-0.574,0.031
				l0.021-2.181c0.535,0.035,1.071,0.061,1.607,0.078c0.535,0.018,1.074,0.026,1.617,0.026c0.194,0,0.389,0,0.584,0
				s0.393-0.007,0.595-0.021l-0.063,2.076c-0.16,0-0.318-0.003-0.476-0.01c-0.156-0.007-0.314-0.01-0.475-0.01
				c-0.098,1.252-0.166,2.496-0.208,3.73c-0.042,1.235-0.063,2.479-0.063,3.73c0,1.092,0.021,2.181,0.063,3.266
				c0.222,0,0.45-0.003,0.683-0.011c0.234-0.007,0.469-0.017,0.705-0.031L186.775,39.879z"/>
			<path fill="#FFFFFF" d="M190.156,39.149c0,0.167-0.033,0.323-0.099,0.47c-0.066,0.146-0.154,0.273-0.262,0.381
				c-0.107,0.107-0.236,0.193-0.386,0.255s-0.308,0.094-0.475,0.094s-0.322-0.031-0.464-0.094c-0.144-0.063-0.271-0.148-0.381-0.255
				c-0.111-0.108-0.199-0.235-0.262-0.381c-0.063-0.146-0.094-0.303-0.094-0.47s0.031-0.322,0.094-0.464s0.15-0.27,0.262-0.381
				c0.11-0.111,0.237-0.198,0.381-0.261c0.142-0.063,0.297-0.094,0.464-0.094s0.325,0.032,0.475,0.094s0.278,0.149,0.386,0.261
				s0.195,0.238,0.262,0.381C190.123,38.827,190.156,38.982,190.156,39.149z M190.344,24.896c-0.194,1.927-0.348,3.871-0.459,5.833
				c-0.111,1.961-0.177,3.892-0.198,5.791l-1.388,0.042c-0.049-1.913-0.113-3.854-0.192-5.822c-0.08-1.969-0.173-3.909-0.277-5.822
				L190.344,24.896z"/>
		</g>
		<linearGradient id="SVGID_55_" gradientUnits="userSpaceOnUse" x1="139.915" y1="44.981" x2="148.7793" y2="44.981">
			<stop  offset="0" style="stop-color:#010101"/>
			<stop  offset="1" style="stop-color:#D6E1F3"/>
		</linearGradient>
		<path opacity="0.72" fill="url(#SVGID_55_)" d="M147.675,41.832c0,0-2.203-2.73-5.207-2.004
			c-3.002,0.726-3.201,10.186-1.405,10.42s2.558-5.232,3.935-6.091c1.376-0.859,3.782-0.526,3.782-0.526L147.675,41.832z"/>
		<linearGradient id="SVGID_56_" gradientUnits="userSpaceOnUse" x1="54.8818" y1="43.6123" x2="64.6504" y2="43.6123">
			<stop  offset="0" style="stop-color:#D6E1F3"/>
			<stop  offset="1" style="stop-color:#010101"/>
		</linearGradient>
		<path opacity="0.72" fill="url(#SVGID_56_)" d="M54.882,45.118c0,0,1.159-1.313,3.762-0.888c2.604,0.426,4.104,5.768,5.436,5.232
			c1.333-0.537,0.355-9.192-3.165-11.737C60.915,37.725,56.377,41.599,54.882,45.118z"/>
		
			<linearGradient id="SVGID_57_" gradientUnits="userSpaceOnUse" x1="46.688" y1="63.0313" x2="46.688" y2="51.7725" gradientTransform="matrix(0.9999 0.0165 -0.0165 0.9999 1.2872 5.1125)">
			<stop  offset="0" style="stop-color:#CBC0DF"/>
			<stop  offset="1" style="stop-color:#E7DCED"/>
		</linearGradient>
		<path fill="url(#SVGID_57_)" d="M51.347,57.721c0,0-9.208,10.344-8.647,11.083C43.26,69.541,51.898,58.79,51.347,57.721z"/>
	</g>
</g>
</svg>
