<?xml version="1.0" encoding="utf-8"?>
<!-- Generator: Adobe Illustrator 16.0.0, SVG Export Plug-In . SVG Version: 6.00 Build 0)  -->
<!DOCTYPE svg PUBLIC "-//W3C//DTD SVG 1.1//EN" "http://www.w3.org/Graphics/SVG/1.1/DTD/svg11.dtd">
<svg version="1.1" id="Layer_1" xmlns="http://www.w3.org/2000/svg" xmlns:xlink="http://www.w3.org/1999/xlink" x="0px" y="0px"
	 width="194.768px" height="207.952px" viewBox="0 0 194.768 207.952" enable-background="new 0 0 194.768 207.952"
	 xml:space="preserve">
<g>
	<g>
		<path fill="#E6F6FD" d="M42.561,17.609C4.233,29.894-9.779,90.106,18.112,122.522c27.892,32.415,63.764,28.712,84.736,42.641
			c26.127,17.352,52.198,21.393,72.851-13.455C204.243,103.543,105.372-2.522,42.561,17.609z"/>
		<g>
			<path fill="#E6F6FD" d="M192.291,85.221c-3.346-0.34-6.768,0.102-9.916,1.281c-0.508,0.19-1.022,0.408-1.407,0.79
				c-0.745,0.738-0.836,1.93-0.596,2.951c0.59,2.497,2.949,4.394,5.498,4.688c2.549,0.294,5.157-0.896,6.822-2.848
				c0.915-1.072,1.588-2.443,1.464-3.848c-0.124-1.404-1.239-2.766-2.647-2.823c-0.305,0.332-0.076,0.973,0.369,1.037
				L192.291,85.221z"/>
			<path fill="#E6F6FD" d="M41.328,16.049c-3.346-0.34-6.768,0.101-9.916,1.28c-0.508,0.19-1.022,0.408-1.407,0.79
				c-0.745,0.738-0.836,1.93-0.596,2.951c0.59,2.497,2.949,4.394,5.498,4.688c2.549,0.294,5.157-0.896,6.822-2.848
				c0.915-1.072,1.588-2.444,1.464-3.848c-0.124-1.404-1.239-2.766-2.647-2.822c-0.305,0.331-0.076,0.973,0.369,1.036L41.328,16.049
				z"/>
			<path fill="#E6F6FD" d="M184.599,92.172c-1-0.948-2.511-1.322-3.838-0.95c-0.316,1.337-0.148,2.871,0.784,3.881
				c0.932,1.01,2.732,1.223,3.661,0.21c0.928-1.013,0.224-3.065-1.15-3.039L184.599,92.172z"/>
			<path fill="#E6F6FD" d="M172.333,93.467c-0.128-0.627-0.563-1.184-1.143-1.456c-0.144,0.249-0.29,0.505-0.325,0.79
				c-0.035,0.285,0.069,0.607,0.321,0.744c0.345,0.187,0.76-0.042,1.084-0.262c-0.02,0.106-0.039,0.212-0.06,0.319L172.333,93.467z"
				/>
			<path fill="#E6F6FD" d="M174.75,92.711c0.188-0.048,0.392-0.037,0.573,0.033c-0.25,0.431-0.812,0.55-1.308,0.599
				c-0.276,0.027-0.619,0.011-0.744-0.237c-0.087-0.173-0.021-0.381-0.042-0.573c-0.04-0.386-0.412-0.796-0.172-1.1
				c0.137-0.172,0.41-0.173,0.6-0.063c0.189,0.11,0.313,0.302,0.432,0.487c0.256,0.403,0.513,0.807,0.77,1.21L174.75,92.711z"/>
			<path opacity="0.5" fill="#E6F6FD" d="M143.107,99.604c-0.341-0.215-0.749,0.315-0.597,0.688
				c0.152,0.372,0.573,0.544,0.952,0.679c0.257-0.493,0.174-1.141-0.197-1.553L143.107,99.604z"/>
			<path fill="#E6F6FD" d="M144.512,113.883c0.146,0.119,0.131,0.365,0.005,0.506s-0.328,0.19-0.517,0.188
				c-0.111-0.001-0.225-0.019-0.321-0.073c-0.223-0.129-0.284-0.465-0.131-0.67c0.154-0.206,0.481-0.246,0.688-0.094
				c0.206,0.154,0.265,0.469,0.137,0.691L144.512,113.883z"/>
			<path fill="#E6F6FD" d="M169.373,98.696c0.353-0.195,0.31-0.819-0.066-0.963c-0.177,0.113-0.343,0.259-0.415,0.456
				c-0.073,0.196-0.026,0.448,0.15,0.56s0.466,0,0.478-0.208L169.373,98.696z"/>
			<path fill="#E6F6FD" d="M176.622,93.315c0.06-0.479-0.117-0.981-0.462-1.319c-0.251,0.305-0.502,0.611-0.753,0.916
				c-0.118,0.144-0.241,0.297-0.271,0.481c-0.058,0.36,0.312,0.696,0.675,0.67c0.363-0.025,0.663-0.34,0.751-0.694L176.622,93.315z"
				/>
			<path opacity="0.5" fill="#E6F6FD" d="M148.399,109.971c-0.091,0.098-0.183,0.195-0.273,0.293
				c0.077,0.206,0.306,0.352,0.521,0.311c0.216-0.043,0.377-0.287,0.307-0.496c-0.069-0.209-0.373-0.301-0.534-0.15L148.399,109.971
				z"/>
			<path fill="#E6F6FD" d="M171.356,96.556c0.059,0.255,0.441,0.272,0.648,0.112c0.206-0.161,0.314-0.418,0.502-0.6
				c0.194-0.187,0.472-0.283,0.74-0.255c0.155,0.016,0.322,0.086,0.384,0.231c0.042,0.096,0.027,0.207,0.011,0.311
				c-0.084,0.509-0.235,1.026-0.574,1.415c-0.338,0.389-0.9,0.619-1.386,0.443c-0.337-0.122-0.598-0.435-0.655-0.789
				c-0.059-0.354,0.089-0.734,0.369-0.958L171.356,96.556z"/>
			<path fill="#E6F6FD" d="M171.557,89.586c0.02-0.325-0.296-0.609-0.621-0.615c-0.326-0.006-0.627,0.217-0.779,0.504
				c-0.067,0.127-0.1,0.308,0.014,0.395c0.078,0.06,0.188,0.044,0.285,0.026c0.395-0.074,0.789-0.147,1.183-0.221L171.557,89.586z"
				/>
			<path fill="#E6F6FD" d="M156.999,94.369c0.3,0.594-0.172,1.421-0.835,1.466c-0.163-0.487-0.328-1.01-0.194-1.506
				c0.133-0.496,0.698-0.909,1.162-0.687c0.121,0.274,0.242,0.548,0.364,0.823L156.999,94.369z"/>
			<path fill="#E6F6FD" d="M207.744,85.117c0.134-0.067,0.305,0.041,0.353,0.184c0.047,0.143,0.004,0.299-0.054,0.438
				c-0.047,0.113-0.104,0.225-0.198,0.304c-0.184,0.156-0.48,0.142-0.667-0.011s-0.262-0.419-0.212-0.655
				c0.023-0.115,0.08-0.23,0.18-0.292c0.101-0.061,0.251-0.048,0.315,0.05L207.744,85.117z"/>
			<path fill="#E6F6FD" d="M165.981,97.286c-0.102-0.095-0.204-0.19-0.307-0.285c-0.165,0.138-0.343,0.296-0.371,0.51
				c-0.028,0.214,0.203,0.453,0.39,0.345c0.07-0.041,0.111-0.116,0.149-0.188c0.12-0.229,0.241-0.458,0.361-0.688L165.981,97.286z"
				/>
			<path fill="#E6F6FD" d="M159.102,100.145c-0.3-0.167-0.609-0.338-0.95-0.373s-0.724,0.102-0.873,0.41
				c-0.074,0.153-0.083,0.333-0.046,0.499c0.113,0.502,0.691,0.844,1.187,0.704c0.495-0.143,0.805-0.738,0.636-1.225
				L159.102,100.145z"/>
			<path fill="#E6F6FD" d="M155.896,98.475c-0.232,0.017-0.464,0.034-0.696,0.05c-0.031,0.176-0.023,0.358,0.022,0.531
				c0.327,0.104,0.72-0.115,0.804-0.449L155.896,98.475z"/>
			<path fill="#E6F6FD" d="M166.752,79.136c-1.271,0.438-2.44,1.174-3.387,2.131c-0.152,0.154-0.303,0.32-0.379,0.523
				c-0.146,0.394,0.021,0.842,0.279,1.172c0.634,0.809,1.81,1.101,2.785,0.78c0.976-0.321,1.723-1.191,2-2.18
				c0.152-0.543,0.166-1.155-0.114-1.644c-0.281-0.489-0.915-0.796-1.437-0.581c-0.055,0.171,0.136,0.366,0.309,0.314
				L166.752,79.136z"/>
			<path fill="#E6F6FD" d="M182.344,102.17c-0.478-0.426-1.16-0.61-1.787-0.482c0.034,0.285,0.071,0.578,0.213,0.828
				c0.143,0.249,0.419,0.445,0.703,0.402c0.388-0.057,0.583-0.488,0.711-0.859c0.048,0.098,0.096,0.194,0.144,0.291L182.344,102.17z
				"/>
			<path fill="#E6F6FD" d="M178.521,104.769c-0.173-0.048-0.361-0.095-0.527-0.026c-0.16,0.066-0.26,0.224-0.354,0.369
				c-0.257,0.398-0.55,0.773-0.874,1.119c0.783-0.093,1.566-0.186,2.351-0.277c0.063-0.008,0.127-0.015,0.187,0.004
				c0.21,0.061,0.229,0.353,0.372,0.518c0.208,0.243,0.604,0.15,0.883-0.004C182.551,105.37,179.463,105.03,178.521,104.769z"/>
			<path fill="#E6F6FD" d="M185.688,99.479c-0.24-0.419-0.683-0.716-1.161-0.78c-0.018,0.395-0.036,0.79-0.054,1.185
				c-0.009,0.187-0.016,0.382,0.071,0.547c0.169,0.323,0.666,0.371,0.941,0.132c0.276-0.238,0.328-0.67,0.186-1.005L185.688,99.479z
				"/>
			<path fill="#E6F6FD" d="M179.399,99.526c-0.18-0.272-0.603-0.31-0.867-0.12c-0.264,0.19-0.371,0.549-0.321,0.871
				c0.021,0.142,0.104,0.306,0.248,0.308c0.099,0.001,0.178-0.077,0.244-0.149c0.271-0.295,0.543-0.59,0.814-0.885L179.399,99.526z"
				/>
			<path fill="#E6F6FD" d="M180.048,93.908c-0.3-0.167-0.609-0.338-0.95-0.373s-0.724,0.102-0.873,0.41
				c-0.074,0.153-0.083,0.333-0.046,0.498c0.113,0.502,0.691,0.845,1.187,0.704s0.805-0.738,0.635-1.224L180.048,93.908z"/>
			<path fill="#E6F6FD" d="M162.923,91.292c-0.279,0.207-0.226,0.635-0.124,0.967c0.103,0.333,0.212,0.731-0.012,0.997
				c-0.062,0.073-0.152,0.129-0.247,0.12c-0.243-0.022-0.256-0.365-0.343-0.594c-0.069-0.183-0.222-0.319-0.331-0.48
				c-0.261-0.386-0.249-0.935,0.027-1.309c0.224-0.11,0.511-0.075,0.701,0.085c0.189,0.161,0.271,0.439,0.198,0.677L162.923,91.292z
				"/>
			<path fill="#E6F6FD" d="M157.662,98.098c-0.279,0.207-0.226,0.635-0.124,0.967c0.103,0.333,0.212,0.731-0.012,0.997
				c-0.062,0.073-0.152,0.129-0.247,0.12c-0.243-0.022-0.256-0.365-0.343-0.594c-0.07-0.183-0.223-0.319-0.331-0.48
				c-0.261-0.386-0.249-0.935,0.027-1.309c0.224-0.111,0.511-0.076,0.7,0.085c0.19,0.161,0.271,0.439,0.199,0.677L157.662,98.098z"
				/>
			<path fill="#E6F6FD" d="M151.252,98.476c-0.282-0.02-0.568,0.027-0.83,0.135c-0.043,0.017-0.085,0.037-0.116,0.07
				c-0.061,0.064-0.065,0.164-0.042,0.25c0.056,0.208,0.26,0.361,0.475,0.379c0.215,0.018,0.431-0.089,0.565-0.258
				c0.074-0.093,0.127-0.21,0.113-0.328c-0.015-0.118-0.112-0.229-0.23-0.23c-0.024,0.029-0.004,0.082,0.034,0.086L151.252,98.476z"
				/>
			<path fill="#E6F6FD" d="M191.597,91.619c-0.478-0.426-1.16-0.61-1.786-0.482c0.033,0.285,0.07,0.579,0.213,0.828
				c0.142,0.25,0.418,0.445,0.702,0.403c0.388-0.057,0.584-0.488,0.711-0.859c0.048,0.097,0.096,0.194,0.144,0.291L191.597,91.619z"
				/>
			<path fill="#E6F6FD" d="M192.36,97.579c0.166-0.367-0.242-0.841-0.63-0.731c-0.074,0.196-0.119,0.413-0.061,0.613
				c0.06,0.201,0.248,0.374,0.456,0.357c0.209-0.016,0.373-0.278,0.258-0.452L192.36,97.579z"/>
			<path fill="#E6F6FD" d="M182.009,94.952c0.166-0.367-0.242-0.841-0.63-0.731c-0.074,0.195-0.119,0.413-0.06,0.613
				c0.059,0.201,0.247,0.374,0.456,0.357c0.208-0.017,0.373-0.278,0.257-0.452L182.009,94.952z"/>
			<path fill="#E6F6FD" d="M192.666,94.677c0.2,0.169,0.518-0.046,0.587-0.299c0.068-0.252,0.001-0.523,0.043-0.781
				c0.043-0.266,0.208-0.509,0.439-0.647c0.135-0.081,0.31-0.125,0.445-0.046c0.092,0.053,0.146,0.149,0.194,0.243
				c0.238,0.458,0.427,0.962,0.389,1.477s-0.351,1.035-0.844,1.185c-0.344,0.104-0.74,0.01-0.998-0.239
				c-0.259-0.249-0.369-0.641-0.277-0.988L192.666,94.677z"/>
			<path fill="#E6F6FD" d="M162.248,94.763c0.2,0.169,0.518-0.046,0.587-0.298c0.068-0.252,0.001-0.523,0.043-0.781
				c0.043-0.266,0.208-0.509,0.439-0.647c0.135-0.081,0.311-0.125,0.445-0.046c0.092,0.053,0.146,0.149,0.194,0.243
				c0.238,0.458,0.427,0.962,0.389,1.477s-0.351,1.035-0.844,1.185c-0.344,0.104-0.739,0.01-0.998-0.239
				c-0.259-0.249-0.369-0.641-0.277-0.988L162.248,94.763z"/>
			<path fill="#E6F6FD" d="M161.714,91.416c0.2,0.169,0.518-0.046,0.587-0.299c0.068-0.252,0.001-0.523,0.043-0.781
				c0.043-0.266,0.208-0.509,0.439-0.647c0.135-0.081,0.31-0.124,0.445-0.045c0.091,0.053,0.146,0.149,0.194,0.243
				c0.238,0.458,0.427,0.962,0.389,1.477s-0.351,1.035-0.845,1.185c-0.343,0.104-0.739,0.009-0.997-0.239
				c-0.259-0.249-0.369-0.641-0.278-0.988L161.714,91.416z"/>
			<path fill="#E6F6FD" d="M166.93,91.677c0.199,0.169,0.518-0.046,0.587-0.298c0.068-0.252,0.001-0.523,0.043-0.781
				c0.043-0.266,0.208-0.509,0.439-0.647c0.134-0.081,0.31-0.125,0.445-0.046c0.091,0.053,0.146,0.149,0.194,0.243
				c0.237,0.458,0.426,0.962,0.389,1.476c-0.038,0.514-0.352,1.035-0.845,1.185c-0.343,0.104-0.739,0.01-0.998-0.239
				c-0.258-0.249-0.368-0.641-0.277-0.988L166.93,91.677z"/>
			<path fill="#E6F6FD" d="M157.624,127.051c0.199,0.168,0.518-0.047,0.586-0.299c0.069-0.253,0.001-0.523,0.043-0.781
				c0.044-0.266,0.209-0.51,0.439-0.647c0.135-0.081,0.311-0.124,0.446-0.046c0.091,0.053,0.146,0.149,0.194,0.242
				c0.237,0.458,0.426,0.963,0.388,1.477c-0.038,0.515-0.351,1.035-0.844,1.186c-0.343,0.104-0.739,0.01-0.998-0.239
				s-0.368-0.641-0.277-0.987L157.624,127.051z"/>
			<path fill="#E6F6FD" d="M188.799,98.481c-0.139-0.015-0.277-0.03-0.416-0.045c-0.05,0.21-0.097,0.443,0.009,0.631
				c0.104,0.188,0.434,0.241,0.518,0.042c0.032-0.075,0.02-0.16,0.007-0.24c-0.041-0.256-0.081-0.512-0.122-0.767L188.799,98.481z"
				/>
			<path fill="#E6F6FD" d="M164.626,111.573c-0.299-0.167-0.608-0.338-0.949-0.373s-0.724,0.102-0.873,0.41
				c-0.074,0.152-0.083,0.332-0.046,0.498c0.113,0.502,0.691,0.845,1.187,0.703c0.494-0.141,0.804-0.738,0.635-1.225
				L164.626,111.573z"/>
			<path fill="#E6F6FD" d="M183.106,89.58c0.48-0.097,0.938,0.505,0.715,0.942c-0.241,0.126-0.508,0.2-0.779,0.215
				c-0.098-0.284-0.085-0.604,0.035-0.878L183.106,89.58z"/>
			<path opacity="0.5" fill="#E6F6FD" d="M160.567,109.961c-0.187-0.063-0.38-0.125-0.576-0.107
				c-0.195,0.018-0.396,0.137-0.446,0.326c-0.083,0.314,0.257,0.577,0.326,0.895s-0.137,0.682,0.036,0.957
				c0.171,0.273,0.615,0.23,0.833-0.006s0.265-0.58,0.282-0.9c0.015-0.286,0.011-0.587-0.127-0.838
				c-0.137-0.252-0.448-0.43-0.715-0.326H160.567z"/>
			<path fill="#E6F6FD" d="M169.643,94.8c-0.232-1.358-1.219-2.563-2.504-3.06c-1.055,0.882-1.839,2.21-1.697,3.577
				s1.455,2.616,2.806,2.361c1.351-0.255,2.016-2.32,0.899-3.123L169.643,94.8z"/>
			<path fill="#E6F6FD" d="M182.757,86.426c0.046,0.183-0.114,0.372-0.299,0.409c-0.186,0.037-0.377-0.044-0.526-0.159
				c-0.089-0.067-0.17-0.149-0.213-0.251c-0.102-0.236,0.05-0.542,0.296-0.614c0.247-0.073,0.533,0.091,0.606,0.337
				c0.073,0.247-0.068,0.534-0.305,0.636L182.757,86.426z"/>
			<path fill="#E6F6FD" d="M176.429,90.561c-0.195,0.288-0.003,0.674,0.203,0.953c0.207,0.28,0.442,0.62,0.318,0.944
				c-0.033,0.089-0.101,0.172-0.192,0.195c-0.237,0.06-0.363-0.26-0.521-0.447c-0.126-0.149-0.315-0.227-0.472-0.344
				c-0.373-0.278-0.544-0.8-0.407-1.244c0.174-0.179,0.457-0.241,0.689-0.151c0.232,0.089,0.401,0.324,0.411,0.573L176.429,90.561z"
				/>
			<path fill="#E6F6FD" d="M170.091,99.641c-0.132,0.023-0.264,0.046-0.396,0.07c-0.061,0.211,0.035,0.465,0.233,0.561
				c0.197,0.095,0.473-0.004,0.542-0.213c0.069-0.208-0.118-0.464-0.337-0.44L170.091,99.641z"/>
			<path fill="#E6F6FD" d="M176.311,95.219c0.148,0.026,0.22,0.215,0.173,0.358c-0.048,0.143-0.176,0.242-0.306,0.319
				c-0.104,0.063-0.219,0.117-0.341,0.125c-0.24,0.015-0.469-0.174-0.526-0.408c-0.058-0.234,0.041-0.492,0.222-0.652
				c0.088-0.078,0.202-0.136,0.319-0.125c0.117,0.011,0.229,0.111,0.223,0.229L176.311,95.219z"/>
			<path fill="#E6F6FD" d="M180.831,105.817c0.713-1.181,0.755-2.736,0.107-3.953c-1.374-0.023-2.836,0.469-3.624,1.596
				c-0.787,1.126-0.61,2.931,0.578,3.621c1.188,0.689,3.042-0.437,2.723-1.773L180.831,105.817z"/>
			<path fill="#E6F6FD" d="M116.414,179.338c0.713-1.181,0.755-2.736,0.107-3.953c-1.374-0.022-2.836,0.47-3.623,1.596
				s-0.611,2.931,0.577,3.621s3.042-0.437,2.723-1.772L116.414,179.338z"/>
			<path fill="#E6F6FD" d="M187.214,97.114c-0.341-0.215-0.749,0.315-0.597,0.688c0.152,0.372,0.573,0.544,0.952,0.679
				c0.257-0.493,0.174-1.141-0.197-1.554L187.214,97.114z"/>
			<path fill="#E6F6FD" d="M178.356,85.467c-0.131,0.023-0.263,0.047-0.395,0.07c-0.062,0.211,0.034,0.465,0.232,0.561
				s0.474-0.004,0.543-0.213c0.069-0.208-0.119-0.465-0.338-0.44L178.356,85.467z"/>
			<path fill="#E6F6FD" d="M178.413,92.773c-1.445-0.19-2.936-0.041-4.315,0.43c-0.223,0.076-0.448,0.164-0.62,0.325
				c-0.332,0.311-0.387,0.826-0.295,1.272c0.224,1.09,1.223,1.942,2.324,2.102s2.248-0.323,2.994-1.149
				c0.41-0.453,0.72-1.04,0.684-1.65s-0.503-1.215-1.112-1.257c-0.137,0.14-0.046,0.421,0.147,0.454L178.413,92.773z"/>
			<path fill="#E6F6FD" d="M173.946,116.411c-1.001-0.948-2.512-1.322-3.839-0.949c-0.315,1.337-0.147,2.871,0.784,3.881
				c0.933,1.01,2.733,1.223,3.661,0.209c0.929-1.013,0.225-3.064-1.149-3.039L173.946,116.411z"/>
			<path fill="#E6F6FD" d="M153.602,100.212c-0.478-0.426-1.16-0.61-1.786-0.481c0.034,0.285,0.07,0.578,0.213,0.828
				c0.142,0.249,0.418,0.445,0.702,0.403c0.388-0.058,0.584-0.489,0.711-0.859c0.048,0.097,0.096,0.194,0.144,0.291L153.602,100.212
				z"/>
			<path fill="#E6F6FD" d="M149.779,102.811c-0.173-0.047-0.361-0.094-0.527-0.025c-0.16,0.066-0.26,0.223-0.354,0.369
				c-0.257,0.398-0.55,0.772-0.875,1.118c0.784-0.093,1.567-0.185,2.351-0.276c0.063-0.008,0.127-0.016,0.188,0.003
				c0.21,0.062,0.229,0.353,0.371,0.519c0.209,0.242,0.604,0.15,0.884-0.005C153.809,103.412,150.721,103.072,149.779,102.811z"/>
			<path fill="#E6F6FD" d="M174.869,90.378c-0.23,0.015-0.461,0.03-0.692,0.046c0.062,0.458,0.374,0.92,0.831,0.989
				s0.939-0.447,0.725-0.856c-0.133-0.253-0.443-0.597-0.188-0.725L174.869,90.378z"/>
			<path fill="#E6F6FD" d="M160.382,104.016c0.188-0.048,0.391-0.036,0.572,0.033c-0.25,0.432-0.811,0.551-1.307,0.6
				c-0.276,0.026-0.62,0.01-0.745-0.238c-0.087-0.172-0.021-0.381-0.042-0.572c-0.04-0.387-0.412-0.797-0.171-1.101
				c0.136-0.172,0.41-0.173,0.599-0.063c0.189,0.11,0.314,0.302,0.432,0.487c0.257,0.404,0.513,0.807,0.77,1.211L160.382,104.016z"
				/>
			<path fill="#E6F6FD" d="M162.037,111.395c-0.341-0.215-0.749,0.314-0.597,0.688c0.152,0.372,0.573,0.545,0.952,0.679
				c0.257-0.493,0.174-1.141-0.197-1.554L162.037,111.395z"/>
			<path opacity="0.5" fill="#E6F6FD" d="M153.89,108.672c0.146,0.119,0.132,0.365,0.005,0.506c-0.126,0.141-0.328,0.19-0.517,0.188
				c-0.111-0.001-0.225-0.019-0.321-0.074c-0.223-0.128-0.284-0.464-0.13-0.669c0.153-0.207,0.481-0.247,0.687-0.094
				c0.206,0.153,0.265,0.469,0.137,0.691L153.89,108.672z"/>
			<path fill="#E6F6FD" d="M154.365,106.172c0.165-0.367-0.243-0.842-0.63-0.731c-0.074,0.195-0.119,0.413-0.061,0.613
				c0.06,0.2,0.248,0.374,0.456,0.357c0.209-0.017,0.373-0.278,0.258-0.452L154.365,106.172z"/>
			<path fill="#E6F6FD" d="M156.946,97.521c-0.24-0.419-0.682-0.716-1.16-0.78c-0.019,0.395-0.036,0.79-0.055,1.185
				c-0.009,0.186-0.015,0.382,0.072,0.547c0.169,0.323,0.666,0.371,0.941,0.132s0.327-0.67,0.186-1.005L156.946,97.521z"/>
			<path opacity="0.5" fill="#E6F6FD" d="M157.355,113.12c0.209,0.184,0.293,0.498,0.205,0.762
				c-0.088,0.266-0.343,0.465-0.621,0.488c-0.19,0.016-0.425-0.104-0.409-0.293c0.007-0.08,0.057-0.149,0.104-0.213
				c0.212-0.283,0.423-0.565,0.634-0.848c0.043,0.044,0.086,0.088,0.129,0.133L157.355,113.12z"/>
			<path opacity="0.5" fill="#E6F6FD" d="M155.859,118.412c-0.279,0.206-0.226,0.635-0.124,0.967
				c0.103,0.333,0.212,0.731-0.012,0.997c-0.062,0.072-0.152,0.129-0.247,0.119c-0.243-0.021-0.256-0.365-0.343-0.594
				c-0.07-0.182-0.223-0.318-0.331-0.48c-0.261-0.385-0.249-0.935,0.027-1.309c0.224-0.11,0.511-0.076,0.7,0.086
				c0.19,0.16,0.271,0.438,0.199,0.677L155.859,118.412z"/>
			<path opacity="0.5" fill="#E6F6FD" d="M163.351,87.753c-0.279,0.207-0.226,0.635-0.124,0.967
				c0.103,0.333,0.212,0.731-0.012,0.997c-0.062,0.073-0.152,0.129-0.247,0.12c-0.243-0.022-0.256-0.365-0.343-0.594
				c-0.07-0.183-0.222-0.319-0.331-0.48c-0.261-0.386-0.249-0.935,0.027-1.309c0.224-0.111,0.511-0.076,0.701,0.085
				c0.189,0.161,0.271,0.439,0.198,0.677L163.351,87.753z"/>
			<path opacity="0.5" fill="#E6F6FD" d="M152.531,117.399c-0.132-0.021-0.264-0.043-0.396-0.064
				c-0.128,0.18-0.121,0.45,0.034,0.605c0.154,0.156,0.448,0.154,0.582-0.021c0.135-0.174,0.042-0.478-0.173-0.527L152.531,117.399z
				"/>
			<path fill="#E6F6FD" d="M154.67,103.27c0.2,0.17,0.518-0.046,0.587-0.298c0.068-0.253,0.001-0.522,0.043-0.781
				c0.043-0.266,0.208-0.509,0.439-0.647c0.134-0.08,0.31-0.124,0.445-0.045c0.091,0.052,0.146,0.148,0.194,0.242
				c0.238,0.457,0.426,0.962,0.389,1.477c-0.038,0.514-0.352,1.035-0.844,1.186c-0.344,0.104-0.74,0.009-0.998-0.24
				c-0.259-0.248-0.369-0.641-0.278-0.987L154.67,103.27z"/>
			<path fill="#E6F6FD" d="M150.657,97.569c-0.179-0.272-0.602-0.31-0.866-0.12s-0.371,0.549-0.321,0.871
				c0.021,0.142,0.104,0.306,0.247,0.308c0.099,0.001,0.178-0.077,0.244-0.149c0.271-0.295,0.544-0.59,0.815-0.885L150.657,97.569z"
				/>
			<path fill="#E6F6FD" d="M165.852,107.208c0.3,0.594-0.172,1.421-0.836,1.466c-0.162-0.487-0.327-1.009-0.193-1.505
				c0.133-0.496,0.698-0.909,1.162-0.688c0.121,0.274,0.242,0.549,0.363,0.823L165.852,107.208z"/>
			<path opacity="0.5" fill="#E6F6FD" d="M150.804,107.075c-0.139-0.015-0.277-0.029-0.416-0.045
				c-0.05,0.21-0.097,0.443,0.008,0.631c0.105,0.188,0.435,0.241,0.519,0.043c0.032-0.074,0.02-0.16,0.007-0.24
				c-0.041-0.256-0.081-0.512-0.122-0.768L150.804,107.075z"/>
			<path fill="#E6F6FD" d="M184.604,92.436c-0.299-0.167-0.608-0.338-0.949-0.374s-0.725,0.102-0.873,0.41
				c-0.074,0.153-0.084,0.332-0.046,0.498c0.113,0.502,0.691,0.845,1.186,0.703c0.495-0.141,0.805-0.738,0.636-1.224L184.604,92.436
				z"/>
			<path fill="#E6F6FD" d="M174.826,110.266c-0.231,0.017-0.464,0.033-0.696,0.051c-0.031,0.176-0.023,0.357,0.022,0.53
				c0.328,0.104,0.72-0.115,0.804-0.448L174.826,110.266z"/>
			<path fill="#E6F6FD" d="M202.507,90.03c0.146,0.119,0.131,0.366,0.005,0.507c-0.126,0.14-0.328,0.19-0.517,0.188
				c-0.111-0.001-0.226-0.019-0.321-0.074c-0.223-0.128-0.284-0.464-0.131-0.669c0.154-0.206,0.481-0.247,0.688-0.093
				s0.265,0.468,0.137,0.691L202.507,90.03z"/>
			<path fill="#E6F6FD" d="M169.967,107.16c-0.232,0.017-0.464,0.034-0.696,0.051c-0.031,0.176-0.023,0.358,0.022,0.53
				c0.327,0.104,0.72-0.115,0.804-0.449L169.967,107.16z"/>
			<path fill="#E6F6FD" d="M167.917,88.157c-0.142-0.22-0.509-0.108-0.648,0.113c-0.141,0.221-0.155,0.499-0.271,0.733
				c-0.119,0.242-0.349,0.425-0.61,0.49c-0.151,0.038-0.333,0.028-0.439-0.087c-0.071-0.077-0.095-0.186-0.114-0.289
				c-0.093-0.507-0.124-1.045,0.063-1.525s0.64-0.886,1.155-0.884c0.358,0.001,0.709,0.208,0.884,0.522
				c0.174,0.313,0.163,0.721-0.025,1.026L167.917,88.157z"/>
			<path fill="#E6F6FD" d="M179.252,96.178c0.16,0.114,0.326,0.23,0.519,0.271s0.42-0.014,0.523-0.181
				c0.172-0.275-0.076-0.626-0.049-0.95s0.331-0.612,0.247-0.926c-0.083-0.31-0.521-0.4-0.798-0.239
				c-0.278,0.162-0.424,0.476-0.534,0.778c-0.099,0.269-0.184,0.558-0.126,0.838c0.057,0.281,0.302,0.542,0.588,0.522
				L179.252,96.178z"/>
			<path fill="#E6F6FD" d="M164.25,97.305c1.169-0.208,2.289-0.69,3.244-1.395c0.154-0.114,0.308-0.238,0.401-0.405
				c0.182-0.323,0.098-0.736-0.083-1.06c-0.442-0.791-1.428-1.207-2.322-1.06c-0.894,0.146-1.664,0.804-2.041,1.628
				c-0.207,0.453-0.303,0.984-0.125,1.449c0.179,0.465,0.689,0.819,1.173,0.703c0.071-0.142-0.068-0.338-0.226-0.316L164.25,97.305z
				"/>
			<path fill="#E6F6FD" d="M165.482,88.777c-0.045-0.174-0.098-0.361-0.239-0.471c-0.138-0.106-0.323-0.114-0.497-0.124
				c-0.473-0.025-0.944-0.093-1.405-0.202c0.47,0.634,0.939,1.268,1.409,1.901c0.038,0.05,0.076,0.103,0.091,0.164
				c0.051,0.213-0.192,0.375-0.266,0.581c-0.106,0.301,0.17,0.598,0.443,0.764C166.965,92.572,165.725,89.724,165.482,88.777z"/>
			<path fill="#E6F6FD" d="M164.112,97.046c-0.13-0.031-0.26-0.062-0.391-0.092c-0.14,0.17-0.152,0.44-0.009,0.607
				s0.437,0.184,0.583,0.02s0.075-0.474-0.135-0.539L164.112,97.046z"/>
			<path fill="#E6F6FD" d="M162.369,90.879c0.147-0.291-0.03-0.677-0.326-0.812c-0.297-0.135-0.661-0.049-0.916,0.154
				c-0.112,0.09-0.213,0.243-0.144,0.368c0.049,0.086,0.155,0.116,0.251,0.137c0.392,0.089,0.782,0.178,1.174,0.267L162.369,90.879z
				"/>
			<path fill="#E6F6FD" d="M162.55,95.19c0.133-0.626-0.048-1.31-0.47-1.79c-0.23,0.171-0.467,0.35-0.612,0.597
				c-0.146,0.248-0.178,0.584-0.001,0.81c0.243,0.308,0.715,0.263,1.1,0.189c-0.061,0.09-0.12,0.18-0.181,0.27L162.55,95.19z"/>
			<path fill="#E6F6FD" d="M161.234,97.771c0.135,0.139,0.226,0.321,0.256,0.513c-0.498-0.002-0.881-0.429-1.17-0.836
				c-0.161-0.226-0.317-0.532-0.164-0.764c0.106-0.161,0.319-0.208,0.477-0.321c0.314-0.227,0.485-0.754,0.869-0.696
				c0.216,0.033,0.354,0.27,0.352,0.489c-0.001,0.219-0.105,0.422-0.208,0.617c-0.223,0.423-0.445,0.846-0.667,1.27L161.234,97.771z
				"/>
			<path fill="#E6F6FD" d="M165.16,91.56c0.244-0.417,0.282-0.948,0.1-1.395c-0.352,0.181-0.703,0.361-1.055,0.542
				c-0.166,0.085-0.339,0.177-0.439,0.334c-0.195,0.308,0.01,0.763,0.354,0.883s0.744-0.049,0.965-0.339L165.16,91.56z"/>
			<path fill="#E6F6FD" d="M159.041,92.445c-0.048,0.257,0.297,0.426,0.55,0.36c0.254-0.066,0.455-0.259,0.699-0.351
				c0.252-0.095,0.546-0.072,0.78,0.059c0.137,0.077,0.263,0.208,0.262,0.364c-0.001,0.105-0.058,0.201-0.114,0.289
				c-0.278,0.434-0.623,0.848-1.088,1.071c-0.465,0.223-1.072,0.21-1.447-0.143c-0.262-0.246-0.377-0.637-0.289-0.984
				c0.087-0.348,0.373-0.639,0.719-0.732L159.041,92.445z"/>
			<path fill="#E6F6FD" d="M173.953,100.363c-0.004-0.343-0.01-0.696-0.148-1.01c-0.14-0.313-0.448-0.577-0.79-0.554
				c-0.17,0.012-0.33,0.093-0.455,0.208c-0.379,0.348-0.389,1.021-0.021,1.379c0.369,0.359,1.041,0.331,1.378-0.058L173.953,100.363
				z"/>
			<path fill="#E6F6FD" d="M174.917,92.778c0.132-0.626-0.048-1.31-0.471-1.79c-0.23,0.171-0.467,0.349-0.612,0.596
				c-0.146,0.248-0.178,0.584,0,0.81c0.243,0.308,0.714,0.263,1.1,0.189c-0.061,0.09-0.121,0.18-0.182,0.27L174.917,92.778z"/>
			<path fill="#E6F6FD" d="M160.272,98.52c-0.293,0.187-0.27,0.617-0.191,0.956c0.079,0.339,0.16,0.744-0.082,0.993
				c-0.066,0.068-0.161,0.118-0.255,0.103c-0.241-0.039-0.229-0.382-0.301-0.617c-0.056-0.187-0.198-0.333-0.296-0.502
				c-0.232-0.403-0.182-0.95,0.12-1.304c0.23-0.095,0.515-0.04,0.692,0.135c0.178,0.174,0.24,0.457,0.15,0.689L160.272,98.52z"/>
			<path fill="#E6F6FD" d="M186.856,101.708c-0.123,0.053-0.245,0.105-0.368,0.159c-0.011,0.22,0.142,0.444,0.356,0.491
				s0.46-0.113,0.479-0.333s-0.224-0.425-0.431-0.351L186.856,101.708z"/>
			<path fill="#E6F6FD" d="M167.573,93.764c-0.057-0.128-0.112-0.256-0.168-0.384c-0.207,0.061-0.433,0.136-0.544,0.321
				c-0.11,0.185,0.007,0.497,0.222,0.471c0.08-0.01,0.148-0.063,0.211-0.114c0.202-0.163,0.403-0.325,0.604-0.487L167.573,93.764z"
				/>
		</g>
		<g>
			<path fill="#FFFFFF" d="M40.466,142.752c2.129,0.852,4.455,1.204,6.741,1.022c0.368-0.028,0.747-0.075,1.07-0.253
				c0.628-0.344,0.911-1.108,0.945-1.822c0.082-1.748-1.108-3.436-2.725-4.106c-1.615-0.671-3.549-0.381-5.007,0.586
				c-0.801,0.531-1.5,1.304-1.683,2.247c-0.182,0.944,0.293,2.047,1.206,2.348c0.262-0.159,0.232-0.623-0.048-0.748L40.466,142.752z
				"/>
			<path fill="#FFFFFF" d="M46.814,139.64c0.478,0.81,1.397,1.338,2.338,1.343c0.458-0.817,0.636-1.854,0.215-2.691
				c-0.422-0.837-1.563-1.314-2.361-0.824c-0.799,0.489-0.722,1.967,0.184,2.207L46.814,139.64z"/>
			<path fill="#FFFFFF" d="M55.099,141.094c-0.034,0.436,0.147,0.881,0.476,1.169c0.141-0.136,0.284-0.276,0.361-0.457
				c0.076-0.181,0.068-0.411-0.071-0.548c-0.191-0.188-0.506-0.115-0.76-0.031c0.033-0.066,0.065-0.133,0.099-0.198L55.099,141.094z
				"/>
			<path fill="#FFFFFF" d="M53.372,141.135c-0.132-0.003-0.263-0.049-0.369-0.128c0.245-0.236,0.635-0.209,0.97-0.147
				c0.187,0.034,0.408,0.109,0.443,0.295c0.024,0.13-0.058,0.254-0.08,0.384c-0.046,0.261,0.121,0.6-0.094,0.753
				c-0.122,0.088-0.302,0.037-0.405-0.071c-0.103-0.108-0.148-0.257-0.191-0.4c-0.092-0.313-0.185-0.626-0.276-0.938L53.372,141.135
				z"/>
			<path opacity="0.5" fill="#FFFFFF" d="M75.411,142.559c0.183,0.205,0.551-0.066,0.521-0.339s-0.273-0.464-0.497-0.624
				c-0.261,0.275-0.328,0.715-0.162,1.056L75.411,142.559z"/>
			<path fill="#FFFFFF" d="M77.171,132.934c-0.074-0.105-0.018-0.265,0.092-0.333c0.108-0.068,0.25-0.063,0.374-0.026
				c0.072,0.021,0.144,0.055,0.196,0.109c0.122,0.125,0.099,0.357-0.04,0.463c-0.14,0.105-0.362,0.071-0.469-0.068
				c-0.105-0.139-0.085-0.356,0.04-0.479L77.171,132.934z"/>
			<path fill="#FFFFFF" d="M58.021,138.222c-0.268,0.062-0.356,0.479-0.138,0.644c0.137-0.04,0.273-0.105,0.358-0.221
				c0.085-0.114,0.101-0.288,0.006-0.395s-0.305-0.088-0.352,0.047L58.021,138.222z"/>
			<path fill="#FFFFFF" d="M52.258,140.389c-0.129,0.303-0.107,0.665,0.055,0.951c0.223-0.153,0.444-0.307,0.666-0.459
				c0.104-0.072,0.214-0.15,0.268-0.265c0.105-0.226-0.073-0.515-0.316-0.566s-0.499,0.099-0.622,0.314L52.258,140.389z"/>
			<path opacity="0.5" fill="#FFFFFF" d="M73.888,134.768c0.078-0.047,0.156-0.094,0.234-0.141
				c-0.012-0.148-0.135-0.287-0.284-0.301c-0.149-0.013-0.301,0.117-0.294,0.268c0.007,0.149,0.188,0.268,0.322,0.199
				L73.888,134.768z"/>
			<path fill="#FFFFFF" d="M56.319,139.252c0.01-0.178-0.238-0.262-0.403-0.195c-0.166,0.066-0.285,0.215-0.442,0.299
				c-0.162,0.086-0.362,0.098-0.533,0.029c-0.099-0.041-0.195-0.117-0.208-0.225c-0.009-0.07,0.021-0.141,0.052-0.205
				c0.15-0.318,0.347-0.628,0.642-0.82c0.295-0.191,0.706-0.236,0.991-0.029c0.198,0.143,0.311,0.396,0.282,0.641
				c-0.028,0.242-0.196,0.464-0.423,0.558L56.319,139.252z"/>
			<path fill="#FFFFFF" d="M54.878,143.784c-0.074,0.21,0.079,0.455,0.292,0.521c0.212,0.065,0.451-0.024,0.605-0.185
				c0.068-0.07,0.123-0.183,0.064-0.262c-0.04-0.054-0.115-0.064-0.182-0.07c-0.272-0.025-0.545-0.052-0.816-0.078L54.878,143.784z"
				/>
			<path fill="#FFFFFF" d="M65.321,143.382c-0.085-0.445,0.379-0.899,0.823-0.804c0.015,0.35,0.024,0.723-0.156,1.023
				c-0.181,0.3-0.628,0.465-0.891,0.231c-0.028-0.202-0.056-0.405-0.084-0.608L65.321,143.382z"/>
			<path fill="#FFFFFF" d="M30.316,139.918c-0.101,0.02-0.192-0.084-0.196-0.186c-0.004-0.104,0.054-0.197,0.117-0.277
				c0.052-0.065,0.111-0.128,0.187-0.162c0.15-0.068,0.342-0.003,0.436,0.133c0.094,0.135,0.093,0.323,0.017,0.469
				c-0.038,0.07-0.096,0.137-0.174,0.158c-0.077,0.021-0.173-0.016-0.196-0.093L30.316,139.918z"/>
			<path fill="#FFFFFF" d="M59.98,139.784c0.049,0.081,0.098,0.162,0.147,0.244c0.134-0.06,0.28-0.13,0.339-0.265
				s-0.048-0.335-0.19-0.299c-0.054,0.013-0.095,0.056-0.134,0.095c-0.122,0.128-0.244,0.256-0.366,0.383L59.98,139.784z"/>
			<path fill="#FFFFFF" d="M65.027,139.202c0.164,0.165,0.335,0.336,0.552,0.422c0.217,0.088,0.494,0.07,0.649-0.104
				c0.077-0.087,0.117-0.203,0.124-0.318c0.02-0.351-0.295-0.684-0.646-0.684c-0.352-0.001-0.666,0.332-0.646,0.683L65.027,139.202z
				"/>
			<path fill="#FFFFFF" d="M66.815,140.897c0.155,0.033,0.311,0.065,0.466,0.098c0.054-0.109,0.082-0.23,0.085-0.352
				c-0.195-0.129-0.494-0.06-0.611,0.144L66.815,140.897z"/>
			<path fill="#FFFFFF" d="M56.066,151.537c0.916-0.048,1.82-0.311,2.62-0.761c0.129-0.072,0.259-0.152,0.347-0.271
				c0.17-0.23,0.145-0.556,0.037-0.821c-0.264-0.648-0.979-1.062-1.68-1.034c-0.699,0.027-1.353,0.458-1.721,1.055
				c-0.201,0.327-0.325,0.726-0.233,1.099c0.093,0.374,0.45,0.694,0.833,0.65c0.067-0.102-0.021-0.266-0.144-0.264L56.066,151.537z"
				/>
			<path fill="#FFFFFF" d="M50.169,133.508c0.233,0.369,0.646,0.618,1.081,0.652c0.031-0.193,0.063-0.393,0.016-0.583
				c-0.046-0.19-0.19-0.37-0.385-0.396c-0.265-0.035-0.475,0.21-0.627,0.43c-0.014-0.072-0.026-0.146-0.04-0.219L50.169,133.508z"/>
			<path fill="#FFFFFF" d="M53.165,132.523c0.104,0.063,0.219,0.13,0.34,0.116c0.118-0.014,0.213-0.098,0.302-0.176
				c0.243-0.213,0.506-0.403,0.783-0.568c-0.53-0.087-1.062-0.174-1.593-0.26c-0.042-0.008-0.086-0.015-0.122-0.038
				c-0.126-0.079-0.084-0.274-0.146-0.409c-0.092-0.199-0.368-0.212-0.58-0.163C50.634,131.373,52.595,132.175,53.165,132.523z"/>
			<path fill="#FFFFFF" d="M47.472,134.645c0.079,0.32,0.313,0.598,0.614,0.729c0.086-0.255,0.172-0.511,0.258-0.767
				c0.041-0.12,0.082-0.248,0.057-0.372c-0.051-0.243-0.367-0.368-0.593-0.264s-0.341,0.378-0.311,0.624L47.472,134.645z"/>
			<path fill="#FFFFFF" d="M31.346,134.658c0.079-0.047,0.157-0.094,0.235-0.141c-0.013-0.149-0.135-0.288-0.284-0.301
				s-0.301,0.117-0.295,0.267c0.007,0.15,0.188,0.268,0.322,0.199L31.346,134.658z"/>
			<path fill="#FFFFFF" d="M51.604,135.795c0.066,0.211,0.337,0.316,0.546,0.241s0.347-0.29,0.374-0.511
				c0.013-0.098-0.011-0.221-0.104-0.248c-0.064-0.02-0.131,0.018-0.188,0.053c-0.233,0.143-0.467,0.284-0.7,0.427L51.604,135.795z"
				/>
			<path fill="#FFFFFF" d="M50.124,139.356c0.164,0.166,0.336,0.336,0.553,0.424c0.217,0.087,0.493,0.069,0.649-0.105
				c0.077-0.086,0.116-0.201,0.123-0.317c0.021-0.351-0.295-0.684-0.646-0.685c-0.351,0-0.666,0.334-0.646,0.684H50.124z"/>
			<path fill="#FFFFFF" d="M60.859,144.288c0.222-0.084,0.267-0.374,0.263-0.611c-0.005-0.236-0.002-0.519,0.195-0.65
				c0.054-0.036,0.123-0.057,0.184-0.033c0.156,0.061,0.1,0.288,0.113,0.454c0.012,0.133,0.086,0.251,0.127,0.378
				c0.099,0.301-0.013,0.659-0.264,0.853c-0.167,0.03-0.349-0.046-0.443-0.188c-0.094-0.141-0.096-0.338-0.003-0.48L60.859,144.288z
				"/>
			<path fill="#FFFFFF" d="M65.586,140.813c0.222-0.082,0.267-0.373,0.263-0.61c-0.005-0.237-0.002-0.519,0.195-0.651
				c0.054-0.035,0.123-0.056,0.184-0.031c0.156,0.06,0.1,0.287,0.114,0.453c0.011,0.133,0.085,0.25,0.126,0.377
				c0.099,0.302-0.013,0.66-0.264,0.854c-0.167,0.03-0.349-0.047-0.443-0.188c-0.094-0.142-0.096-0.34-0.003-0.481L65.586,140.813z"
				/>
			<path fill="#FFFFFF" d="M69.859,141.769c0.182,0.065,0.378,0.089,0.569,0.067c0.031-0.004,0.063-0.008,0.09-0.023
				c0.052-0.031,0.073-0.096,0.074-0.156c0.002-0.147-0.103-0.286-0.24-0.338c-0.138-0.053-0.299-0.022-0.419,0.063
				c-0.066,0.047-0.123,0.113-0.136,0.193s0.03,0.172,0.108,0.194c0.021-0.015,0.018-0.053-0.007-0.063L69.859,141.769z"/>
			<path fill="#FFFFFF" d="M42.123,138.688c0.232,0.369,0.646,0.617,1.08,0.651c0.031-0.192,0.063-0.393,0.016-0.583
				c-0.046-0.189-0.19-0.369-0.385-0.396c-0.265-0.035-0.474,0.21-0.627,0.431c-0.014-0.073-0.026-0.146-0.04-0.219L42.123,138.688z
				"/>
			<path fill="#FFFFFF" d="M42.742,134.638c-0.178,0.21,0.001,0.597,0.275,0.598c0.085-0.114,0.155-0.248,0.154-0.391
				s-0.092-0.292-0.231-0.32s-0.297,0.112-0.254,0.248L42.742,134.638z"/>
			<path fill="#FFFFFF" d="M49.034,138.303c-0.178,0.21,0.001,0.598,0.275,0.598c0.085-0.113,0.156-0.248,0.154-0.391
				c-0.001-0.143-0.092-0.291-0.231-0.32c-0.14-0.027-0.297,0.113-0.254,0.249L49.034,138.303z"/>
			<path fill="#FFFFFF" d="M41.996,136.483c-0.099-0.148-0.348-0.066-0.44,0.086c-0.092,0.152-0.099,0.342-0.175,0.504
				c-0.078,0.166-0.232,0.295-0.409,0.342c-0.104,0.027-0.227,0.023-0.301-0.055c-0.05-0.051-0.068-0.125-0.082-0.195
				c-0.07-0.344-0.099-0.711,0.022-1.041s0.425-0.611,0.776-0.618c0.244-0.004,0.486,0.133,0.609,0.345
				c0.122,0.211,0.121,0.489-0.004,0.699L41.996,136.483z"/>
			<path fill="#FFFFFF" d="M61.954,142.138c-0.1-0.148-0.349-0.067-0.44,0.085c-0.093,0.153-0.1,0.344-0.176,0.505
				c-0.078,0.166-0.231,0.294-0.409,0.342c-0.104,0.027-0.227,0.023-0.301-0.054c-0.05-0.052-0.067-0.125-0.082-0.195
				c-0.069-0.346-0.099-0.711,0.023-1.041c0.121-0.33,0.424-0.613,0.775-0.619c0.244-0.004,0.486,0.133,0.609,0.345
				s0.121,0.489-0.004,0.7L61.954,142.138z"/>
			<path fill="#FFFFFF" d="M61.674,144.433c-0.099-0.148-0.348-0.067-0.44,0.086c-0.093,0.152-0.099,0.343-0.175,0.504
				c-0.078,0.166-0.232,0.294-0.41,0.342c-0.103,0.027-0.227,0.023-0.301-0.054c-0.05-0.052-0.067-0.125-0.081-0.195
				c-0.07-0.346-0.099-0.711,0.022-1.041s0.424-0.613,0.775-0.619c0.245-0.004,0.487,0.133,0.609,0.345
				c0.123,0.212,0.121,0.489-0.003,0.7L61.674,144.433z"/>
			<path fill="#FFFFFF" d="M58.304,143.282c-0.099-0.148-0.348-0.066-0.44,0.086s-0.099,0.343-0.175,0.504
				c-0.078,0.166-0.232,0.295-0.41,0.342c-0.103,0.027-0.227,0.023-0.301-0.053c-0.05-0.053-0.067-0.126-0.081-0.196
				c-0.07-0.345-0.1-0.711,0.022-1.04c0.121-0.33,0.424-0.613,0.775-0.619c0.245-0.004,0.487,0.133,0.609,0.344
				c0.123,0.212,0.122,0.49-0.003,0.7L58.304,143.282z"/>
			<path fill="#FFFFFF" d="M71.048,121.84c-0.1-0.148-0.349-0.067-0.44,0.085c-0.093,0.152-0.1,0.343-0.176,0.504
				c-0.078,0.166-0.231,0.295-0.409,0.342c-0.104,0.028-0.227,0.023-0.301-0.054c-0.05-0.051-0.067-0.125-0.082-0.195
				c-0.069-0.345-0.099-0.711,0.023-1.041c0.121-0.33,0.424-0.612,0.775-0.618c0.245-0.005,0.486,0.132,0.609,0.344
				s0.121,0.489-0.004,0.7L71.048,121.84z"/>
			<path fill="#FFFFFF" d="M45.245,134.715c0.088,0.035,0.177,0.071,0.265,0.107c0.072-0.129,0.146-0.272,0.113-0.416
				c-0.034-0.143-0.239-0.238-0.332-0.125c-0.035,0.043-0.043,0.102-0.05,0.156c-0.021,0.176-0.042,0.351-0.063,0.525
				L45.245,134.715z"/>
			<path fill="#FFFFFF" d="M63.55,130.671c0.165,0.165,0.336,0.336,0.553,0.423s0.493,0.069,0.649-0.104
				c0.077-0.087,0.117-0.202,0.123-0.318c0.021-0.351-0.295-0.684-0.646-0.684s-0.666,0.333-0.646,0.683L63.55,130.671z"/>
			<path fill="#FFFFFF" d="M47.306,141.62c-0.333-0.027-0.52-0.508-0.292-0.752c0.182-0.037,0.371-0.035,0.551,0.006
				c0.012,0.203-0.057,0.411-0.188,0.568L47.306,141.62z"/>
			<path opacity="0.5" fill="#FFFFFF" d="M65.91,132.491c0.11,0.075,0.226,0.152,0.356,0.178c0.132,0.025,0.286-0.015,0.354-0.13
				c0.113-0.19-0.06-0.427-0.046-0.647c0.015-0.221,0.218-0.422,0.156-0.635c-0.061-0.211-0.36-0.266-0.547-0.152
				c-0.188,0.114-0.283,0.33-0.354,0.537c-0.063,0.186-0.117,0.383-0.074,0.574c0.042,0.19,0.213,0.365,0.407,0.348L65.91,132.491z"
				/>
			<path fill="#FFFFFF" d="M57.112,140.725c-0.103,0.935,0.318,1.909,1.067,2.477c0.857-0.381,1.62-1.104,1.784-2.027
				c0.164-0.922-0.463-1.988-1.396-2.074c-0.934-0.086-1.757,1.143-1.177,1.878L57.112,140.725z"/>
			<path fill="#FFFFFF" d="M46.942,143.752c0.005-0.129,0.145-0.223,0.273-0.211c0.129,0.01,0.238,0.1,0.315,0.202
				c0.045,0.062,0.083,0.13,0.092,0.205c0.022,0.174-0.135,0.346-0.31,0.347c-0.175,0.002-0.332-0.159-0.334-0.334
				c-0.002-0.176,0.146-0.338,0.319-0.359L46.942,143.752z"/>
			<path fill="#FFFFFF" d="M51.868,142.23c0.182-0.151,0.128-0.44,0.045-0.663c-0.082-0.223-0.173-0.489-0.031-0.679
				c0.039-0.052,0.099-0.094,0.163-0.092c0.167,0.005,0.189,0.239,0.258,0.391c0.055,0.122,0.163,0.208,0.244,0.313
				c0.192,0.252,0.207,0.627,0.033,0.893c-0.147,0.084-0.345,0.072-0.479-0.03c-0.137-0.103-0.203-0.288-0.163-0.453L51.868,142.23z
				"/>
			<path fill="#FFFFFF" d="M57.727,137.467c0.091,0.01,0.182,0.02,0.272,0.028c0.08-0.127,0.064-0.312-0.047-0.411
				c-0.112-0.1-0.312-0.086-0.396,0.038c-0.085,0.124-0.01,0.327,0.138,0.353L57.727,137.467z"/>
			<path fill="#FFFFFF" d="M52.819,139.198c-0.092-0.045-0.104-0.182-0.045-0.266c0.058-0.085,0.16-0.127,0.26-0.152
				c0.08-0.021,0.165-0.035,0.246-0.018c0.161,0.035,0.275,0.202,0.27,0.367c-0.006,0.164-0.119,0.314-0.269,0.385
				c-0.072,0.035-0.157,0.052-0.232,0.022c-0.074-0.029-0.129-0.116-0.103-0.192L52.819,139.198z"/>
			<path fill="#FFFFFF" d="M51.846,131.403c-0.688,0.64-1.008,1.651-0.813,2.57c0.896,0.273,1.948,0.226,2.676-0.365
				c0.728-0.59,0.95-1.807,0.301-2.482s-2.076-0.285-2.118,0.651L51.846,131.403z"/>
			<path fill="#FFFFFF" d="M46.028,135.909c0.183,0.205,0.55-0.066,0.52-0.339s-0.273-0.464-0.497-0.624
				c-0.26,0.275-0.328,0.715-0.162,1.056L46.028,135.909z"/>
			<path fill="#FFFFFF" d="M49.648,145.208c0.091,0.01,0.181,0.019,0.271,0.028c0.08-0.127,0.064-0.312-0.047-0.411
				c-0.112-0.1-0.312-0.086-0.396,0.037c-0.085,0.124-0.01,0.327,0.138,0.353L49.648,145.208z"/>
			<path fill="#FFFFFF" d="M50.982,140.408c0.913,0.396,1.917,0.578,2.91,0.528c0.16-0.008,0.325-0.023,0.468-0.097
				c0.276-0.142,0.409-0.469,0.433-0.778c0.058-0.757-0.438-1.503-1.13-1.814c-0.691-0.312-1.534-0.21-2.179,0.191
				c-0.354,0.22-0.667,0.546-0.758,0.953c-0.091,0.406,0.102,0.891,0.494,1.033c0.115-0.066,0.108-0.268-0.012-0.326L50.982,140.408
				z"/>
			<path fill="#FFFFFF" d="M58.35,125.75c0.478,0.809,1.397,1.338,2.338,1.343c0.458-0.817,0.636-1.854,0.214-2.691
				c-0.421-0.837-1.562-1.315-2.36-0.825s-0.723,1.967,0.184,2.209L58.35,125.75z"/>
			<path fill="#FFFFFF" d="M68.645,140.189c0.232,0.369,0.646,0.618,1.08,0.651c0.031-0.193,0.063-0.393,0.016-0.582
				c-0.046-0.19-0.19-0.371-0.385-0.396c-0.265-0.035-0.474,0.211-0.627,0.43c-0.014-0.072-0.026-0.145-0.04-0.217L68.645,140.189z"
				/>
			<path fill="#FFFFFF" d="M71.639,139.204c0.104,0.063,0.219,0.129,0.341,0.115c0.117-0.013,0.212-0.098,0.301-0.175
				c0.244-0.213,0.506-0.403,0.783-0.569c-0.53-0.086-1.062-0.173-1.593-0.26c-0.042-0.007-0.085-0.014-0.121-0.037
				c-0.126-0.08-0.084-0.274-0.146-0.41c-0.092-0.197-0.368-0.211-0.58-0.162C69.11,138.053,71.07,138.856,71.639,139.204z"/>
			<path fill="#FFFFFF" d="M52.856,142.643c0.154,0.033,0.309,0.066,0.463,0.1c0.045-0.312-0.073-0.674-0.359-0.805
				c-0.287-0.131-0.699,0.117-0.636,0.426c0.04,0.191,0.179,0.475-0.013,0.511L52.856,142.643z"/>
			<path fill="#FFFFFF" d="M64.915,136.422c-0.133-0.004-0.264-0.049-0.369-0.129c0.244-0.236,0.635-0.209,0.969-0.147
				c0.187,0.034,0.408,0.109,0.443,0.296c0.024,0.129-0.057,0.253-0.08,0.383c-0.046,0.261,0.121,0.6-0.094,0.754
				c-0.121,0.087-0.302,0.036-0.404-0.072c-0.104-0.107-0.149-0.257-0.191-0.4c-0.093-0.313-0.186-0.625-0.277-0.938L64.915,136.422
				z"/>
			<path fill="#FFFFFF" d="M65.215,131.274c0.183,0.205,0.55-0.065,0.52-0.338c-0.03-0.273-0.273-0.465-0.496-0.624
				c-0.261,0.274-0.328,0.715-0.163,1.056L65.215,131.274z"/>
			<path opacity="0.5" fill="#FFFFFF" d="M70.044,134.589c-0.073-0.105-0.018-0.265,0.092-0.333s0.25-0.063,0.374-0.026
				c0.072,0.021,0.145,0.054,0.196,0.108c0.122,0.127,0.1,0.357-0.04,0.464s-0.361,0.071-0.468-0.067
				c-0.106-0.14-0.086-0.357,0.04-0.479L70.044,134.589z"/>
			<path fill="#FFFFFF" d="M69.264,136.139c-0.178,0.209,0.001,0.597,0.275,0.598c0.085-0.114,0.155-0.248,0.154-0.391
				s-0.092-0.292-0.231-0.32s-0.297,0.112-0.254,0.248L69.264,136.139z"/>
			<path fill="#FFFFFF" d="M65.947,141.326c0.079,0.319,0.313,0.598,0.614,0.729c0.086-0.256,0.173-0.512,0.259-0.767
				c0.04-0.12,0.081-0.248,0.056-0.372c-0.051-0.244-0.367-0.368-0.593-0.264s-0.341,0.377-0.311,0.624L65.947,141.326z"/>
			<path opacity="0.5" fill="#FFFFFF" d="M68.608,131.024c-0.103-0.161-0.099-0.383,0.009-0.539c0.107-0.157,0.313-0.24,0.499-0.203
				c0.128,0.025,0.259,0.146,0.213,0.27c-0.02,0.051-0.065,0.086-0.108,0.119c-0.191,0.146-0.383,0.291-0.574,0.437
				c-0.021-0.036-0.04-0.073-0.061-0.11L68.608,131.024z"/>
			<path opacity="0.5" fill="#FFFFFF" d="M70.583,127.834c0.223-0.083,0.268-0.373,0.263-0.61s-0.002-0.519,0.195-0.651
				c0.054-0.035,0.124-0.056,0.185-0.032c0.155,0.06,0.099,0.288,0.113,0.454c0.012,0.133,0.085,0.25,0.127,0.377
				c0.098,0.302-0.013,0.66-0.265,0.853c-0.167,0.03-0.349-0.046-0.443-0.188c-0.094-0.142-0.095-0.339-0.003-0.481L70.583,127.834z
				"/>
			<path opacity="0.5" fill="#FFFFFF" d="M59.914,146.527c0.223-0.083,0.268-0.374,0.263-0.61c-0.004-0.237-0.002-0.52,0.195-0.651
				c0.054-0.036,0.124-0.056,0.185-0.032c0.155,0.061,0.099,0.287,0.113,0.454c0.011,0.132,0.086,0.25,0.127,0.377
				c0.098,0.302-0.013,0.659-0.265,0.853c-0.167,0.03-0.349-0.046-0.442-0.188c-0.095-0.142-0.096-0.339-0.004-0.481L59.914,146.527
				z"/>
			<path opacity="0.5" fill="#FFFFFF" d="M72.574,129.124c0.083,0.039,0.165,0.077,0.248,0.116c0.117-0.093,0.164-0.272,0.091-0.403
				c-0.072-0.132-0.265-0.185-0.386-0.096c-0.12,0.089-0.117,0.305,0.015,0.378L72.574,129.124z"/>
			<path fill="#FFFFFF" d="M68.518,137.984c-0.099-0.148-0.348-0.067-0.44,0.085c-0.093,0.153-0.099,0.344-0.175,0.504
				c-0.078,0.166-0.232,0.295-0.409,0.343c-0.104,0.027-0.227,0.022-0.301-0.054c-0.05-0.052-0.068-0.125-0.082-0.195
				c-0.07-0.346-0.099-0.711,0.022-1.041s0.425-0.613,0.776-0.619c0.244-0.004,0.486,0.133,0.609,0.344
				c0.122,0.213,0.121,0.49-0.004,0.701L68.518,137.984z"/>
			<path fill="#FFFFFF" d="M70.079,142.475c0.067,0.213,0.337,0.316,0.546,0.242c0.209-0.075,0.347-0.291,0.374-0.511
				c0.013-0.097-0.011-0.22-0.104-0.249c-0.064-0.019-0.131,0.018-0.188,0.053c-0.233,0.143-0.467,0.285-0.7,0.428L70.079,142.475z"
				/>
			<path fill="#FFFFFF" d="M61.927,133.303c-0.085-0.445,0.38-0.899,0.823-0.805c0.016,0.351,0.025,0.724-0.155,1.023
				c-0.181,0.301-0.629,0.465-0.891,0.232c-0.028-0.203-0.057-0.405-0.085-0.607L61.927,133.303z"/>
			<path opacity="0.5" fill="#FFFFFF" d="M71.767,136.215c0.088,0.036,0.177,0.072,0.265,0.107c0.072-0.127,0.146-0.271,0.113-0.414
				c-0.034-0.144-0.239-0.24-0.332-0.125c-0.035,0.043-0.043,0.101-0.05,0.155c-0.021,0.175-0.042,0.351-0.063,0.526L71.767,136.215
				z"/>
			<path fill="#FFFFFF" d="M46.86,139.465c0.165,0.166,0.336,0.336,0.553,0.424c0.217,0.087,0.493,0.069,0.649-0.105
				c0.077-0.086,0.117-0.201,0.124-0.317c0.02-0.351-0.295-0.684-0.646-0.685c-0.351,0-0.666,0.334-0.646,0.684H46.86z"/>
			<path fill="#FFFFFF" d="M56.619,129.613c0.155,0.032,0.311,0.065,0.466,0.098c0.054-0.109,0.083-0.229,0.085-0.353
				c-0.195-0.129-0.493-0.059-0.611,0.145L56.619,129.613z"/>
			<path fill="#FFFFFF" d="M34.671,137.682c-0.073-0.106-0.018-0.266,0.092-0.334s0.251-0.063,0.374-0.025
				c0.072,0.021,0.145,0.054,0.197,0.108c0.121,0.126,0.099,0.357-0.041,0.464c-0.139,0.105-0.361,0.07-0.468-0.068
				c-0.106-0.14-0.085-0.357,0.04-0.479L34.671,137.682z"/>
			<path fill="#FFFFFF" d="M59.22,132.562c0.155,0.032,0.312,0.065,0.467,0.098c0.053-0.109,0.082-0.23,0.085-0.353
				c-0.195-0.129-0.494-0.059-0.611,0.144L59.22,132.562z"/>
			<path fill="#FFFFFF" d="M56.997,145.405c0.052,0.171,0.313,0.166,0.446,0.047c0.134-0.118,0.195-0.298,0.315-0.43
				c0.124-0.136,0.309-0.213,0.492-0.207c0.107,0.005,0.224,0.045,0.271,0.141c0.033,0.063,0.028,0.14,0.021,0.211
				c-0.035,0.35-0.115,0.708-0.328,0.988c-0.213,0.279-0.586,0.46-0.924,0.362c-0.234-0.067-0.426-0.27-0.48-0.508
				c-0.056-0.238,0.027-0.504,0.209-0.668L56.997,145.405z"/>
			<path fill="#FFFFFF" d="M51.071,138.018c-0.083-0.105-0.171-0.213-0.289-0.275s-0.277-0.07-0.377,0.02
				c-0.164,0.148-0.067,0.426-0.146,0.633c-0.078,0.207-0.332,0.339-0.335,0.561c-0.004,0.219,0.266,0.359,0.478,0.307
				c0.213-0.055,0.367-0.232,0.496-0.41c0.115-0.157,0.226-0.331,0.24-0.525c0.016-0.195-0.096-0.412-0.287-0.453L51.071,138.018z"
				/>
			<path fill="#FFFFFF" d="M61.118,140.096c-0.806-0.084-1.63,0.021-2.389,0.305c-0.122,0.046-0.246,0.098-0.339,0.189
				c-0.18,0.178-0.202,0.465-0.145,0.711c0.142,0.602,0.709,1.06,1.323,1.131c0.613,0.072,1.242-0.214,1.644-0.684
				c0.221-0.258,0.384-0.588,0.354-0.927c-0.03-0.338-0.298-0.667-0.638-0.681c-0.073,0.08-0.019,0.234,0.089,0.25L61.118,140.096z"
				/>
			<path fill="#FFFFFF" d="M58.709,145.456c-0.004,0.122-0.004,0.255,0.068,0.354c0.07,0.096,0.19,0.136,0.303,0.174
				c0.305,0.105,0.602,0.238,0.883,0.396c-0.189-0.504-0.378-1.007-0.566-1.511c-0.016-0.04-0.031-0.081-0.029-0.124
				c0.007-0.149,0.197-0.21,0.283-0.331c0.127-0.178,0.001-0.424-0.147-0.584C58.449,142.689,58.728,144.79,58.709,145.456z"/>
			<path fill="#FFFFFF" d="M61.161,140.292c0.079,0.045,0.158,0.089,0.238,0.133c0.123-0.084,0.183-0.26,0.119-0.396
				c-0.063-0.136-0.251-0.202-0.378-0.122s-0.138,0.297-0.013,0.378L61.161,140.292z"/>
			<path fill="#FFFFFF" d="M61.145,144.662c-0.151,0.163-0.107,0.449,0.062,0.594c0.169,0.144,0.424,0.156,0.629,0.07
				c0.091-0.037,0.186-0.119,0.163-0.214c-0.016-0.065-0.08-0.105-0.139-0.138c-0.239-0.132-0.479-0.263-0.719-0.395L61.145,144.662
				z"/>
			<path fill="#FFFFFF" d="M61.835,141.801c-0.204,0.386-0.215,0.868-0.028,1.262c0.184-0.068,0.372-0.141,0.514-0.275
				s0.227-0.35,0.152-0.531c-0.102-0.248-0.419-0.307-0.686-0.33c0.057-0.048,0.113-0.096,0.17-0.143L61.835,141.801z"/>
			<path fill="#FFFFFF" d="M63.183,140.356c-0.063-0.116-0.088-0.252-0.072-0.384c0.327,0.095,0.497,0.447,0.61,0.768
				c0.063,0.179,0.108,0.409-0.035,0.532c-0.101,0.086-0.249,0.076-0.373,0.121c-0.249,0.09-0.46,0.402-0.7,0.293
				c-0.136-0.063-0.182-0.244-0.14-0.387c0.043-0.144,0.149-0.258,0.253-0.365c0.226-0.236,0.45-0.472,0.676-0.707L63.183,140.356z"
				/>
			<path fill="#FFFFFF" d="M59.443,143.692c-0.238,0.227-0.362,0.568-0.327,0.895c0.265-0.052,0.529-0.104,0.793-0.156
				c0.125-0.025,0.256-0.053,0.352-0.137c0.186-0.165,0.137-0.502-0.066-0.646s-0.497-0.108-0.696,0.041L59.443,143.692z"/>
			<path fill="#FFFFFF" d="M63.622,144.26c0.079-0.16-0.115-0.336-0.294-0.34c-0.178-0.004-0.347,0.084-0.524,0.099
				c-0.183,0.015-0.371-0.055-0.5-0.185c-0.075-0.076-0.133-0.186-0.104-0.288c0.021-0.069,0.075-0.121,0.13-0.169
				c0.264-0.231,0.567-0.438,0.914-0.498c0.347-0.059,0.742,0.064,0.922,0.366c0.126,0.21,0.127,0.488,0.005,0.7
				c-0.123,0.211-0.364,0.348-0.609,0.345L63.622,144.26z"/>
			<path fill="#FFFFFF" d="M55.332,136.269c-0.062,0.226-0.124,0.458-0.092,0.69c0.032,0.23,0.186,0.462,0.414,0.511
				c0.113,0.024,0.233,0.001,0.337-0.052c0.314-0.156,0.446-0.595,0.272-0.899c-0.175-0.305-0.62-0.412-0.914-0.222L55.332,136.269z
				"/>
			<path fill="#FFFFFF" d="M53.275,141.061c-0.204,0.385-0.215,0.867-0.027,1.261c0.183-0.069,0.371-0.142,0.513-0.276
				s0.227-0.35,0.152-0.53c-0.102-0.247-0.419-0.307-0.685-0.331c0.056-0.047,0.112-0.095,0.169-0.143L53.275,141.061z"/>
			<path fill="#FFFFFF" d="M63.955,140.046c0.227-0.067,0.292-0.354,0.305-0.591c0.012-0.236,0.034-0.518,0.24-0.635
				c0.057-0.033,0.128-0.048,0.187-0.02c0.15,0.07,0.078,0.293,0.081,0.46c0.002,0.134,0.067,0.257,0.1,0.386
				c0.077,0.308-0.059,0.656-0.323,0.832c-0.169,0.019-0.345-0.071-0.429-0.219s-0.071-0.344,0.03-0.48L63.955,140.046z"/>
			<path fill="#FFFFFF" d="M47.125,132.965c0.091-0.012,0.181-0.023,0.271-0.035c0.048-0.143-0.01-0.318-0.142-0.39
				s-0.322-0.012-0.376,0.128c-0.054,0.141,0.067,0.32,0.217,0.311L47.125,132.965z"/>
			<path fill="#FFFFFF" d="M58.275,141.793c0.013,0.094,0.025,0.188,0.038,0.283c0.147-0.002,0.31-0.008,0.417-0.108
				s0.088-0.327-0.057-0.351c-0.055-0.009-0.109,0.014-0.16,0.035c-0.162,0.068-0.325,0.137-0.488,0.205L58.275,141.793z"/>
		</g>
	</g>
	
		<radialGradient id="SVGID_1_" cx="92.2119" cy="67.604" r="40.7888" gradientTransform="matrix(1 0 0 0.2225 0 184.4546)" gradientUnits="userSpaceOnUse">
		<stop  offset="0" style="stop-color:#B89ECB"/>
		<stop  offset="0.3883" style="stop-color:#D9BEDC"/>
		<stop  offset="1" style="stop-color:#FFFFFF"/>
	</radialGradient>
	<ellipse opacity="0.5" fill="url(#SVGID_1_)" cx="92.212" cy="199.497" rx="40.785" ry="9.076"/>
	<g>
		<linearGradient id="SVGID_2_" gradientUnits="userSpaceOnUse" x1="96.7363" y1="176.5562" x2="104.7788" y2="148.7018">
			<stop  offset="0" style="stop-color:#CBC0DF"/>
			<stop  offset="1" style="stop-color:#D1BDDC"/>
		</linearGradient>
		<path fill="url(#SVGID_2_)" d="M113.483,154.845c0,0-1.863,2.819-4.369,6.43c-4.057,5.861-9.794,13.808-11.97,15.177
			c-1.047,0.659-1.657-1.772-1.987-5.516C94.366,162.116,95.083,146,95.083,146S108.66,148.901,113.483,154.845z"/>
		<linearGradient id="SVGID_3_" gradientUnits="userSpaceOnUse" x1="104.1333" y1="170.936" x2="104.1333" y2="145.9995">
			<stop  offset="0" style="stop-color:#90A3D3"/>
			<stop  offset="1" style="stop-color:#745FA9"/>
		</linearGradient>
		<path opacity="0.5" fill="url(#SVGID_3_)" d="M113.483,154.845c0,0-1.863,2.819-4.369,6.43c0,0-3.686-0.594-9.9,3.133
			c-2.358,1.418-3.528,3.94-4.057,6.528C94.366,162.116,95.083,146,95.083,146S108.66,148.901,113.483,154.845z"/>
		<linearGradient id="SVGID_4_" gradientUnits="userSpaceOnUse" x1="127.6577" y1="138.2515" x2="133.9409" y2="88.2241">
			<stop  offset="0" style="stop-color:#CBC0DF"/>
			<stop  offset="1" style="stop-color:#D1BDDC"/>
		</linearGradient>
		<path fill="url(#SVGID_4_)" d="M139.121,139.602l-0.042-0.008c-3.932-1.072-8.837-4.913-12.604-10.511
			c-8.145-12.093-16.768-37.368-6.413-42.553c1.022-0.511,5.936,5.671,11.194,13.907c6.191,9.702,12.869,22.258,14.254,30.114
			C146.885,138.333,143.663,140.823,139.121,139.602z"/>
		
			<linearGradient id="SVGID_5_" gradientUnits="userSpaceOnUse" x1="148.187" y1="67.9922" x2="146.6042" y2="52.4544" gradientTransform="matrix(0.9773 -0.212 0.212 0.9773 -17.5033 104.6301)">
			<stop  offset="0" style="stop-color:#B89ECB"/>
			<stop  offset="1" style="stop-color:#968AC2"/>
		</linearGradient>
		<path fill="url(#SVGID_5_)" d="M133.742,136.797c0,0,3.543-13.607,7.829-13.359c4.285,0.249,4.923,12.745,2.111,15.262
			C140.87,141.215,135.311,138.369,133.742,136.797z"/>
		<linearGradient id="SVGID_6_" gradientUnits="userSpaceOnUse" x1="127.2153" y1="139.6021" x2="127.2153" y2="86.501">
			<stop  offset="0" style="stop-color:#976AAD"/>
			<stop  offset="1" style="stop-color:#CDECFC"/>
		</linearGradient>
		<path opacity="0.3" fill="url(#SVGID_6_)" d="M139.121,139.602l-0.042-0.008c-3.932-1.072-8.837-4.913-12.604-10.511
			c-8.145-12.093-16.768-37.368-6.413-42.553c1.022-0.511,5.936,5.671,11.194,13.907v0.008c0,0-2.425,18.108-0.685,24.545
			c1.739,6.447,7.519,10.383,7.519,10.383L139.121,139.602z"/>
		
			<linearGradient id="SVGID_7_" gradientUnits="userSpaceOnUse" x1="667.5669" y1="241.7817" x2="677.3596" y2="163.8113" gradientTransform="matrix(-0.9689 -0.2474 -0.2474 0.9689 805.8048 88.2697)">
			<stop  offset="0" style="stop-color:#CBC0DF"/>
			<stop  offset="1" style="stop-color:#E7DCED"/>
		</linearGradient>
		<path fill="url(#SVGID_7_)" d="M76.792,128.059c-0.559,16.414,6.637,25.355,22.635,29.211
			c15.678,3.773,29.603-10.708,29.639-31.875c0.021-13.515-0.841-25.731-5.705-34.435c-0.007-0.01-0.007-0.01-0.007-0.01
			l-0.004-0.018c-2.75-4.922-6.786-8.709-12.665-10.976c-4.64-1.789-9.266-0.23-13.544,3.331
			C85.999,92.566,77.231,115.41,76.792,128.059z"/>
		
			<linearGradient id="SVGID_8_" gradientUnits="userSpaceOnUse" x1="690.6978" y1="229.0298" x2="690.6978" y2="188.7935" gradientTransform="matrix(-0.9689 -0.2474 -0.2474 0.9689 805.8048 88.2697)">
			<stop  offset="0" style="stop-color:#976AAD"/>
			<stop  offset="1" style="stop-color:#CDECFC"/>
		</linearGradient>
		<path opacity="0.3" fill="url(#SVGID_8_)" d="M92.625,101.012c0,0-4.76,11.699-6.823,19.782
			c-2.448,9.589,0.957,20.247,0.957,20.247l-9.121-2.889c0,0-2.456-13.162,0.71-20.431c2.654-6.095,3.474-9.069,3.474-9.069
			L92.625,101.012z"/>
		
			<linearGradient id="SVGID_9_" gradientUnits="userSpaceOnUse" x1="645.2681" y1="217.104" x2="683.5034" y2="217.104" gradientTransform="matrix(-0.9689 -0.2474 -0.2474 0.9689 805.8048 88.2697)">
			<stop  offset="0" style="stop-color:#B89ECB"/>
			<stop  offset="1" style="stop-color:#968AC2"/>
		</linearGradient>
		<path fill="url(#SVGID_9_)" d="M129.21,128.167c0,0-0.631-12.673-11.861-15.54c-13.456-3.436-26.324,9.123-28.093,19.418
			c-1.77,10.296-1.099,20.538,11.513,24.182C100.769,156.227,124.711,161.773,129.21,128.167z"/>
		
			<radialGradient id="SVGID_10_" cx="665.022" cy="234.4331" r="28.897" gradientTransform="matrix(-0.9689 -0.2474 -0.2474 0.9689 805.8048 88.2697)" gradientUnits="userSpaceOnUse">
			<stop  offset="0" style="stop-color:#7DCBB5"/>
			<stop  offset="1" style="stop-color:#5CCAEA"/>
		</radialGradient>
		<path fill="url(#SVGID_10_)" d="M128.876,129.473c0,0-0.631-12.672-11.86-15.54c-13.457-3.436-26.324,9.124-28.094,19.419
			c-1.769,10.295-1.098,20.537,11.513,24.182C100.435,157.534,124.377,163.08,128.876,129.473z"/>
		
			<linearGradient id="SVGID_11_" gradientUnits="userSpaceOnUse" x1="686.5981" y1="188.7925" x2="696.4429" y2="188.7925" gradientTransform="matrix(-0.9689 -0.2474 -0.2474 0.9689 805.8048 88.2697)">
			<stop  offset="0" style="stop-color:#7E78B8"/>
			<stop  offset="1" style="stop-color:#968AC2"/>
		</linearGradient>
		<path fill="url(#SVGID_11_)" d="M82.934,112.433c0.583,0.149,1.33-0.18,2.176-0.856c3.777-3.035,9.509-13.117,11.015-19.147
			c0.579-2.336,0.528-4.068-0.525-4.542c-1.718-0.771-6.916,4.36-10.865,12.43C82.445,105.016,80.442,111.796,82.934,112.433z"/>
		<path fill="#64449B" d="M85.11,111.577c3.777-3.035,9.509-13.117,11.015-19.147c-2.349,1.833-5.604,5.954-8.291,11.444
			C86.662,106.263,85.574,109.193,85.11,111.577z"/>
		
			<linearGradient id="SVGID_12_" gradientUnits="userSpaceOnUse" x1="647.2573" y1="203.6665" x2="678.9819" y2="203.6665" gradientTransform="matrix(-0.9689 -0.2474 -0.2474 0.9689 805.8048 88.2697)">
			<stop  offset="0" style="stop-color:#010101"/>
			<stop  offset="1" style="stop-color:#D6E1F3"/>
		</linearGradient>
		<path opacity="0.72" fill="url(#SVGID_12_)" d="M127.557,128.127c-2.518,2.795-7.773-2.951-15.883-4.055
			s-13.411,1.982-15.39,0.262c-1.979-1.721,8.162-11.681,20.389-9.063C126.437,117.364,128.415,127.176,127.557,128.127z"/>
		
			<linearGradient id="SVGID_13_" gradientUnits="userSpaceOnUse" x1="664.5601" y1="240.2065" x2="664.5601" y2="236.5415" gradientTransform="matrix(-0.9689 -0.2474 -0.2474 0.9689 805.8048 88.2697)">
			<stop  offset="0" style="stop-color:#D6E1F3"/>
			<stop  offset="1" style="stop-color:#010101"/>
		</linearGradient>
		<path opacity="0.72" fill="url(#SVGID_13_)" d="M111.422,155.092c0,0-4.155,2.501-9.677,1.3c-5.521-1.202-6.661-4.314-6.661-4.314
			s2.692-0.441,6.358,1.301C105.108,155.121,108.755,155.511,111.422,155.092z"/>
		<path fill="#FFFFFF" d="M102.459,101.017c0.948,0.269,0.658,8.058-0.188,8.172c-0.848,0.113-2.365-0.247-2.343-3.489
			C99.95,102.458,101.544,100.757,102.459,101.017z"/>
		
			<linearGradient id="SVGID_14_" gradientUnits="userSpaceOnUse" x1="79.5181" y1="168.6626" x2="92.9332" y2="122.2002" gradientTransform="matrix(0.9985 -0.054 0.054 0.9985 -9.4712 23.1657)">
			<stop  offset="0" style="stop-color:#CBC0DF"/>
			<stop  offset="1" style="stop-color:#E7DCED"/>
		</linearGradient>
		<path fill="url(#SVGID_14_)" d="M94.132,190.739c-5.193,0.132-26.798-47.589-21.61-51.354c8.833-6.414,20.896,6.423,25.394,13.709
			c1.032,1.678,1.668,3.063,1.769,3.851C100.208,161.135,99.334,190.605,94.132,190.739z"/>
		<linearGradient id="SVGID_15_" gradientUnits="userSpaceOnUse" x1="70.6123" y1="114.7104" x2="73.8777" y2="88.7111">
			<stop  offset="0" style="stop-color:#CBC0DF"/>
			<stop  offset="1" style="stop-color:#E7DCED"/>
		</linearGradient>
		<path fill="url(#SVGID_15_)" d="M92.625,91.682c2.906,2.931-5.461,19.1-12.735,21.791c-7.273,2.691-22.968-0.607-25.467-1.639
			s-3.437-9.424-1.094-12.647S88.655,87.678,92.625,91.682z"/>
		<linearGradient id="SVGID_16_" gradientUnits="userSpaceOnUse" x1="101.6431" y1="99.4707" x2="106.3378" y2="81.084">
			<stop  offset="0" style="stop-color:#90A3D3"/>
			<stop  offset="1" style="stop-color:#745FA9"/>
		</linearGradient>
		<path opacity="0.5" fill="url(#SVGID_16_)" d="M80.826,91.183c0,0,11.229,8.884,27.714,8.004c16.483-0.88,17.682-6.16,17.682-6.16
			s-5.438-7.997-9.85-9.377c-1.739-0.544-19.878-3.774-25.813,6.961C86.674,90.631,80.826,91.183,80.826,91.183z"/>
		
			<linearGradient id="SVGID_17_" gradientUnits="userSpaceOnUse" x1="980.1724" y1="-45.2534" x2="980.1724" y2="-70.8906" gradientTransform="matrix(-0.9758 0.2188 0.2188 0.9758 1092.553 -141.1203)">
			<stop  offset="0" style="stop-color:#7DCBB5"/>
			<stop  offset="1" style="stop-color:#5CCAEA"/>
		</linearGradient>
		<path fill="url(#SVGID_17_)" d="M120.324,4.226c0,0,8.378,5.631,12.094,18.671c3.716,13.04-15.866-2.61-15.866-2.61L120.324,4.226
			z"/>
		
			<linearGradient id="SVGID_18_" gradientUnits="userSpaceOnUse" x1="987.0649" y1="-54.0996" x2="987.0649" y2="-76.1431" gradientTransform="matrix(-0.9758 0.2188 0.2188 0.9758 1092.553 -141.1203)">
			<stop  offset="0" style="stop-color:#B8ACD4"/>
			<stop  offset="1" style="stop-color:#E0D1E7"/>
		</linearGradient>
		<path fill="url(#SVGID_18_)" d="M126.221,20.113c0,0-2.283-17.391-8.11-19.713c-5.826-2.322-13.386,6.222-13.386,6.222
			L126.221,20.113z"/>
		<linearGradient id="SVGID_19_" gradientUnits="userSpaceOnUse" x1="98.0313" y1="90.0986" x2="108.561" y2="6.2602">
			<stop  offset="0" style="stop-color:#CBC0DF"/>
			<stop  offset="1" style="stop-color:#E7DCED"/>
		</linearGradient>
		<path fill="url(#SVGID_19_)" d="M79.571,10.481c-26.133,15.872-24.705,55.54-14.683,69.92
			c11.659,16.731,72.889,6.212,81.534-21.258C155.168,31.352,112.059-9.251,79.571,10.481z"/>
		<linearGradient id="SVGID_20_" gradientUnits="userSpaceOnUse" x1="64.9834" y1="69.9238" x2="64.9834" y2="51.9995">
			<stop  offset="0" style="stop-color:#90A3D3"/>
			<stop  offset="1" style="stop-color:#745FA9"/>
		</linearGradient>
		<path opacity="0.5" fill="url(#SVGID_20_)" d="M71.639,52c0,0-3.179,14.324-11.369,17.924c0,0-1.942-7.021-1.942-11.394
			C58.328,54.156,71.639,52,71.639,52z"/>
		<linearGradient id="SVGID_21_" gradientUnits="userSpaceOnUse" x1="112.2017" y1="83.8887" x2="112.2017" y2="11.5083">
			<stop  offset="0" style="stop-color:#2366B1"/>
			<stop  offset="1" style="stop-color:#2C2D72"/>
		</linearGradient>
		<path fill="url(#SVGID_21_)" d="M94.95,14.281C74.758,24.355,71.666,65.119,85.098,78.66c13.433,13.541,58.98-0.783,62.177-24.993
			C150.124,32.087,119.112,2.226,94.95,14.281z"/>
		<linearGradient id="SVGID_22_" gradientUnits="userSpaceOnUse" x1="90.3867" y1="78.895" x2="92.0361" y2="65.7628">
			<stop  offset="0" style="stop-color:#010101"/>
			<stop  offset="1" style="stop-color:#7594CC"/>
		</linearGradient>
		<path opacity="0.5" fill="url(#SVGID_22_)" d="M99.217,79.283c0,0-9.562,1.515-13.779-4.122s-2.271-9.989-0.939-10.322
			s5.626,8.133,9.028,11.115C96.929,78.934,99.217,79.283,99.217,79.283z"/>
		
			<linearGradient id="SVGID_23_" gradientUnits="userSpaceOnUse" x1="655.7427" y1="59.6777" x2="655.7427" y2="17.4663" gradientTransform="matrix(-1 0 0 1 720.1768 0)">
			<stop  offset="0" style="stop-color:#B8ACD4"/>
			<stop  offset="1" style="stop-color:#E0D1E7"/>
		</linearGradient>
		<path fill="url(#SVGID_23_)" d="M76.488,26.268c0,0,2.707,24.64-12.495,33.354c0,0-7.463,0.803-11.802-3.727
			c0,0,6.755,6.349,13.88-0.264c7.124-6.612,5.41-24.835,0-30.77c-5.41-5.936-13.221-4.374-13.221-4.374l3.124-2.812
			C55.974,17.677,67.481,15.334,76.488,26.268z"/>
		
			<linearGradient id="SVGID_24_" gradientUnits="userSpaceOnUse" x1="658.9771" y1="58.0747" x2="658.9771" y2="17.6626" gradientTransform="matrix(-1 0 0 1 720.1768 0)">
			<stop  offset="0" style="stop-color:#B89ECB"/>
			<stop  offset="1" style="stop-color:#968AC2"/>
		</linearGradient>
		<path fill="url(#SVGID_24_)" d="M55.974,17.677c0,0,8.459-0.781,14.37,9.035c6.277,10.423,1.714,28.443-5.911,31.181
			c-7.626,2.738-15.331-26.418-15.331-26.418l4.43-11.599C53.532,19.876,54.413,18.25,55.974,17.677z"/>
		
			<linearGradient id="SVGID_25_" gradientUnits="userSpaceOnUse" x1="662.0269" y1="59.0781" x2="662.0269" y2="19.4663" gradientTransform="matrix(-1 0 0 1 720.1768 0)">
			<stop  offset="0" style="stop-color:#7DCBB5"/>
			<stop  offset="1" style="stop-color:#5CCAEA"/>
		</linearGradient>
		<path fill="url(#SVGID_25_)" d="M45.043,42.516c1.089,5.63,3.38,10.23,6.446,13.14l0.025,0.017l0.857,0.758h0.008
			c2.481,2.012,5.416,2.959,8.59,2.556c10.297-1.311,11.682-16.224,10.47-24.673c-1.41-9.76-9.761-15.622-16.405-14.764
			C47.129,20.571,42.909,31.494,45.043,42.516z"/>
		
			<linearGradient id="SVGID_26_" gradientUnits="userSpaceOnUse" x1="661.2681" y1="57.7837" x2="661.2681" y2="46.2153" gradientTransform="matrix(-1 0 0 1 720.1768 0)">
			<stop  offset="0" style="stop-color:#D6E1F3"/>
			<stop  offset="1" style="stop-color:#010101"/>
		</linearGradient>
		<path opacity="0.72" fill="url(#SVGID_26_)" d="M69.763,46.215c0,0-1.094,9.146-7.81,11.124
			c-6.717,1.978-12.184-2.879-13.901-9.744c0,0,2.108,5.919,10.855,4.405S69.763,46.215,69.763,46.215z"/>
		
			<linearGradient id="SVGID_27_" gradientUnits="userSpaceOnUse" x1="651.6528" y1="26.7124" x2="674.3188" y2="26.7124" gradientTransform="matrix(-1 0 0 1 720.1768 0)">
			<stop  offset="0" style="stop-color:#010101"/>
			<stop  offset="1" style="stop-color:#D6E1F3"/>
		</linearGradient>
		<path opacity="0.72" fill="url(#SVGID_27_)" d="M68.524,28.936c-0.078,1.705-12.41-1.835-16.333-1.314
			c-3.922,0.521-5.588,5.332-6.213,5.217c-0.625-0.114,1.041-11.36,8.33-12.193S68.579,27.751,68.524,28.936z"/>
		
			<linearGradient id="SVGID_28_" gradientUnits="userSpaceOnUse" x1="186.6567" y1="-139.0708" x2="186.6567" y2="-158.8853" gradientTransform="matrix(0.8373 -0.5467 0.5467 0.8373 57.3087 263.0083)">
			<stop  offset="0" style="stop-color:#7DCBB5"/>
			<stop  offset="1" style="stop-color:#5CCAEA"/>
		</linearGradient>
		<path fill="url(#SVGID_28_)" d="M131.189,45.592c4.195,2.318,10.31-2.85,8.777-9.047s-8.739-11.167-12.312-9.208
			C124.084,29.295,124.215,41.739,131.189,45.592z"/>
		
			<linearGradient id="SVGID_29_" gradientUnits="userSpaceOnUse" x1="208.7827" y1="-109.4619" x2="208.7827" y2="-131.8232" gradientTransform="matrix(1.2215 -0.5971 0.4392 0.8984 -104.4693 282.2534)">
			<stop  offset="0" style="stop-color:#7DCBB5"/>
			<stop  offset="1" style="stop-color:#5CCAEA"/>
		</linearGradient>
		<path fill="url(#SVGID_29_)" d="M93.365,59.433c6.606,4.571,13.747-2.944,13.672-9.617c-0.075-6.672-6.224-13.226-12.326-11.555
			C88.029,40.09,86.578,54.738,93.365,59.433z"/>
		<path fill="#3095CD" d="M113.517,61.737c-0.615,1.107,7.367,6.514,11.201,4.938c4.492-1.846,3.793-11.354,2.96-11.999
			S114.558,59.862,113.517,61.737z"/>
		<linearGradient id="SVGID_30_" gradientUnits="userSpaceOnUse" x1="79.9307" y1="31.8394" x2="137.9243" y2="31.8394">
			<stop  offset="0" style="stop-color:#010101"/>
			<stop  offset="1" style="stop-color:#7594CC"/>
		</linearGradient>
		<path opacity="0.5" fill="url(#SVGID_30_)" d="M80.826,49.416c3.604,4.911,13.836-11.938,24.882-17.598
			c12.6-6.455,30.913,0.383,32.148-1.612c1.236-1.995-14.381-19.586-34.563-16.458C83.111,16.877,77.5,44.883,80.826,49.416z"/>
		
			<linearGradient id="SVGID_31_" gradientUnits="userSpaceOnUse" x1="69.1689" y1="131.855" x2="74.1078" y2="92.5311" gradientTransform="matrix(0.9938 0.1112 -0.1112 0.9938 10.0763 -45.1328)">
			<stop  offset="0" style="stop-color:#B89ECB"/>
			<stop  offset="1" style="stop-color:#968AC2"/>
		</linearGradient>
		<path fill="url(#SVGID_31_)" d="M52.98,57.438c0,0-0.726-4.873,2.38-6.514c0,0,4.674-0.248,5.84,4.272
			c0,0-9.217,29.522-1.685,34.248c7.015,4.4,25.5-4.637,25.5-4.637l1.493,1.215c0,0-15.684,9.81-25.604,6.768
			S52.98,57.438,52.98,57.438z"/>
		
			<linearGradient id="SVGID_32_" gradientUnits="userSpaceOnUse" x1="72.8218" y1="-91.5039" x2="72.8218" y2="-102.8442" gradientTransform="matrix(0.9993 -0.0387 0.0387 0.9993 20.6499 183.5833)">
			<stop  offset="0" style="stop-color:#DC208F"/>
			<stop  offset="1" style="stop-color:#ED247E"/>
		</linearGradient>
		<path fill="url(#SVGID_32_)" d="M80.391,85.237c-1.576,3.229,4.076,4.72,8.196,4.049c4.625-0.753,12.107-4.735,10.374-9.123
			C97.228,75.775,84.083,77.669,80.391,85.237z"/>
		
			<linearGradient id="SVGID_33_" gradientUnits="userSpaceOnUse" x1="102.061" y1="-13.791" x2="102.061" y2="-18.6055" gradientTransform="matrix(0.9638 -0.2666 0.2666 0.9638 -5.6002 124.3475)">
			<stop  offset="0" style="stop-color:#AD56A1"/>
			<stop  offset="1" style="stop-color:#F171AB"/>
		</linearGradient>
		<path fill="url(#SVGID_33_)" d="M80.826,85.63c0.068,0.777,16.143-3.478,15.735-6.415S80.297,79.619,80.826,85.63z"/>
		<g>
			<linearGradient id="SVGID_34_" gradientUnits="userSpaceOnUse" x1="44.1333" y1="99.0908" x2="43.5086" y2="92.9585">
				<stop  offset="0" style="stop-color:#B89ECB"/>
				<stop  offset="1" style="stop-color:#968AC2"/>
			</linearGradient>
			<path fill="url(#SVGID_34_)" d="M41.459,95.898c0,0,0.624-2.121,3.336-3.071l1.662,6.027L41.459,95.898z"/>
			<linearGradient id="SVGID_35_" gradientUnits="userSpaceOnUse" x1="54.8394" y1="124.9214" x2="64.7998" y2="74.8661">
				<stop  offset="0" style="stop-color:#AD56A1"/>
				<stop  offset="1" style="stop-color:#F171AB"/>
			</linearGradient>
			<path fill="url(#SVGID_35_)" d="M42.083,80.397c0,0,8.522-5.207,26.441-4.79c0,0,7.465,27.253,8.422,46.845
				c0,0-10.497,2.906-21.951,2.501C54.996,124.953,46.666,104.763,42.083,80.397z"/>
			<linearGradient id="SVGID_36_" gradientUnits="userSpaceOnUse" x1="72.1807" y1="122.1138" x2="75.5743" y2="74.3">
				<stop  offset="0" style="stop-color:#8458A4"/>
				<stop  offset="1" style="stop-color:#ED247E"/>
			</linearGradient>
			<path fill="url(#SVGID_36_)" d="M68.525,75.607l4.075-1.519c0,0,6.138,27.385,6.554,47.773l-2.207,0.59L68.525,75.607z"/>
			<linearGradient id="SVGID_37_" gradientUnits="userSpaceOnUse" x1="49.8169" y1="109.3667" x2="57.3691" y2="109.3667">
				<stop  offset="0" style="stop-color:#90A3D3"/>
				<stop  offset="1" style="stop-color:#745FA9"/>
			</linearGradient>
			<path opacity="0.5" fill="url(#SVGID_37_)" d="M49.817,110.454l2.166,6.039c0,0,5.993-7.299,5.336-14.252L49.817,110.454z"/>
			<path fill="#D799C4" d="M42.083,80.397c0,0,6.26-5.119,30.517-6.309l-4.075,1.519C68.525,75.607,57.495,75.398,42.083,80.397z"/>
			
				<linearGradient id="SVGID_38_" gradientUnits="userSpaceOnUse" x1="59.9365" y1="189.3647" x2="58.3647" y2="173.9348" gradientTransform="matrix(0.972 0.2348 -0.2348 0.972 35.125 -86.1606)">
				<stop  offset="0" style="stop-color:#B89ECB"/>
				<stop  offset="1" style="stop-color:#968AC2"/>
			</linearGradient>
			<path fill="url(#SVGID_38_)" d="M43.475,99.203c0,0,0.502,10.399,4.403,12.631c0,0,11.182-6.301,9.615-12.798
				C56.391,94.458,43.475,99.203,43.475,99.203z"/>
			
				<linearGradient id="SVGID_39_" gradientUnits="userSpaceOnUse" x1="55.6782" y1="187.6079" x2="57.6238" y2="172.1173" gradientTransform="matrix(0.972 0.2348 -0.2348 0.972 35.125 -86.1606)">
				<stop  offset="0" style="stop-color:#CBC0DF"/>
				<stop  offset="1" style="stop-color:#E7DCED"/>
			</linearGradient>
			<path fill="url(#SVGID_39_)" d="M41.459,95.898c0,0,0,8.541,4.912,13.815c0,0,6.531-2.61,8.729-5.263
				c3.531-4.264,2.074-6.709,0.885-7.699C54.084,95.17,41.459,95.898,41.459,95.898z"/>
			<linearGradient id="SVGID_40_" gradientUnits="userSpaceOnUse" x1="72.3501" y1="95.2891" x2="74.8025" y2="82.9648">
				<stop  offset="0" style="stop-color:#AD56A1"/>
				<stop  offset="1" style="stop-color:#F171AB"/>
			</linearGradient>
			<path fill="url(#SVGID_40_)" d="M71.344,83.65c0,0,1.241-1.103,2.495-0.877c0,0,2.399,6.763,1.878,12.293l-1.878,0.519
				L71.344,83.65z"/>
			<linearGradient id="SVGID_41_" gradientUnits="userSpaceOnUse" x1="73.4575" y1="95.2354" x2="74.3395" y2="82.8086">
				<stop  offset="0" style="stop-color:#B31E8E"/>
				<stop  offset="1" style="stop-color:#8F257E"/>
			</linearGradient>
			<path fill="url(#SVGID_41_)" d="M71.344,83.65c0,0,2.918,6.592,3.425,11.679l1.662-0.624c0,0-1.216-8.722-2.592-11.932
				C73.839,82.773,72.177,82.739,71.344,83.65z"/>
			
				<linearGradient id="SVGID_42_" gradientUnits="userSpaceOnUse" x1="63.1655" y1="28.5313" x2="63.8097" y2="19.4554" gradientTransform="matrix(0.9809 -0.1946 0.1946 0.9809 -10.2277 76.9667)">
				<stop  offset="0" style="stop-color:#B31E8E"/>
				<stop  offset="1" style="stop-color:#ED247E"/>
			</linearGradient>
			<path fill="url(#SVGID_42_)" d="M60.016,87.493c0.489,2.467-0.591,4.76-2.413,5.122c-1.821,0.361-3.695-1.346-4.185-3.813
				s0.591-4.761,2.412-5.122C57.653,83.318,59.526,85.025,60.016,87.493z"/>
			
				<radialGradient id="SVGID_43_" cx="63.9048" cy="24.0767" r="3.116" gradientTransform="matrix(0.9809 -0.1946 0.1946 0.9809 -10.2277 76.9667)" gradientUnits="userSpaceOnUse">
				<stop  offset="0" style="stop-color:#7DCBB5"/>
				<stop  offset="1" style="stop-color:#5CCAEA"/>
			</radialGradient>
			<path fill="url(#SVGID_43_)" d="M59.709,87.638c0.381,1.92-0.46,3.705-1.878,3.986s-2.876-1.047-3.257-2.968
				s0.46-3.705,1.878-3.987C57.871,84.389,59.329,85.718,59.709,87.638z"/>
			<linearGradient id="SVGID_44_" gradientUnits="userSpaceOnUse" x1="57.9839" y1="120.439" x2="70.9966" y2="120.439">
				<stop  offset="0" style="stop-color:#B31E8E"/>
				<stop  offset="1" style="stop-color:#8F257E"/>
			</linearGradient>
			<path fill="url(#SVGID_44_)" d="M57.984,122.338v-2.148l12.135-1.65l0.878,1.911C70.997,120.451,64.16,121.862,57.984,122.338z"
				/>
			<linearGradient id="SVGID_45_" gradientUnits="userSpaceOnUse" x1="62.772" y1="121.8618" x2="62.772" y2="79.0244">
				<stop  offset="0" style="stop-color:#010101"/>
				<stop  offset="1" style="stop-color:#7594CC"/>
			</linearGradient>
			<path opacity="0.5" fill="url(#SVGID_45_)" d="M69.139,79.024l-16.892,38.617l1.542,4.221c0,0,13.702-8.621,19.507-19.056
				C73.296,102.806,69.753,82.441,69.139,79.024z"/>
		</g>
		<linearGradient id="SVGID_46_" gradientUnits="userSpaceOnUse" x1="126.2456" y1="80.8135" x2="128.596" y2="62.0992">
			<stop  offset="0" style="stop-color:#010101"/>
			<stop  offset="1" style="stop-color:#7594CC"/>
		</linearGradient>
		<path opacity="0.5" fill="url(#SVGID_46_)" d="M113.484,79.211c0,0,8.48-1.85,14.253-9.287c5.773-7.438,13.619-6.221,13.619-6.221
			S130.407,79.206,113.484,79.211z"/>
		<path fill="#FFFFFF" d="M76.947,18.648c-0.027,1.636,9.965-6.47,8.716-7.14C84.413,10.838,76.979,16.773,76.947,18.648z"/>
		<linearGradient id="SVGID_47_" gradientUnits="userSpaceOnUse" x1="94.9551" y1="134.2935" x2="94.9551" y2="133.8071">
			<stop  offset="0" style="stop-color:#976AAD"/>
			<stop  offset="1" style="stop-color:#CDECFC"/>
		</linearGradient>
		<path opacity="0.3" fill="url(#SVGID_47_)" d="M95.083,134.293l-0.255-0.486C94.876,133.889,94.967,134.055,95.083,134.293z"/>
		
			<linearGradient id="SVGID_48_" gradientUnits="userSpaceOnUse" x1="88.2251" y1="172.9321" x2="88.2251" y2="120.4839" gradientTransform="matrix(0.9985 -0.054 0.054 0.9985 -9.4712 23.1657)">
			<stop  offset="0" style="stop-color:#976AAD"/>
			<stop  offset="1" style="stop-color:#CDECFC"/>
		</linearGradient>
		<path opacity="0.3" fill="url(#SVGID_48_)" d="M94.132,190.739c-5.193,0.132-26.798-47.589-21.61-51.354
			c0,0,6.45,29.949,14.316,37.696c7.857,7.748,12.95-12.563,11.564-21.396c-0.14-0.893-0.302-1.759-0.487-2.591
			c1.032,1.678,1.668,3.063,1.769,3.851C100.208,161.135,99.334,190.605,94.132,190.739z"/>
		<path fill="#FFFFFF" d="M81.784,147.581c-0.788,1.295,1.223,9.146,2.316,8.988s1.333-4.296,0.784-5.624
			C84.334,149.618,81.96,147.292,81.784,147.581z"/>
		<path fill="#FFFFFF" d="M84.334,157.875c-0.919,0.465,0.184,2.832,0.834,2.755C85.818,160.551,85.168,157.453,84.334,157.875z"/>
		<path fill="#FFFFFF" d="M110.289,4.226c0.625,1.301,4.783-1.424,4.165-2.551C113.836,0.547,109.665,2.924,110.289,4.226z"/>
		<path fill="#FFFFFF" d="M42.604,97.961c0,0.79,4.166-0.109,3.854-0.772S42.604,96.651,42.604,97.961z"/>
		<linearGradient id="SVGID_49_" gradientUnits="userSpaceOnUse" x1="54.0986" y1="69.9258" x2="54.0986" y2="54.8789">
			<stop  offset="0" style="stop-color:#CBC0DF"/>
			<stop  offset="1" style="stop-color:#E7DCED"/>
		</linearGradient>
		<path fill="url(#SVGID_49_)" d="M54.295,54.885c-1.087-0.361-1.585,14.831-0.702,15.039C54.475,70.132,55.98,55.444,54.295,54.885
			z"/>
		
			<linearGradient id="SVGID_50_" gradientUnits="userSpaceOnUse" x1="818.9067" y1="142.8618" x2="822.642" y2="113.1218" gradientTransform="matrix(-0.9989 0.0478 0.0478 0.9989 961.6601 -25.3548)">
			<stop  offset="0" style="stop-color:#CBC0DF"/>
			<stop  offset="1" style="stop-color:#E7DCED"/>
		</linearGradient>
		<path fill="url(#SVGID_50_)" d="M153.012,132.471c0,0-3.521-4.511-8.314-4.906c-4.794-0.396-6.439,1.005-7.193,4.393
			c-0.754,3.389,6.587,15.244,15.419,24.022c3.636,0.127,4.517-4.375,4.904-7.256C157.708,146.222,156.606,138.153,153.012,132.471z
			"/>
		
			<linearGradient id="SVGID_51_" gradientUnits="userSpaceOnUse" x1="822.7935" y1="141.8599" x2="819.9779" y2="114.2207" gradientTransform="matrix(-0.9989 0.0478 0.0478 0.9989 961.6601 -25.3548)">
			<stop  offset="0" style="stop-color:#B89ECB"/>
			<stop  offset="1" style="stop-color:#968AC2"/>
		</linearGradient>
		<path fill="url(#SVGID_51_)" d="M141.183,127.701c0,0,9.536,11.983,12.712,18.996c1.714,3.783,2.711,6.272,2.711,6.272
			s-2.042,5.993-6.13,1.254c-5.789-6.711-13.605-16.848-12.518-21.958C138.879,127.938,139.593,127.093,141.183,127.701z"/>
		
			<linearGradient id="SVGID_52_" gradientUnits="userSpaceOnUse" x1="823.4302" y1="132.8315" x2="821.8325" y2="117.1481" gradientTransform="matrix(-0.9989 0.0478 0.0478 0.9989 961.6601 -25.3548)">
			<stop  offset="0" style="stop-color:#90A3D3"/>
			<stop  offset="1" style="stop-color:#745FA9"/>
		</linearGradient>
		<path opacity="0.5" fill="url(#SVGID_52_)" d="M149.266,138.773c0,0-0.931,6.68-4.888,7.858l-1.394-15.863
			C142.985,130.768,147.97,136.787,149.266,138.773z"/>
		
			<linearGradient id="SVGID_53_" gradientUnits="userSpaceOnUse" x1="825.4956" y1="133.6021" x2="827.9948" y2="113.7037" gradientTransform="matrix(-0.9989 0.0478 0.0478 0.9989 961.6601 -25.3548)">
			<stop  offset="0" style="stop-color:#CBC0DF"/>
			<stop  offset="1" style="stop-color:#E7DCED"/>
		</linearGradient>
		<path fill="url(#SVGID_53_)" d="M145.134,134.45c0.672,1.505-0.005,11.567-1.043,12.752c-1.038,1.186-3.646-0.61-4.442-2.605
			c-0.797-1.994-4.471-12.894-0.597-16.627C139.052,127.969,142.333,128.172,145.134,134.45z"/>
		<path fill="#FFFFFF" d="M143.375,135.882c0.448,0.06,1.109,3.466,0.771,4.099c-0.34,0.633-1.082,0.598-1.47-0.161
			S142.696,135.792,143.375,135.882z"/>
	</g>
</g>
</svg>
