<?xml version="1.0" encoding="utf-8"?>
<!-- Generator: Adobe Illustrator 16.0.0, SVG Export Plug-In . SVG Version: 6.00 Build 0)  -->
<!DOCTYPE svg PUBLIC "-//W3C//DTD SVG 1.1//EN" "http://www.w3.org/Graphics/SVG/1.1/DTD/svg11.dtd">
<svg version="1.1" id="Layer_1" xmlns="http://www.w3.org/2000/svg" xmlns:xlink="http://www.w3.org/1999/xlink" x="0px" y="0px"
	 width="183.505px" height="203.925px" viewBox="0 0 183.505 203.925" enable-background="new 0 0 183.505 203.925"
	 xml:space="preserve">
<g>
	<g>
		<path fill="#E6F6FD" d="M16.109,169.804c10.604,22.255,112.938,19.019,138.722,1.733C180.614,154.253,123.345,8.978,54.046,12.009
			C3.451,14.223-11.109,112.685,16.109,169.804z"/>
		<path fill="#E6F6FD" d="M167.174,159.549c-4.383-0.715-7.113-23.982-1.926-28.477c5.187-4.494,15.836,5.769,15.836,13.568
			S174.782,160.789,167.174,159.549z"/>
		<path fill="#E6F6FD" d="M43.083,5.677c1.085,3.272-9.546,10.263-13.26,7.559c-3.714-2.703-1.539-11.037,1.815-12.675
			C34.991-1.077,41.513,0.94,43.083,5.677z"/>
	</g>
	<g>
		<linearGradient id="SVGID_1_" gradientUnits="userSpaceOnUse" x1="69.6245" y1="202.6484" x2="73.7897" y2="169.4847">
			<stop  offset="0" style="stop-color:#CBC0DF"/>
			<stop  offset="1" style="stop-color:#E7DCED"/>
		</linearGradient>
		<path fill="url(#SVGID_1_)" d="M85.881,179.063c0,0,0,0.01,0,0.029c-0.01,0.79-0.23,16.08-3.29,22.25
			c-0.79,1.61-1.78,2.601-3.01,2.551c-4.34-0.181-14.19-18.49-18.08-28.881c-0.89-2.38-1.47-4.34-1.59-5.569
			c-0.09-0.9,0.05-1.41,0.49-1.42c0.9-0.021,1.81,0.02,2.71,0.12c0.12,0.02,0.24,0.029,0.36,0.05c10.79,1.3,21.25,9.89,22.32,10.8
			C85.851,179.043,85.881,179.063,85.881,179.063z"/>
		<linearGradient id="SVGID_2_" gradientUnits="userSpaceOnUse" x1="72.6914" y1="179.2012" x2="72.6914" y2="167.9854">
			<stop  offset="0" style="stop-color:#B89ECB"/>
			<stop  offset="1" style="stop-color:#968AC2"/>
		</linearGradient>
		<path fill="url(#SVGID_2_)" d="M85.881,179.063c-14.37,1.25-23.93-6.351-25.97-9.62c-0.53-0.83-0.55-1.38-0.03-1.42
			c1.03-0.08,2.11-0.03,3.23,0.12c0.12,0.02,0.24,0.029,0.36,0.05c9.52,1.439,21.15,9.939,22.32,10.8
			C85.851,179.043,85.881,179.063,85.881,179.063z"/>
		<linearGradient id="SVGID_3_" gradientUnits="userSpaceOnUse" x1="95.0981" y1="204.3184" x2="99.8352" y2="166.6015">
			<stop  offset="0" style="stop-color:#CBC0DF"/>
			<stop  offset="1" style="stop-color:#E7DCED"/>
		</linearGradient>
		<path fill="url(#SVGID_3_)" d="M111.861,169.463c-0.13,1.38-0.84,3.69-1.93,6.471c-4.091,10.5-13.521,27.81-17.75,27.989
			c-1.03,0.04-1.89-0.64-2.61-1.819c-3.52-5.721-3.69-23.011-3.69-23.011s0.03-0.02,0.09-0.069c1.081-0.91,11.571-9.54,22.38-10.811
			c0.09-0.01,0.19-0.02,0.3-0.04c0.91-0.1,1.82-0.14,2.721-0.12C111.801,168.063,111.952,168.573,111.861,169.463z"/>
		<linearGradient id="SVGID_4_" gradientUnits="userSpaceOnUse" x1="99.0708" y1="179.2314" x2="99.0708" y2="168.0146">
			<stop  offset="0" style="stop-color:#B89ECB"/>
			<stop  offset="1" style="stop-color:#968AC2"/>
		</linearGradient>
		<path fill="url(#SVGID_4_)" d="M111.861,169.463c-2,3.25-11.58,10.891-25.98,9.63c0,0,0.03-0.02,0.09-0.069
			c1.17-0.87,12.85-9.391,22.38-10.811c0.09-0.01,0.19-0.02,0.3-0.04c1.109-0.149,2.2-0.2,3.23-0.12
			C112.401,168.093,112.381,168.633,111.861,169.463z"/>
		<linearGradient id="SVGID_5_" gradientUnits="userSpaceOnUse" x1="72.6914" y1="201.3428" x2="72.6914" y2="167.9854">
			<stop  offset="0" style="stop-color:#976AAD"/>
			<stop  offset="1" style="stop-color:#CDECFC"/>
		</linearGradient>
		<path opacity="0.3" fill="url(#SVGID_5_)" d="M85.881,179.063c0,0,0,0.01,0,0.029c-0.01,0.79-0.23,16.08-3.29,22.25
			c0,0-0.85-16.159-5.15-19.819c-4.29-3.67-15.94-6.511-15.94-6.511c-0.89-2.38-1.47-4.34-1.59-5.569
			c-0.53-0.83-0.55-1.38-0.03-1.42c1.03-0.08,2.11-0.03,3.23,0.12c0.12,0.02,0.24,0.029,0.36,0.05c10.79,1.3,21.25,9.89,22.32,10.8
			C85.851,179.043,85.881,179.063,85.881,179.063z"/>
		<linearGradient id="SVGID_6_" gradientUnits="userSpaceOnUse" x1="99.0708" y1="202.1035" x2="99.0708" y2="168.0146">
			<stop  offset="0" style="stop-color:#976AAD"/>
			<stop  offset="1" style="stop-color:#CDECFC"/>
		</linearGradient>
		<path opacity="0.3" fill="url(#SVGID_6_)" d="M111.861,169.463c-0.13,1.38-0.84,3.69-1.93,6.471c-2.03,0.43-12.771,2.92-16.57,9.5
			c-3.18,5.489-3.72,13.189-3.79,16.67c-3.52-5.721-3.69-23.011-3.69-23.011s0.03-0.02,0.09-0.069
			c1.081-0.91,11.571-9.54,22.38-10.811c0.09-0.01,0.19-0.02,0.3-0.04c1.109-0.149,2.2-0.2,3.23-0.12
			C112.401,168.093,112.381,168.633,111.861,169.463z"/>
		<linearGradient id="SVGID_7_" gradientUnits="userSpaceOnUse" x1="40.9438" y1="159.0273" x2="47.2065" y2="109.1637">
			<stop  offset="0" style="stop-color:#CBC0DF"/>
			<stop  offset="1" style="stop-color:#E7DCED"/>
		</linearGradient>
		<path fill="url(#SVGID_7_)" d="M65.511,122.903c-0.33,3.11-0.91,6.569-1.93,10.01c0,0-0.95,1.399-2.85,3.56
			c-4.71,5.36-15.23,15.41-31.47,20.461c-0.39,0.14-0.78,0.25-1.18,0.369c-2.62,0.761-7.43-7.1-4.94-13.789
			c0.23-0.641,0.53-1.261,0.91-1.871c1.03-1.66,3.08-3.93,5.8-6.5c7.09-6.719,18.78-15.459,29.1-20.68h0.01
			c2.36-1.199,4.65-2.21,6.79-2.97C65.751,111.493,66.191,116.434,65.511,122.903z"/>
		<linearGradient id="SVGID_8_" gradientUnits="userSpaceOnUse" x1="26.4619" y1="159.0654" x2="26.4619" y2="140.5801">
			<stop  offset="0" style="stop-color:#B89ECB"/>
			<stop  offset="1" style="stop-color:#968AC2"/>
		</linearGradient>
		<path fill="url(#SVGID_8_)" d="M29.261,156.934c-0.28,0.34-0.61,0.64-0.95,0.899c-3.9,2.9-9.62,1.22-6.46-10.87
			c0,0,0.28-1.77,1.29-3.449c0.84-1.4,2.2-2.73,4.34-2.92C32.821,140.113,33.421,152.193,29.261,156.934z"/>
		<linearGradient id="SVGID_9_" gradientUnits="userSpaceOnUse" x1="43.4131" y1="159.0654" x2="43.4131" y2="111.4932">
			<stop  offset="0" style="stop-color:#976AAD"/>
			<stop  offset="1" style="stop-color:#CDECFC"/>
		</linearGradient>
		<path opacity="0.3" fill="url(#SVGID_9_)" d="M65.511,122.903l-4.78,13.569c-4.71,5.36-15.23,15.41-31.47,20.461
			c-0.28,0.34-0.61,0.64-0.95,0.899c-3.9,2.9-9.62,1.22-6.46-10.87c0,0,0.28-1.77,1.29-3.449c0.23-0.641,0.53-1.261,0.91-1.871
			c1.03-1.66,3.08-3.93,5.8-6.5c-0.2,0.36-1.59,3.131,1.36,4.19c3.16,1.13,19.83-2.84,27.16-10.69c7.32-7.84,7.09-15.16,0.59-14.18
			c2.36-1.199,4.65-2.21,6.79-2.97C65.751,111.493,66.191,116.434,65.511,122.903z"/>
		<linearGradient id="SVGID_10_" gradientUnits="userSpaceOnUse" x1="16.2139" y1="174.4775" x2="19.96" y2="144.6508">
			<stop  offset="0" style="stop-color:#CBC0DF"/>
			<stop  offset="1" style="stop-color:#E7DCED"/>
		</linearGradient>
		<path fill="url(#SVGID_10_)" d="M26.429,145.467c-4.122-0.748-16.624,8.311-20.608,26.558c0,0,0.275,1.466,3.984,1.599
			s10.065-6.66,14.375-10.655C28.49,158.972,33.299,146.713,26.429,145.467z"/>
		<linearGradient id="SVGID_11_" gradientUnits="userSpaceOnUse" x1="19.8735" y1="173.623" x2="19.8735" y2="146.2813">
			<stop  offset="0" style="stop-color:#B89ECB"/>
			<stop  offset="1" style="stop-color:#968AC2"/>
		</linearGradient>
		<path fill="url(#SVGID_11_)" d="M9.805,173.623c0,0,6.479-9.66,7.778-12.058c0,0,2.462-11.991,6.329-14.384
			c3.778-2.338,5.147,0.279,5.96,3.264C30.686,153.432,24.387,171.492,9.805,173.623z"/>
		<linearGradient id="SVGID_12_" gradientUnits="userSpaceOnUse" x1="19.6592" y1="167.6289" x2="19.6592" y2="149.8223">
			<stop  offset="0" style="stop-color:#90A3D3"/>
			<stop  offset="1" style="stop-color:#745FA9"/>
		</linearGradient>
		<path opacity="0.5" fill="url(#SVGID_12_)" d="M17.271,163.515c0,0,1.553,3.553,3.524,4.114c0,0-1.659-11.641,1.251-17.807
			C22.047,149.822,18.288,155.573,17.271,163.515z"/>
		<linearGradient id="SVGID_13_" gradientUnits="userSpaceOnUse" x1="23.0654" y1="168.2988" x2="25.7262" y2="147.1137">
			<stop  offset="0" style="stop-color:#CBC0DF"/>
			<stop  offset="1" style="stop-color:#E7DCED"/>
		</linearGradient>
		<path fill="url(#SVGID_13_)" d="M23.681,147.916c0,0,4.002-2.799,6.191,2.529c0,0-0.748,8.725-5.622,17.516
			c0,0-2.493,0.71-3.455-0.332C18.658,165.312,19.285,150.979,23.681,147.916z"/>
		<g>
			<linearGradient id="SVGID_14_" gradientUnits="userSpaceOnUse" x1="81.9644" y1="178.4326" x2="91.5414" y2="102.1791">
				<stop  offset="0" style="stop-color:#CBC0DF"/>
				<stop  offset="1" style="stop-color:#E7DCED"/>
			</linearGradient>
			<path fill="url(#SVGID_14_)" d="M112.374,159.824c-1.904,11.245-11.97,18.738-26.404,18.738
				c-12.563,0-23.206-4.683-26.017-14.995c-2.811-10.305-1.723-29.364,2.028-41.235c0.561-1.771,1.236-3.479,2.02-5.102l0.008-0.018
				c0.709-1.467,1.5-2.868,2.375-4.18c0.008-0.008,0.008-0.016,0.008-0.016c4.583-6.9,11.294-11.41,18.878-11.41
				c7.898,0,13.94,3.248,18.054,8.054c1.912,2.234,3.412,4.807,4.484,7.543c1.236,3.148,2.275,6.488,3.1,9.934
				c0,0.025,0.008,0.058,0.016,0.1C113.52,138.02,114.072,149.783,112.374,159.824z"/>
			<linearGradient id="SVGID_15_" gradientUnits="userSpaceOnUse" x1="85.8579" y1="178.5625" x2="85.8579" y2="117.2129">
				<stop  offset="0" style="stop-color:#976AAD"/>
				<stop  offset="1" style="stop-color:#CDECFC"/>
			</linearGradient>
			<path opacity="0.3" fill="url(#SVGID_15_)" d="M112.374,159.824c-1.904,11.245-11.97,18.738-26.404,18.738
				c-12.563,0-23.206-4.683-26.017-14.995c-2.811-10.305-1.723-29.364,2.028-41.235c0.561-1.771,1.236-3.479,2.02-5.102l0.008-0.018
				c0,0-7.601,25.201-1.525,41.251c6.076,16.051,34.384,15.713,43.962,5.046c9.118-10.148,4.906-33.988,4.477-36.271
				C113.52,138.02,114.072,149.783,112.374,159.824z"/>
			<linearGradient id="SVGID_16_" gradientUnits="userSpaceOnUse" x1="85.27" y1="177.3145" x2="85.27" y2="128.9971">
				<stop  offset="0" style="stop-color:#B89ECB"/>
				<stop  offset="1" style="stop-color:#968AC2"/>
			</linearGradient>
			<path fill="url(#SVGID_16_)" d="M60.493,153.152c2.148-15.09,14.253-25.318,27.698-24.049
				c14.493,1.367,22.284,15.202,22.075,27.073c-0.207,11.871-8.885,21.138-24.435,21.138
				C70.281,177.314,58.483,167.266,60.493,153.152z"/>
			<radialGradient id="SVGID_17_" cx="86.2388" cy="171.0664" r="36.8713" gradientUnits="userSpaceOnUse">
				<stop  offset="0" style="stop-color:#7DCBB5"/>
				<stop  offset="1" style="stop-color:#5CCAEA"/>
			</radialGradient>
			<path fill="url(#SVGID_17_)" d="M60.628,154.402c2.148-15.09,14.254-25.319,27.699-24.05
				c14.493,1.368,22.283,15.202,22.076,27.073c-0.209,11.871-8.885,21.139-24.436,21.139
				C70.417,178.564,58.619,168.515,60.628,154.402z"/>
			<linearGradient id="SVGID_18_" gradientUnits="userSpaceOnUse" x1="84.7993" y1="116.5635" x2="84.7993" y2="101.6084">
				<stop  offset="0" style="stop-color:#90A3D3"/>
				<stop  offset="1" style="stop-color:#745FA9"/>
			</linearGradient>
			<path opacity="0.5" fill="url(#SVGID_18_)" d="M103.323,109.662c-3.075,4.822-20.001,7.63-29.783,6.736
				c-8.516-0.777-7.224-3.076-7.157-3.365c0.008-0.008,0.008-0.016,0.008-0.016c4.583-6.9,11.294-11.41,18.878-11.41
				C93.167,101.608,99.208,104.855,103.323,109.662z"/>
			<path fill="#FFFFFF" d="M97.306,118.021c-0.786,0.26-0.824,6.604,0,7.626s2.146,0.708,2.587-0.786
				C100.333,123.367,98.497,117.629,97.306,118.021z"/>
			<path fill="#FFFFFF" d="M98.76,127.338c-0.656,0.156-0.732,1.729-0.43,2.279c0.303,0.551,1.444,0.433,1.629-0.235
				C100.145,128.713,99.42,127.18,98.76,127.338z"/>
			<linearGradient id="SVGID_19_" gradientUnits="userSpaceOnUse" x1="86.4434" y1="175.8691" x2="86.4434" y2="167.499">
				<stop  offset="0" style="stop-color:#D6E1F3"/>
				<stop  offset="1" style="stop-color:#010101"/>
			</linearGradient>
			<path opacity="0.72" fill="url(#SVGID_19_)" d="M69.14,169.771c0,0,3.475,6.049,16.411,6.099
				c12.937,0.051,18.196-7.653,18.196-7.653s-5.967,3.891-14.503,1.555C80.708,167.435,72.267,166.121,69.14,169.771z"/>
			<linearGradient id="SVGID_20_" gradientUnits="userSpaceOnUse" x1="65.7163" y1="142.2148" x2="107.7329" y2="142.2148">
				<stop  offset="0" style="stop-color:#010101"/>
				<stop  offset="1" style="stop-color:#D6E1F3"/>
			</linearGradient>
			<path opacity="0.72" fill="url(#SVGID_20_)" d="M65.768,144.826c2.555,4.076,13.068,1.906,24.916,3.062
				c11.848,1.156,13.869,5.011,16.368,4.229s-1.448-18.615-19.15-19.826C70.2,131.081,65.132,143.813,65.768,144.826z"/>
		</g>
		<linearGradient id="SVGID_21_" gradientUnits="userSpaceOnUse" x1="102.2065" y1="120.6484" x2="111.9634" y2="120.6484">
			<stop  offset="0" style="stop-color:#7E78B8"/>
			<stop  offset="1" style="stop-color:#968AC2"/>
		</linearGradient>
		<path fill="url(#SVGID_21_)" d="M104.258,110.828c0,0-0.936-1.166-2.052-1.742c0,0,3.258,16.414,9.757,23.125
			C111.963,132.211,109.14,116.734,104.258,110.828z"/>
		<linearGradient id="SVGID_22_" gradientUnits="userSpaceOnUse" x1="121.3032" y1="61.9365" x2="121.3032" y2="27.2612">
			<stop  offset="0" style="stop-color:#B8ACD4"/>
			<stop  offset="1" style="stop-color:#E0D1E7"/>
		</linearGradient>
		<path fill="url(#SVGID_22_)" d="M111.42,33.595c0,0,6.255-5.396,13.909-6.334c0,0,2.345,1.146,5.052,9.58
			s-2.291,25.095-2.291,25.095L111.42,33.595z"/>
		<linearGradient id="SVGID_23_" gradientUnits="userSpaceOnUse" x1="123.8208" y1="46.1089" x2="123.8208" y2="27.2588">
			<stop  offset="0" style="stop-color:#B89ECB"/>
			<stop  offset="1" style="stop-color:#968AC2"/>
		</linearGradient>
		<path fill="url(#SVGID_23_)" d="M125.33,27.261c0,0-6.194,6.639-6.194,17.338l2.395,1.51l6.978-14.441
			C128.507,31.668,126.192,27.135,125.33,27.261z"/>
		<linearGradient id="SVGID_24_" gradientUnits="userSpaceOnUse" x1="128.5073" y1="63.5957" x2="128.5073" y2="29.5264">
			<stop  offset="0" style="stop-color:#7DCBB5"/>
			<stop  offset="1" style="stop-color:#5CCAEA"/>
		</linearGradient>
		<path fill="url(#SVGID_24_)" d="M121.303,45.38c0,0-1.647-9.137,4.365-15.854c0,0,6.795,3.202,9.606,15.073
			s-4.507,18.997-4.507,18.997L121.303,45.38z"/>
		<path fill="#FFFFFF" d="M117.807,29.921c-1.155,0.624-1.063,1.87,1.33,1.558c2.393-0.312,3.694-2.187,3.434-2.551
			C122.311,28.563,119.104,29.221,117.807,29.921z"/>
		
			<linearGradient id="SVGID_25_" gradientUnits="userSpaceOnUse" x1="188.3442" y1="63.2886" x2="188.3442" y2="28.6133" gradientTransform="matrix(-1 0 0 1 237.4092 0)">
			<stop  offset="0" style="stop-color:#B8ACD4"/>
			<stop  offset="1" style="stop-color:#E0D1E7"/>
		</linearGradient>
		<path fill="url(#SVGID_25_)" d="M58.946,34.947c0,0-6.254-5.396-13.909-6.333c0,0-2.344,1.146-5.051,9.58
			s2.291,25.095,2.291,25.095L58.946,34.947z"/>
		
			<linearGradient id="SVGID_26_" gradientUnits="userSpaceOnUse" x1="190.8628" y1="47.4609" x2="190.8628" y2="28.6108" gradientTransform="matrix(-1 0 0 1 237.4092 0)">
			<stop  offset="0" style="stop-color:#B89ECB"/>
			<stop  offset="1" style="stop-color:#968AC2"/>
		</linearGradient>
		<path fill="url(#SVGID_26_)" d="M45.037,28.614c0,0,6.195,6.638,6.195,17.337l-2.395,1.51L41.859,33.02
			C41.859,33.02,44.175,28.487,45.037,28.614z"/>
		
			<linearGradient id="SVGID_27_" gradientUnits="userSpaceOnUse" x1="195.5239" y1="65.7168" x2="195.5239" y2="30.8779" gradientTransform="matrix(-1 0 0 1 237.4092 0)">
			<stop  offset="0" style="stop-color:#7DCBB5"/>
			<stop  offset="1" style="stop-color:#5CCAEA"/>
		</linearGradient>
		<path fill="url(#SVGID_27_)" d="M49.064,46.732c0,0,1.647-9.138-4.366-15.854c0,0-6.794,3.202-9.606,15.073
			c-2.812,11.871,5.292,19.766,5.292,19.766L49.064,46.732z"/>
		<path fill="#FFFFFF" d="M52.559,31.273c1.156,0.624,1.063,1.871-1.33,1.558c-2.393-0.313-3.694-2.187-3.434-2.551
			C48.056,29.916,51.262,30.573,52.559,31.273z"/>
		<linearGradient id="SVGID_28_" gradientUnits="userSpaceOnUse" x1="82.0781" y1="107.7266" x2="92.6548" y2="23.5141">
			<stop  offset="0" style="stop-color:#CBC0DF"/>
			<stop  offset="1" style="stop-color:#E7DCED"/>
		</linearGradient>
		<path fill="url(#SVGID_28_)" d="M41.374,92.741c9.58,22.101,81.289,15.21,89.857-2.946c9.371-19.858-12.177-68.934-46.54-66.643
			C55.661,25.087,29.058,64.33,41.374,92.741z"/>
		<linearGradient id="SVGID_29_" gradientUnits="userSpaceOnUse" x1="85.4829" y1="101.959" x2="85.4829" y2="32.3442">
			<stop  offset="0" style="stop-color:#2366B1"/>
			<stop  offset="1" style="stop-color:#2C2D72"/>
		</linearGradient>
		<path fill="url(#SVGID_29_)" d="M45.33,89.623c9.164,18.127,71.756,15.134,80.901-1.532c7.766-14.152-10.573-57.242-42.02-55.706
			S36.536,72.225,45.33,89.623z"/>
		<path fill="#FFFFFF" d="M94.818,27.259c-0.653,0.781,6.95,4.083,7.966,3.62S97.004,24.649,94.818,27.259z"/>
		<linearGradient id="SVGID_30_" gradientUnits="userSpaceOnUse" x1="56.3242" y1="47.9131" x2="117.7349" y2="47.9131">
			<stop  offset="0" style="stop-color:#010101"/>
			<stop  offset="1" style="stop-color:#7594CC"/>
		</linearGradient>
		<path opacity="0.5" fill="url(#SVGID_30_)" d="M56.368,50.539c-0.72,4.317,7.46,3.826,20.545,3.393
			c15.724-0.521,31.523,13.016,40.716,3.301c1.515-1.601-13.539-22.622-31.709-22.151C67.75,35.553,56.993,46.791,56.368,50.539z"/>
		<linearGradient id="SVGID_31_" gradientUnits="userSpaceOnUse" x1="64.3999" y1="97.0234" x2="109.0493" y2="97.0234">
			<stop  offset="0" style="stop-color:#010101"/>
			<stop  offset="1" style="stop-color:#7594CC"/>
		</linearGradient>
		<path opacity="0.5" fill="url(#SVGID_31_)" d="M64.47,95.595c-0.831,3.129,5.716,6.259,21.814,5.471
			c19.462-0.953,23.595-5.03,22.639-6.16c-0.575-0.678-6.405,2.994-22.389-0.51C75.978,92.082,65.343,92.303,64.47,95.595z"/>
		
			<linearGradient id="SVGID_32_" gradientUnits="userSpaceOnUse" x1="50.543" y1="65.1514" x2="50.543" y2="42.376" gradientTransform="matrix(0.9977 0.0684 -0.0684 0.9977 3.7464 20.0392)">
			<stop  offset="0" style="stop-color:#010101"/>
			<stop  offset="1" style="stop-color:#5BCAE8"/>
		</linearGradient>
		<path opacity="0.2" fill="url(#SVGID_32_)" d="M47.077,85.867c0,0-0.676-4.536,0.122-10.626c0.797-6.091,2.434-10.025,3.408-9.473
			c0.974,0.553,0.823,6.517,1.398,12.395c0.448,4.573,1.327,8.866,1.327,8.866S49.125,91.053,47.077,85.867z"/>
		<linearGradient id="SVGID_33_" gradientUnits="userSpaceOnUse" x1="51.8213" y1="100.1953" x2="51.8213" y2="89.52">
			<stop  offset="0" style="stop-color:#90A3D3"/>
			<stop  offset="1" style="stop-color:#745FA9"/>
		</linearGradient>
		<path opacity="0.5" fill="url(#SVGID_33_)" d="M48.421,100.195c0,0,0.967-1.047,6.162-4.1c3.484-2.048,7.139-4.469,7.658-5.356
			c0.772-2.091-14.907-0.857-14.907-0.857l-5.961,2.859C41.374,92.741,43.742,97.423,48.421,100.195z"/>
		<linearGradient id="SVGID_34_" gradientUnits="userSpaceOnUse" x1="32.1821" y1="94.2988" x2="37.235" y2="54.0675">
			<stop  offset="0" style="stop-color:#B89ECB"/>
			<stop  offset="1" style="stop-color:#968AC2"/>
		</linearGradient>
		<path fill="url(#SVGID_34_)" d="M36.439,53.967c0,0,4.045,2.604,1.393,8.632c0,0-18.897,10.292-17.804,21.507
			c0.913,9.358,27.022,4.827,27.022,4.827l0.937,3.124c0,0-22.18,4.339-29.833-0.876c0,0-2.604-6.181,3.853-17.323
			C28.463,62.717,36.439,53.967,36.439,53.967z"/>
		
			<linearGradient id="SVGID_35_" gradientUnits="userSpaceOnUse" x1="48.459" y1="16.2607" x2="48.459" y2="4.9204" gradientTransform="matrix(0.9734 0.2292 -0.2292 0.9734 8.3587 67.6015)">
			<stop  offset="0" style="stop-color:#DC208F"/>
			<stop  offset="1" style="stop-color:#ED247E"/>
		</linearGradient>
		<path fill="url(#SVGID_35_)" d="M43.746,88.066c-2.379,2.691,2.67,5.636,6.821,6.088c4.658,0.507,12.931-1.336,12.431-6.027
			C62.497,83.436,49.323,81.757,43.746,88.066z"/>
		<linearGradient id="SVGID_36_" gradientUnits="userSpaceOnUse" x1="52.5015" y1="89.0454" x2="52.5015" y2="84.2305">
			<stop  offset="0" style="stop-color:#AD56A1"/>
			<stop  offset="1" style="stop-color:#F171AB"/>
		</linearGradient>
		<path fill="url(#SVGID_36_)" d="M44.061,88.562c-0.142,0.768,16.485,0.952,16.876-1.987
			C61.327,83.636,45.154,82.627,44.061,88.562z"/>
		<linearGradient id="SVGID_37_" gradientUnits="userSpaceOnUse" x1="123.4253" y1="38.0332" x2="132.2896" y2="38.0332">
			<stop  offset="0" style="stop-color:#010101"/>
			<stop  offset="1" style="stop-color:#D6E1F3"/>
		</linearGradient>
		<path opacity="0.72" fill="url(#SVGID_37_)" d="M131.185,34.885c0,0-2.203-2.73-5.206-2.004s-3.202,10.187-1.406,10.421
			c1.797,0.234,2.559-5.232,3.935-6.092c1.376-0.859,3.782-0.525,3.782-0.525L131.185,34.885z"/>
		<linearGradient id="SVGID_38_" gradientUnits="userSpaceOnUse" x1="103.0298" y1="104.3086" x2="103.0298" y2="83.583">
			<stop  offset="0" style="stop-color:#90A3D3"/>
			<stop  offset="1" style="stop-color:#745FA9"/>
		</linearGradient>
		<path opacity="0.5" fill="url(#SVGID_38_)" d="M103.747,104.309c0,0-10.277-10.368-13.566-20.726l25.7,16.926
			C115.88,100.509,107.148,103.573,103.747,104.309z"/>
		<linearGradient id="SVGID_39_" gradientUnits="userSpaceOnUse" x1="37.6113" y1="37.4155" x2="47.3804" y2="37.4155">
			<stop  offset="0" style="stop-color:#D6E1F3"/>
			<stop  offset="1" style="stop-color:#010101"/>
		</linearGradient>
		<path opacity="0.72" fill="url(#SVGID_39_)" d="M37.611,38.92c0,0,1.159-1.313,3.762-0.887c2.603,0.426,4.104,5.768,5.436,5.231
			c1.332-0.536,0.355-9.192-3.166-11.736C43.644,31.528,39.106,35.402,37.611,38.92z"/>
		<linearGradient id="SVGID_40_" gradientUnits="userSpaceOnUse" x1="28.5801" y1="71.2949" x2="28.5801" y2="60.0366">
			<stop  offset="0" style="stop-color:#CBC0DF"/>
			<stop  offset="1" style="stop-color:#E7DCED"/>
		</linearGradient>
		<path fill="url(#SVGID_40_)" d="M32.812,60.037c0,0-9.036,10.495-8.463,11.223C24.921,71.989,33.381,61.097,32.812,60.037z"/>
		<radialGradient id="SVGID_41_" cx="65.5645" cy="64.0806" r="11.8023" gradientUnits="userSpaceOnUse">
			<stop  offset="0" style="stop-color:#7DCBB5"/>
			<stop  offset="1" style="stop-color:#5CCAEA"/>
		</radialGradient>
		<path fill="url(#SVGID_41_)" d="M56.979,63.596c0,0,8.315-1.235,16.421,1.234c1.208,0.368-2.526-4.004-8.21-4.793
			C59.505,59.247,56.6,61.629,56.979,63.596z"/>
		<path fill="#3095CD" d="M76.874,81.226c1.421-4.298,6.821-4.108,7.925-0.252c1.174,4.1-3.567,8.818-5.715,8.072
			C76.937,88.299,75.824,84.401,76.874,81.226z"/>
		<linearGradient id="SVGID_42_" gradientUnits="userSpaceOnUse" x1="112.7349" y1="96.1768" x2="112.7349" y2="41.4561">
			<stop  offset="0" style="stop-color:#2366B1"/>
			<stop  offset="1" style="stop-color:#2C2D72"/>
		</linearGradient>
		<path fill="url(#SVGID_42_)" d="M91.084,75.892c-5.072-14.081,8.26-32.143,28.762-34.436c0,0,19.443,12.511,14.943,47.062
			C134.79,88.518,104.221,112.369,91.084,75.892z"/>
		<linearGradient id="SVGID_43_" gradientUnits="userSpaceOnUse" x1="127.1821" y1="87.5625" x2="132.7739" y2="43.0407">
			<stop  offset="0" style="stop-color:#CBC0DF"/>
			<stop  offset="1" style="stop-color:#E7DCED"/>
		</linearGradient>
		<path fill="url(#SVGID_43_)" d="M119.846,41.456c0,0,6.928,0.06,15.074,6.842s11.995,26.669-0.131,40.22
			C134.79,88.518,140.217,60.752,119.846,41.456z"/>
		<radialGradient id="SVGID_44_" cx="114.8735" cy="72.2495" r="17.3265" gradientUnits="userSpaceOnUse">
			<stop  offset="0" style="stop-color:#7DCBB5"/>
			<stop  offset="1" style="stop-color:#5CCAEA"/>
		</radialGradient>
		<path fill="url(#SVGID_44_)" d="M102.887,71.295c0.588,6.429,19.717,5.822,22.808,0c2.48-4.673-4.724-19.906-12.341-18.819
			C105.737,53.563,102.057,62.249,102.887,71.295z"/>
		<linearGradient id="SVGID_45_" gradientUnits="userSpaceOnUse" x1="110.3081" y1="100.0908" x2="123.8667" y2="42.4998">
			<stop  offset="0" style="stop-color:#DC208F"/>
			<stop  offset="1" style="stop-color:#ED247E"/>
		</linearGradient>
		<path fill="url(#SVGID_45_)" d="M117.086,41.719c-16.334,0-29.575,13.241-29.575,29.576s13.241,29.576,29.575,29.576
			c16.335,0,29.576-13.242,29.576-29.576S133.421,41.719,117.086,41.719z M117.086,95.922c-13.6,0-24.626-11.026-24.626-24.627
			s11.026-24.626,24.626-24.626c13.602,0,24.627,11.025,24.627,24.626S130.688,95.922,117.086,95.922z"/>
		<linearGradient id="SVGID_46_" gradientUnits="userSpaceOnUse" x1="110.3071" y1="98.021" x2="123.8656" y2="40.4305">
			<stop  offset="0" style="stop-color:#AD56A1"/>
			<stop  offset="1" style="stop-color:#F171AB"/>
		</linearGradient>
		<path fill="url(#SVGID_46_)" d="M117.086,39.65c-16.334,0-29.575,13.242-29.575,29.576c0,16.334,13.241,29.576,29.575,29.576
			c16.335,0,29.576-13.242,29.576-29.576C146.663,52.892,133.421,39.65,117.086,39.65z M117.086,93.853
			c-13.6,0-24.626-11.026-24.626-24.627c0-13.601,11.026-24.626,24.626-24.626c13.602,0,24.627,11.026,24.627,24.626
			C141.713,82.827,130.688,93.853,117.086,93.853z"/>
		<linearGradient id="SVGID_47_" gradientUnits="userSpaceOnUse" x1="124.8999" y1="132.5527" x2="128.3889" y2="104.7734">
			<stop  offset="0" style="stop-color:#CBC0DF"/>
			<stop  offset="1" style="stop-color:#E7DCED"/>
		</linearGradient>
		<path fill="url(#SVGID_47_)" d="M150.01,115.113c0,0-6.399,12.1-14.549,16.13c-8.141,4.03-20.53-0.819-24.541-4.011
			c-5.469-4.35-7.479-19.35-5.17-19.35c2.09,0,4.141,1.59,10.78,2.43c0.011,0,0.021,0,0.021,0c1.789,0.23,3.91,0.4,6.459,0.471
			c6.041,0.16,11.631-1.27,15.261-2.51c2.64-0.9,4.25-1.69,4.25-1.69C147.34,106.553,150.01,115.113,150.01,115.113z"/>
		<linearGradient id="SVGID_48_" gradientUnits="userSpaceOnUse" x1="146.6958" y1="117.4834" x2="146.6958" y2="107.0918">
			<stop  offset="0" style="stop-color:#B89ECB"/>
			<stop  offset="1" style="stop-color:#968AC2"/>
		</linearGradient>
		<path fill="url(#SVGID_48_)" d="M141.713,107.092c0,0-0.588,8.898,2.835,10.121s5.462-2.1,5.462-2.1l1.705-3.617L141.713,107.092z
			"/>
		<linearGradient id="SVGID_49_" gradientUnits="userSpaceOnUse" x1="143.7173" y1="114.5449" x2="145.5169" y2="89.1893">
			<stop  offset="0" style="stop-color:#8458A4"/>
			<stop  offset="1" style="stop-color:#ED247E"/>
		</linearGradient>
		<path fill="url(#SVGID_49_)" d="M131.182,96.292c0,0,12.205,13.389,20.542,18.821c0,0,5.179-0.617,6.189-5.74l-17.811-20.568
			L131.182,96.292z"/>
		<linearGradient id="SVGID_50_" gradientUnits="userSpaceOnUse" x1="142.3882" y1="113.4688" x2="142.3882" y2="89.5435">
			<stop  offset="0" style="stop-color:#90A3D3"/>
			<stop  offset="1" style="stop-color:#745FA9"/>
		</linearGradient>
		<path opacity="0.5" fill="url(#SVGID_50_)" d="M152.981,103.674c0,0-11.402-8.744-13.486-9.438c0,0-1.646,2.106-2.369,4.566
			c-0.721,2.459,12.266,14.667,12.266,14.667s-12.076-9.795-17.596-16.513c0,0,6.102-4.331,8.936-7.413L152.981,103.674z"/>
		<linearGradient id="SVGID_51_" gradientUnits="userSpaceOnUse" x1="134.2944" y1="104.6963" x2="135.1222" y2="98.1055">
			<stop  offset="0" style="stop-color:#CBC0DF"/>
			<stop  offset="1" style="stop-color:#E7DCED"/>
		</linearGradient>
		<path fill="url(#SVGID_51_)" d="M138.165,103.719c-0.16,0.709-5.141,2.09-6.5-0.541c-0.141-0.27-0.25-0.529-0.34-0.789
			c-0.78-2.271,0.32-4.071,1.35-4.59c0,0,0.01,0.01,0.021,0.02l0.069,0.07C133.475,98.538,138.305,103.059,138.165,103.719z"/>
		<linearGradient id="SVGID_52_" gradientUnits="userSpaceOnUse" x1="146.0747" y1="102.8066" x2="148.2235" y2="85.6974">
			<stop  offset="0" style="stop-color:#CBC0DF"/>
			<stop  offset="1" style="stop-color:#E7DCED"/>
		</linearGradient>
		<path fill="url(#SVGID_52_)" d="M152.981,103.674l-2.43-2.801c0,0-8.17-4.06-9.82-11.33c-0.01-0.01-0.01-0.02-0.01-0.02
			s1.9-3.88,5.939-4c1.61-0.05,3.061,2.07,4.17,4.93h0.01C152.521,94.793,153.441,100.833,152.981,103.674z"/>
		<linearGradient id="SVGID_53_" gradientUnits="userSpaceOnUse" x1="127.4087" y1="132.7734" x2="127.4087" y2="106.583">
			<stop  offset="0" style="stop-color:#976AAD"/>
			<stop  offset="1" style="stop-color:#CDECFC"/>
		</linearGradient>
		<path opacity="0.3" fill="url(#SVGID_53_)" d="M150.01,115.113c0,0-6.399,12.1-14.549,16.13c-8.141,4.03-20.53-0.819-24.541-4.011
			c-5.469-4.35-7.479-19.35-5.17-19.35c2.09,0,4.141,1.59,10.78,2.43c-0.409-0.029-6.069-0.42-7.069,1.181
			c-1.041,1.66,10.379,18.33,21.72,13.69c11.35-4.641,9.04-16.871,7.11-16.91c-0.011,0-0.011,0-0.021,0
			c2.64-0.9,4.25-1.69,4.25-1.69C147.34,106.553,150.01,115.113,150.01,115.113z"/>
		<linearGradient id="SVGID_54_" gradientUnits="userSpaceOnUse" x1="134.7466" y1="104.7197" x2="134.7466" y2="97.8887">
			<stop  offset="0" style="stop-color:#976AAD"/>
			<stop  offset="1" style="stop-color:#CDECFC"/>
		</linearGradient>
		<path opacity="0.3" fill="url(#SVGID_54_)" d="M138.165,103.719c-0.16,0.709-5.141,2.09-6.5-0.541
			c-0.141-0.27-0.25-0.529-0.34-0.789c1.09,1.369,2.779,1.129,3.29-0.38c0.489-1.46-1.42-3.65-1.851-4.12
			C133.475,98.538,138.305,103.059,138.165,103.719z"/>
		<linearGradient id="SVGID_55_" gradientUnits="userSpaceOnUse" x1="146.9146" y1="103.6738" x2="146.9146" y2="89.5435">
			<stop  offset="0" style="stop-color:#976AAD"/>
			<stop  offset="1" style="stop-color:#CDECFC"/>
		</linearGradient>
		<path opacity="0.3" fill="url(#SVGID_55_)" d="M152.981,103.674l-2.43-2.801c0,0-8.17-4.06-9.82-11.33
			c0.2,0.39,4.131,6.501,8.332,7.065c3.095,0.416,1.868-5.745,1.768-6.155h0.01C152.521,94.793,153.441,100.833,152.981,103.674z"/>
		<path fill="#FFFFFF" d="M22.047,154.405c0,0-1.441,2.039-1.112,5.119C20.935,159.524,22.453,157.479,22.047,154.405z"/>
		<path fill="#FFFFFF" d="M11.126,167.5c0,0,0.285-2.337,2.274-3.948C13.4,163.552,12.453,166.9,11.126,167.5z"/>
		<path fill="#FFFFFF" d="M35.947,132.773c-0.314-0.529,5.742-6.324,7.465-6.531c1.724-0.206-0.592,0.6-2.039,2.754
			C39.926,131.152,36.516,133.73,35.947,132.773z"/>
		<path fill="#FFFFFF" d="M45.042,124.994c-0.627-0.717,2.748-1.989,2.748-1.989S45.705,125.752,45.042,124.994z"/>
		<path fill="#FFFFFF" d="M117.086,114.447c-0.234,1.389,6.84,1.389,6.713,0C123.673,113.057,117.322,113.057,117.086,114.447z"/>
		<path fill="#FFFFFF" d="M70.676,186.02c-0.941,0.438,0.798,5.201,2.096,5.102S71.774,185.51,70.676,186.02z"/>
		
			<radialGradient id="SVGID_56_" cx="101.2104" cy="71.5566" r="24.1277" gradientTransform="matrix(1.0194 0 0 0.9833 13.9057 -0.2345)" gradientUnits="userSpaceOnUse">
			<stop  offset="0" style="stop-color:#010101"/>
			<stop  offset="0.237" style="stop-color:#040404"/>
			<stop  offset="0.3781" style="stop-color:#0C0F0E"/>
			<stop  offset="0.494" style="stop-color:#171C1C"/>
			<stop  offset="0.5963" style="stop-color:#242B2B"/>
			<stop  offset="0.6897" style="stop-color:#323D3E"/>
			<stop  offset="0.7766" style="stop-color:#445556"/>
			<stop  offset="0.8584" style="stop-color:#597679"/>
			<stop  offset="0.9341" style="stop-color:#73A0A7"/>
			<stop  offset="1" style="stop-color:#8FD5E3"/>
		</radialGradient>
		<ellipse opacity="0.5" fill="url(#SVGID_56_)" cx="117.079" cy="70.128" rx="24.596" ry="23.725"/>
		<linearGradient id="SVGID_57_" gradientUnits="userSpaceOnUse" x1="95.271" y1="58.1709" x2="138.9038" y2="58.1709">
			<stop  offset="0" style="stop-color:#7594CC"/>
			<stop  offset="1" style="stop-color:#010101"/>
		</linearGradient>
		<path opacity="0.5" fill="url(#SVGID_57_)" d="M95.274,64.279c0.213,4.374,7.313,5.942,21.127-0.867
			c10.967-5.407,21.545,0.767,22.452-0.922s-10.583-15.639-23.056-14.069C103.327,49.991,95.084,60.378,95.274,64.279z"/>
	</g>
</g>
</svg>
