<?xml version="1.0" encoding="utf-8"?>
<!-- Generator: Adobe Illustrator 16.0.0, SVG Export Plug-In . SVG Version: 6.00 Build 0)  -->
<!DOCTYPE svg PUBLIC "-//W3C//DTD SVG 1.1//EN" "http://www.w3.org/Graphics/SVG/1.1/DTD/svg11.dtd">
<svg version="1.1" id="Layer_1" xmlns="http://www.w3.org/2000/svg" xmlns:xlink="http://www.w3.org/1999/xlink" x="0px" y="0px"
	 width="300px" height="300px" viewBox="0 0 300 300" enable-background="new 0 0 300 300" xml:space="preserve">
<g>
	<g>
		<path fill="#E6F6FD" d="M80.614,218.579c10.604,22.255,112.938,19.019,138.722,1.733
			c25.783-17.284-31.485-162.559-100.785-159.528C67.957,62.998,53.396,161.46,80.614,218.579z"/>
		<path fill="#E6F6FD" d="M231.68,208.324c-4.383-0.715-7.113-23.982-1.926-28.477c5.187-4.494,15.836,5.769,15.836,13.568
			S239.287,209.564,231.68,208.324z"/>
		<path fill="#E6F6FD" d="M107.588,54.453c1.085,3.272-9.546,10.263-13.26,7.559c-3.714-2.703-1.539-11.037,1.815-12.675
			C99.497,47.699,106.018,49.716,107.588,54.453z"/>
	</g>
	<g>
		<linearGradient id="SVGID_1_" gradientUnits="userSpaceOnUse" x1="134.1299" y1="251.4238" x2="138.2951" y2="218.2601">
			<stop  offset="0" style="stop-color:#CBC0DF"/>
			<stop  offset="1" style="stop-color:#E7DCED"/>
		</linearGradient>
		<path fill="url(#SVGID_1_)" d="M150.386,227.839c0,0,0,0.01,0,0.029c-0.01,0.79-0.23,16.08-3.29,22.25
			c-0.79,1.61-1.78,2.601-3.01,2.551c-4.34-0.181-14.19-18.49-18.08-28.881c-0.89-2.38-1.47-4.34-1.59-5.569
			c-0.09-0.9,0.05-1.41,0.49-1.42c0.9-0.021,1.81,0.02,2.71,0.12c0.12,0.02,0.24,0.029,0.36,0.05c10.79,1.3,21.25,9.89,22.32,10.8
			C150.356,227.818,150.386,227.839,150.386,227.839z"/>
		<linearGradient id="SVGID_2_" gradientUnits="userSpaceOnUse" x1="137.1968" y1="227.9766" x2="137.1968" y2="216.7607">
			<stop  offset="0" style="stop-color:#B89ECB"/>
			<stop  offset="1" style="stop-color:#968AC2"/>
		</linearGradient>
		<path fill="url(#SVGID_2_)" d="M150.386,227.839c-14.37,1.25-23.93-6.351-25.97-9.62c-0.53-0.83-0.55-1.38-0.03-1.42
			c1.03-0.08,2.11-0.03,3.23,0.12c0.12,0.02,0.24,0.029,0.36,0.05c9.52,1.439,21.15,9.939,22.32,10.8
			C150.356,227.818,150.386,227.839,150.386,227.839z"/>
		<linearGradient id="SVGID_3_" gradientUnits="userSpaceOnUse" x1="159.6035" y1="253.0938" x2="164.3406" y2="215.3769">
			<stop  offset="0" style="stop-color:#CBC0DF"/>
			<stop  offset="1" style="stop-color:#E7DCED"/>
		</linearGradient>
		<path fill="url(#SVGID_3_)" d="M176.366,218.238c-0.13,1.38-0.84,3.69-1.93,6.471c-4.091,10.5-13.521,27.81-17.75,27.989
			c-1.03,0.04-1.89-0.64-2.61-1.819c-3.52-5.721-3.69-23.011-3.69-23.011s0.03-0.02,0.09-0.069c1.081-0.91,11.571-9.54,22.38-10.811
			c0.09-0.01,0.19-0.02,0.3-0.04c0.91-0.1,1.82-0.14,2.721-0.12C176.307,216.839,176.457,217.349,176.366,218.238z"/>
		<linearGradient id="SVGID_4_" gradientUnits="userSpaceOnUse" x1="163.5762" y1="228.0068" x2="163.5762" y2="216.79">
			<stop  offset="0" style="stop-color:#B89ECB"/>
			<stop  offset="1" style="stop-color:#968AC2"/>
		</linearGradient>
		<path fill="url(#SVGID_4_)" d="M176.366,218.238c-2,3.25-11.58,10.891-25.98,9.63c0,0,0.03-0.02,0.09-0.069
			c1.17-0.87,12.85-9.391,22.38-10.811c0.09-0.01,0.19-0.02,0.3-0.04c1.109-0.149,2.2-0.2,3.23-0.12
			C176.906,216.868,176.887,217.408,176.366,218.238z"/>
		<linearGradient id="SVGID_5_" gradientUnits="userSpaceOnUse" x1="137.1968" y1="250.1182" x2="137.1968" y2="216.7607">
			<stop  offset="0" style="stop-color:#976AAD"/>
			<stop  offset="1" style="stop-color:#CDECFC"/>
		</linearGradient>
		<path opacity="0.3" fill="url(#SVGID_5_)" d="M150.386,227.839c0,0,0,0.01,0,0.029c-0.01,0.79-0.23,16.08-3.29,22.25
			c0,0-0.85-16.159-5.15-19.819c-4.29-3.67-15.94-6.511-15.94-6.511c-0.89-2.38-1.47-4.34-1.59-5.569
			c-0.53-0.83-0.55-1.38-0.03-1.42c1.03-0.08,2.11-0.03,3.23,0.12c0.12,0.02,0.24,0.029,0.36,0.05c10.79,1.3,21.25,9.89,22.32,10.8
			C150.356,227.818,150.386,227.839,150.386,227.839z"/>
		<linearGradient id="SVGID_6_" gradientUnits="userSpaceOnUse" x1="163.5762" y1="250.8789" x2="163.5762" y2="216.79">
			<stop  offset="0" style="stop-color:#976AAD"/>
			<stop  offset="1" style="stop-color:#CDECFC"/>
		</linearGradient>
		<path opacity="0.3" fill="url(#SVGID_6_)" d="M176.366,218.238c-0.13,1.38-0.84,3.69-1.93,6.471c-2.03,0.43-12.771,2.92-16.57,9.5
			c-3.18,5.489-3.72,13.189-3.79,16.67c-3.52-5.721-3.69-23.011-3.69-23.011s0.03-0.02,0.09-0.069
			c1.081-0.91,11.571-9.54,22.38-10.811c0.09-0.01,0.19-0.02,0.3-0.04c1.109-0.149,2.2-0.2,3.23-0.12
			C176.906,216.868,176.887,217.408,176.366,218.238z"/>
		<linearGradient id="SVGID_7_" gradientUnits="userSpaceOnUse" x1="105.4492" y1="207.8027" x2="111.7119" y2="157.9391">
			<stop  offset="0" style="stop-color:#CBC0DF"/>
			<stop  offset="1" style="stop-color:#E7DCED"/>
		</linearGradient>
		<path fill="url(#SVGID_7_)" d="M130.016,171.679c-0.33,3.11-0.91,6.569-1.93,10.01c0,0-0.95,1.399-2.85,3.56
			c-4.71,5.36-15.23,15.41-31.47,20.461c-0.39,0.14-0.78,0.25-1.18,0.369c-2.62,0.761-7.43-7.1-4.94-13.789
			c0.23-0.641,0.53-1.261,0.91-1.871c1.03-1.66,3.08-3.93,5.8-6.5c7.09-6.719,18.78-15.459,29.1-20.68h0.01
			c2.36-1.199,4.65-2.21,6.79-2.97C130.256,160.269,130.696,165.209,130.016,171.679z"/>
		<linearGradient id="SVGID_8_" gradientUnits="userSpaceOnUse" x1="90.9673" y1="207.8408" x2="90.9673" y2="189.3555">
			<stop  offset="0" style="stop-color:#B89ECB"/>
			<stop  offset="1" style="stop-color:#968AC2"/>
		</linearGradient>
		<path fill="url(#SVGID_8_)" d="M93.766,205.709c-0.28,0.34-0.61,0.64-0.95,0.899c-3.9,2.9-9.62,1.22-6.46-10.87
			c0,0,0.28-1.77,1.29-3.449c0.84-1.4,2.2-2.73,4.34-2.92C97.326,188.889,97.926,200.969,93.766,205.709z"/>
		<linearGradient id="SVGID_9_" gradientUnits="userSpaceOnUse" x1="107.9185" y1="207.8408" x2="107.9185" y2="160.2686">
			<stop  offset="0" style="stop-color:#976AAD"/>
			<stop  offset="1" style="stop-color:#CDECFC"/>
		</linearGradient>
		<path opacity="0.3" fill="url(#SVGID_9_)" d="M130.016,171.679l-4.78,13.569c-4.71,5.36-15.23,15.41-31.47,20.461
			c-0.28,0.34-0.61,0.64-0.95,0.899c-3.9,2.9-9.62,1.22-6.46-10.87c0,0,0.28-1.77,1.29-3.449c0.23-0.641,0.53-1.261,0.91-1.871
			c1.03-1.66,3.08-3.93,5.8-6.5c-0.2,0.36-1.59,3.131,1.36,4.19c3.16,1.13,19.83-2.84,27.16-10.69c7.32-7.84,7.09-15.16,0.59-14.18
			c2.36-1.199,4.65-2.21,6.79-2.97C130.256,160.269,130.696,165.209,130.016,171.679z"/>
		<linearGradient id="SVGID_10_" gradientUnits="userSpaceOnUse" x1="80.7192" y1="223.2529" x2="84.4653" y2="193.4262">
			<stop  offset="0" style="stop-color:#CBC0DF"/>
			<stop  offset="1" style="stop-color:#E7DCED"/>
		</linearGradient>
		<path fill="url(#SVGID_10_)" d="M90.935,194.242c-4.122-0.748-16.624,8.311-20.608,26.558c0,0,0.275,1.466,3.984,1.599
			s10.065-6.66,14.375-10.655C92.995,207.747,97.805,195.488,90.935,194.242z"/>
		<linearGradient id="SVGID_11_" gradientUnits="userSpaceOnUse" x1="84.3789" y1="222.3984" x2="84.3789" y2="195.0566">
			<stop  offset="0" style="stop-color:#B89ECB"/>
			<stop  offset="1" style="stop-color:#968AC2"/>
		</linearGradient>
		<path fill="url(#SVGID_11_)" d="M74.311,222.398c0,0,6.479-9.66,7.778-12.058c0,0,2.462-11.991,6.329-14.384
			c3.778-2.338,5.147,0.279,5.96,3.264C95.191,202.207,88.892,220.268,74.311,222.398z"/>
		<linearGradient id="SVGID_12_" gradientUnits="userSpaceOnUse" x1="84.1646" y1="216.4043" x2="84.1646" y2="198.5977">
			<stop  offset="0" style="stop-color:#90A3D3"/>
			<stop  offset="1" style="stop-color:#745FA9"/>
		</linearGradient>
		<path opacity="0.5" fill="url(#SVGID_12_)" d="M81.777,212.29c0,0,1.553,3.553,3.524,4.114c0,0-1.659-11.641,1.251-17.807
			C86.553,198.598,82.793,204.349,81.777,212.29z"/>
		<linearGradient id="SVGID_13_" gradientUnits="userSpaceOnUse" x1="87.5708" y1="217.0742" x2="90.2316" y2="195.8891">
			<stop  offset="0" style="stop-color:#CBC0DF"/>
			<stop  offset="1" style="stop-color:#E7DCED"/>
		</linearGradient>
		<path fill="url(#SVGID_13_)" d="M88.187,196.691c0,0,4.002-2.799,6.191,2.529c0,0-0.748,8.725-5.622,17.516
			c0,0-2.493,0.71-3.455-0.332C83.163,214.087,83.791,199.755,88.187,196.691z"/>
		<g>
			<linearGradient id="SVGID_14_" gradientUnits="userSpaceOnUse" x1="146.4697" y1="227.208" x2="156.0468" y2="150.9545">
				<stop  offset="0" style="stop-color:#CBC0DF"/>
				<stop  offset="1" style="stop-color:#E7DCED"/>
			</linearGradient>
			<path fill="url(#SVGID_14_)" d="M176.879,208.6c-1.904,11.245-11.97,18.738-26.404,18.738c-12.563,0-23.206-4.683-26.017-14.995
				c-2.811-10.305-1.723-29.364,2.028-41.235c0.561-1.771,1.236-3.479,2.02-5.102l0.008-0.018c0.709-1.467,1.5-2.868,2.375-4.18
				c0.008-0.008,0.008-0.016,0.008-0.016c4.583-6.9,11.294-11.41,18.878-11.41c7.898,0,13.94,3.248,18.054,8.054
				c1.912,2.234,3.412,4.807,4.484,7.543c1.236,3.148,2.275,6.488,3.1,9.934c0,0.025,0.008,0.058,0.016,0.1
				C178.025,186.795,178.577,198.559,176.879,208.6z"/>
			<linearGradient id="SVGID_15_" gradientUnits="userSpaceOnUse" x1="150.3633" y1="227.3379" x2="150.3633" y2="165.9883">
				<stop  offset="0" style="stop-color:#976AAD"/>
				<stop  offset="1" style="stop-color:#CDECFC"/>
			</linearGradient>
			<path opacity="0.3" fill="url(#SVGID_15_)" d="M176.879,208.6c-1.904,11.245-11.97,18.738-26.404,18.738
				c-12.563,0-23.206-4.683-26.017-14.995c-2.811-10.305-1.723-29.364,2.028-41.235c0.561-1.771,1.236-3.479,2.02-5.102l0.008-0.018
				c0,0-7.601,25.201-1.525,41.251c6.076,16.051,34.384,15.713,43.962,5.046c9.118-10.148,4.906-33.988,4.477-36.271
				C178.025,186.795,178.577,198.559,176.879,208.6z"/>
			<linearGradient id="SVGID_16_" gradientUnits="userSpaceOnUse" x1="149.7754" y1="226.0898" x2="149.7754" y2="177.7725">
				<stop  offset="0" style="stop-color:#B89ECB"/>
				<stop  offset="1" style="stop-color:#968AC2"/>
			</linearGradient>
			<path fill="url(#SVGID_16_)" d="M124.998,201.928c2.148-15.09,14.253-25.318,27.698-24.049
				c14.493,1.367,22.284,15.202,22.075,27.073c-0.207,11.871-8.885,21.138-24.435,21.138
				C134.786,226.09,122.989,216.041,124.998,201.928z"/>
			<radialGradient id="SVGID_17_" cx="150.7441" cy="219.8418" r="36.8713" gradientUnits="userSpaceOnUse">
				<stop  offset="0" style="stop-color:#7DCBB5"/>
				<stop  offset="1" style="stop-color:#5CCAEA"/>
			</radialGradient>
			<path fill="url(#SVGID_17_)" d="M125.133,203.178c2.148-15.09,14.254-25.319,27.699-24.05
				c14.493,1.368,22.283,15.202,22.076,27.073c-0.209,11.871-8.885,21.139-24.436,21.139
				C134.922,227.34,123.125,217.29,125.133,203.178z"/>
			<linearGradient id="SVGID_18_" gradientUnits="userSpaceOnUse" x1="149.3047" y1="165.3389" x2="149.3047" y2="150.3838">
				<stop  offset="0" style="stop-color:#90A3D3"/>
				<stop  offset="1" style="stop-color:#745FA9"/>
			</linearGradient>
			<path opacity="0.5" fill="url(#SVGID_18_)" d="M167.828,158.438c-3.075,4.822-20.001,7.63-29.783,6.736
				c-8.516-0.777-7.224-3.076-7.157-3.365c0.008-0.008,0.008-0.016,0.008-0.016c4.583-6.9,11.294-11.41,18.878-11.41
				C157.672,150.383,163.714,153.631,167.828,158.438z"/>
			<path fill="#FFFFFF" d="M161.812,166.797c-0.786,0.26-0.824,6.604,0,7.626s2.146,0.708,2.587-0.786
				C164.839,172.143,163.002,166.404,161.812,166.797z"/>
			<path fill="#FFFFFF" d="M163.266,176.113c-0.656,0.156-0.732,1.729-0.43,2.279c0.303,0.551,1.444,0.433,1.629-0.235
				C164.65,177.488,163.926,175.955,163.266,176.113z"/>
			<linearGradient id="SVGID_19_" gradientUnits="userSpaceOnUse" x1="150.9487" y1="224.6445" x2="150.9487" y2="216.2744">
				<stop  offset="0" style="stop-color:#D6E1F3"/>
				<stop  offset="1" style="stop-color:#010101"/>
			</linearGradient>
			<path opacity="0.72" fill="url(#SVGID_19_)" d="M133.645,218.546c0,0,3.475,6.049,16.411,6.099
				c12.937,0.051,18.196-7.653,18.196-7.653s-5.967,3.891-14.503,1.555C145.213,216.21,136.772,214.896,133.645,218.546z"/>
			<linearGradient id="SVGID_20_" gradientUnits="userSpaceOnUse" x1="130.2217" y1="190.9902" x2="172.2383" y2="190.9902">
				<stop  offset="0" style="stop-color:#010101"/>
				<stop  offset="1" style="stop-color:#D6E1F3"/>
			</linearGradient>
			<path opacity="0.72" fill="url(#SVGID_20_)" d="M130.273,193.602c2.555,4.076,13.068,1.906,24.916,3.062
				c11.848,1.156,13.869,5.011,16.368,4.229s-1.448-18.615-19.15-19.826C134.706,179.856,129.638,192.588,130.273,193.602z"/>
		</g>
		<linearGradient id="SVGID_21_" gradientUnits="userSpaceOnUse" x1="166.7119" y1="169.4238" x2="176.4688" y2="169.4238">
			<stop  offset="0" style="stop-color:#7E78B8"/>
			<stop  offset="1" style="stop-color:#968AC2"/>
		</linearGradient>
		<path fill="url(#SVGID_21_)" d="M168.764,159.604c0,0-0.936-1.166-2.052-1.742c0,0,3.258,16.414,9.757,23.125
			C176.469,180.986,173.646,165.51,168.764,159.604z"/>
		<linearGradient id="SVGID_22_" gradientUnits="userSpaceOnUse" x1="185.8086" y1="110.7119" x2="185.8086" y2="76.0366">
			<stop  offset="0" style="stop-color:#B8ACD4"/>
			<stop  offset="1" style="stop-color:#E0D1E7"/>
		</linearGradient>
		<path fill="url(#SVGID_22_)" d="M175.926,82.371c0,0,6.255-5.396,13.909-6.334c0,0,2.345,1.146,5.052,9.58
			s-2.291,25.095-2.291,25.095L175.926,82.371z"/>
		<linearGradient id="SVGID_23_" gradientUnits="userSpaceOnUse" x1="188.3262" y1="94.8843" x2="188.3262" y2="76.0342">
			<stop  offset="0" style="stop-color:#B89ECB"/>
			<stop  offset="1" style="stop-color:#968AC2"/>
		</linearGradient>
		<path fill="url(#SVGID_23_)" d="M189.835,76.037c0,0-6.194,6.639-6.194,17.338l2.395,1.51l6.978-14.441
			C193.013,80.443,190.697,75.91,189.835,76.037z"/>
		<linearGradient id="SVGID_24_" gradientUnits="userSpaceOnUse" x1="193.0127" y1="112.3711" x2="193.0127" y2="78.3018">
			<stop  offset="0" style="stop-color:#7DCBB5"/>
			<stop  offset="1" style="stop-color:#5CCAEA"/>
		</linearGradient>
		<path fill="url(#SVGID_24_)" d="M185.809,94.155c0,0-1.647-9.137,4.365-15.854c0,0,6.795,3.202,9.606,15.073
			s-4.507,18.997-4.507,18.997L185.809,94.155z"/>
		<path fill="#FFFFFF" d="M182.313,78.696c-1.155,0.624-1.063,1.87,1.33,1.558c2.393-0.312,3.694-2.187,3.434-2.551
			C186.816,77.338,183.609,77.996,182.313,78.696z"/>
		
			<linearGradient id="SVGID_25_" gradientUnits="userSpaceOnUse" x1="252.8496" y1="112.064" x2="252.8496" y2="77.3887" gradientTransform="matrix(-1 0 0 1 366.4199 0)">
			<stop  offset="0" style="stop-color:#B8ACD4"/>
			<stop  offset="1" style="stop-color:#E0D1E7"/>
		</linearGradient>
		<path fill="url(#SVGID_25_)" d="M123.451,83.723c0,0-6.254-5.396-13.909-6.333c0,0-2.344,1.146-5.051,9.58
			s2.291,25.095,2.291,25.095L123.451,83.723z"/>
		
			<linearGradient id="SVGID_26_" gradientUnits="userSpaceOnUse" x1="255.3682" y1="96.2363" x2="255.3682" y2="77.3862" gradientTransform="matrix(-1 0 0 1 366.4199 0)">
			<stop  offset="0" style="stop-color:#B89ECB"/>
			<stop  offset="1" style="stop-color:#968AC2"/>
		</linearGradient>
		<path fill="url(#SVGID_26_)" d="M109.542,77.389c0,0,6.195,6.638,6.195,17.337l-2.395,1.51l-6.978-14.441
			C106.365,81.795,108.68,77.263,109.542,77.389z"/>
		
			<linearGradient id="SVGID_27_" gradientUnits="userSpaceOnUse" x1="260.0293" y1="114.4922" x2="260.0293" y2="79.6533" gradientTransform="matrix(-1 0 0 1 366.4199 0)">
			<stop  offset="0" style="stop-color:#7DCBB5"/>
			<stop  offset="1" style="stop-color:#5CCAEA"/>
		</linearGradient>
		<path fill="url(#SVGID_27_)" d="M113.569,95.508c0,0,1.647-9.138-4.366-15.854c0,0-6.794,3.202-9.606,15.073
			c-2.812,11.871,5.292,19.766,5.292,19.766L113.569,95.508z"/>
		<path fill="#FFFFFF" d="M117.064,80.048c1.156,0.624,1.063,1.871-1.33,1.558c-2.393-0.313-3.694-2.187-3.434-2.551
			C112.562,78.691,115.768,79.348,117.064,80.048z"/>
		<linearGradient id="SVGID_28_" gradientUnits="userSpaceOnUse" x1="146.5835" y1="156.502" x2="157.1602" y2="72.2895">
			<stop  offset="0" style="stop-color:#CBC0DF"/>
			<stop  offset="1" style="stop-color:#E7DCED"/>
		</linearGradient>
		<path fill="url(#SVGID_28_)" d="M105.879,141.516c9.58,22.101,81.289,15.21,89.857-2.946c9.371-19.858-12.177-68.934-46.54-66.643
			C120.167,73.863,93.563,113.105,105.879,141.516z"/>
		<linearGradient id="SVGID_29_" gradientUnits="userSpaceOnUse" x1="149.9883" y1="150.7344" x2="149.9883" y2="81.1196">
			<stop  offset="0" style="stop-color:#2366B1"/>
			<stop  offset="1" style="stop-color:#2C2D72"/>
		</linearGradient>
		<path fill="url(#SVGID_29_)" d="M109.835,138.398c9.164,18.127,71.756,15.134,80.901-1.532
			c7.766-14.152-10.573-57.242-42.02-55.706S101.041,121,109.835,138.398z"/>
		<path fill="#FFFFFF" d="M159.323,76.034c-0.653,0.781,6.95,4.083,7.966,3.62S161.51,73.425,159.323,76.034z"/>
		<linearGradient id="SVGID_30_" gradientUnits="userSpaceOnUse" x1="120.8296" y1="96.6885" x2="182.2402" y2="96.6885">
			<stop  offset="0" style="stop-color:#010101"/>
			<stop  offset="1" style="stop-color:#7594CC"/>
		</linearGradient>
		<path opacity="0.5" fill="url(#SVGID_30_)" d="M120.874,99.314c-0.72,4.317,7.46,3.826,20.545,3.393
			c15.724-0.521,31.523,13.016,40.716,3.301c1.515-1.601-13.539-22.622-31.709-22.151C132.255,84.329,121.498,95.566,120.874,99.314
			z"/>
		<linearGradient id="SVGID_31_" gradientUnits="userSpaceOnUse" x1="128.9053" y1="145.7988" x2="173.5547" y2="145.7988">
			<stop  offset="0" style="stop-color:#010101"/>
			<stop  offset="1" style="stop-color:#7594CC"/>
		</linearGradient>
		<path opacity="0.5" fill="url(#SVGID_31_)" d="M128.975,144.37c-0.831,3.129,5.716,6.259,21.814,5.471
			c19.462-0.953,23.595-5.03,22.639-6.16c-0.575-0.678-6.405,2.994-22.389-0.51C140.483,140.857,129.849,141.078,128.975,144.37z"/>
		
			<linearGradient id="SVGID_32_" gradientUnits="userSpaceOnUse" x1="115.0483" y1="113.9268" x2="115.0483" y2="91.1514" gradientTransform="matrix(0.9977 0.0684 -0.0684 0.9977 7.231 15.7393)">
			<stop  offset="0" style="stop-color:#010101"/>
			<stop  offset="1" style="stop-color:#5BCAE8"/>
		</linearGradient>
		<path opacity="0.2" fill="url(#SVGID_32_)" d="M111.582,134.643c0,0-0.676-4.536,0.122-10.626
			c0.797-6.091,2.434-10.025,3.408-9.473c0.974,0.553,0.823,6.517,1.398,12.395c0.448,4.573,1.327,8.866,1.327,8.866
			S113.63,139.829,111.582,134.643z"/>
		<linearGradient id="SVGID_33_" gradientUnits="userSpaceOnUse" x1="116.3267" y1="148.9707" x2="116.3267" y2="138.2954">
			<stop  offset="0" style="stop-color:#90A3D3"/>
			<stop  offset="1" style="stop-color:#745FA9"/>
		</linearGradient>
		<path opacity="0.5" fill="url(#SVGID_33_)" d="M112.926,148.971c0,0,0.967-1.047,6.162-4.1c3.484-2.048,7.139-4.469,7.658-5.356
			c0.772-2.091-14.907-0.857-14.907-0.857l-5.961,2.859C105.879,141.516,108.248,146.198,112.926,148.971z"/>
		<linearGradient id="SVGID_34_" gradientUnits="userSpaceOnUse" x1="96.6875" y1="143.0742" x2="101.7404" y2="102.8429">
			<stop  offset="0" style="stop-color:#B89ECB"/>
			<stop  offset="1" style="stop-color:#968AC2"/>
		</linearGradient>
		<path fill="url(#SVGID_34_)" d="M100.945,102.743c0,0,4.045,2.604,1.393,8.632c0,0-18.897,10.292-17.804,21.507
			c0.913,9.358,27.022,4.827,27.022,4.827l0.937,3.124c0,0-22.18,4.339-29.833-0.876c0,0-2.604-6.181,3.853-17.323
			C92.968,111.493,100.945,102.743,100.945,102.743z"/>
		
			<linearGradient id="SVGID_35_" gradientUnits="userSpaceOnUse" x1="112.9644" y1="65.0361" x2="112.9644" y2="53.6958" gradientTransform="matrix(0.9734 0.2292 -0.2292 0.9734 21.2539 54.1143)">
			<stop  offset="0" style="stop-color:#DC208F"/>
			<stop  offset="1" style="stop-color:#ED247E"/>
		</linearGradient>
		<path fill="url(#SVGID_35_)" d="M108.251,136.842c-2.379,2.691,2.67,5.636,6.821,6.088c4.658,0.507,12.931-1.336,12.431-6.027
			C127.002,132.211,113.829,130.533,108.251,136.842z"/>
		<linearGradient id="SVGID_36_" gradientUnits="userSpaceOnUse" x1="117.0068" y1="137.8208" x2="117.0068" y2="133.0059">
			<stop  offset="0" style="stop-color:#AD56A1"/>
			<stop  offset="1" style="stop-color:#F171AB"/>
		</linearGradient>
		<path fill="url(#SVGID_36_)" d="M108.566,137.337c-0.142,0.768,16.485,0.952,16.876-1.987
			C125.833,132.411,109.659,131.402,108.566,137.337z"/>
		<linearGradient id="SVGID_37_" gradientUnits="userSpaceOnUse" x1="187.9307" y1="86.8086" x2="196.7949" y2="86.8086">
			<stop  offset="0" style="stop-color:#010101"/>
			<stop  offset="1" style="stop-color:#D6E1F3"/>
		</linearGradient>
		<path opacity="0.72" fill="url(#SVGID_37_)" d="M195.69,83.66c0,0-2.203-2.73-5.206-2.004s-3.202,10.187-1.406,10.421
			c1.797,0.234,2.559-5.232,3.935-6.092c1.376-0.859,3.782-0.525,3.782-0.525L195.69,83.66z"/>
		<linearGradient id="SVGID_38_" gradientUnits="userSpaceOnUse" x1="167.5352" y1="153.084" x2="167.5352" y2="132.3584">
			<stop  offset="0" style="stop-color:#90A3D3"/>
			<stop  offset="1" style="stop-color:#745FA9"/>
		</linearGradient>
		<path opacity="0.5" fill="url(#SVGID_38_)" d="M168.252,153.084c0,0-10.277-10.368-13.566-20.726l25.7,16.926
			C180.386,149.284,171.653,152.349,168.252,153.084z"/>
		<linearGradient id="SVGID_39_" gradientUnits="userSpaceOnUse" x1="102.1167" y1="86.1909" x2="111.8857" y2="86.1909">
			<stop  offset="0" style="stop-color:#D6E1F3"/>
			<stop  offset="1" style="stop-color:#010101"/>
		</linearGradient>
		<path opacity="0.72" fill="url(#SVGID_39_)" d="M102.117,87.696c0,0,1.159-1.313,3.762-0.887c2.603,0.426,4.104,5.768,5.436,5.231
			c1.332-0.536,0.355-9.192-3.166-11.736C108.149,80.304,103.612,84.177,102.117,87.696z"/>
		<linearGradient id="SVGID_40_" gradientUnits="userSpaceOnUse" x1="93.0854" y1="120.0703" x2="93.0854" y2="108.812">
			<stop  offset="0" style="stop-color:#CBC0DF"/>
			<stop  offset="1" style="stop-color:#E7DCED"/>
		</linearGradient>
		<path fill="url(#SVGID_40_)" d="M97.317,108.812c0,0-9.036,10.495-8.463,11.223C89.426,120.764,97.886,109.872,97.317,108.812z"/>
		<radialGradient id="SVGID_41_" cx="130.0698" cy="112.856" r="11.8023" gradientUnits="userSpaceOnUse">
			<stop  offset="0" style="stop-color:#7DCBB5"/>
			<stop  offset="1" style="stop-color:#5CCAEA"/>
		</radialGradient>
		<path fill="url(#SVGID_41_)" d="M121.484,112.371c0,0,8.315-1.235,16.421,1.234c1.208,0.368-2.526-4.004-8.21-4.793
			C124.011,108.022,121.105,110.404,121.484,112.371z"/>
		<path fill="#3095CD" d="M141.379,130.001c1.421-4.298,6.821-4.108,7.925-0.252c1.174,4.1-3.567,8.818-5.715,8.072
			C141.442,137.075,140.329,133.176,141.379,130.001z"/>
		<linearGradient id="SVGID_42_" gradientUnits="userSpaceOnUse" x1="177.2402" y1="144.9521" x2="177.2402" y2="90.2314">
			<stop  offset="0" style="stop-color:#2366B1"/>
			<stop  offset="1" style="stop-color:#2C2D72"/>
		</linearGradient>
		<path fill="url(#SVGID_42_)" d="M155.59,124.667c-5.072-14.081,8.26-32.143,28.762-34.436c0,0,19.443,12.511,14.943,47.062
			C199.295,137.293,168.727,161.145,155.59,124.667z"/>
		<linearGradient id="SVGID_43_" gradientUnits="userSpaceOnUse" x1="191.6875" y1="136.3379" x2="197.2792" y2="91.8161">
			<stop  offset="0" style="stop-color:#CBC0DF"/>
			<stop  offset="1" style="stop-color:#E7DCED"/>
		</linearGradient>
		<path fill="url(#SVGID_43_)" d="M184.352,90.231c0,0,6.928,0.06,15.074,6.842s11.995,26.669-0.131,40.22
			C199.295,137.293,204.723,109.528,184.352,90.231z"/>
		<radialGradient id="SVGID_44_" cx="179.3789" cy="121.0249" r="17.3265" gradientUnits="userSpaceOnUse">
			<stop  offset="0" style="stop-color:#7DCBB5"/>
			<stop  offset="1" style="stop-color:#5CCAEA"/>
		</radialGradient>
		<path fill="url(#SVGID_44_)" d="M167.393,120.07c0.588,6.429,19.717,5.822,22.808,0c2.48-4.673-4.724-19.906-12.341-18.819
			C170.242,102.338,166.563,111.024,167.393,120.07z"/>
		<linearGradient id="SVGID_45_" gradientUnits="userSpaceOnUse" x1="174.8135" y1="148.8662" x2="188.372" y2="91.2752">
			<stop  offset="0" style="stop-color:#DC208F"/>
			<stop  offset="1" style="stop-color:#ED247E"/>
		</linearGradient>
		<path fill="url(#SVGID_45_)" d="M181.592,90.495c-16.334,0-29.575,13.241-29.575,29.576s13.241,29.576,29.575,29.576
			c16.335,0,29.576-13.242,29.576-29.576S197.927,90.495,181.592,90.495z M181.592,144.697c-13.6,0-24.626-11.026-24.626-24.627
			s11.026-24.626,24.626-24.626c13.602,0,24.627,11.025,24.627,24.626S195.193,144.697,181.592,144.697z"/>
		<linearGradient id="SVGID_46_" gradientUnits="userSpaceOnUse" x1="174.8125" y1="146.7964" x2="188.3709" y2="89.2058">
			<stop  offset="0" style="stop-color:#AD56A1"/>
			<stop  offset="1" style="stop-color:#F171AB"/>
		</linearGradient>
		<path fill="url(#SVGID_46_)" d="M181.592,88.425c-16.334,0-29.575,13.242-29.575,29.576c0,16.334,13.241,29.576,29.575,29.576
			c16.335,0,29.576-13.242,29.576-29.576C211.168,101.667,197.927,88.425,181.592,88.425z M181.592,142.628
			c-13.6,0-24.626-11.026-24.626-24.627c0-13.601,11.026-24.626,24.626-24.626c13.602,0,24.627,11.026,24.627,24.626
			C206.219,131.602,195.193,142.628,181.592,142.628z"/>
		<linearGradient id="SVGID_47_" gradientUnits="userSpaceOnUse" x1="189.4053" y1="181.3281" x2="192.8942" y2="153.5488">
			<stop  offset="0" style="stop-color:#CBC0DF"/>
			<stop  offset="1" style="stop-color:#E7DCED"/>
		</linearGradient>
		<path fill="url(#SVGID_47_)" d="M214.516,163.889c0,0-6.399,12.1-14.549,16.13c-8.141,4.03-20.53-0.819-24.541-4.011
			c-5.469-4.35-7.479-19.35-5.17-19.35c2.09,0,4.141,1.59,10.78,2.43c0.011,0,0.021,0,0.021,0c1.789,0.23,3.91,0.4,6.459,0.471
			c6.041,0.16,11.631-1.27,15.261-2.51c2.64-0.9,4.25-1.69,4.25-1.69C211.846,155.328,214.516,163.889,214.516,163.889z"/>
		<linearGradient id="SVGID_48_" gradientUnits="userSpaceOnUse" x1="211.2012" y1="166.2588" x2="211.2012" y2="155.8672">
			<stop  offset="0" style="stop-color:#B89ECB"/>
			<stop  offset="1" style="stop-color:#968AC2"/>
		</linearGradient>
		<path fill="url(#SVGID_48_)" d="M206.219,155.867c0,0-0.588,8.898,2.835,10.121s5.462-2.1,5.462-2.1l1.705-3.617L206.219,155.867z
			"/>
		<linearGradient id="SVGID_49_" gradientUnits="userSpaceOnUse" x1="208.2227" y1="163.3203" x2="210.0223" y2="137.9647">
			<stop  offset="0" style="stop-color:#8458A4"/>
			<stop  offset="1" style="stop-color:#ED247E"/>
		</linearGradient>
		<path fill="url(#SVGID_49_)" d="M195.688,145.068c0,0,12.205,13.389,20.542,18.821c0,0,5.179-0.617,6.189-5.74l-17.811-20.568
			L195.688,145.068z"/>
		<linearGradient id="SVGID_50_" gradientUnits="userSpaceOnUse" x1="206.8936" y1="162.2441" x2="206.8936" y2="138.3188">
			<stop  offset="0" style="stop-color:#90A3D3"/>
			<stop  offset="1" style="stop-color:#745FA9"/>
		</linearGradient>
		<path opacity="0.5" fill="url(#SVGID_50_)" d="M217.486,152.449c0,0-11.402-8.744-13.486-9.438c0,0-1.646,2.106-2.369,4.566
			c-0.721,2.459,12.266,14.667,12.266,14.667s-12.076-9.795-17.596-16.513c0,0,6.102-4.331,8.936-7.413L217.486,152.449z"/>
		<linearGradient id="SVGID_51_" gradientUnits="userSpaceOnUse" x1="198.7998" y1="153.4717" x2="199.6276" y2="146.8809">
			<stop  offset="0" style="stop-color:#CBC0DF"/>
			<stop  offset="1" style="stop-color:#E7DCED"/>
		</linearGradient>
		<path fill="url(#SVGID_51_)" d="M202.67,152.494c-0.16,0.709-5.141,2.09-6.5-0.541c-0.141-0.27-0.25-0.529-0.34-0.789
			c-0.78-2.271,0.32-4.071,1.35-4.59c0,0,0.01,0.01,0.021,0.02l0.069,0.07C197.98,147.313,202.811,151.834,202.67,152.494z"/>
		<linearGradient id="SVGID_52_" gradientUnits="userSpaceOnUse" x1="210.5801" y1="151.582" x2="212.7289" y2="134.4728">
			<stop  offset="0" style="stop-color:#CBC0DF"/>
			<stop  offset="1" style="stop-color:#E7DCED"/>
		</linearGradient>
		<path fill="url(#SVGID_52_)" d="M217.486,152.449l-2.43-2.801c0,0-8.17-4.06-9.82-11.33c-0.01-0.01-0.01-0.02-0.01-0.02
			s1.9-3.88,5.939-4c1.61-0.05,3.061,2.07,4.17,4.93h0.01C217.026,143.568,217.946,149.608,217.486,152.449z"/>
		<linearGradient id="SVGID_53_" gradientUnits="userSpaceOnUse" x1="191.9141" y1="181.5488" x2="191.9141" y2="155.3584">
			<stop  offset="0" style="stop-color:#976AAD"/>
			<stop  offset="1" style="stop-color:#CDECFC"/>
		</linearGradient>
		<path opacity="0.3" fill="url(#SVGID_53_)" d="M214.516,163.889c0,0-6.399,12.1-14.549,16.13
			c-8.141,4.03-20.53-0.819-24.541-4.011c-5.469-4.35-7.479-19.35-5.17-19.35c2.09,0,4.141,1.59,10.78,2.43
			c-0.409-0.029-6.069-0.42-7.069,1.181c-1.041,1.66,10.379,18.33,21.72,13.69c11.35-4.641,9.04-16.871,7.11-16.91
			c-0.011,0-0.011,0-0.021,0c2.64-0.9,4.25-1.69,4.25-1.69C211.846,155.328,214.516,163.889,214.516,163.889z"/>
		<linearGradient id="SVGID_54_" gradientUnits="userSpaceOnUse" x1="199.252" y1="153.4951" x2="199.252" y2="146.6641">
			<stop  offset="0" style="stop-color:#976AAD"/>
			<stop  offset="1" style="stop-color:#CDECFC"/>
		</linearGradient>
		<path opacity="0.3" fill="url(#SVGID_54_)" d="M202.67,152.494c-0.16,0.709-5.141,2.09-6.5-0.541
			c-0.141-0.27-0.25-0.529-0.34-0.789c1.09,1.369,2.779,1.129,3.29-0.38c0.489-1.46-1.42-3.65-1.851-4.12
			C197.98,147.313,202.811,151.834,202.67,152.494z"/>
		<linearGradient id="SVGID_55_" gradientUnits="userSpaceOnUse" x1="211.4199" y1="152.4492" x2="211.4199" y2="138.3188">
			<stop  offset="0" style="stop-color:#976AAD"/>
			<stop  offset="1" style="stop-color:#CDECFC"/>
		</linearGradient>
		<path opacity="0.3" fill="url(#SVGID_55_)" d="M217.486,152.449l-2.43-2.801c0,0-8.17-4.06-9.82-11.33
			c0.2,0.39,4.131,6.501,8.332,7.065c3.095,0.416,1.868-5.745,1.768-6.155h0.01C217.026,143.568,217.946,149.608,217.486,152.449z"
			/>
		<path fill="#FFFFFF" d="M86.553,203.181c0,0-1.441,2.039-1.112,5.119C85.44,208.3,86.958,206.255,86.553,203.181z"/>
		<path fill="#FFFFFF" d="M75.631,216.275c0,0,0.285-2.337,2.274-3.948C77.905,212.327,76.958,215.676,75.631,216.275z"/>
		<path fill="#FFFFFF" d="M100.453,181.549c-0.314-0.529,5.742-6.324,7.465-6.531c1.724-0.206-0.592,0.6-2.039,2.754
			C104.432,179.928,101.021,182.506,100.453,181.549z"/>
		<path fill="#FFFFFF" d="M109.547,173.77c-0.627-0.717,2.748-1.989,2.748-1.989S110.21,174.527,109.547,173.77z"/>
		<path fill="#FFFFFF" d="M181.592,163.223c-0.234,1.389,6.84,1.389,6.713,0C188.179,161.832,181.827,161.832,181.592,163.223z"/>
		<path fill="#FFFFFF" d="M135.182,234.795c-0.941,0.438,0.798,5.201,2.096,5.102S136.279,234.285,135.182,234.795z"/>
		
			<radialGradient id="SVGID_56_" cx="165.7158" cy="120.332" r="24.1277" gradientTransform="matrix(1.0194 0 0 0.9833 12.6543 0.5801)" gradientUnits="userSpaceOnUse">
			<stop  offset="0" style="stop-color:#010101"/>
			<stop  offset="0.237" style="stop-color:#040404"/>
			<stop  offset="0.3781" style="stop-color:#0C0F0E"/>
			<stop  offset="0.494" style="stop-color:#171C1C"/>
			<stop  offset="0.5963" style="stop-color:#242B2B"/>
			<stop  offset="0.6897" style="stop-color:#323D3E"/>
			<stop  offset="0.7766" style="stop-color:#445556"/>
			<stop  offset="0.8584" style="stop-color:#597679"/>
			<stop  offset="0.9341" style="stop-color:#73A0A7"/>
			<stop  offset="1" style="stop-color:#8FD5E3"/>
		</radialGradient>
		<ellipse opacity="0.5" fill="url(#SVGID_56_)" cx="181.584" cy="118.903" rx="24.596" ry="23.725"/>
		<linearGradient id="SVGID_57_" gradientUnits="userSpaceOnUse" x1="159.7764" y1="106.9463" x2="203.4092" y2="106.9463">
			<stop  offset="0" style="stop-color:#7594CC"/>
			<stop  offset="1" style="stop-color:#010101"/>
		</linearGradient>
		<path opacity="0.5" fill="url(#SVGID_57_)" d="M159.779,113.055c0.213,4.374,7.313,5.942,21.127-0.867
			c10.967-5.407,21.545,0.767,22.452-0.922s-10.583-15.639-23.056-14.069C167.832,98.766,159.59,109.154,159.779,113.055z"/>
	</g>
</g>
</svg>
