<?xml version="1.0" encoding="UTF-8" standalone="no"?>
<svg
   width="64pt"
   height="64pt"
   viewBox="0 0 22.577778 22.577778"
   version="1.1"
   id="svg831"
   inkscape:version="1.1.1 (1:1.1+202109281949+c3084ef5ed)"
   sodipodi:docname="05 - Bubble Tea.svg"
   inkscape:export-filename="/media/taufikramadhan/Data/Tr Design Studio/Project Design/TR Creative Design/Icon Design/Project Hiring/Icon Icons/013 - Drinks And Restaurants/Send/1 - Line/04 - Blender.png"
   inkscape:export-xdpi="576"
   inkscape:export-ydpi="576"
   xmlns:inkscape="http://www.inkscape.org/namespaces/inkscape"
   xmlns:sodipodi="http://sodipodi.sourceforge.net/DTD/sodipodi-0.dtd"
   xmlns="http://www.w3.org/2000/svg"
   xmlns:svg="http://www.w3.org/2000/svg"
   xmlns:rdf="http://www.w3.org/1999/02/22-rdf-syntax-ns#"
   xmlns:cc="http://creativecommons.org/ns#"
   xmlns:dc="http://purl.org/dc/elements/1.1/">
  <defs
     id="defs825">
    <pattern
       id="EMFhbasepattern"
       patternUnits="userSpaceOnUse"
       width="6"
       height="6"
       x="0"
       y="0" />
    <pattern
       id="EMFhbasepattern-9"
       patternUnits="userSpaceOnUse"
       width="6"
       height="6"
       x="0"
       y="0" />
    <pattern
       id="EMFhbasepattern-0"
       patternUnits="userSpaceOnUse"
       width="6"
       height="6"
       x="0"
       y="0" />
    <pattern
       id="EMFhbasepattern-7"
       patternUnits="userSpaceOnUse"
       width="6"
       height="6"
       x="0"
       y="0" />
    <pattern
       id="EMFhbasepattern-2"
       patternUnits="userSpaceOnUse"
       width="6"
       height="6"
       x="0"
       y="0" />
    <pattern
       id="EMFhbasepattern-98"
       patternUnits="userSpaceOnUse"
       width="6"
       height="6"
       x="0"
       y="0" />
    <pattern
       id="EMFhbasepattern-6"
       patternUnits="userSpaceOnUse"
       width="6"
       height="6"
       x="0"
       y="0" />
    <pattern
       id="EMFhbasepattern-01"
       patternUnits="userSpaceOnUse"
       width="6"
       height="6"
       x="0"
       y="0" />
    <pattern
       id="EMFhbasepattern-07"
       patternUnits="userSpaceOnUse"
       width="6"
       height="6"
       x="0"
       y="0" />
    <pattern
       id="EMFhbasepattern-8"
       patternUnits="userSpaceOnUse"
       width="6"
       height="6"
       x="0"
       y="0" />
    <pattern
       id="EMFhbasepattern-4"
       patternUnits="userSpaceOnUse"
       width="6"
       height="6"
       x="0"
       y="0" />
    <pattern
       id="EMFhbasepattern-40"
       patternUnits="userSpaceOnUse"
       width="6"
       height="6"
       x="0"
       y="0" />
    <pattern
       id="EMFhbasepattern-08"
       patternUnits="userSpaceOnUse"
       width="6"
       height="6"
       x="0"
       y="0" />
    <pattern
       id="EMFhbasepattern-04"
       patternUnits="userSpaceOnUse"
       width="6"
       height="6"
       x="0"
       y="0" />
    <pattern
       id="EMFhbasepattern-014"
       patternUnits="userSpaceOnUse"
       width="6"
       height="6"
       x="0"
       y="0" />
    <pattern
       id="EMFhbasepattern-27"
       patternUnits="userSpaceOnUse"
       width="6"
       height="6"
       x="0"
       y="0" />
    <pattern
       id="EMFhbasepattern-09"
       patternUnits="userSpaceOnUse"
       width="6"
       height="6"
       x="0"
       y="0" />
    <pattern
       id="EMFhbasepattern-5"
       patternUnits="userSpaceOnUse"
       width="6"
       height="6"
       x="0"
       y="0" />
    <pattern
       id="EMFhbasepattern-018"
       patternUnits="userSpaceOnUse"
       width="6"
       height="6"
       x="0"
       y="0" />
  </defs>
  <sodipodi:namedview
     id="base"
     pagecolor="#ffffff"
     bordercolor="#666666"
     borderopacity="1.0"
     inkscape:pageopacity="0.0"
     inkscape:pageshadow="2"
     inkscape:zoom="4.6959085"
     inkscape:cx="42.590268"
     inkscape:cy="42.590268"
     inkscape:document-units="pt"
     inkscape:current-layer="layer1"
     showgrid="false"
     units="pt"
     inkscape:window-width="1366"
     inkscape:window-height="705"
     inkscape:window-x="0"
     inkscape:window-y="31"
     inkscape:window-maximized="1"
     inkscape:pagecheckerboard="true"
     inkscape:showpageshadow="false"
     inkscape:object-paths="true"
     inkscape:snap-intersection-paths="true"
     inkscape:snap-smooth-nodes="true"
     inkscape:snap-midpoints="true"
     showguides="true"
     inkscape:snap-bbox="true"
     inkscape:bbox-nodes="true"
     inkscape:snap-nodes="false"
     inkscape:snap-global="true"
     inkscape:document-rotation="0">
    <inkscape:grid
       type="xygrid"
       id="grid1378" />
    <sodipodi:guide
       position="0.97013831,21.607643"
       orientation="78.000048,0"
       id="guide1380"
       inkscape:locked="false" />
    <sodipodi:guide
       position="0.97013831,0.97013129"
       orientation="0,78.000005"
       id="guide1382"
       inkscape:locked="false" />
    <sodipodi:guide
       position="21.607639,0.97013129"
       orientation="-78.000048,0"
       id="guide1384"
       inkscape:locked="false" />
    <sodipodi:guide
       position="21.607639,21.607643"
       orientation="0,-78.000005"
       id="guide1386"
       inkscape:locked="false" />
  </sodipodi:namedview>
  <metadata
     id="metadata828">
    <rdf:RDF>
      <cc:Work
         rdf:about="">
        <dc:format>image/svg+xml</dc:format>
        <dc:type
           rdf:resource="http://purl.org/dc/dcmitype/StillImage" />
      </cc:Work>
    </rdf:RDF>
  </metadata>
  <g
     inkscape:label="Icon"
     inkscape:groupmode="layer"
     id="layer1"
     transform="translate(0,-274.42223)">
    <g
       id="g14602"
       style="display:inline;stroke-width:0.794878"
       transform="matrix(1.2580549,0,0,1.2580549,-76.1115,-38.905126)"
       inkscape:export-filename="/media/taufikramadhan/Data/Tr Design Studio/Project Design/TR Creative Design/Icon Design/Project Hiring/Icon Icons/013 - Drinks And Restaurants/Send/4 - Filledline/05 - Bubble Tea.png"
       inkscape:export-xdpi="576"
       inkscape:export-ydpi="576">
      <g
         id="g998657"
         style="display:inline;stroke-width:0.794878">
        <path
           style="color:#000000;fill:#e0dc93;stroke-width:0.794878;stroke-linecap:round;stroke-linejoin:round;-inkscape-stroke:none"
           d="m 65.373047,256.97266 a 0.26460996,0.26460996 0 0 0 -0.263672,0.27929 l 0.529297,8.73242 a 0.26460996,0.26460996 0 0 0 0.263672,0.24805 h 6.349609 a 0.26460996,0.26460996 0 0 0 0.263672,-0.24805 l 0.529297,-8.73242 a 0.26460996,0.26460996 0 0 0 -0.263672,-0.27929 z"
           id="path901761" />
        <path
           id="path994413"
           style="fill:#9d8f48;fill-opacity:1;stroke-width:3.00426;stroke-linecap:round;stroke-linejoin:round"
           d="m 275.09375,-70.027344 c -1.71833,0.576798 -3.15949,0.829087 -4.59961,1.183594 a 1.4581163,1.4581163 0 0 0 -0.0801,0.02148 c -0.009,0.0029 -0.0199,0.004 -0.0293,0.0078 -0.005,0.0015 -0.0103,0.0078 -0.0156,0.0078 -2.43796,0.717468 -4.54784,2.175821 -6.15625,4.185547 -0.10046,-0.02268 -0.20356,-0.05192 -0.30273,-0.07422 a 1.4581163,1.4581163 0 0 0 -0.008,0 c -1.4596,-0.329575 -2.93784,-0.662567 -5.07812,-1.814454 a 1.4581163,1.4581163 0 0 0 -0.008,0 c -0.82418,-0.439634 -1.89897,-0.360339 -2.64258,0.205078 -0.74361,0.565304 -1.11916,1.584397 -0.91602,2.496094 0.001,0.0076 0.41091,1.893404 1.08594,4.060547 0.66084,2.121525 1.38541,4.617816 3.10742,6.339844 0.40582,0.405826 0.843,0.784781 1.31055,1.121094 h 11.20117 c 0.73359,-0.208153 1.43258,-0.488766 2.08789,-0.824219 a 1.0001006,1.0001006 0 0 0 0.0234,-0.113281 z"
           transform="matrix(0.26458334,0,0,0.26458334,0,280.06666)" />
        <path
           style="color:#000000;fill:#d0e2ee;stroke-width:0.794878;stroke-linecap:round;stroke-linejoin:round;-inkscape-stroke:none"
           d="m 69.078125,251.94531 c -2.25256,0 -3.968754,1.77465 -3.96875,4.23242 a 0.26460996,0.26460996 0 0 0 0.263672,0.26563 h 7.408203 a 0.26460996,0.26460996 0 0 0 0.265625,-0.26563 c 3e-6,-2.45777 -1.71619,-4.23242 -3.96875,-4.23242 z"
           id="path901773" />
        <path
           style="color:#000000;fill:#3a4d5c;stroke-width:0.794878;stroke-linecap:round;stroke-linejoin:round;-inkscape-stroke:none"
           d="m 69.871094,256.17773 v -6.08398 c 5.68e-4,-0.14694 -0.118689,-0.26619 -0.265625,-0.26563 h -1.056641 c -0.146936,-5.6e-4 -0.266193,0.11869 -0.265625,0.26563 v 6.08398 z"
           id="path901767"
           sodipodi:nodetypes="ccccccc" />
        <path
           style="color:#000000;fill:#9a605a;stroke-width:0.794878;stroke-linecap:round;stroke-linejoin:round;-inkscape-stroke:none"
           d="m 68.019533,259.88281 c 0.435162,0 0.792969,-0.35976 0.792969,-0.79492 v -0.26367 h 1.058594 v 1.05859 c 0,0.43516 0.357807,0.79297 0.792968,0.79297 0.435162,0 0.794922,-0.35781 0.794922,-0.79297 v -1.05859 h 1.490636 l 0.09535,-1.57258 c 0.0084,-0.15147 -0.111972,-0.27899 -0.263672,-0.27929 l -7.408249,3.1e-4 c -0.1517,3e-4 -0.272088,0.12782 -0.263672,0.27929 l 0.0953,1.57227 h 0.961343 v 1.05859 c 0,0.43516 0.35976,0.79297 0.794921,0.79297 0.435162,0 0.792969,-0.35781 0.792969,-0.79297 z"
           id="path901783"
           sodipodi:nodetypes="csccsssccccccccsscc" />
        <path
           style="color:#000000;fill:#143441;stroke-width:0.794878;stroke-linecap:round;stroke-linejoin:round;-inkscape-stroke:none"
           d="m 66.960937,261.4707 c -0.435241,0 -0.794921,0.35773 -0.794921,0.79297 0,0.43524 0.35968,0.79297 0.794921,0.79297 0.435242,0 0.792969,-0.35773 0.792969,-0.79297 0,-0.43524 -0.357727,-0.79297 -0.792969,-0.79297 z"
           id="path901789" />
        <path
           style="color:#000000;fill:#349951;stroke-width:0.794878;stroke-linecap:round;stroke-linejoin:round;-inkscape-stroke:none"
           d="m 74.169922,261.41602 a 0.26460996,0.26460996 0 0 0 -0.195313,0.0215 c -1.012912,0.54514 -1.714568,0.64139 -2.314453,0.78906 a 0.26460996,0.26460996 0 0 0 -0.01172,0.004 c -0.742846,0.21772 -1.37143,0.65586 -1.736328,1.35156 a 0.26460996,0.26460996 0 0 0 -0.01563,0.20508 l 0.642578,1.95703 a 0.26460996,0.26460996 0 0 0 0.195313,0.17578 c 0.886009,0.19039 1.746786,-0.2167 2.271484,-0.73242 a 0.26460996,0.26460996 0 0 0 0.002,-0.002 c 0.443767,-0.44377 0.735182,-1.28099 0.970704,-2.03711 0.235522,-0.75612 0.380859,-1.42188 0.380859,-1.42188 a 0.26460996,0.26460996 0 0 0 -0.189453,-0.31054 z"
           id="path901797" />
        <path
           style="color:#000000;fill:#50b86b;stroke-width:0.794878;stroke-linecap:round;stroke-linejoin:round;-inkscape-stroke:none"
           d="m 68.296875,262.80859 a 0.26460996,0.26460996 0 0 0 -0.382813,0.29102 c 0,0 0.106106,0.48695 0.279297,1.04297 0.173192,0.55601 0.377911,1.17088 0.726563,1.51953 0.286287,0.28629 0.619374,0.49587 0.986328,0.55469 0.366954,0.0588 0.763395,-0.0583 1.072266,-0.36719 0.308871,-0.30887 0.426008,-0.70531 0.367187,-1.07227 -0.05882,-0.36695 -0.2684,-0.70003 -0.554687,-0.98632 -0.301184,-0.30119 -0.663167,-0.3773 -1.050782,-0.46485 -0.387614,-0.0875 -0.837073,-0.19128 -1.443359,-0.51758 z"
           id="path901807" />
        <path
           style="color:#000000;fill:#143441;stroke-width:0.794878;stroke-linecap:round;stroke-linejoin:round;-inkscape-stroke:none"
           d="m 69.607422,261.20508 c -0.435242,0 -0.794922,0.35968 -0.794922,0.79492 0,0.43524 0.357727,0.79297 0.792969,0.79297 0.435242,0 0.794922,-0.35773 0.794922,-0.79297 0,-0.43524 -0.357727,-0.79492 -0.792969,-0.79492 z"
           id="path901817" />
        <path
           id="path944272"
           style="color:#000000;fill:#66342d;fill-opacity:1;stroke-width:3.00426;stroke-linecap:round;stroke-linejoin:round;-inkscape-stroke:none"
           d="m 247.08008,-87.285156 c -0.57336,0.0011 -1.02986,0.484155 -0.99805,1.05664 l 0.17969,2.945313 h 25.30766 a 2.1902884,2.1902884 46.734672 0 1 2.18628,2.322833 l -0.0408,0.673261 h 2 c 0.11962,-1.980519 0.24051,-3.960961 0.36133,-5.941407 v -0.002 c 0.0317,-0.572485 -0.42468,-1.053553 -0.99805,-1.054687 z"
           transform="matrix(0.26458334,0,0,0.26458334,0,280.06666)"
           sodipodi:nodetypes="cccccccccc" />
        <path
           style="color:#000000;fill:#d0e2ee;stroke-width:0.794878;stroke-linecap:round;stroke-linejoin:round;-inkscape-stroke:none"
           d="m 64.84375,255.97195 a 0.26460996,0.24531603 0 0 0 -0.263672,0.24445 v 0.98141 a 0.26460996,0.24531603 0 0 0 0.263672,0.24625 h 8.466797 a 0.26460996,0.24531603 0 0 0 0.263672,-0.24625 v -0.98141 a 0.26460996,0.24531603 0 0 0 -0.263672,-0.24445 z"
           id="path901833" />
        <path
           id="path987074"
           style="color:#000000;fill:#0d202b;fill-opacity:1;stroke-width:0.794878;stroke-linecap:round;stroke-linejoin:round;-inkscape-stroke:none"
           d="m 69.569496,261.22261 c -0.346376,0.009 -0.64122,0.24544 -0.739489,0.56379 0.07322,-0.0226 0.150887,-0.0346 0.230992,-0.0346 0.435242,0 0.792718,0.35953 0.792718,0.79478 0,0.0796 -0.01233,0.15627 -0.03462,0.22892 0.324517,-0.0997 0.56379,-0.403 0.56379,-0.7581 0,-0.43524 -0.357476,-0.79478 -0.792718,-0.79478 -0.0068,0 -0.01392,-1.8e-4 -0.02066,0 z" />
        <path
           id="path993726"
           style="color:#000000;fill:#0d202b;fill-opacity:1;stroke-width:0.794878;stroke-linecap:round;stroke-linejoin:round;-inkscape-stroke:none"
           d="m 66.940515,261.47077 c -0.346376,0.009 -0.64122,0.24544 -0.739489,0.56379 0.07322,-0.0226 0.150887,-0.0346 0.230992,-0.0346 0.435242,0 0.792718,0.35953 0.792718,0.79478 0,0.0796 -0.01233,0.15627 -0.03462,0.22892 0.324517,-0.0997 0.56379,-0.403 0.56379,-0.7581 0,-0.43524 -0.357476,-0.79478 -0.792718,-0.79478 -0.0068,0 -0.01392,-1.8e-4 -0.02066,0 z" />
      </g>
      <path
         id="path11210"
         style="color:#000000;fill:#000000;stroke-width:3.00426;stroke-linecap:round;stroke-linejoin:round;-inkscape-stroke:none"
         d="m 259.08203,-114.28711 c -0.55535,-0.002 -1.00605,0.44854 -1.00391,1.00391 v 7.28906 c -6.70139,1.32156 -11.57888,7.045541 -11.96874,14.708984 h -1.03126 c -0.54921,0.0022 -0.99389,0.44688 -0.99609,0.996094 v 4.001953 c -0.002,0.552262 0.44383,1.001695 0.99609,1.003906 h 1.06055 l 1.94531,32.058594 c 0.0329,0.526374 0.46867,0.936668 0.9961,0.9375 h 8.99804 c 0.55248,0.0022 1.00201,-0.443603 1.00391,-0.996094 0.002,-0.555364 -0.44853,-1.006099 -1.00391,-1.003906 h -8.06054 l -1.57422,-26 h 1.63281 v 4.001953 c 0,1.644699 1.35921,2.996094 3.00391,2.996094 1.6447,0 2.99804,-1.351395 2.99804,-2.996094 v -0.175782 c 0.3146,0.113407 0.65292,0.175782 1.00391,0.175782 1.64471,0 2.99609,-1.359207 2.99609,-3.003906 v -0.998047 h 4.00196 v 4.001953 c 0,1.644699 1.35139,2.996094 2.99609,2.996094 1.64471,0 3.00586,-1.351395 3.00586,-2.996094 v -4.001953 h 3.63281 l -0.57812,9.501953 c -0.0318,0.550072 0.38755,1.021163 0.9375,1.054687 0.55285,0.0378 1.031,-0.384479 1.06445,-0.9375 l 0.88086,-14.615234 h 1.06055 c 0.55226,-0.0022 0.9982,-0.451644 0.99609,-1.003906 v -4.001953 c -0.002,-0.549214 -0.44688,-0.993896 -0.99609,-0.996094 h -1.02344 c -0.39001,-7.666275 -5.27134,-13.392144 -11.97656,-14.710934 v -3.25586 c 2.3e-4,-0.0124 2.3e-4,-0.0247 0,-0.0371 v -3.99414 c 0.002,-0.55537 -0.44856,-1.00603 -1.00391,-1.00391 z m 0.99609,2 h 2.00196 v 2 h -2.00196 z m 0,4.00195 h 2.00196 v 2.03125 c -0.68763,-0.0527 -1.36144,-0.0228 -2.00196,0.002 z m 2.00196,4.0352 v 12.964844 c -0.66732,0 -1.33464,0 -2.00196,0 V -104.25 c 0.67747,-0.0612 1.34661,-0.027 2.00196,4e-5 z m 2,0.28316 c 5.63848,1.23563 9.61566,5.986622 9.97461,12.681644 h -9.97461 z m -6.00196,0.002 v 12.679684 h -9.96679 c 0.35881,-6.692585 4.33158,-11.441944 9.96679,-12.679684 z m -11.99609,14.679684 h 3.99414 v 2 h -3.99414 z m 5.99414,0 h 8.00195 v 2 h -8.00195 z m 10.00391,0 h 8.00195 v 2 h -8.00195 z m 10.00195,0 h 4 v 2 h -4 z m -23.94141,4.001953 c 8.62565,0 17.25131,0 25.87696,0 l -0.18164,2.996094 h -4.75782 c -0.55248,0.0019 -1.00023,0.451415 -0.99804,1.003906 v 4.998047 c 0,0.571313 -0.43261,0.996094 -1.00391,0.996094 -0.57129,0 -0.99609,-0.424781 -0.99609,-0.996094 v -6.001953 c -0.002,-0.552492 -0.45143,-0.998286 -1.00391,-0.996094 -0.54959,0.0019 -0.9942,0.446513 -0.99609,0.996094 h -4.99805 c -0.55534,-0.0022 -1.00608,0.448565 -1.00391,1.003906 v 1.994141 c 0,0.571313 -0.42479,1.003906 -0.99609,1.003906 -0.57129,0 -1.0039,-0.432593 -1.00391,-1.003906 v -0.998047 -0.996094 c 0.002,-0.552285 -0.44381,-1.00175 -0.99609,-1.003906 -0.55534,-0.0022 -1.00608,0.448565 -1.00391,1.003906 -1.5e-4,1.669388 0,3.328312 0,4.998046 0,0.571313 -0.42674,0.996094 -0.99804,0.996094 -0.57129,0 -1.00391,-0.424781 -1.00391,-0.996094 v -6.001953 c -0.002,-0.549236 -0.44685,-0.99395 -0.99609,-0.996094 -0.55229,-0.0022 -1.00176,0.443806 -1.00391,0.996094 h -1.7539 z m 19.93555,12.996094 c -0.55,0.0011 -0.9959,0.446095 -0.99805,0.996093 -0.002,0.553049 0.445,1.002832 0.99805,1.003907 0.55534,0.0022 1.00608,-0.448565 1.00391,-1.003907 -0.002,-0.552288 -0.45162,-0.998256 -1.00391,-0.996093 z m -5.07031,1 c -1.61026,0.04156 -2.92774,1.384607 -2.92774,3.003906 0,1.645001 1.35304,2.996094 2.99805,2.996094 1.64501,0 3.00391,-1.351093 3.00391,-2.996094 0,-1.645002 -1.35109,-3.003906 -2.9961,-3.003906 -0.0257,0 -0.0526,-6.6e-4 -0.0781,0 z m 8.07031,0 c -0.55,0.0011 -0.9959,0.446095 -0.99805,0.996093 -0.002,0.553049 0.445,1.002832 0.99805,1.003907 0.55534,0.0022 1.00608,-0.448565 1.00391,-1.003907 -0.002,-0.552288 -0.45162,-0.998256 -1.00391,-0.996093 z m 8.96875,0.759765 c -0.15773,0.0024 -0.3135,0.0416 -0.45508,0.117188 -3.82833,2.060371 -6.48076,2.424299 -8.74804,2.982422 -2.58535,0.678378 -4.86236,2.486899 -6.16992,4.412109 -0.35456,-0.09213 -0.71697,-0.172521 -1.08594,-0.255859 -1.465,-0.330709 -3.16361,-0.721819 -5.45508,-1.955078 -0.75412,-0.40269 -1.63311,0.265155 -1.44727,1.099609 0,0 0.40011,1.839913 1.05469,3.941406 0.65459,2.101455 1.42836,4.424455 2.7461,5.742188 1.08202,1.082041 2.3416,1.875344 3.72851,2.097656 1.2342,0.197765 2.55537,-0.1318 3.6543,-1.029297 3.16092,0.462712 6.18123,-1.014166 8.06054,-2.861328 0.003,-0.0025 0.005,-0.0021 0.008,-0.0059 1.67723,-1.67724 2.7778,-4.843395 3.66797,-7.701171 0.89016,-2.857777 1.43945,-5.373047 1.43945,-5.373047 0.1107,-0.51927 -0.20244,-1.034704 -0.71485,-1.173828 -0.0928,-0.0258 -0.18856,-0.03853 -0.2832,-0.03711 z m -21.96875,0.240235 c -0.55076,0.0011 -0.99698,0.447286 -0.99805,0.998047 -0.002,0.553048 0.445,1.002831 0.99805,1.003906 0.55534,0.0022 1.00608,-0.448565 1.00391,-1.003906 -0.001,-0.553052 -0.45086,-1.00021 -1.00391,-0.998047 z m -5.07226,0.0039 c -1.61026,0.04134 -2.92774,1.376795 -2.92774,2.996094 0,1.645001 1.3589,2.998047 3.00391,2.998047 1.64501,0 2.99804,-1.353046 2.99804,-2.998047 0,-1.645002 -1.35303,-2.996094 -2.99804,-2.996094 -0.0257,0 -0.0506,-6.56e-4 -0.0762,0 z m 10.08007,0.996094 c 0.56413,0 0.9961,0.439774 0.9961,1.003906 0,0.564132 -0.43978,0.996094 -1.00391,0.996094 -0.56413,0 -0.99609,-0.431962 -0.99609,-0.996094 0,-0.564132 0.43978,-1.003906 1.0039,-1.003906 z m -10.0039,1.003906 c 0.56413,0 0.99805,0.431961 0.99804,0.996094 0,0.564132 -0.43391,1.003906 -0.99804,1.003906 -0.56413,0 -1.00391,-0.439774 -1.00391,-1.003906 0,-0.564133 0.43978,-0.996094 1.00391,-0.996094 z m 25.53515,0.294922 c -0.22321,0.93154 -0.35383,1.617332 -0.92382,3.447265 -0.85983,2.760416 -2.17195,5.875819 -3.16602,6.873047 -1.23415,1.213053 -3.19272,2.243699 -5.18359,2.359375 0.33234,-0.778804 0.43497,-1.606554 0.32226,-2.40039 l 3.36914,-3.369141 c 0.3926,-0.390877 0.3926,-1.027091 0,-1.417969 -0.18754,-0.188757 -0.44094,-0.294728 -0.70703,-0.294922 -0.26608,1.94e-4 -0.52144,0.106165 -0.70898,0.294922 l -2.70508,2.705078 c -0.35892,-0.61328 -0.82224,-1.189426 -1.35547,-1.722656 -0.31492,-0.314931 -0.64685,-0.565892 -0.99414,-0.769531 1.12181,-1.5843 2.74438,-2.60801 4.79492,-3.208985 2.47155,-0.72325 5.20611,-1.634285 7.25781,-2.496093 z m -19.5039,5.21875 c 1.4669,0.577738 3.03461,1.222157 4.03125,1.447265 1.47322,0.332599 2.29992,0.522599 2.99609,1.21875 0.8706,0.870615 1.41173,1.816007 1.54297,2.634766 0.0854,0.533095 0.0389,1.020845 -0.2207,1.513672 l -3.43946,-3.441406 c -0.18871,-0.185953 -0.44393,-0.288622 -0.70898,-0.28711 -0.26506,-0.0017 -0.52027,0.100779 -0.70898,0.28711 -0.39261,0.390878 -0.39261,1.02709 0,1.417968 l 3.43945,3.439454 c -0.49235,0.256787 -0.98109,0.300202 -1.51367,0.214843 -0.81876,-0.131149 -1.75636,-0.664542 -2.62696,-1.535156 -0.63489,-0.634885 -1.63475,-2.909502 -2.25976,-4.916016 -0.32954,-1.057889 -0.35552,-1.291526 -0.53125,-1.99414 z m -7.03516,0.482422 c -0.55076,0.0011 -0.99698,0.447286 -0.99805,0.998047 -0.002,0.553048 0.445,1.002831 0.99805,1.003906 0.55534,0.0022 1.00608,-0.448565 1.00391,-1.003906 -0.001,-0.553052 -0.45086,-1.00021 -1.00391,-0.998047 z m 4,2 c -0.55,0.0011 -0.9959,0.446095 -0.99805,0.996093 -0.002,0.553049 0.445,1.002832 0.99805,1.003907 0.55534,0.0022 1.00608,-0.448565 1.00391,-1.003907 -0.002,-0.552288 -0.45162,-0.998256 -1.00391,-0.996093 z m -3,2.003906 c -0.55,0.0011 -0.9959,0.446095 -0.99805,0.996094 -0.002,0.553048 0.445,1.002831 0.99805,1.003906 0.55534,0.0022 1.00608,-0.448565 1.00391,-1.003906 -0.002,-0.552288 -0.45162,-0.998257 -1.00391,-0.996094 z"
         transform="matrix(0.26458334,0,0,0.26458334,0,280.06666)"
         sodipodi:nodetypes="cccccccccccccccccssscssccssscccccccccccccccccccccccccccccccccccccccccccccccccccccccccccccccccssscccccsssccsccsscsccccscscssssssscscscsccccccssccccsccsscccccssssssssssssssssscsccccccccscccccsscccccccsscccccccscsccscsc" />
    </g>
  </g>
</svg>
