<?xml version="1.0" ?><!DOCTYPE svg  PUBLIC '-//W3C//DTD SVG 1.1//EN'  'http://www.w3.org/Graphics/SVG/1.1/DTD/svg11.dtd'><svg height="512px" style="enable-background:new 0 0 512 512;" version="1.1" viewBox="0 0 512 512" width="512px" xml:space="preserve" xmlns="http://www.w3.org/2000/svg" xmlns:xlink="http://www.w3.org/1999/xlink"><g id="_x34_85_x2C__book_x2C__pen_x2C__food_x2C__education"><g><path d="M451,440.78v30H106c-24.85,0-45-20.15-45-45c0-12.42,5.04-23.681,13.18-31.82    c8.14-8.14,19.4-13.18,31.82-13.18h5h40h40h40h200h20v30V440.78z" style="fill:#FEBE76;"/><path d="M66.833,436.78c0-12.42,5.04-23.681,13.18-31.82c8.14-8.14,19.4-13.18,31.82-13.18h5h40h40h40h200    H451v-11h-20H231h-40h-40h-40h-5c-12.42,0-23.68,5.04-31.82,13.18C66.04,402.1,61,413.36,61,425.78    c0,9.831,3.163,18.92,8.514,26.323C67.782,447.32,66.833,442.161,66.833,436.78z" style="fill:#E8A664;"/><polygon points="151,380.78 111,380.78 111,310.78 131,310.78 351,310.78 361,310.78 431,310.78     431,380.78 231,380.78 191,380.78   " style="fill:#FFF2D4;"/><polygon points="120.583,320.78 140.583,320.78 360.584,320.78 370.584,320.78 431,320.78 431,310.78     361,310.78 351,310.78 131,310.78 111,310.78 111,380.78 120.583,380.78   " style="fill:#F0DCA0;"/><path d="M351,310.78H131v-100h105.95h38.99H361c13.8,0,26.3,5.6,35.35,14.65    c9.051,9.05,14.65,21.55,14.65,35.35c0,27.609-22.39,50-50,50H351z" style="fill:#FCD884;"/><path d="M142.554,222.78h105.95h38.99h85.061c11.134,0,21.419,3.65,29.732,9.812    c-1.758-2.568-3.744-4.968-5.938-7.162c-9.05-9.05-21.55-14.65-35.35-14.65h-85.06h-38.99H131v100h11.554V222.78z" style="fill:#EABF6A;"/><path d="M258.2,90.41c7.22-11.07,19.87-18.36,34.06-18.36c76.62,0,25.84,138.73-16.319,138.73    c-6.811,0-13.15-1.81-18.591-4.53h-0.91h-0.91c-5.44,2.72-11.78,4.53-18.58,4.53c-42.17,0-92.95-138.73-16.33-138.73    c15.42,0,29.02,8.61,35.82,21.31C256.98,92.35,257.57,91.36,258.2,90.41z" style="fill:#FF7979;"/><g><g><g><path d="M230.899,79.8c6.893,0,13.417,1.73,19.137,4.768c-7.411-7.716-17.905-12.518-29.416-12.518       c-69.614,0-34.062,114.508,4.65,135.452C191.3,174.668,167.537,79.8,230.899,79.8z" style="fill:#D65B5B;"/></g></g></g><rect height="20" width="20" x="251" y="250.78"/><rect height="20" width="20" x="221" y="250.78"/><rect height="20" width="20" x="191" y="250.78"/><rect height="20" width="20" x="161" y="250.78"/><path d="M451,475.78H106c-27.57,0-50-22.43-50-50c0-13.356,5.201-25.913,14.645-35.355c9.443-9.443,22-14.645,35.355-14.645h5    c2.761,0,5,2.238,5,5s-2.239,5-5,5h-5c-10.685,0-20.729,4.16-28.284,11.715C70.161,405.05,66,415.095,66,425.78    c0,22.056,17.944,40,40,40h340v-80h-15c-2.762,0-5-2.238-5-5s2.238-5,5-5h20c2.762,0,5,2.238,5,5v90    C456,473.542,453.762,475.78,451,475.78z"/><path d="M361,315.78c-2.762,0-5-2.238-5-5s2.238-5,5-5c24.813,0,45-20.187,45-45c0-12.014-4.683-23.313-13.186-31.814    c-8.503-8.503-19.802-13.186-31.814-13.186H136v95c0,2.762-2.239,5-5,5s-5-2.238-5-5v-100c0-2.761,2.239-5,5-5h230    c14.685,0,28.494,5.723,38.885,16.115C410.277,232.285,416,246.095,416,260.78C416,291.107,391.327,315.78,361,315.78z"/><path d="M431,385.78H111c-2.761,0-5-2.238-5-5v-70c0-2.762,2.239-5,5-5h320c2.762,0,5,2.238,5,5v70    C436,383.542,433.762,385.78,431,385.78z M116,375.78h310v-60H116V375.78z"/><path d="M151,385.78c-2.761,0-5-2.238-5-5v-40c0-2.762,2.239-5,5-5s5,2.238,5,5v40C156,383.542,153.761,385.78,151,385.78z"/><path d="M191,385.78c-2.761,0-5-2.238-5-5v-40c0-2.762,2.239-5,5-5s5,2.238,5,5v40C196,383.542,193.761,385.78,191,385.78z"/><path d="M231,385.78c-2.761,0-5-2.238-5-5v-40c0-2.762,2.239-5,5-5s5,2.238,5,5v40C236,383.542,233.761,385.78,231,385.78z"/><path d="M451,445.78H131c-2.761,0-5-2.238-5-5s2.239-5,5-5h320c2.762,0,5,2.238,5,5S453.762,445.78,451,445.78z"/><path d="M451,415.78H131c-2.761,0-5-2.238-5-5s2.239-5,5-5h320c2.762,0,5,2.238,5,5S453.762,415.78,451,415.78z"/><path d="M351,315.78c-2.762,0-5-2.238-5-5v-70c0-2.761,2.238-5,5-5s5,2.239,5,5v70C356,313.542,353.762,315.78,351,315.78z"/><path d="M275.94,215.78c-6.542,0-13.253-1.524-19.5-4.419c-6.247,2.895-12.954,4.419-19.49,4.419    c-14.143,0-29.514-12.598-42.172-34.564c-11.76-20.408-18.781-44.714-18.781-65.019c0-14.341,3.391-25.902,10.077-34.362    c7.753-9.81,19.376-14.784,34.546-14.784c14.17,0,27.294,6.449,35.828,17.238c8.579-10.855,21.687-17.238,35.812-17.238    c15.17,0,26.793,4.974,34.547,14.785c6.687,8.461,10.077,20.022,10.077,34.363c0,20.305-7.021,44.61-18.778,65.018    C305.448,203.182,290.08,215.78,275.94,215.78z M255.53,201.25h1.82c0.776,0,1.542,0.181,2.236,0.528    c5.236,2.618,10.892,4.002,16.354,4.002c10.159,0,22.995-11.325,33.5-29.557c10.76-18.673,17.443-41.674,17.443-60.025    c0-11.866-2.739-21.604-7.923-28.163c-5.761-7.29-14.744-10.985-26.701-10.985c-12.133,0-23.3,6.016-29.871,16.092    c-0.562,0.846-1.072,1.702-1.54,2.576c-0.869,1.626-2.563,2.642-4.408,2.642c-1.844,0-3.539-1.014-4.409-2.64    c-6.167-11.517-18.203-18.67-31.412-18.67c-11.957,0-20.94,3.696-26.701,10.985c-5.183,6.558-7.923,16.296-7.923,28.162    c0,39.35,28.572,89.583,50.954,89.583c5.457,0,11.108-1.384,16.343-4.002C253.988,201.431,254.753,201.25,255.53,201.25z"/><path d="M258.246,95.641c-2.252,0-4.296-1.531-4.854-3.816c-0.034-0.133-0.063-0.262-0.089-0.391    c-10.052-41.71,8.759-53.958,9.566-54.459l5.279,8.492l0.09-0.058c-0.136,0.093-13.453,9.676-5.18,43.824    c0.019,0.078,0.036,0.156,0.051,0.234c0.646,2.679-0.997,5.377-3.676,6.03C259.037,95.595,258.638,95.641,258.246,95.641z"/><path d="M271.724,185.701c-1.577,0-3.13-0.745-4.103-2.137c-1.582-2.264-1.028-5.381,1.235-6.962    c13.325-9.311,17.975-26.965,18.02-27.142c0.686-2.676,3.413-4.288,6.084-3.603c2.676,0.686,4.289,3.409,3.604,6.084    c-0.223,0.87-5.648,21.447-21.98,32.858C273.711,185.408,272.713,185.701,271.724,185.701z"/></g></g><g id="Layer_1"/></svg>