<svg xmlns="http://www.w3.org/2000/svg"  viewBox="0 0 100 100" width="50px" height="50px"><path fill="#f1bc19" d="M78 13A1 1 0 1 0 78 15A1 1 0 1 0 78 13Z"/><path fill="#f9dbd2" d="M50 12A38 38 0 1 0 50 88A38 38 0 1 0 50 12Z"/><path fill="#f1bc19" d="M84 12A4 4 0 1 0 84 20A4 4 0 1 0 84 12Z"/><path fill="#ee3e54" d="M14 24A2 2 0 1 0 14 28A2 2 0 1 0 14 24Z"/><path fill="#fbcd59" d="M78 75A2 2 0 1 0 78 79 2 2 0 1 0 78 75zM17 74A4 4 0 1 0 17 82 4 4 0 1 0 17 74z"/><path fill="#ee3e54" d="M24 81A2 2 0 1 0 24 85A2 2 0 1 0 24 81Z"/><path fill="#fff" d="M66.5 76A2.5 2.5 0 1 0 66.5 81 2.5 2.5 0 1 0 66.5 76zM16 47A1 1 0 1 0 16 49 1 1 0 1 0 16 47z"/><path fill="#f1bc19" d="M86 30A1 1 0 1 0 86 32A1 1 0 1 0 86 30Z"/><path fill="#fff" d="M80 64A2 2 0 1 0 80 68A2 2 0 1 0 80 64Z"/><path fill="#f69272" d="M38,73.3c-4,0-7.3-3.3-7.3-7.3V33c0-4,3.3-7.3,7.3-7.3h23c4,0,7.3,3.3,7.3,7.3v33c0,4-3.3,7.3-7.3,7.3H38z"/><path fill="#fae8e6" d="M62.4,64.6V37c0-1.3,1-2.4,2.3-2.4h3.5l0,30L62.4,64.6L62.4,64.6z"/><path fill="#472b29" d="M61,26.4c3.6,0,6.6,3,6.6,6.6v33c0,3.6-3,6.6-6.6,6.6H38c-3.6,0-6.6-3-6.6-6.6V33c0-3.6,3-6.6,6.6-6.6H61 M61,25H38c-4.4,0-8,3.6-8,8v33c0,4.4,3.6,8,8,8h23c4.4,0,8-3.6,8-8V33C69,28.6,65.4,25,61,25L61,25z"/><path fill="#472b29" d="M62.5,70c-0.3,0-0.5-0.2-0.5-0.5V36.9c0-1.6,1.3-2.9,2.9-2.9h3.6c0.3,0,0.5,0.2,0.5,0.5S68.8,35,68.5,35h-3.6 c-1.1,0-1.9,0.9-1.9,1.9v32.6C63,69.8,62.8,70,62.5,70z"/><path fill="#fefdef" d="M41.3,49.5h14.4c1,0,1.8-0.8,1.8-1.8V37.3c0-1-0.8-1.8-1.8-1.8H41.3c-1,0-1.8,0.8-1.8,1.8v10.4 C39.5,48.7,40.3,49.5,41.3,49.5z"/><path fill="#472b29" d="M47.1,36h-2.2c-0.3,0-0.5-0.2-0.5-0.5s0.2-0.5,0.5-0.5h2.2c0.3,0,0.5,0.2,0.5,0.5S47.4,36,47.1,36z"/><path fill="#472b29" d="M55.8 50H41.2C40 50 39 48.9 39 47.7V37.3c0-1.3 1-2.3 2.2-2.3h1.3c.3 0 .5.2.5.5S42.8 36 42.5 36h-1.3c-.7 0-1.2.6-1.2 1.3v10.3c0 .7.6 1.3 1.2 1.3h14.5c.7 0 1.2-.6 1.2-1.3V37.3c0-.7-.6-1.3-1.2-1.3h-6.3c-.3 0-.5-.2-.5-.5s.2-.5.5-.5h6.3c1.2 0 2.2 1.1 2.2 2.3v10.3C58 48.9 57 50 55.8 50zM33.5 35h-5c-.3 0-.5-.2-.5-.5s.2-.5.5-.5h5c.3 0 .5.2.5.5S33.8 35 33.5 35zM67.5 41h-5c-.3 0-.5-.2-.5-.5s.2-.5.5-.5h5c.3 0 .5.2.5.5S67.8 41 67.5 41zM67.5 47h-5c-.3 0-.5-.2-.5-.5s.2-.5.5-.5h5c.3 0 .5.2.5.5S67.8 47 67.5 47zM67.5 53h-5c-.3 0-.5-.2-.5-.5s.2-.5.5-.5h5c.3 0 .5.2.5.5S67.8 53 67.5 53zM67.5 59h-5c-.3 0-.5-.2-.5-.5s.2-.5.5-.5h5c.3 0 .5.2.5.5S67.8 59 67.5 59z"/><g><path fill="#472b29" d="M67.5,65h-5c-0.3,0-0.5-0.2-0.5-0.5s0.2-0.5,0.5-0.5h5c0.3,0,0.5,0.2,0.5,0.5S67.8,65,67.5,65z"/></g><g><path fill="#472b29" d="M33.5,40h-5c-0.3,0-0.5-0.2-0.5-0.5s0.2-0.5,0.5-0.5h5c0.3,0,0.5,0.2,0.5,0.5S33.8,40,33.5,40z"/></g><g><path fill="#472b29" d="M33.5,45h-5c-0.3,0-0.5-0.2-0.5-0.5s0.2-0.5,0.5-0.5h5c0.3,0,0.5,0.2,0.5,0.5S33.8,45,33.5,45z"/></g><g><path fill="#472b29" d="M33.5,50h-5c-0.3,0-0.5-0.2-0.5-0.5s0.2-0.5,0.5-0.5h5c0.3,0,0.5,0.2,0.5,0.5S33.8,50,33.5,50z"/></g><g><path fill="#472b29" d="M33.5,55h-5c-0.3,0-0.5-0.2-0.5-0.5s0.2-0.5,0.5-0.5h5c0.3,0,0.5,0.2,0.5,0.5S33.8,55,33.5,55z"/></g><g><path fill="#472b29" d="M33.5,60h-5c-0.3,0-0.5-0.2-0.5-0.5s0.2-0.5,0.5-0.5h5c0.3,0,0.5,0.2,0.5,0.5S33.8,60,33.5,60z"/></g><g><path fill="#472b29" d="M33.5,65h-5c-0.3,0-0.5-0.2-0.5-0.5s0.2-0.5,0.5-0.5h5c0.3,0,0.5,0.2,0.5,0.5S33.8,65,33.5,65z"/></g><g><path fill="#a3a3cd" d="M48.5 38.5A3 3 0 1 0 48.5 44.5A3 3 0 1 0 48.5 38.5Z"/><path fill="#472b29" d="M48.5,39c1.4,0,2.5,1.1,2.5,2.5S49.9,44,48.5,44S46,42.9,46,41.5S47.1,39,48.5,39 M48.5,38 c-1.9,0-3.5,1.6-3.5,3.5s1.6,3.5,3.5,3.5s3.5-1.6,3.5-3.5S50.4,38,48.5,38L48.5,38z"/></g><g><path fill="#a3a3cd" d="M43.5,49.5c0.2-2.8,2.4-5,5-5s4.7,2.2,5,5H43.5z"/><path fill="#472b29" d="M48.5,45c2.2,0,4,1.7,4.4,4h-8.8C44.5,46.7,46.3,45,48.5,45 M48.5,44c-3,0-5.5,2.7-5.5,6h11 C54,46.7,51.5,44,48.5,44L48.5,44z"/></g><g><path fill="#a3a3cd" d="M41.5 76.5L39.5 77.3 39.5 73.5 43.5 73.5 43.5 77.3z"/><path fill="#472b29" d="M43,74v2.5l-1.2-0.5l-0.4-0.1l-0.4,0.2L40,76.5V74H43 M44,73h-5v5l2.5-1l2.5,1V73L44,73z"/></g></svg>