<svg xmlns="http://www.w3.org/2000/svg"  viewBox="0 0 100 100" width="100px" height="100px"><path fill="#ee3e54" d="M13 27A2 2 0 1 0 13 31A2 2 0 1 0 13 27Z"/><path fill="#f1bc19" d="M77 12A1 1 0 1 0 77 14A1 1 0 1 0 77 12Z"/><path fill="#fce0a2" d="M50 13A37 37 0 1 0 50 87A37 37 0 1 0 50 13Z"/><path fill="#f1bc19" d="M83 11A4 4 0 1 0 83 19A4 4 0 1 0 83 11Z"/><path fill="#ee3e54" d="M87 22A2 2 0 1 0 87 26A2 2 0 1 0 87 22Z"/><path fill="#fbcd59" d="M81 74A2 2 0 1 0 81 78 2 2 0 1 0 81 74zM15 59A4 4 0 1 0 15 67 4 4 0 1 0 15 59z"/><path fill="#ee3e54" d="M25 85A2 2 0 1 0 25 89A2 2 0 1 0 25 85Z"/><path fill="#fff" d="M18.5 51A2.5 2.5 0 1 0 18.5 56A2.5 2.5 0 1 0 18.5 51Z"/><path fill="#f1bc19" d="M21 66A1 1 0 1 0 21 68A1 1 0 1 0 21 66Z"/><path fill="#fff" d="M80 33A1 1 0 1 0 80 35A1 1 0 1 0 80 33Z"/><path fill="#f98869" d="M35,72.3c-4.025,0-7.3-3.274-7.3-7.3V35c0-4.025,3.274-7.3,7.3-7.3h30c4.025,0,7.3,3.274,7.3,7.3 v30c0,4.025-3.274,7.3-7.3,7.3H35z"/><path fill="#472b29" d="M65,28.4c3.639,0,6.6,2.961,6.6,6.6v30c0,3.639-2.961,6.6-6.6,6.6H35c-3.639,0-6.6-2.961-6.6-6.6 V35c0-3.639,2.961-6.6,6.6-6.6H65 M65,27H35c-4.4,0-8,3.6-8,8v30c0,4.4,3.6,8,8,8h30c4.4,0,8-3.6,8-8V35C73,30.6,69.4,27,65,27 L65,27z"/><path fill="#fdfcee" d="M68.5,47.875v1.75V64c0,2.475-2.025,4.5-4.5,4.5H36c-2.475,0-4.5-2.025-4.5-4.5V36 c0-2.475,2.025-4.5,4.5-4.5h25.375H64c2.475,0,4.5,2.025,4.5,4.5v3.375v2v1V43.5v2.875V47.875"/><path fill="#472b29" d="M68.5 47.375c-.276 0-.5-.224-.5-.5V43c0-.276.224-.5.5-.5S69 42.724 69 43v3.875C69 47.151 68.776 47.375 68.5 47.375zM68.5 40.5c-.276 0-.5-.224-.5-.5v-2c0-.276.224-.5.5-.5S69 37.724 69 38v2C69 40.276 68.776 40.5 68.5 40.5z"/><path fill="#472b29" d="M64,69H36c-2.757,0-5-2.243-5-5V36c0-2.757,2.243-5,5-5h25.375c0.276,0,0.5,0.224,0.5,0.5 s-0.224,0.5-0.5,0.5H36c-2.206,0-4,1.794-4,4v28c0,2.206,1.794,4,4,4h28c2.206,0,4-1.794,4-4V49.625c0-0.276,0.224-0.5,0.5-0.5 s0.5,0.224,0.5,0.5V64C69,66.757,66.757,69,64,69z"/><path fill="#f76746" d="M50 37.5A12.5 12.5 0 1 0 50 62.5A12.5 12.5 0 1 0 50 37.5Z"/><path fill="#472b29" d="M50,38c6.627,0,12,5.373,12,12s-5.373,12-12,12s-12-5.373-12-12S43.373,38,50,38 M50,37 c-7.168,0-13,5.832-13,13s5.832,13,13,13s13-5.832,13-13S57.168,37,50,37L50,37z"/><g><path fill="#fdfcee" d="M50.031 39.934A9.999 10.058 0 1 0 50.031 60.05A9.999 10.058 0 1 0 50.031 39.934Z"/><path fill="#472b29" d="M50.031,60.3c-5.651,0-10.249-4.624-10.249-10.308s4.598-10.308,10.249-10.308 c5.651,0,10.249,4.624,10.249,10.308S55.682,60.3,50.031,60.3z M50.031,40.185c-5.375,0-9.749,4.399-9.749,9.808 s4.373,9.808,9.749,9.808s9.749-4.399,9.749-9.808S55.406,40.185,50.031,40.185z"/></g><g><path fill="#cbc9bc" d="M51.271,48.034l-6.177,6.214c-0.154,0.155-0.341,0.409-0.187,0.565 c0.154,0.155,0.407-0.033,0.562-0.188l6.177-6.214c0.264,0.07,0.744,0.034,0.95-0.175l0.562-0.565c0.309-0.311,0.309-0.819,0-1.129 c-0.309-0.311-0.815-0.311-1.123,0l-0.562,0.565C51.266,47.315,51.201,47.768,51.271,48.034z"/></g><g><path fill="#472b29" d="M52.595,46.309c0.203,0,0.407,0.077,0.562,0.233c0.309,0.311,0.309,0.819,0,1.129l-0.562,0.565 c-0.144,0.145-0.422,0.206-0.666,0.206c-0.105,0-0.204-0.011-0.283-0.033l-6.177,6.214c-0.114,0.115-0.28,0.247-0.423,0.247 c-0.051,0-0.099-0.017-0.139-0.058c-0.154-0.155,0.033-0.409,0.187-0.565l6.177-6.214c-0.069-0.266-0.005-0.72,0.201-0.927 l0.562-0.565C52.188,46.387,52.392,46.309,52.595,46.309 M52.595,45.801c-0.349,0-0.676,0.136-0.921,0.383l-0.562,0.565 c-0.269,0.271-0.387,0.719-0.375,1.102l-6.003,6.04c-0.695,0.699-0.278,1.189-0.187,1.281c0.133,0.134,0.311,0.208,0.5,0.208 c0.258,0,0.521-0.133,0.782-0.396l5.998-6.034c0.034,0.002,0.067,0.003,0.102,0.003c0.202,0,0.707-0.035,1.027-0.357l0.562-0.565 c0.506-0.509,0.506-1.337,0-1.846C53.271,45.938,52.944,45.801,52.595,45.801L52.595,45.801z"/></g><g><path fill="#472b29" d="M49.908 41.091c-.14 0-.254-.114-.254-.254V39.95c0-.14.114-.254.254-.254s.254.114.254.254v.887C50.162 40.977 50.048 41.091 49.908 41.091zM49.908 60.304c-.14 0-.254-.114-.254-.254v-1.182c0-.14.114-.254.254-.254s.254.114.254.254v1.182C50.162 60.19 50.048 60.304 49.908 60.304z"/></g><g><path fill="#472b29" d="M59.928 49.959h-1.299c-.14 0-.254-.114-.254-.254s.114-.254.254-.254h1.299c.14 0 .254.114.254.254S60.068 49.959 59.928 49.959zM41.297 49.959h-1.226c-.14 0-.254-.114-.254-.254s.114-.254.254-.254h1.226c.14 0 .254.114.254.254S41.436 49.959 41.297 49.959z"/></g><g><path fill="none" d="M56.907 42.954L56.08 43.787"/><path fill="#472b29" d="M56.079,44.041c-0.064,0-0.13-0.024-0.18-0.074c-0.1-0.099-0.1-0.26-0.001-0.36l0.828-0.833 c0.102-0.1,0.261-0.1,0.36-0.001s0.1,0.26,0.001,0.36l-0.828,0.833C56.209,44.017,56.145,44.041,56.079,44.041z"/><g><path fill="none" d="M43.761 56.18L42.933 57.013"/><path fill="#472b29" d="M42.933,57.267c-0.064,0-0.13-0.024-0.18-0.074c-0.1-0.099-0.1-0.26-0.001-0.36L43.58,56 c0.101-0.1,0.26-0.101,0.36-0.001c0.1,0.099,0.1,0.26,0.001,0.36l-0.828,0.833C43.063,57.243,42.998,57.267,42.933,57.267z"/></g></g><g><path fill="none" d="M57.081 57.106L56.253 56.273"/><path fill="#472b29" d="M57.081,57.359c-0.065,0-0.131-0.024-0.181-0.075l-0.827-0.833c-0.099-0.1-0.099-0.26,0.002-0.36 c0.1-0.099,0.26-0.099,0.36,0.001l0.827,0.833c0.099,0.1,0.099,0.26-0.002,0.36C57.21,57.335,57.145,57.359,57.081,57.359z"/><g><path fill="none" d="M43.761 43.654L42.933 42.822"/><path fill="#472b29" d="M43.761,43.909c-0.065,0-0.13-0.024-0.181-0.075l-0.828-0.833c-0.099-0.1-0.099-0.26,0.001-0.36 c0.101-0.099,0.26-0.099,0.36,0.001l0.828,0.833c0.099,0.1,0.099,0.26-0.001,0.36C43.891,43.884,43.826,43.909,43.761,43.909z"/></g></g><g><path fill="#472b29" d="M55.19,50.161h-4.138c-0.14,0-0.254-0.114-0.254-0.254s0.114-0.254,0.254-0.254h4.138 c0.14,0,0.254,0.114,0.254,0.254S55.33,50.161,55.19,50.161z"/></g><g><path fill="#472b29" d="M49.869,49.274c-0.14,0-0.254-0.114-0.254-0.254v-6.798c0-0.14,0.114-0.254,0.254-0.254 s0.254,0.114,0.254,0.254v6.798C50.123,49.162,50.01,49.274,49.869,49.274z"/></g><g><path fill="#f1bc19" d="M49.869 48.873000000000005A1.035 1.035 0 1 0 49.869 50.943A1.035 1.035 0 1 0 49.869 48.873000000000005Z"/></g><g><path fill="#472b29" d="M49.869,51.196c-0.71,0-1.289-0.578-1.289-1.289c0-0.711,0.578-1.289,1.289-1.289 c0.711,0,1.289,0.578,1.289,1.289C51.158,50.618,50.579,51.196,49.869,51.196z M49.869,49.127c-0.431,0-0.781,0.35-0.781,0.781 s0.35,0.781,0.781,0.781s0.781-0.35,0.781-0.781S50.3,49.127,49.869,49.127z"/></g></svg>