<svg xmlns="http://www.w3.org/2000/svg"  viewBox="0 0 100 100" width="100px" height="100px"><circle cx="77" cy="13" r="1" fill="#f1bc19"/><circle cx="50" cy="50" r="37" fill="#e4e4f9"/><circle cx="83" cy="15" r="4" fill="#f1bc19"/><circle cx="87" cy="24" r="2" fill="#8889b9"/><circle cx="81" cy="76" r="2" fill="#fbcd59"/><circle cx="15" cy="63" r="4" fill="#fbcd59"/><circle cx="25" cy="87" r="2" fill="#8889b9"/><circle cx="19.5" cy="52.5" r="2.5" fill="#fff"/><circle cx="77.5" cy="30.5" r="1.5" fill="#fff"/><path fill="#ef9922" d="M65.719,73.5H34.281C30.26,73.5,27,70.24,27,66.219V34.781c0-4.021,3.26-7.281,7.281-7.281h31.438 C69.74,27.5,73,30.76,73,34.781v31.438C73,70.24,69.74,73.5,65.719,73.5z"/><path fill="#472b29" d="M65.719,74.2H34.281c-4.401,0-7.981-3.58-7.981-7.981V34.781c0-4.401,3.581-7.981,7.981-7.981 h31.438c4.401,0,7.981,3.58,7.981,7.981v31.438C73.7,70.62,70.12,74.2,65.719,74.2z M34.281,28.2 c-3.629,0-6.581,2.952-6.581,6.581v31.438c0,3.629,2.952,6.581,6.581,6.581h31.438c3.629,0,6.581-2.952,6.581-6.581V34.781 c0-3.629-2.952-6.581-6.581-6.581L34.281,28.2z"/><path fill="#472b29" d="M30.5,40.667c-0.276,0-0.5-0.224-0.5-0.5v-4.333c0-2.941,2.393-5.333,5.333-5.333h14 c0.276,0,0.5,0.224,0.5,0.5s-0.224,0.5-0.5,0.5h-14c-2.39,0-4.333,1.944-4.333,4.333v4.333C31,40.443,30.776,40.667,30.5,40.667z"/><path fill="#472b29" d="M41.583,70.5h-6.25c-2.94,0-5.333-2.393-5.333-5.333V44.833c0-0.276,0.224-0.5,0.5-0.5 s0.5,0.224,0.5,0.5v20.333c0,2.389,1.944,4.333,4.333,4.333h6.25c0.276,0,0.5,0.224,0.5,0.5S41.86,70.5,41.583,70.5z"/><path fill="#472b29" d="M64.667,70.5h-19.75c-0.276,0-0.5-0.224-0.5-0.5s0.224-0.5,0.5-0.5h19.75 c2.39,0,4.333-1.944,4.333-4.333v-5.083c0-0.276,0.224-0.5,0.5-0.5s0.5,0.224,0.5,0.5v5.083C70,68.107,67.607,70.5,64.667,70.5z"/><path fill="#472b29" d="M69.5,56.667c-0.276,0-0.5-0.224-0.5-0.5V35.833c0-2.389-1.944-4.333-4.333-4.333h-2.75 c-0.276,0-0.5-0.224-0.5-0.5s0.224-0.5,0.5-0.5h2.75c2.941,0,5.333,2.393,5.333,5.333v20.333C70,56.443,69.776,56.667,69.5,56.667 z"/><path fill="#472b29" d="M58.5,31.5h-6.25c-0.276,0-0.5-0.224-0.5-0.5s0.224-0.5,0.5-0.5h6.25c0.276,0,0.5,0.224,0.5,0.5 S58.776,31.5,58.5,31.5z"/><path fill="#fff" d="M40.784,58.762c-0.167,0-0.343-0.027-0.53-0.084c-0.188-0.056-0.344-0.136-0.468-0.24 c-0.125-0.104-0.188-0.22-0.188-0.348c0-0.063,0.01-0.12,0.031-0.168L46.15,41.65c0.083-0.207,0.239-0.355,0.468-0.443 c0.229-0.088,0.479-0.133,0.749-0.133c0.291,0,0.557,0.049,0.796,0.145s0.39,0.24,0.452,0.432l6.49,16.272 c0.02,0.048,0.03,0.096,0.03,0.144c0,0.129-0.062,0.244-0.187,0.349c-0.125,0.104-0.281,0.188-0.468,0.252 c-0.188,0.063-0.386,0.096-0.593,0.096c-0.167,0-0.323-0.032-0.469-0.096c-0.146-0.064-0.249-0.168-0.312-0.312l-1.436-3.695 h-8.611l-1.435,3.695c-0.062,0.145-0.167,0.248-0.312,0.312C41.168,58.73,40.992,58.762,40.784,58.762z M43.56,53.29h7.582 l-3.775-9.672L43.56,53.29z"/><path fill="#fff" d="M58.749,44.05c-0.374,0-0.697-0.1-0.967-0.3c-0.271-0.2-0.406-0.436-0.406-0.708 s0.136-0.504,0.406-0.696c0.27-0.192,0.593-0.288,0.967-0.288c0.396,0,0.723,0.096,0.983,0.288c0.26,0.192,0.39,0.424,0.39,0.696 s-0.13,0.508-0.39,0.708C59.471,43.951,59.144,44.05,58.749,44.05z M58.749,58.762c-0.271,0-0.504-0.063-0.702-0.192 c-0.197-0.128-0.296-0.271-0.296-0.432V48.01c0-0.192,0.099-0.34,0.296-0.444c0.198-0.104,0.432-0.155,0.702-0.155 c0.291,0,0.535,0.052,0.733,0.155c0.197,0.104,0.296,0.252,0.296,0.444v10.128c0,0.16-0.099,0.304-0.296,0.432 C59.284,58.699,59.04,58.762,58.749,58.762z"/><path fill="#472b29" d="M53.888,59.012c-0.2,0-0.392-0.039-0.568-0.116c-0.206-0.092-0.354-0.24-0.441-0.442l-1.377-3.545 h-8.27l-1.372,3.536c-0.092,0.211-0.24,0.359-0.444,0.45c-0.32,0.141-0.764,0.165-1.234,0.022 c-0.219-0.065-0.407-0.162-0.557-0.288c-0.229-0.189-0.276-0.397-0.276-0.539c0-0.101,0.018-0.191,0.053-0.271l6.517-16.263 c0.11-0.274,0.315-0.471,0.61-0.584c0.537-0.206,1.207-0.194,1.728,0.013c0.31,0.124,0.511,0.321,0.597,0.587l6.485,16.257 c0.031,0.078,0.048,0.158,0.048,0.236c0,0.205-0.093,0.388-0.276,0.54c-0.148,0.123-0.332,0.223-0.546,0.297 C54.348,58.975,54.121,59.012,53.888,59.012z M43.061,54.408h8.611c0.104,0,0.195,0.063,0.233,0.159l1.436,3.695 c0.033,0.077,0.092,0.136,0.18,0.175c0.269,0.116,0.598,0.088,0.88-0.008c0.156-0.055,0.287-0.125,0.389-0.208 c0.096-0.08,0.096-0.136,0.096-0.156l-6.503-16.323c-0.044-0.135-0.145-0.226-0.312-0.292c-0.403-0.161-0.942-0.172-1.362-0.011 c-0.162,0.062-0.269,0.161-0.325,0.303l-6.521,16.272c-0.007,0.016-0.014,0.035-0.014,0.075c0,0.019,0,0.075,0.097,0.155 c0.099,0.083,0.226,0.147,0.38,0.193c0.359,0.107,0.681,0.091,0.89-0.002c0.087-0.038,0.146-0.097,0.183-0.183l1.431-3.687 C42.865,54.472,42.957,54.408,43.061,54.408z M51.142,53.54H43.56c-0.083,0-0.16-0.041-0.207-0.109 c-0.046-0.068-0.056-0.155-0.025-0.232l3.807-9.672c0.037-0.096,0.13-0.158,0.232-0.158l0,0c0.104,0,0.195,0.063,0.232,0.159 l3.775,9.672c0.03,0.077,0.021,0.164-0.026,0.231C51.302,53.499,51.225,53.54,51.142,53.54z M43.927,53.04h6.849l-3.41-8.736 L43.927,53.04z"/><path fill="#472b29" d="M58.748,59.012c-0.318,0-0.601-0.078-0.839-0.232c-0.271-0.177-0.409-0.393-0.409-0.642V48.01 c0-0.2,0.074-0.478,0.429-0.665c0.485-0.254,1.215-0.238,1.668-0.001c0.356,0.188,0.431,0.466,0.431,0.666v10.128 c0,0.249-0.138,0.465-0.41,0.642C59.38,58.934,59.088,59.012,58.748,59.012z M58.748,47.66c-0.228,0-0.425,0.043-0.587,0.127 C58.02,47.862,58,47.938,58,48.01v10.128c0,0.086,0.099,0.168,0.182,0.222c0.33,0.214,0.861,0.196,1.163,0 c0.084-0.054,0.183-0.136,0.183-0.222V48.01c0-0.071-0.02-0.147-0.163-0.224C59.204,47.703,58.997,47.66,58.748,47.66z M58.748,44.3c-0.429,0-0.804-0.117-1.116-0.349c-0.336-0.249-0.507-0.556-0.507-0.909c0-0.355,0.172-0.659,0.512-0.9 c0.311-0.222,0.685-0.334,1.111-0.334c0.448,0,0.829,0.113,1.132,0.337c0.326,0.241,0.491,0.543,0.491,0.897 c0,0.353-0.164,0.657-0.487,0.906C59.58,44.182,59.198,44.3,58.748,44.3z M58.748,42.308c-0.32,0-0.597,0.081-0.821,0.241 c-0.271,0.192-0.302,0.374-0.302,0.493c0,0.189,0.1,0.355,0.305,0.507c0.228,0.169,0.495,0.251,0.818,0.251 c0.342,0,0.613-0.081,0.831-0.248c0.199-0.153,0.292-0.315,0.292-0.51c0-0.192-0.092-0.35-0.288-0.495 C59.365,42.386,59.092,42.308,58.748,42.308z"/></svg>