<?xml version="1.0" ?><!DOCTYPE svg  PUBLIC '-//W3C//DTD SVG 1.1//EN'  'http://www.w3.org/Graphics/SVG/1.1/DTD/svg11.dtd'><svg enable-background="new 0 0 128 128" id="Слой_1" version="1.1" viewBox="0 0 128 128" xml:space="preserve" xmlns="http://www.w3.org/2000/svg" xmlns:xlink="http://www.w3.org/1999/xlink"><g><circle cx="64" cy="64" fill="#EFEFEF" r="62"/><g><g><path d="M71.7,53.4c-2.7-2.1-6-3.4-10.9-2.2c-0.2,0-0.3,0.1-0.4,0.1c-3.1,0.8-5.9,3-7.9,6.5     c-2.9,5.1-1.2,10.3,2.5,15.7c3.4,4.9,3.7,9.8,2.6,14.1c-0.5,2-1.5,3.6-3.4,5.3c5.2,0,17.7-8.9,21.4-19.5     C78.6,64.6,76.6,57.2,71.7,53.4z" fill="#FDC99A"/></g><g><path d="M66.7,74.7l-5.1-2.9c-2.4-1.4-5.3-1-7.2,0.7c0.2,0.3,0.4,0.6,0.6,0.9c3.4,4.9,3.7,9.8,2.6,14.1     c-0.5,2-1.5,3.6-3.4,5.3c5.2,0,17.7-8.9,21.4-19.5c0-0.1,0.1-0.2,0.1-0.3l-2.7,1.6C71,75.8,68.6,75.8,66.7,74.7z" fill="#EC7BB0"/></g><g><path d="M58,44.8c1.7,4.7,3.6,4.2,5.7,4.2c1.9,0,3.8,0.8,5.4-3.4C73.2,35,76,29.8,76,4.2c0-0.4,0-0.7,0-1.1     C72.1,2.4,68.1,2,64,2c-4.3,0-8.5,0.4-12.6,1.3c0,0.3,0,0.6,0,1C51.4,29.2,54.1,34,58,44.8z" fill="#968D96"/></g><g><path d="M58,44.8c1.7,4.7,3.6,4.6,5.7,4.6c1.9,0,3.8,0.4,5.4-3.8c1.5-3.8,2.8-9.2,3.9-15.7H54.5     C55.5,35.9,56.7,41,58,44.8z" fill="#C1B8C1"/></g><path d="M64,49.4c-0.1,0-0.2,0-0.3,0C63.1,49.4,64.6,49.4,64,49.4C64,49.4,64,49.4,64,49.4z" fill="#593055" opacity="0.2"/><g opacity="0.1"><path d="M58,44.8c1.7,4.7,3.6,4.6,5.7,4.6c0.2,0,0.2,0,0.3,0c0,0,0,0,0,0c-1.4-0.2-2.6-1.4-3.8-4.6     C56.3,34,55.8,29.2,55.8,4.2c0-0.6,0-1.1,0-1.7c-1.5,0.2-2.9,0.4-4.3,0.7c0,0.3,0,0.6,0,1C51.4,29.2,54.1,34,58,44.8z" fill="#FFFFFF"/><path d="M64,49.4C63.4,49.5,64.1,49.4,64,49.4L64,49.4z" fill="#FFFFFF"/></g><g><path d="M73,28.7H54.5c-0.6,0-1.1,0.5-1.1,1.1s0.5,1.1,1.1,1.1H73c0.6,0,1.1-0.5,1.1-1.1S73.6,28.7,73,28.7z" fill="#62355C"/></g><g><g><path d="M63.7,49.4" fill="#62355C"/></g></g><g><g><path d="M73,29.9" fill="#62355C"/></g></g><g><g><path d="M54.5,29.9" fill="#62355C"/></g></g><g><path d="M75.1,72.1l-2.7,1.6c-1.6,0.9-3.6,0.9-5.2,0l-5.1-2.9c-2.7-1.5-6.2-1.2-8.5,0.9c-0.4,0.4-0.5,1-0.2,1.5     c0.2,0.3,0.4,0.6,0.6,1c2.8,4.1,3.6,8.5,2.4,13.1c-0.5,1.9-1.4,3.3-3,4.8c-0.3,0.3-0.5,0.8-0.3,1.3s0.6,0.7,1.1,0.7     c5.8,0,18.7-9.5,22.5-20.2l0.1-0.3c0.1-0.4,0-0.9-0.4-1.2C76,71.9,75.5,71.9,75.1,72.1z M57.3,90.9c0.6-1,1-2,1.3-3.1     c1.4-5.3,0.5-10.3-2.7-15c1.5-0.9,3.5-0.9,5.1,0l5.1,2.9c2.2,1.2,5,1.3,7.2,0.1C69.6,83,62.3,88.9,57.3,90.9z" fill="#62355C"/></g><g><path d="M72.4,52.5c-2.6-2-5.2-2.9-8.1-2.9c-1.2,0-2.5,0.2-3.7,0.5c-0.1,0-0.2,0.1-0.3,0.1l-0.1,0     c-3.5,0.9-6.5,3.4-8.6,7C47.8,63.7,51.2,70,54,74.1c2.8,4.1,3.6,8.5,2.4,13.1c-0.5,1.9-1.4,3.3-3,4.8c-0.3,0.3-0.5,0.8-0.3,1.3     s0.6,0.7,1.1,0.7c5.8,0,18.7-9.5,22.5-20.3C79.7,65,78.1,56.8,72.4,52.5z M74.5,73c-2.9,8.4-11.6,15.6-17.2,17.9     c0.6-1,1-2,1.3-3.1c1.4-5.3,0.5-10.3-2.7-15c-4-5.9-4.8-10.3-2.4-14.5c1.7-3.1,4.3-5.2,7.2-6l0.2-0.1c0.1,0,0.1,0,0.2-0.1     c1.1-0.3,2.2-0.4,3.2-0.4c2.4,0,4.6,0.8,6.7,2.5C75.9,58,77.2,65.2,74.5,73z" fill="#62355C"/></g><g><path d="M56,42.5c0.3,0.9,0.7,1.8,1,2.7c1.5,4.1,3.3,4.9,5.6,4.9c0.2,0,0.4,0,0.6,0c0.4,0,0.9,0,1.3,0     c0.3,0,0.6,0,0.9,0c2.3,0,3.7-1.3,4.9-4.2l0.8-2.1c3.7-9.4,6.1-15.6,6.1-39.6c0-0.3,0-0.5,0-0.8c-0.8-0.2-1.5-0.3-2.3-0.4     c0,0.4,0,0.9,0,1.3c0,23.6-2.4,29.6-6,38.8l-0.8,2.1c-1.1,2.7-2,2.7-2.8,2.7c-0.2,0-0.5,0-0.7,0c-0.3,0-0.6,0-0.9,0     c-0.2,0-0.4,0-0.6,0c-0.2,0-0.4,0-0.5,0c-1.1,0-2.3,0-3.5-3.4c-0.3-1-0.7-1.9-1-2.7c-3.3-9-5.5-14.9-5.5-37.4c0-0.4,0-0.8,0-1.2     c-0.8,0.1-1.5,0.3-2.3,0.5c0,0.2,0,0.5,0,0.7C50.3,27.2,52.5,33.3,56,42.5z" fill="#62355C"/></g></g></g></svg>