<?xml version="1.0" ?><!DOCTYPE svg  PUBLIC '-//W3C//DTD SVG 1.1//EN'  'http://www.w3.org/Graphics/SVG/1.1/DTD/svg11.dtd'><svg enable-background="new 0 0 128 128" id="Слой_1" version="1.1" viewBox="0 0 128 128" xml:space="preserve" xmlns="http://www.w3.org/2000/svg" xmlns:xlink="http://www.w3.org/1999/xlink"><g><g><path d="M64,4L19.5,23.5v41.8c0,18.6,9.4,35.9,24.9,46L64,124l19.5-12.7c15.6-10.1,24.9-27.4,24.9-46V23.5L64,4z" fill="#FFFFFF"/></g><g><path d="M48.6,104.9c-13.5-8.8-21.5-23.6-21.5-39.6V28.5L64,12.3l36.9,16.2v36.9c0,16.1-8,30.9-21.5,39.6l-15.4,10    L48.6,104.9z" fill="#72B6D3"/></g><g opacity="0.1"><path d="M64,4L19.5,23.5v41.8c0,18.6,9.4,35.9,24.9,46L64,124V4z" fill="#FFFFFF"/></g><g><path d="M64,125c-0.2,0-0.4-0.1-0.5-0.2l-19.5-12.7C28,101.8,18.5,84.3,18.5,65.3V23.5c0-0.4,0.2-0.8,0.6-0.9    L63.6,3.1c0.3-0.1,0.5-0.1,0.8,0l44.5,19.5c0.4,0.2,0.6,0.5,0.6,0.9v41.8c0,19-9.5,36.5-25.4,46.8l-19.5,12.7    C64.4,124.9,64.2,125,64,125z M20.5,24.2v41.2c0,18.3,9.2,35.2,24.5,45.1l19,12.3l19-12.3c15.3-10,24.5-26.9,24.5-45.1V24.2    L64,5.1L20.5,24.2z" fill="#62355C"/></g><g><path d="M64,115.9c-0.2,0-0.4-0.1-0.5-0.2l-15.4-10c-13.7-8.9-21.9-24.1-21.9-40.5V28.5c0-0.4,0.2-0.8,0.6-0.9    l36.9-16.2c0.3-0.1,0.5-0.1,0.8,0l36.9,16.2c0.4,0.2,0.6,0.5,0.6,0.9v36.9c0,16.4-8.2,31.5-21.9,40.5l-15.4,10    C64.4,115.9,64.2,115.9,64,115.9z M28.1,29.1v36.2c0,15.7,7.9,30.2,21,38.8l14.8,9.6l14.8-9.6c13.2-8.6,21-23.1,21-38.8V29.1    L64,13.4L28.1,29.1z" fill="#62355C"/></g><g><path d="M64,74.9c-1.3,0-2.5-0.6-3.3-1.6L48.3,57.8l6.7-5.3L64,63.8l15.5-19.6l6.7,5.3L67.4,73.3    C66.5,74.3,65.3,74.9,64,74.9C64,74.9,64,74.9,64,74.9z" fill="#FFFFFF"/></g><g><path d="M64,75.9C64,75.9,64,75.9,64,75.9L64,75.9c-1.6,0-3.1-0.7-4.1-2L47.5,58.4c-0.2-0.2-0.2-0.5-0.2-0.7    c0-0.3,0.2-0.5,0.4-0.7l6.7-5.3c0.4-0.3,1.1-0.3,1.4,0.2L64,62.2l14.8-18.6c0.3-0.4,1-0.5,1.4-0.2l6.7,5.3c0.4,0.3,0.5,1,0.2,1.4    L68.1,73.9C67.1,75.2,65.6,75.9,64,75.9z M49.7,57.9l11.8,14.8c0.6,0.8,1.6,1.2,2.5,1.2l0,1l0-1c1,0,1.9-0.5,2.6-1.2l18.2-23    l-5.1-4.1L64.8,64.4c-0.2,0.2-0.5,0.4-0.8,0.4h0c-0.3,0-0.6-0.1-0.8-0.4l-8.4-10.6L49.7,57.9z" fill="#62355C"/></g></g></svg>