<?xml version="1.0" ?><!DOCTYPE svg  PUBLIC '-//W3C//DTD SVG 1.1//EN'  'http://www.w3.org/Graphics/SVG/1.1/DTD/svg11.dtd'><svg enable-background="new 0 0 128 128" id="Слой_1" version="1.1" viewBox="0 0 128 128" xml:space="preserve" xmlns="http://www.w3.org/2000/svg" xmlns:xlink="http://www.w3.org/1999/xlink"><g><g><path d="M49.5,69.2L36,110.4l33-34.8l14.2,4.6c1.3,0.4,2.8-0.1,3.5-1.3L124,17.6l0,0L6.2,49.3    c-2.9,0.8-3,4.8-0.2,5.7l20.4,6.7l9.5,48.7" fill="#FFFFFF"/></g><g><path d="M36,111.4c-0.2,0-0.4-0.1-0.6-0.2c0,0,0,0,0,0l0,0c-0.1,0-0.1-0.1-0.1-0.1c-0.1-0.1-0.2-0.3-0.3-0.5    c0,0,0,0,0,0l-9.4-48.1L5.8,56C4,55.5,3,53.9,3,52.1c0-1.8,1.2-3.3,3-3.8l117.8-31.8c0.4-0.1,0.8,0,1.1,0.4    c0.2,0.3,0.3,0.8,0.1,1.1L87.5,79.5c-1,1.6-2.9,2.3-4.7,1.7l-13.6-4.4l-32.6,34.4c-0.1,0.1-0.3,0.2-0.5,0.3c0,0,0,0,0,0l0,0    c0,0,0,0,0,0c0,0,0,0,0,0h0C36.1,111.4,36,111.4,36,111.4z M49.5,68.2c0.1,0,0.2,0,0.3,0c0.5,0.2,0.8,0.7,0.6,1.3l-12.1,37    l29.9-31.6c0.3-0.3,0.7-0.4,1-0.3l14.2,4.6c0.9,0.3,1.8-0.1,2.3-0.9l36-59.3L6.5,50.3C5.4,50.6,5,51.4,5,52.2s0.3,1.6,1.4,2    l20.4,6.7c0.3,0.1,0.6,0.4,0.7,0.8l8.7,44.9l12.3-37.5C48.6,68.5,49,68.2,49.5,68.2z" fill="#62355C"/></g><g><polygon fill="#72B6D3" points="47.8,38.1 72.6,40.7 72.6,40.7 72.6,40.7 74.7,51.5 84.7,44.6 84.7,44.6 84.7,44.6 100.1,56.8     124,17.6   "/></g><g><path d="M100.1,57.8c-0.2,0-0.4-0.1-0.6-0.2L84.7,45.9l-9.4,6.4c-0.3,0.2-0.6,0.2-0.9,0.1    c-0.3-0.1-0.5-0.4-0.6-0.7l-2-10.1l-24.1-2.5c-0.5,0-0.9-0.4-0.9-0.9c0-0.5,0.3-0.9,0.7-1l76.2-20.5c0.4-0.1,0.8,0,1.1,0.4    c0.2,0.3,0.3,0.8,0.1,1.1L101,57.3c-0.1,0.2-0.4,0.4-0.7,0.5C100.3,57.8,100.2,57.8,100.1,57.8z M84.7,43.6c0.2,0,0.3,0,0.4,0.1    c0.1,0,0.1,0.1,0.2,0.1l14.5,11.5l22-36.1L53.3,37.7l19.4,2c0.4,0,0.8,0.4,0.9,0.8l1.8,9.3l8.7-6C84.3,43.7,84.5,43.6,84.7,43.6z" fill="#62355C"/></g><g opacity="0.1"><polygon fill="#111318" points="36,110.4 69,75.6 49.5,69.2   "/></g><g opacity="0.1"><polygon fill="#111318" points="124,17.6 26.4,61.5 36,110.4 69,75.6 49.5,69.2   "/></g><g><path d="M36,111.4c-0.1,0-0.2,0-0.3,0c-0.4-0.1-0.6-0.4-0.7-0.8l-9.5-48.9c-0.1-0.5,0.1-0.9,0.6-1.1l97.6-43.9    c0.5-0.2,1,0,1.3,0.4c0.3,0.5,0.1,1-0.3,1.3L51.7,68.9l17.6,5.8c0.3,0.1,0.6,0.4,0.7,0.7c0.1,0.3,0,0.7-0.2,0.9l-33,34.8    C36.5,111.3,36.2,111.4,36,111.4z M27.6,62.1l9,46.2l30.6-32.3l-18-5.9c-0.4-0.1-0.6-0.4-0.7-0.8c-0.1-0.4,0.1-0.8,0.4-1L114.5,23    L27.6,62.1z" fill="#62355C"/></g></g></svg>