<?xml version="1.0" encoding="UTF-8"?>
<svg xmlns="http://www.w3.org/2000/svg" xmlns:xlink="http://www.w3.org/1999/xlink" viewBox="0 0 32 32" width="32px" height="32px">
<g id="surface20882092">
<path style=" stroke:none;fill-rule:nonzero;fill:rgb(94.509804%,76.862746%,5.882353%);fill-opacity:1;" d="M 5 4 C 3.351562 4 2 5.351562 2 7 L 2 23 C 2 24.648438 3.351562 26 5 26 L 8 26 L 8 30.867188 L 15.304688 26 L 25 26 C 26.648438 26 28 24.648438 28 23 L 28 7 C 28 5.351562 26.648438 4 25 4 Z M 5 6 L 25 6 C 25.5625 6 26 6.4375 26 7 L 26 23 C 26 23.5625 25.5625 24 25 24 L 14.695312 24 L 10 27.132812 L 10 24 L 5 24 C 4.4375 24 4 23.5625 4 23 L 4 7 C 4 6.4375 4.4375 6 5 6 Z M 14 8 L 14 10 L 16 10 L 16 8 Z M 14 12 L 14 22 L 16 22 L 16 12 Z M 14 12 "/>
</g>
</svg>
