<?xml version="1.0" encoding="utf-8"?>
<!-- Generator: Adobe Illustrator 16.0.0, SVG Export Plug-In . SVG Version: 6.00 Build 0)  -->
<!DOCTYPE svg PUBLIC "-//W3C//DTD SVG 1.1//EN" "http://www.w3.org/Graphics/SVG/1.1/DTD/svg11.dtd">
<svg version="1.1" id="Layer_1" xmlns="http://www.w3.org/2000/svg" xmlns:xlink="http://www.w3.org/1999/xlink" x="0px" y="0px"
	 width="300px" height="300px" viewBox="0 0 300 300" enable-background="new 0 0 300 300" xml:space="preserve">
<path fill="#F1C40F" d="M280.723,150c0,10.371-7.852,18.75-18.223,18.75H82.793l61.758,61.758c7.324,7.324,7.324,19.189,0,26.514
	c-3.691,3.662-8.496,5.479-13.301,5.479s-9.598-1.831-13.254-5.493l-93.75-93.75c-7.324-7.324-7.324-19.189,0-26.514l93.75-93.75
	c7.324-7.324,19.189-7.324,26.514,0s7.324,19.189,0,26.514L82.793,131.25H262.5C272.871,131.25,280.723,139.629,280.723,150z"/>
</svg>
