<?xml version="1.0" encoding="UTF-8"?>
<svg xmlns="http://www.w3.org/2000/svg" xmlns:xlink="http://www.w3.org/1999/xlink" viewBox="0 0 32 32" width="32px" height="32px">
<g id="surface20810087">
<path style=" stroke:none;fill-rule:nonzero;fill:rgb(94.509804%,76.862746%,5.882353%);fill-opacity:1;" d="M 16 0.96875 C 13.894531 0.96875 11.785156 1.429688 9.824219 2.351562 L 9.398438 2.554688 C 7.933594 3.242188 6.867188 4.605469 6.550781 6.191406 L 5.605469 10.921875 C 5.574219 11.074219 5.476562 11.203125 5.335938 11.273438 C 4.824219 11.53125 4.5 12.050781 4.5 12.628906 L 4.5 18.371094 C 4.5 18.949219 4.820312 19.46875 5.375 19.742188 C 5.503906 19.808594 5.597656 19.925781 5.632812 20.0625 L 7.457031 26.898438 C 7.515625 27.125 7.628906 27.335938 7.785156 27.507812 L 11.328125 31.496094 C 11.613281 31.816406 12.023438 32 12.449219 32 L 19.550781 32 C 19.980469 32 20.390625 31.816406 20.671875 31.496094 L 24.21875 27.507812 C 24.371094 27.335938 24.484375 27.125 24.546875 26.898438 L 26.367188 20.0625 C 26.40625 19.925781 26.5 19.8125 26.664062 19.726562 C 27.179688 19.46875 27.5 18.949219 27.5 18.371094 L 27.5 12.628906 C 27.5 12.050781 27.179688 11.53125 26.664062 11.273438 C 26.523438 11.203125 26.425781 11.074219 26.394531 10.921875 L 25.449219 6.195312 C 25.132812 4.605469 24.066406 3.246094 22.601562 2.554688 L 22.175781 2.351562 C 20.210938 1.429688 18.105469 0.96875 16 0.96875 Z M 16 1.96875 C 17.960938 1.96875 19.921875 2.398438 21.746094 3.257812 L 22.171875 3.457031 C 23.355469 4.015625 24.210938 5.109375 24.46875 6.386719 L 24.523438 6.664062 C 24.074219 6.253906 23.570312 5.90625 23.023438 5.648438 C 22.035156 5.183594 20.980469 4.8125 19.898438 4.546875 C 19.621094 4.480469 19.328125 4.535156 19.09375 4.699219 C 18.859375 4.867188 18.703125 5.125 18.671875 5.414062 L 18.101562 10.554688 C 18.074219 10.808594 17.859375 11 17.605469 11 L 14.394531 11 C 14.140625 11 13.925781 10.808594 13.898438 10.554688 L 13.328125 5.414062 C 13.296875 5.125 13.140625 4.863281 12.90625 4.699219 C 12.671875 4.535156 12.378906 4.480469 12.101562 4.546875 C 11.019531 4.808594 9.964844 5.179688 8.96875 5.648438 C 8.421875 5.90625 7.925781 6.253906 7.476562 6.664062 L 7.53125 6.386719 C 7.789062 5.105469 8.644531 4.015625 9.824219 3.457031 L 10.25 3.257812 C 12.078125 2.398438 14.039062 1.96875 16 1.96875 Z M 15.5 3.5 C 15.226562 3.5 15 3.726562 15 4 C 15 4.273438 15.226562 4.5 15.5 4.5 L 16.5 4.5 C 16.773438 4.5 17 4.273438 17 4 C 17 3.726562 16.773438 3.5 16.5 3.5 Z M 19.660156 5.515625 C 20.679688 5.765625 21.667969 6.113281 22.59375 6.554688 C 23.289062 6.878906 23.910156 7.367188 24.398438 7.96875 L 23.292969 14.78125 C 23.273438 14.894531 23.1875 14.988281 23.082031 15.015625 C 18.445312 16.300781 13.550781 16.300781 8.917969 15.015625 C 8.8125 14.984375 8.726562 14.894531 8.710938 14.789062 L 7.605469 7.976562 C 8.089844 7.375 8.703125 6.882812 9.398438 6.550781 C 10.332031 6.113281 11.324219 5.765625 12.335938 5.523438 L 12.90625 10.664062 C 12.988281 11.425781 13.628906 12 14.398438 12 L 17.605469 12 C 18.371094 12 19.011719 11.425781 19.097656 10.664062 Z M 15.5 6 C 15.226562 6 15 6.226562 15 6.5 C 15 6.773438 15.226562 7 15.5 7 L 16.5 7 C 16.773438 7 17 6.773438 17 6.5 C 17 6.226562 16.773438 6 16.5 6 Z M 15.5 8.5 C 15.226562 8.5 15 8.726562 15 9 C 15 9.273438 15.226562 9.5 15.5 9.5 L 16.5 9.5 C 16.773438 9.5 17 9.273438 17 9 C 17 8.726562 16.773438 8.5 16.5 8.5 Z M 6.867188 9.703125 L 7.722656 14.953125 C 7.734375 15.027344 7.765625 15.089844 7.789062 15.160156 C 7.769531 15.183594 7.742188 15.195312 7.726562 15.222656 L 7.25 15.9375 C 6.808594 16.597656 6.960938 17.492188 7.597656 17.96875 L 8.308594 18.5 C 8.738281 18.824219 9.269531 19 9.808594 19 L 12.523438 19 C 13.097656 19 13.609375 18.683594 13.867188 18.171875 L 14.484375 16.9375 C 14.988281 16.964844 15.492188 16.984375 16 16.984375 C 16.386719 16.984375 16.777344 16.96875 17.167969 16.953125 L 17.773438 18.171875 C 18.03125 18.683594 18.546875 19 19.117188 19 L 21.832031 19 C 22.371094 19 22.902344 18.824219 23.332031 18.5 L 24.042969 17.96875 C 24.679688 17.492188 24.832031 16.597656 24.390625 15.9375 L 24.0625 15.449219 C 24.164062 15.296875 24.246094 15.136719 24.277344 14.953125 L 25.128906 9.703125 L 25.414062 11.117188 C 25.503906 11.578125 25.796875 11.957031 26.210938 12.167969 C 26.390625 12.253906 26.5 12.433594 26.5 12.628906 L 26.5 18.371094 C 26.5 18.570312 26.390625 18.746094 26.179688 18.851562 C 26.089844 18.898438 25.707031 19.078125 25.625 19.167969 L 22.132812 23.101562 C 21.722656 23.558594 21.5 24.148438 21.5 24.761719 L 21.5 26.085938 C 21.5 26.21875 21.445312 26.347656 21.351562 26.441406 L 21.054688 26.742188 L 20.199219 25.601562 C 19.917969 25.226562 19.46875 25 19 25 L 13 25 C 12.53125 25 12.082031 25.222656 11.796875 25.601562 L 10.945312 26.742188 L 10.644531 26.441406 C 10.550781 26.347656 10.5 26.21875 10.5 26.085938 L 10.5 24.761719 C 10.5 24.148438 10.273438 23.558594 9.867188 23.101562 L 6.371094 19.167969 C 6.289062 19.074219 5.886719 18.886719 5.785156 18.835938 C 5.609375 18.746094 5.5 18.570312 5.5 18.371094 L 5.5 12.628906 C 5.5 12.433594 5.609375 12.253906 5.785156 12.167969 C 6.203125 11.957031 6.492188 11.578125 6.585938 11.117188 Z M 8.476562 15.90625 C 8.535156 15.933594 8.589844 15.964844 8.65625 15.984375 C 10.214844 16.417969 11.808594 16.707031 13.40625 16.859375 L 12.972656 17.726562 C 12.886719 17.894531 12.71875 18 12.527344 18 L 9.8125 18 C 9.488281 18 9.167969 17.894531 8.910156 17.703125 L 8.203125 17.167969 C 7.988281 17.007812 7.9375 16.710938 8.085938 16.492188 Z M 23.238281 16.007812 L 23.558594 16.492188 C 23.707031 16.710938 23.65625 17.007812 23.441406 17.167969 L 22.734375 17.703125 C 22.472656 17.894531 22.15625 18 21.832031 18 L 19.117188 18 C 18.925781 18 18.753906 17.894531 18.671875 17.726562 L 18.25 16.886719 C 19.929688 16.746094 21.597656 16.457031 23.238281 16.011719 Z M 7.023438 21.40625 L 9.121094 23.761719 C 9.367188 24.039062 9.5 24.390625 9.5 24.757812 L 9.5 26.085938 C 9.5 26.484375 9.65625 26.863281 9.9375 27.144531 L 10.242188 27.445312 C 10.445312 27.648438 10.726562 27.757812 11.015625 27.734375 C 11.304688 27.714844 11.570312 27.570312 11.746094 27.335938 L 12.597656 26.199219 C 12.695312 26.074219 12.84375 26 13 26 L 19 26 C 19.15625 26 19.304688 26.074219 19.402344 26.199219 L 20.253906 27.335938 C 20.429688 27.570312 20.695312 27.714844 20.984375 27.734375 C 21.007812 27.738281 21.03125 27.738281 21.054688 27.738281 C 21.320312 27.738281 21.574219 27.632812 21.757812 27.445312 L 22.0625 27.144531 C 22.34375 26.863281 22.5 26.484375 22.5 26.085938 L 22.5 24.757812 C 22.5 24.390625 22.632812 24.039062 22.878906 23.761719 L 24.972656 21.40625 L 23.578125 26.640625 C 23.558594 26.714844 23.523438 26.785156 23.46875 26.84375 L 19.921875 30.832031 C 19.828125 30.9375 19.691406 31 19.550781 31 L 12.449219 31 C 12.304688 31 12.167969 30.9375 12.074219 30.832031 L 8.53125 26.84375 C 8.476562 26.789062 8.441406 26.71875 8.421875 26.640625 Z M 13.5 28 C 13.226562 28 13 28.226562 13 28.5 L 13 29.5 C 13 29.773438 13.226562 30 13.5 30 C 13.773438 30 14 29.773438 14 29.5 L 14 28.5 C 14 28.226562 13.773438 28 13.5 28 Z M 16 28 C 15.726562 28 15.5 28.226562 15.5 28.5 L 15.5 29.5 C 15.5 29.773438 15.726562 30 16 30 C 16.273438 30 16.5 29.773438 16.5 29.5 L 16.5 28.5 C 16.5 28.226562 16.273438 28 16 28 Z M 18.5 28 C 18.226562 28 18 28.226562 18 28.5 L 18 29.5 C 18 29.773438 18.226562 30 18.5 30 C 18.773438 30 19 29.773438 19 29.5 L 19 28.5 C 19 28.226562 18.773438 28 18.5 28 Z M 18.5 28 "/>
</g>
</svg>
