<?xml version="1.0" encoding="UTF-8"?>
<svg xmlns="http://www.w3.org/2000/svg" xmlns:xlink="http://www.w3.org/1999/xlink" viewBox="0 0 48 48" width="48px" height="48px">
<g id="surface109025097">
<path style=" stroke:none;fill-rule:nonzero;fill:rgb(37.64706%,43.137255%,76.078433%);fill-opacity:1;" d="M 8.878906 48 C 3.976562 48 0 44.023438 0 39.121094 L 0 8.878906 C 0 3.976562 3.976562 0 8.878906 0 L 39.121094 0 C 44.023438 0 48 3.976562 48 8.878906 L 48 39.121094 C 48 44.023438 44.023438 48 39.121094 48 Z M 8.878906 48 "/>
<path style=" stroke:none;fill-rule:nonzero;fill:rgb(100%,100%,100%);fill-opacity:1;" d="M 9.714844 14 L 9.714844 16.855469 L 38.285156 16.855469 L 38.285156 14 Z M 9.714844 22.570312 L 9.714844 25.429688 L 38.285156 25.429688 L 38.285156 22.570312 Z M 9.714844 31.144531 L 9.714844 34 L 38.285156 34 L 38.285156 31.144531 Z M 9.714844 31.144531 "/>
</g>
</svg>
