<?xml version="1.0" encoding="UTF-8"?>
<svg xmlns="http://www.w3.org/2000/svg" xmlns:xlink="http://www.w3.org/1999/xlink" viewBox="0 0 32 32" width="32px" height="32px">
<g id="surface20887514">
<path style=" stroke:none;fill-rule:nonzero;fill:rgb(94.509804%,76.862746%,5.882353%);fill-opacity:1;" d="M 5 4 C 3.351562 4 2 5.351562 2 7 L 2 25 C 2 26.648438 3.351562 28 5 28 L 27 28 C 28.648438 28 30 26.648438 30 25 L 30 7 C 30 5.351562 28.648438 4 27 4 Z M 5 6 L 27 6 C 27.5625 6 28 6.4375 28 7 L 28 20.585938 L 21 13.585938 L 17 17.585938 L 11 11.585938 L 4 18.585938 L 4 7 C 4 6.4375 4.4375 6 5 6 Z M 24 8 C 22.898438 8 22 8.898438 22 10 C 22 11.101562 22.898438 12 24 12 C 25.101562 12 26 11.101562 26 10 C 26 8.898438 25.101562 8 24 8 Z M 11 14.414062 L 18.296875 21.710938 L 19.703125 20.289062 L 18.414062 19 L 21 16.414062 L 28 23.414062 L 28 25 C 28 25.5625 27.5625 26 27 26 L 5 26 C 4.4375 26 4 25.5625 4 25 L 4 21.414062 Z M 11 14.414062 "/>
</g>
</svg>
