<?xml version="1.0" encoding="utf-8"?>
<!-- Generator: Adobe Illustrator 16.0.0, SVG Export Plug-In . SVG Version: 6.00 Build 0)  -->
<!DOCTYPE svg PUBLIC "-//W3C//DTD SVG 1.1//EN" "http://www.w3.org/Graphics/SVG/1.1/DTD/svg11.dtd">
<svg version="1.1" xmlns="http://www.w3.org/2000/svg" xmlns:xlink="http://www.w3.org/1999/xlink" x="0px" y="0px"
	 width="1000.45px" height="800px" viewBox="0 0 1000.45 800" enable-background="new 0 0 1000.45 800" xml:space="preserve">
<g id="background">
	<rect fill="#5EACE0" width="1000.45" height="800"/>
</g>
<g id="designed_by_freepik">
</g>
<g id="objects">
	<g id="pencil">
		<g id="XMLID_185_">
			<g>
				<path fill="#F4806E" d="M608.657,59.548h-6.449c-2.491,0.001-4.513-2.021-4.515-4.513l0.003-1.208
					c-0.001-2.491,2.019-4.512,4.514-4.51l6.447-0.002c2.491,0,4.514,2.021,4.514,4.515v1.206
					C613.172,57.529,611.15,59.547,608.657,59.548z"/>
			</g>
		</g>
		<g id="XMLID_9_">
			<g>
				<path fill="#DD7464" d="M613.171,53.83v1.206c0.001,2.494-2.021,4.512-4.514,4.512h-6.449c-2.491,0.001-4.513-2.021-4.515-4.513
					l0.003-1.208L613.171,53.83z"/>
			</g>
		</g>
		<g id="XMLID_152_">
			<g>
				<polygon fill="#D8D0BB" points="801.93,49.153 824.664,54.494 801.93,59.835 				"/>
			</g>
		</g>
		<g id="XMLID_156_">
			<g>
				<polygon fill="#3B4D57" points="817.232,56.241 817.234,52.749 824.664,54.494 				"/>
			</g>
		</g>
		<g id="XMLID_154_">
			<g id="XMLID_155_">
				<g>
					
						<rect x="605.811" y="49.149" transform="matrix(-1 -4.235108e-005 4.235108e-005 -1 1407.739 103.6699)" fill="#FAA819" width="196.119" height="5.342"/>
				</g>
			</g>
			<g id="XMLID_157_">
				<g>
					<rect x="605.811" y="54.49" fill="#E29918" width="196.119" height="5.34"/>
				</g>
			</g>
		</g>
		<g id="XMLID_183_">
			<g>
				<rect x="604.011" y="49.146" fill="#FFD764" width="13.65" height="10.68"/>
			</g>
			<g id="XMLID_1_">
				<g>
					<rect x="610.538" y="49.143" fill="#E7C35C" width="0.594" height="10.683"/>
				</g>
			</g>
			<g id="XMLID_2_">
				<g>
					<rect x="613.908" y="49.157" fill="#E7C35C" width="0.595" height="10.68"/>
				</g>
			</g>
			<g id="XMLID_8_">
				<g>
					<rect x="607.076" y="49.153" fill="#E7C35C" width="0.596" height="10.684"/>
				</g>
			</g>
		</g>
	</g>
	<g id="pen">
		<g id="XMLID_189_">
			<g>
				<path fill="#C4C6CB" d="M409.05,47.396l0.007,3.88l44.426-0.027c0.557-0.001,1.008,0.451,1.009,1.008l0,0
					c0,1.21-0.978,2.191-2.188,2.192l-68.462,0.041c-0.563,0-1.017-0.455-1.019-1.016v-1.838l-0.001-0.344l-0.008-3.879
					L409.05,47.396z"/>
			</g>
		</g>
		<g id="XMLID_188_">
			<g>
				<path fill="#C4C6CB" d="M397.701,48.563l-21.122,0.013c-1.413,0-2.557-1.143-2.56-2.555l-0.001-3.524
					c0-1.412,1.145-2.559,2.557-2.559l21.121-0.014c1.412-0.001,2.558,1.144,2.559,2.556l0.002,3.524
					C400.256,47.416,399.113,48.563,397.701,48.563z"/>
			</g>
		</g>
		<g id="XMLID_182_">
			<g>
				<polygon fill="#3B4D57" points="382.822,50.332 573.67,50.332 573.663,38.057 382.814,38.057 				"/>
			</g>
		</g>
		<g id="XMLID_186_">
			<g>
				<path fill="#C4C6CB" d="M590.411,42.896l0.003,2.192c-5.525,3.354-16.744,5.244-16.744,5.244l-0.007-12.274
					C573.663,38.057,584.803,39.329,590.411,42.896z"/>
			</g>
		</g>
		<g id="XMLID_86_">
			<g>
				<polygon fill="#2C3A41" points="382.822,50.332 573.67,50.389 573.659,44.194 382.81,44.136 				"/>
			</g>
		</g>
		<g id="XMLID_4_">
			<g>
				<rect x="385.483" y="38.058" fill="#C4C6CB" width="0.96" height="12.274"/>
			</g>
		</g>
		<g id="XMLID_5_">
			<g>
				<rect x="475.236" y="38.058" fill="#C4C6CB" width="0.961" height="12.274"/>
			</g>
		</g>
	</g>
	<g id="coffee">
		<circle fill="#FEFFFC" cx="894.605" cy="74.77" r="51.388"/>
		<circle fill="#C36E29" cx="894.606" cy="74.77" r="39.443"/>
		<path fill="#A35821" d="M894.606,35.326c-21.785,0-39.443,17.661-39.443,39.443c0,21.783,17.658,39.443,39.443,39.443V35.326z"/>
		<path fill="#FEFFFC" d="M977.382,74.77c0,3.529-2.861,6.389-6.389,6.389h-30.555c-3.529,0-6.389-2.86-6.389-6.389l0,0
			c0-3.528,2.859-6.389,6.389-6.389h30.555C974.521,68.381,977.382,71.241,977.382,74.77L977.382,74.77z"/>
	</g>
	<g>
		<g id="XMLID_10_">
			<g>
				
					<rect x="71.005" y="292.549" transform="matrix(0.9922 -0.1245 0.1245 0.9922 -55.2436 26.8486)" fill="#F1F2F2" width="232.447" height="325.903"/>
			</g>
			<g id="XMLID_11_">
				<g id="XMLID_180_">
					
						<rect id="XMLID_451_" x="89.406" y="328.788" transform="matrix(0.9928 -0.1197 0.1197 0.9928 -38.1278 23.8422)" fill="#7EBDE6" width="179.915" height="0.906"/>
				</g>
				<g id="XMLID_179_">
					
						<rect id="XMLID_450_" x="91.024" y="342.207" transform="matrix(0.9928 -0.1197 0.1197 0.9928 -39.7209 24.1312)" fill="#7EBDE6" width="179.915" height="0.907"/>
				</g>
				<g id="XMLID_178_">
					
						<rect id="XMLID_449_" x="92.642" y="355.626" transform="matrix(0.9928 -0.1197 0.1197 0.9928 -41.3185 24.4232)" fill="#7EBDE6" width="179.915" height="0.906"/>
				</g>
				<g id="XMLID_177_">
					
						<rect id="XMLID_447_" x="94.26" y="369.047" transform="matrix(0.9928 -0.1197 0.1197 0.9928 -42.9088 24.7104)" fill="#7EBDE6" width="179.915" height="0.904"/>
				</g>
				<g id="XMLID_176_">
					
						<rect id="XMLID_444_" x="95.879" y="382.465" transform="matrix(0.9928 -0.1197 0.1197 0.9928 -44.5095 25.0044)" fill="#7EBDE6" width="179.915" height="0.906"/>
				</g>
				<g id="XMLID_175_">
					
						<rect id="XMLID_265_" x="97.497" y="395.883" transform="matrix(0.9928 -0.1197 0.1197 0.9928 -46.1043 25.2946)" fill="#7EBDE6" width="179.915" height="0.906"/>
				</g>
				<g id="XMLID_174_">
					
						<rect id="XMLID_258_" x="99.116" y="409.301" transform="matrix(0.9928 -0.1197 0.1197 0.9928 -47.6975 25.5838)" fill="#7EBDE6" width="179.914" height="0.907"/>
				</g>
				<g id="XMLID_150_">
					
						<rect id="XMLID_257_" x="100.733" y="422.72" transform="matrix(0.9928 -0.1197 0.1197 0.9928 -49.2945 25.8752)" fill="#7EBDE6" width="179.915" height="0.907"/>
				</g>
				<g id="XMLID_102_">
					
						<rect id="XMLID_256_" x="102.351" y="436.138" transform="matrix(0.9928 -0.1197 0.1197 0.9928 -50.8939 26.1681)" fill="#7EBDE6" width="179.915" height="0.909"/>
				</g>
				<g id="XMLID_101_">
					
						<rect id="XMLID_255_" x="103.969" y="449.559" transform="matrix(0.9928 -0.1197 0.1197 0.9928 -52.4825 26.4545)" fill="#7EBDE6" width="179.914" height="0.907"/>
				</g>
				<g id="XMLID_100_">
					
						<rect id="XMLID_254_" x="105.588" y="462.979" transform="matrix(0.9928 -0.1197 0.1197 0.9928 -54.0771 26.7448)" fill="#7EBDE6" width="179.915" height="0.905"/>
				</g>
				<g id="XMLID_99_">
					
						<rect id="XMLID_238_" x="107.206" y="476.396" transform="matrix(0.9928 -0.1197 0.1197 0.9928 -55.6745 27.0363)" fill="#7EBDE6" width="179.915" height="0.908"/>
				</g>
				<g id="XMLID_98_">
					
						<rect id="XMLID_237_" x="108.825" y="489.818" transform="matrix(0.9928 -0.1197 0.1197 0.9928 -57.2648 27.324)" fill="#7EBDE6" width="179.914" height="0.905"/>
				</g>
				<g id="XMLID_97_">
					
						<rect id="XMLID_236_" x="110.443" y="503.234" transform="matrix(0.9928 -0.1197 0.1197 0.9928 -58.8621 27.6157)" fill="#7EBDE6" width="179.914" height="0.907"/>
				</g>
				<g id="XMLID_96_">
					
						<rect id="XMLID_235_" x="112.061" y="516.656" transform="matrix(0.9928 -0.1197 0.1197 0.9928 -60.4597 27.9072)" fill="#7EBDE6" width="179.915" height="0.905"/>
				</g>
				<g id="XMLID_95_">
					
						<rect id="XMLID_234_" x="113.679" y="530.073" transform="matrix(0.9928 -0.1197 0.1197 0.9928 -62.0522 28.1962)" fill="#7EBDE6" width="179.914" height="0.906"/>
				</g>
				<g id="XMLID_94_">
					
						<rect id="XMLID_233_" x="115.297" y="543.492" transform="matrix(0.9928 -0.1197 0.1197 0.9928 -63.6411 28.4833)" fill="#7EBDE6" width="179.914" height="0.905"/>
				</g>
				<g id="XMLID_93_">
					
						<rect id="XMLID_232_" x="116.915" y="556.909" transform="matrix(0.9928 -0.1197 0.1197 0.9928 -65.2446 28.778)" fill="#7EBDE6" width="179.914" height="0.909"/>
				</g>
				<g id="XMLID_92_">
					
						<rect id="XMLID_231_" x="118.533" y="570.328" transform="matrix(0.9928 -0.1197 0.1197 0.9928 -66.8364 29.0667)" fill="#7EBDE6" width="179.915" height="0.907"/>
				</g>
				<g id="XMLID_89_">
					
						<rect id="XMLID_221_" x="120.152" y="583.747" transform="matrix(0.9928 -0.1197 0.1197 0.9928 -68.4314 29.357)" fill="#7EBDE6" width="179.915" height="0.907"/>
				</g>
				<g id="XMLID_87_">
					
						<rect id="XMLID_220_" x="121.771" y="597.164" transform="matrix(0.9928 -0.1197 0.1197 0.9928 -70.0143 29.6414)" fill="#7EBDE6" width="179.913" height="0.909"/>
				</g>
			</g>
		</g>
		<g>
			<path fill="#C4C6CB" d="M73.066,303.886c-0.057-0.447-0.467-0.765-0.915-0.708c-0.448,0.058-0.763,0.468-0.706,0.915l0.217,1.695
				l1.621-0.207L73.066,303.886z"/>
			<path fill="#C4C6CB" d="M77.83,326.848l-3.701-28.955c-0.548-4.292-2.831-6.502-6.265-6.063
				c-3.315,0.424-4.324,3.393-4.393,4.904l1.264,9.939l1.614-0.207l-1.242-9.717c0.042-0.448,0.385-2.969,2.965-3.298
				c2.509-0.321,4.001,1.243,4.437,4.649l3.706,28.991l0.017,0.085c0.002,0.016,0.359,1.612-0.518,2.874
				c-0.62,0.891-1.731,1.443-3.302,1.644c-4.489,0.574-5.698-2.352-6.461-8.323l-2.175-17.018c-0.057-0.447-0.466-0.764-0.915-0.706
				c-0.448,0.057-0.763,0.466-0.706,0.913l2.175,17.018c0.508,3.973,1.357,10.623,8.29,9.736c2.059-0.263,3.556-1.053,4.448-2.351
				C78.263,329.229,77.907,327.205,77.83,326.848z"/>
		</g>
	</g>
	<g>
		<path fill="#EE4036" d="M899.274,493.23c0-0.451-0.365-0.817-0.817-0.817c-0.451,0-0.816,0.366-0.816,0.817v1.709h1.634V493.23z"
			/>
		<path fill="#EE4036" d="M901.089,516.611v-29.189c0-4.327-1.983-6.809-5.445-6.809c-3.343,0-4.72,2.816-4.98,4.308l-0.006,10.019
			h1.627v-9.796c0.098-0.438,0.758-2.896,3.359-2.896c2.529,0,3.812,1.74,3.812,5.174v29.227l0.006,0.086
			c0.001,0.017,0.152,1.645-0.879,2.785c-0.728,0.806-1.899,1.213-3.483,1.213c-4.526,0-5.354-3.056-5.354-9.076v-17.155
			c0-0.451-0.366-0.816-0.817-0.816s-0.816,0.365-0.816,0.816v17.155c0,4.006,0,10.71,6.988,10.71c2.076,0,3.661-0.595,4.711-1.769
			C901.216,519.027,901.12,516.976,901.089,516.611z"/>
	</g>
	<g id="plant">
		<g id="coffee_1_">
			<circle fill="#FEFFFC" cx="93.611" cy="84.469" r="77.388"/>
			<circle fill="#3B4D57" cx="93.612" cy="84.469" r="59.401"/>
		</g>
		<path fill="#2C3A41" d="M93.61,24.183c-32.804,0-59.399,26.596-59.399,59.399c0,32.804,26.595,59.399,59.399,59.399V24.183z"/>
		<g>
			<path fill="#52BA70" d="M68.294,65.349c14.771,2.741,27.072,9.54,24.834,21.589c-2.235,12.051-16.65,16.646-31.419,13.907
				C46.936,98.103,20.118,74.77,20.118,74.77S53.523,62.61,68.294,65.349z"/>
			<path fill="#6BC288" d="M93.129,86.938c-2.235,12.051-16.65,16.646-31.419,13.907C46.936,98.103,20.118,74.77,20.118,74.77
				L93.129,86.938z"/>
		</g>
		<g>
			<path fill="#6BC288" d="M126.051,84.544c-13.637,6.299-27.606,7.854-32.743-3.273c-5.137-11.125,3.973-23.204,17.61-29.503
				c13.64-6.297,49.014-2.749,49.014-2.749S139.692,78.246,126.051,84.544z"/>
			<path fill="#52BA70" d="M93.308,81.271c-5.137-11.125,3.973-23.204,17.61-29.503c13.64-6.297,49.014-2.749,49.014-2.749
				L93.308,81.271z"/>
		</g>
		<g>
			<path fill="#6BC288" d="M110.27,54.989c-0.059,15.022-4.552,28.338-16.808,28.29C81.207,83.231,74.111,69.87,74.17,54.848
				C74.23,39.824,92.397,9.269,92.397,9.269S110.329,39.965,110.27,54.989z"/>
			<path fill="#52BA70" d="M93.462,83.279C81.207,83.231,74.111,69.87,74.17,54.848C74.23,39.824,92.397,9.269,92.397,9.269
				L93.462,83.279z"/>
		</g>
		<g>
			<path fill="#52BA70" d="M97.271,118.999c-9.975-11.236-15.503-24.156-6.339-32.292c9.167-8.136,23.363-2.91,33.336,8.324
				c9.973,11.235,16.807,46.123,16.807,46.123S107.245,130.233,97.271,118.999z"/>
			<path fill="#6BC288" d="M141.075,141.154c0,0-33.83-10.921-43.804-22.155c-9.975-11.236-15.503-24.156-6.339-32.292
				L141.075,141.154z"/>
		</g>
		<g>
			<path fill="#8ECE9E" d="M108.126,102.307c-10.657-1.879-16.487-8.103-14.608-18.761c1.878-10.656,9.485-14.511,20.142-12.632
				c10.658,1.88,29.616,21.405,29.616,21.405S118.784,104.185,108.126,102.307z"/>
			<path fill="#B1DBC1" d="M93.518,83.545c1.878-10.656,9.485-14.511,20.142-12.632c10.658,1.88,29.616,21.405,29.616,21.405
				L93.518,83.545z"/>
		</g>
		<g>
			<path fill="#52BA70" d="M66.849,99.81c7.34-13.109,17.73-22.572,28.422-16.585c10.694,5.99,10.416,21.115,3.077,34.222
				c-7.339,13.106-38.052,31.012-38.052,31.012S59.511,112.917,66.849,99.81z"/>
			<path fill="#6BC288" d="M60.296,148.458c0,0-0.786-35.541,6.553-48.649c7.34-13.109,17.73-22.572,28.422-16.585L60.296,148.458z"
				/>
		</g>
		<path fill="#B1DBC1" d="M100.248,108.374c6.699-8.498,6.903-17.024-1.593-23.723c-8.497-6.7-16.74-4.51-23.44,3.988
			c-6.699,8.498-7.84,35.688-7.84,35.688S93.547,116.871,100.248,108.374z"/>
		<path fill="#8ECE9E" d="M98.655,84.651c-8.497-6.7-16.74-4.51-23.44,3.988c-6.699,8.498-7.84,35.688-7.84,35.688L98.655,84.651z"
			/>
		<g>
			<path fill="#B1DBC1" d="M74.969,83.996c7.861,7.437,16.334,8.409,23.771,0.551c7.439-7.861,6-16.267-1.859-23.705
				c-7.86-7.437-34.836-11.024-34.836-11.024S67.11,76.557,74.969,83.996z"/>
			<path fill="#8ECE9E" d="M98.74,84.546c7.439-7.861,6-16.267-1.859-23.705c-7.86-7.437-34.836-11.024-34.836-11.024L98.74,84.546z
				"/>
		</g>
	</g>
	<g id="phone">
		<path fill="#283E4E" d="M983.988,274.222c5.238,1.64,8.154,7.215,6.517,12.451l-17.209,55.005
			c-1.64,5.238-7.214,8.155-12.45,6.519L836.61,309.328c-5.236-1.638-8.153-7.215-6.516-12.452l17.209-55.004
			c1.64-5.237,7.214-8.155,12.449-6.517L983.988,274.222z"/>
		
			<rect x="845.125" y="254.09" transform="matrix(0.9544 0.2986 -0.2986 0.9544 127.9392 -257.0505)" fill="#FFFEFF" width="120.234" height="72.206"/>
		<circle fill="#546571" cx="971.785" cy="311.011" r="6.624"/>
		<circle fill="#7F8C95" cx="971.784" cy="311.012" r="4.37"/>
		<polygon fill="#EDF2F4" points="951.837,342.599 894.463,324.65 837.088,306.7 858.647,237.787 		"/>
	</g>
	<g id="clips_1_">
		<path id="clip_1_" fill="#EE4036" d="M111.082,214.316c-3.949,4.181,0.061,7.967,2.455,10.23l10.26,9.694
			c0.27,0.254,0.695,0.242,0.949-0.027c0.256-0.271,0.244-0.694-0.025-0.95l-10.26-9.693c-3.6-3.402-4.959-5.624-2.402-8.33
			c0.895-0.948,1.801-1.417,2.693-1.397c1.264,0.028,2.152,1.038,2.162,1.047l0.049,0.052l17.477,16.514
			c2.055,1.94,2.371,3.691,0.941,5.203c-1.469,1.556-3.313,0.562-3.629,0.373l-11.895-11.237c-3.295-3.113-3.932-4.102-2.482-5.635
			c0.42-0.444,0.855-0.658,1.338-0.658c1.01,0.002,1.906,0.947,1.916,0.956l9.313,8.801c0.27,0.256,0.695,0.243,0.949-0.027
			c0.256-0.269,0.244-0.694-0.027-0.95l-9.281-8.77c-0.02-0.024-1.258-1.345-2.857-1.354c-0.863-0.005-1.646,0.358-2.328,1.079
			c-2.564,2.713-0.313,4.841,2.539,7.536l12.033,11.354c1.037,0.686,3.5,1.455,5.389-0.545c1.955-2.07,1.594-4.659-0.992-7.103
			l-17.457-16.492c-0.201-0.224-1.375-1.44-3.109-1.487C113.503,212.464,112.253,213.075,111.082,214.316z"/>
		<path id="clip_5_" fill="#C4C6CB" d="M154.566,167.036c-5.168-2.523-7.588,2.434-9.035,5.393l-6.195,12.683
			c-0.162,0.334-0.023,0.735,0.311,0.898c0.334,0.164,0.734,0.025,0.898-0.308l6.193-12.683c2.176-4.449,3.891-6.41,7.236-4.774
			c1.172,0.572,1.891,1.296,2.137,2.153c0.35,1.215-0.348,2.366-0.355,2.377l-0.035,0.061l-10.553,21.605
			c-1.24,2.539-2.818,3.362-4.686,2.449c-1.924-0.939-1.525-2.995-1.438-3.354l7.18-14.702c1.99-4.074,2.744-4.976,4.639-4.051
			c0.551,0.269,0.885,0.622,1.027,1.081c0.299,0.966-0.336,2.104-0.342,2.114l-5.625,11.512c-0.164,0.335-0.025,0.737,0.309,0.899
			c0.334,0.164,0.734,0.025,0.898-0.309l5.605-11.473c0.016-0.026,0.908-1.603,0.441-3.132c-0.254-0.826-0.834-1.464-1.725-1.9
			c-3.355-1.639-4.715,1.144-6.436,4.668l-7.252,14.871c-0.348,1.195-0.346,3.775,2.125,4.981c2.559,1.25,4.922,0.134,6.484-3.064
			l10.541-21.58c0.152-0.257,0.965-1.74,0.492-3.41C157.057,168.797,156.1,167.785,154.566,167.036z"/>
	</g>
	<g id="clips">
		<path id="clip_2_" fill="#C4C6CB" d="M877.218,193.233c-0.875-5.683-6.326-4.843-9.584-4.341l-13.949,2.149
			c-0.367,0.057-0.618,0.399-0.563,0.767c0.057,0.367,0.399,0.617,0.767,0.562l13.95-2.151c4.895-0.752,7.482-0.462,8.051,3.218
			c0.199,1.289,0.013,2.292-0.551,2.984c-0.799,0.98-2.141,1.063-2.154,1.064l-0.07,0.006l-23.766,3.662
			c-2.792,0.431-4.367-0.396-4.684-2.451c-0.326-2.115,1.589-2.959,1.933-3.094l16.171-2.492c4.482-0.691,5.652-0.586,5.975,1.498
			c0.093,0.604-0.007,1.081-0.303,1.459c-0.622,0.796-1.919,0.925-1.932,0.926l-12.662,1.949c-0.368,0.057-0.62,0.4-0.563,0.767
			c0.055,0.367,0.397,0.618,0.767,0.562l12.619-1.944c0.03-0.001,1.835-0.168,2.825-1.426c0.533-0.678,0.727-1.519,0.575-2.499
			c-0.567-3.69-3.63-3.219-7.505-2.623l-16.351,2.53c-1.179,0.399-3.298,1.871-2.878,4.589c0.434,2.815,2.699,4.118,6.217,3.576
			l23.734-3.658c0.301-0.021,1.98-0.2,3.082-1.541C877.192,196.284,877.478,194.92,877.218,193.233z"/>
		<path id="clip_4_" fill="#EE4036" d="M873.813,160.437c-5.747,0.165-5.591,5.677-5.497,8.971l0.4,14.11
			c0.01,0.371,0.32,0.663,0.691,0.653c0.371-0.011,0.662-0.32,0.652-0.692l-0.401-14.108c-0.14-4.951,0.47-7.483,4.192-7.588
			c1.303-0.038,2.275,0.271,2.893,0.916c0.874,0.914,0.789,2.257,0.789,2.27l-0.004,0.071l0.682,24.036
			c0.082,2.824-0.934,4.286-3.013,4.344c-2.14,0.061-2.739-1.945-2.831-2.303l-0.463-16.355c-0.129-4.532,0.119-5.681,2.228-5.741
			c0.611-0.018,1.071,0.14,1.411,0.48c0.713,0.716,0.68,2.02,0.68,2.031l0.361,12.807c0.01,0.373,0.32,0.665,0.69,0.653
			c0.371-0.009,0.663-0.318,0.653-0.691l-0.361-12.764c0.002-0.031,0.061-1.841-1.064-2.979c-0.607-0.613-1.417-0.91-2.408-0.882
			c-3.732,0.105-3.645,3.202-3.534,7.122l0.479,16.538c0.25,1.22,1.447,3.504,4.197,3.426c2.848-0.081,4.421-2.167,4.32-5.725
			l-0.684-24.006c0.018-0.299,0.049-1.989-1.145-3.248C876.837,160.841,875.521,160.389,873.813,160.437z"/>
		<path id="clip_3_" fill="#C4C6CB" d="M906.394,156.824c-0.876-5.683-6.327-4.842-9.584-4.341l-13.949,2.15
			c-0.367,0.056-0.619,0.399-0.563,0.766c0.057,0.367,0.398,0.618,0.766,0.563l13.949-2.151c4.896-0.752,7.484-0.462,8.052,3.218
			c0.198,1.289,0.014,2.292-0.55,2.984c-0.799,0.981-2.142,1.063-2.154,1.064l-0.07,0.006l-23.766,3.662
			c-2.792,0.431-4.368-0.395-4.685-2.452c-0.326-2.114,1.59-2.959,1.933-3.093l16.172-2.492c4.48-0.691,5.652-0.586,5.974,1.498
			c0.093,0.604-0.007,1.081-0.302,1.459c-0.622,0.796-1.92,0.924-1.932,0.926l-12.663,1.949c-0.368,0.057-0.619,0.4-0.563,0.767
			c0.057,0.367,0.399,0.618,0.768,0.562l12.619-1.944c0.031-0.001,1.835-0.168,2.825-1.425c0.533-0.678,0.728-1.519,0.575-2.499
			c-0.567-3.691-3.629-3.219-7.506-2.622l-16.35,2.529c-1.18,0.399-3.297,1.871-2.878,4.589c0.434,2.814,2.699,4.117,6.218,3.576
			l23.734-3.658c0.301-0.021,1.98-0.2,3.082-1.54C906.368,159.875,906.653,158.512,906.394,156.824z"/>
	</g>
	<g id="card">
		<rect x="225.411" y="62.871" fill="#FFFEFF" width="135.179" height="77.481"/>
		<polyline fill="#EDF2F4" points="360.59,62.871 225.411,62.871 225.411,140.352 		"/>
	</g>
</g>
</svg>
